<svg xmlns="http://www.w3.org/2000/svg" viewBox="0 0 350 1000"><defs><style>.cls-1{fill:#f4df9c;stroke:#000;stroke-miterlimit:10;}.cls-2{fill:none;}</style></defs><g id="Layer_2" data-name="Layer 2"><g id="Items_Right" data-name="Items Right"><g id="Item_Bounding_Box-pose1" data-name="Item Bounding Box-pose1"><g id="Sekhem_Scepter_copy" data-name="Sekhem Scepter copy"><path id="sekhem_scepter_outline" data-name="sekhem scepter outline" class="cls-1" d="M113.47,636.5a.37.37,0,0,0,.22-.67c-1.15-.86-2.77-2.75-3.33-6.79-.12-.84-.54-3.34-.77-4.69a6.07,6.07,0,0,0-.55-1.72h0a1.11,1.11,0,0,1,.34-1.35,1.38,1.38,0,0,0,.52-1.09v-4.73a1.92,1.92,0,0,0-1.91-1.94h-.51V496.82a.64.64,0,0,1,.33-.57,7,7,0,0,0,2-1.49c1.63-2,2.35-7.77,3.92-11a32.6,32.6,0,0,1,6.52-7c1.94-1.17,4.24-3,7.5-4,.9-.28,2.82,0,3.59-.33.48-.21.86-2.16.65-2.6-.37-.8-2.23-1.4-2.28-1.33s-6.76-40.89-7.83-60.54c-.64-11.78-.63-48.92.07-65.2.15-3.5,1-14,1-14a2.77,2.77,0,0,0-2.74-2.82H88.66a2.78,2.78,0,0,0-2.75,2.82s.87,10.49,1,14c.7,16.28.71,53.42.07,65.2-1.07,19.65-7.83,60.54-7.83,60.54s-1.91.53-2.29,1.33c-.2.44.18,2.39.66,2.6.77.33,2.69,0,3.58.33,3.27,1,5.57,2.82,7.51,4a32.6,32.6,0,0,1,6.52,7c1.57,3.2,2.28,9,3.92,11a7,7,0,0,0,2,1.49.64.64,0,0,1,.33.57v116.7h-.52a1.92,1.92,0,0,0-1.9,1.94v4.73a1.38,1.38,0,0,0,.52,1.09,1.11,1.11,0,0,1,.34,1.35h0a6.09,6.09,0,0,0-.56,1.72c-.22,1.35-.64,3.85-.76,4.69-.59,4.2-2.31,6.08-3.46,6.89a.31.31,0,0,0,.18.57Z"/></g><rect id="Item_Bounding_Box" data-name="Item Bounding Box" class="cls-2" width="350" height="1000"/></g></g></g></svg>