<svg xmlns="http://www.w3.org/2000/svg" viewBox="0 0 350 1000"><defs><style>.cls-1{fill:#7c001a;}.cls-1,.cls-2{stroke:#161616;stroke-miterlimit:10;}.cls-2,.cls-3{fill:none;}</style></defs><g id="Layer_2" data-name="Layer 2"><g id="Items_Right" data-name="Items Right"><g id="Item_Bounding_Box-pose1" data-name="Item Bounding Box-pose1"><g id="Knife"><path id="knife-2" data-name="knife" class="cls-1" d="M87.17,620.5l17-1.65s-8-5,11.22-35.32c3-4.68,11.31-13.46,16.6-15.1,9-2.78,29.74,2.83,37.57-2.39,37.13-24.77,75.62-85.89,80-107.61.2-1-.45-1.86-1.25-1.19,0,0-41.58,49.32-96.66,83.27-9.83,6.06-30.14,19.84-37.73,29.43-2.47,3.12-5.25,11.31-8.3,14C95,593.33,87.17,620.5,87.17,620.5Z"/><path id="knife_line" data-name="knife line" class="cls-2" d="M124.89,573c8.56-18.11,58.36-32.45,92.09-75.84"/></g><rect id="Item_Bounding_Box" data-name="Item Bounding Box" class="cls-3" width="350" height="1000"/></g></g></g></svg>