<svg xmlns="http://www.w3.org/2000/svg" xmlns:xlink="http://www.w3.org/1999/xlink" viewBox="0 0 350 1000"><defs><style>.cls-1{fill:none;}.cls-2{clip-path:url(#clip-path);}.cls-3{fill:#fdfd99;}</style><clipPath id="clip-path"><path class="cls-1" d="M101.09,684,101,371.23a1.41,1.41,0,0,0-.91-1.32c-4.15-1.56-12.93-5.73-25-16.13-7.74-6.66-10.74-14-9.2-22.46l.13-.73c1.07-5.92,2.28-12.64,12.68-22.7,10.8-10.44,21.27-9.83,25.74-9.57l.28,0c3.45.19,9.21,2.12,17,10.19,5.94,6.12,5.14,14.41,4.21,24a106.65,106.65,0,0,0-.73,15.25c0,.48,0,1,0,1.56-.1,2.33-.17,4,2.93,5.52L126,359.36c-6-2.95-5.84-7.68-5.74-10.22,0-.41,0-.79,0-1.14a112.09,112.09,0,0,1,.74-15.94c.84-8.71,1.51-15.59-2.82-20.05-7.33-7.54-12-8.59-13.73-8.68l-.3,0c-4.45-.26-12.74-.74-22,8.17S72,325.79,71,331.48l-.13.74C69.6,339,71.92,344.44,78.37,350c11.5,9.9,19.66,13.8,23.51,15.24a6.44,6.44,0,0,1,4.15,6L106.09,684Z"/></clipPath></defs><g id="Layer_2" data-name="Layer 2"><g id="Items_Right" data-name="Items Right"><g id="Item_Bounding_Box-pose1" data-name="Item Bounding Box-pose1"><g id="Crook_experiment" data-name="Crook experiment"><g class="cls-2"><rect x="124.19" y="353.69" width="5" height="6" transform="translate(-205.43 175.1) rotate(-41.78)"/><rect class="cls-3" x="120.2" y="349.22" width="5" height="6" transform="translate(-203.46 171.3) rotate(-41.78)"/><rect x="120.29" y="344.34" width="5" height="6" transform="translate(16.08 -5.27) rotate(2.63)"/><rect class="cls-3" x="120.57" y="338.34" width="5" height="6" transform="translate(15.81 -5.29) rotate(2.63)"/><rect x="120.79" y="333.55" width="5" height="6" transform="translate(15.59 -5.31) rotate(2.63)"/><rect class="cls-3" x="121.06" y="327.55" width="5" height="6" transform="translate(15.31 -5.33) rotate(2.63)"/><rect x="121.26" y="322.76" width="5" height="6" transform="translate(14.1 -5.01) rotate(2.46)"/><rect class="cls-3" x="121.52" y="316.76" width="5" height="6" transform="translate(13.84 -5.03) rotate(2.46)"/><rect x="119.6" y="312.35" width="5" height="6" transform="translate(-111.99 71.31) rotate(-22.64)"/><rect class="cls-3" x="117.29" y="306.81" width="5" height="6" transform="translate(-110.04 70) rotate(-22.64)"/><rect x="113.32" y="303.99" width="5" height="6" transform="translate(-196.92 207.74) rotate(-51.72)"/><rect class="cls-3" x="108.61" y="300.27" width="5" height="6" transform="translate(-195.79 202.63) rotate(-51.72)"/><rect x="104.32" y="297.84" width="5" height="6" transform="translate(-194.29 406.91) rotate(-89.86)"/><rect class="cls-3" x="98.32" y="297.82" width="5" height="6" transform="translate(-200.26 400.89) rotate(-89.86)"/><rect x="93.6" y="298.47" width="5" height="6" transform="translate(-172.62 468.53) rotate(-104.19)"/><rect class="cls-3" x="87.78" y="299.94" width="5" height="6" transform="translate(-181.29 464.72) rotate(-104.19)"/><rect x="83.83" y="302.66" width="5" height="6" transform="translate(-116.9 549.75) rotate(-124.45)"/><rect class="cls-3" x="78.88" y="306.06" width="5" height="6" transform="translate(-127.44 550.99) rotate(-124.45)"/><rect x="75.73" y="309.62" width="5" height="6" transform="translate(-48.4 608.96) rotate(-142.81)"/><rect class="cls-3" x="72.1" y="314.4" width="5" height="6" transform="translate(-57.8 615.36) rotate(-142.81)"/><rect x="68.8" y="318.03" width="5" height="6" transform="translate(55.52 649.5) rotate(-164.73)"/><rect class="cls-3" x="67.22" y="323.82" width="5" height="6" transform="translate(50.89 660.46) rotate(-164.73)"/><rect x="65.82" y="328.44" width="5" height="6" transform="translate(179.28 651.14) rotate(172.51)"/><rect class="cls-3" x="66.61" y="334.39" width="5" height="6" transform="translate(181.61 662.88) rotate(172.51)"/><rect x="66.49" y="339.47" width="5" height="6" transform="translate(339.96 562.97) rotate(140.52)"/><rect class="cls-3" x="70.3" y="344.1" width="5" height="6" transform="translate(349.66 568.75) rotate(140.52)"/><rect x="73.12" y="348.06" width="5" height="6" transform="translate(403.12 498.36) rotate(126.37)"/><rect class="cls-3" x="77.95" y="351.61" width="5" height="6" transform="translate(413.68 500.13) rotate(126.37)"/><rect x="81.81" y="354.46" width="5" height="6" transform="translate(422.13 501.56) rotate(126.37)"/><rect class="cls-3" x="86.64" y="358.02" width="5" height="6" transform="translate(432.69 503.33) rotate(126.37)"/><rect x="90.64" y="360.65" width="5" height="6" transform="translate(460.09 442.79) rotate(116.54)"/><rect class="cls-3" x="96.01" y="363.33" width="5" height="6" transform="translate(470.25 441.87) rotate(116.54)"/><rect x="100.14" y="365.94" width="5" height="6" transform="translate(310.48 690.57) rotate(162.67)"/><rect class="cls-3" x="101.92" y="371.66" width="5" height="6" transform="translate(315.68 701.23) rotate(162.67)"/><rect x="101.03" y="376.6" width="5" height="6" transform="translate(207.14 759.18) rotate(179.99)"/><rect class="cls-3" x="101.03" y="382.6" width="5" height="6" transform="translate(207.14 771.18) rotate(179.99)"/><rect x="101.03" y="387.4" width="5" height="6" transform="translate(207.14 780.78) rotate(179.99)"/><rect class="cls-3" x="101.03" y="393.4" width="5" height="6" transform="translate(207.15 792.78) rotate(179.99)"/><rect x="101.03" y="398.2" width="5" height="6" transform="translate(207.15 802.38) rotate(179.99)"/><rect class="cls-3" x="101.04" y="404.2" width="5" height="6" transform="translate(207.15 814.38) rotate(179.99)"/><rect x="101.04" y="409" width="5" height="6" transform="translate(207.16 823.98) rotate(179.99)"/><rect class="cls-3" x="101.04" y="415" width="5" height="6" transform="translate(207.16 835.98) rotate(179.99)"/><rect x="101.04" y="419.8" width="5" height="6" transform="translate(207.16 845.58) rotate(179.99)"/><rect class="cls-3" x="101.04" y="425.8" width="5" height="6" transform="translate(207.17 857.58) rotate(179.99)"/><rect x="101.04" y="430.6" width="5" height="6" transform="translate(207.17 867.18) rotate(179.99)"/><rect class="cls-3" x="101.04" y="436.6" width="5" height="6" transform="translate(207.17 879.18) rotate(179.99)"/><rect x="101.04" y="441.4" width="5" height="6" transform="translate(207.18 888.78) rotate(179.99)"/><rect class="cls-3" x="101.04" y="447.4" width="5" height="6" transform="translate(207.18 900.78) rotate(179.99)"/><rect x="101.05" y="452.2" width="5" height="6" transform="translate(207.18 910.38) rotate(179.99)"/><rect class="cls-3" x="101.05" y="458.2" width="5" height="6" transform="translate(207.19 922.38) rotate(179.99)"/><rect x="101.05" y="463" width="5" height="6" transform="translate(207.19 931.98) rotate(179.99)"/><rect class="cls-3" x="101.05" y="469" width="5" height="6" transform="translate(207.19 943.98) rotate(179.99)"/><rect x="101.05" y="473.8" width="5" height="6" transform="translate(207.2 953.58) rotate(179.99)"/><rect class="cls-3" x="101.05" y="479.8" width="5" height="6" transform="translate(207.2 965.58) rotate(179.99)"/><rect x="101.05" y="484.6" width="5" height="6" transform="translate(207.2 975.18) rotate(179.99)"/><rect class="cls-3" x="101.05" y="490.6" width="5" height="6" transform="translate(207.21 987.18) rotate(179.99)"/><rect x="101.05" y="495.4" width="5" height="6" transform="translate(207.21 996.78) rotate(179.99)"/><rect class="cls-3" x="101.06" y="501.4" width="5" height="6" transform="translate(207.21 1008.78) rotate(179.99)"/><rect x="101.06" y="506.2" width="5" height="6" transform="translate(207.22 1018.38) rotate(179.99)"/><rect class="cls-3" x="101.06" y="512.2" width="5" height="6" transform="translate(207.22 1030.38) rotate(179.99)"/><rect x="101.06" y="517" width="5" height="6" transform="translate(207.22 1039.98) rotate(179.99)"/><rect class="cls-3" x="101.06" y="523" width="5" height="6" transform="translate(207.23 1051.98) rotate(179.99)"/><rect x="101.06" y="527.8" width="5" height="6" transform="translate(207.23 1061.58) rotate(179.99)"/><rect class="cls-3" x="101.06" y="533.8" width="5" height="6" transform="translate(207.23 1073.58) rotate(179.99)"/><rect x="101.06" y="538.6" width="5" height="6" transform="translate(207.24 1083.18) rotate(179.99)"/><rect class="cls-3" x="101.06" y="544.6" width="5" height="6" transform="translate(207.24 1095.18) rotate(179.99)"/><rect x="101.07" y="549.4" width="5" height="6" transform="translate(207.24 1104.78) rotate(179.99)"/><rect class="cls-3" x="101.07" y="555.4" width="5" height="6" transform="translate(207.25 1116.78) rotate(179.99)"/><rect x="101.07" y="560.2" width="5" height="6" transform="translate(207.25 1126.38) rotate(179.99)"/><rect class="cls-3" x="101.07" y="566.2" width="5" height="6" transform="translate(207.25 1138.38) rotate(179.99)"/><rect x="101.07" y="571" width="5" height="6" transform="translate(207.26 1147.98) rotate(179.99)"/><rect class="cls-3" x="101.07" y="577" width="5" height="6" transform="translate(207.26 1159.98) rotate(179.99)"/><rect x="101.07" y="581.8" width="5" height="6" transform="translate(207.26 1169.58) rotate(179.99)"/><rect class="cls-3" x="101.07" y="587.8" width="5" height="6" transform="translate(207.27 1181.58) rotate(179.99)"/><rect x="101.07" y="592.6" width="5" height="6" transform="translate(207.27 1191.18) rotate(179.99)"/><rect class="cls-3" x="101.08" y="598.6" width="5" height="6" transform="translate(207.27 1203.18) rotate(179.99)"/><rect x="101.08" y="603.4" width="5" height="6" transform="translate(207.27 1212.78) rotate(179.99)"/><rect class="cls-3" x="101.08" y="609.4" width="5" height="6" transform="translate(207.28 1224.78) rotate(179.99)"/><rect x="101.08" y="614.2" width="5" height="6" transform="translate(207.28 1234.38) rotate(179.99)"/><rect class="cls-3" x="101.08" y="620.2" width="5" height="6" transform="translate(207.29 1246.38) rotate(179.99)"/><rect x="101.08" y="625" width="5" height="6" transform="translate(207.29 1255.98) rotate(179.99)"/><rect class="cls-3" x="101.08" y="631" width="5" height="6" transform="translate(207.29 1267.98) rotate(179.99)"/><rect x="101.08" y="635.8" width="5" height="6" transform="translate(207.29 1277.58) rotate(179.99)"/><rect class="cls-3" x="101.08" y="641.8" width="5" height="6" transform="translate(207.3 1289.58) rotate(179.99)"/><rect x="101.08" y="646.6" width="5" height="6" transform="translate(207.3 1299.18) rotate(179.99)"/><rect class="cls-3" x="101.09" y="652.6" width="5" height="6" transform="translate(207.3 1311.18) rotate(179.99)"/><rect x="101.09" y="657.4" width="5" height="6" transform="translate(207.31 1320.78) rotate(179.99)"/><rect class="cls-3" x="101.09" y="663.4" width="5" height="6" transform="translate(207.31 1332.78) rotate(179.99)"/><rect x="101.09" y="668.2" width="5" height="6" transform="translate(207.31 1342.38) rotate(179.99)"/><rect class="cls-3" x="101.09" y="674.2" width="5" height="6" transform="translate(207.32 1354.38) rotate(179.99)"/><rect x="101.09" y="679" width="5" height="6" transform="translate(207.32 1363.98) rotate(179.99)"/><rect class="cls-3" x="101.09" y="685" width="5" height="6" transform="translate(207.32 1375.98) rotate(179.99)"/></g></g><rect id="Item_Bounding_Box" data-name="Item Bounding Box" class="cls-1" width="350" height="1000"/></g></g></g></svg>