<svg xmlns="http://www.w3.org/2000/svg" viewBox="0 0 325 867"><defs><style>.cls-1{fill:none;}.cls-2{fill:#f4df9c;stroke:#000;stroke-miterlimit:10;}</style></defs><g id="Layer_2" data-name="Layer 2"><g id="Items_Right" data-name="Items Right"><g id="Item_Bounding_Box-pose4_6" data-name="Item Bounding Box-pose4/6"><rect class="cls-1" width="325" height="867"/><g id="Sekhem_Scepter_copy_4" data-name="Sekhem Scepter copy 4"><path id="sekhem_scepter_outline" data-name="sekhem scepter outline" class="cls-2" d="M102.74,324a.38.38,0,0,0,.6-.38c-.34-1.4-.37-3.89,1.77-7.35.45-.72,1.72-2.91,2.41-4.1a6.15,6.15,0,0,0,.67-1.67h0a1.12,1.12,0,0,1,1.12-.83,1.39,1.39,0,0,0,1.1-.51l3-3.63a1.93,1.93,0,0,0-.22-2.72l-.4-.33,74.52-89.8a.66.66,0,0,1,.62-.23,6.89,6.89,0,0,0,2.45.1c2.53-.49,6.77-4.48,10-5.94a32.55,32.55,0,0,1,9.48-1.21c2.24.34,5.18.4,8.33,1.72.86.36,2.16,1.8,3,2,.5.15,2-1.11,2.16-1.58a3.82,3.82,0,0,0-.91-2.48s20.91-35.78,32.64-51.59c7-9.48,30.75-38,41.68-50.13,2.36-2.6,9.72-10.12,9.72-10.12a2.77,2.77,0,0,0-.31-3.92l-10.72-8.9L281.93,69.22a2.78,2.78,0,0,0-3.92.41s-6,8.63-8.14,11.42c-9.86,13-33.57,41.56-41.59,50.21-13.37,14.44-44.68,41.59-44.68,41.59a4,4,0,0,0-2.61-.43c-.44.21-1.39,2-1.16,2.41.38.76,2,1.77,2.55,2.55,1.88,2.85,2.48,5.73,3.23,7.86a33.26,33.26,0,0,1,.56,9.55c-.84,3.47-4,8.37-4,10.94a7.32,7.32,0,0,0,.55,2.4.64.64,0,0,1-.11.65l-74.52,89.8-.39-.33a1.93,1.93,0,0,0-2.71.28l-3,3.64a1.41,1.41,0,0,0-.3,1.17,1.09,1.09,0,0,1-.6,1.25h0a6.54,6.54,0,0,0-1.52,1c-1,.9-3,2.56-3.59,3.13-3.13,2.85-5.65,3.2-7.06,3.09a.31.31,0,0,0-.22.55Z"/></g></g></g></g></svg>