<svg xmlns="http://www.w3.org/2000/svg" xmlns:xlink="http://www.w3.org/1999/xlink" viewBox="0 0 325 867"><defs><style>.cls-1,.cls-10,.cls-15,.cls-16,.cls-17{fill:none;}.cls-2{clip-path:url(#clip-path);}.cls-3{fill:#2f59ac;}.cls-4{fill:#fdfdac;}.cls-5{fill:#59d583;}.cls-6{clip-path:url(#clip-path-2);}.cls-7{clip-path:url(#clip-path-3);}.cls-8{fill:#b62f4b;}.cls-9{clip-path:url(#clip-path-4);}.cls-10,.cls-16{stroke:#cd9933;}.cls-10{stroke-width:0.72px;}.cls-11{fill:#fdfd99;}.cls-11,.cls-13,.cls-14{stroke:#000;}.cls-11,.cls-13,.cls-14,.cls-15,.cls-16,.cls-17{stroke-miterlimit:10;}.cls-12{fill:url(#yellow_ochre_lines_10_);}.cls-13{fill:url(#New_Pattern_6);}.cls-14{fill:url(#yellow_ochre_lines_10_3);}.cls-15{stroke:#161616;}.cls-17{stroke:#039;stroke-width:4px;}</style><clipPath id="clip-path"><rect class="cls-1" x="24.61" y="41.43" width="38.25" height="53"/></clipPath><clipPath id="clip-path-2"><rect class="cls-1" x="-13.11" y="41.43" width="38.25" height="53"/></clipPath><clipPath id="clip-path-3"><rect class="cls-1" x="24.61" y="-5.82" width="38.25" height="53"/></clipPath><clipPath id="clip-path-4"><rect class="cls-1" x="-13.11" y="-5.82" width="38.25" height="53"/></clipPath><pattern id="yellow_ochre_lines_10_" data-name="yellow ochre lines 10%" width="72" height="72" patternTransform="matrix(-0.22, -0.39, -0.26, 0.15, 21.84, 118.55)" patternUnits="userSpaceOnUse" viewBox="0 0 72 72"><rect class="cls-1" width="72" height="72"/><line class="cls-10" x1="71.75" y1="68.4" x2="144.25" y2="68.4"/><line class="cls-10" x1="71.75" y1="54" x2="144.25" y2="54"/><line class="cls-10" x1="71.75" y1="39.6" x2="144.25" y2="39.6"/><line class="cls-10" x1="71.75" y1="25.2" x2="144.25" y2="25.2"/><line class="cls-10" x1="71.75" y1="10.8" x2="144.25" y2="10.8"/><line class="cls-10" x1="71.75" y1="61.2" x2="144.25" y2="61.2"/><line class="cls-10" x1="71.75" y1="46.8" x2="144.25" y2="46.8"/><line class="cls-10" x1="71.75" y1="32.4" x2="144.25" y2="32.4"/><line class="cls-10" x1="71.75" y1="18" x2="144.25" y2="18"/><line class="cls-10" x1="71.75" y1="3.6" x2="144.25" y2="3.6"/><line class="cls-10" x1="-0.25" y1="68.4" x2="72.25" y2="68.4"/><line class="cls-10" x1="-0.25" y1="54" x2="72.25" y2="54"/><line class="cls-10" x1="-0.25" y1="39.6" x2="72.25" y2="39.6"/><line class="cls-10" x1="-0.25" y1="25.2" x2="72.25" y2="25.2"/><line class="cls-10" x1="-0.25" y1="10.8" x2="72.25" y2="10.8"/><line class="cls-10" x1="-0.25" y1="61.2" x2="72.25" y2="61.2"/><line class="cls-10" x1="-0.25" y1="46.8" x2="72.25" y2="46.8"/><line class="cls-10" x1="-0.25" y1="32.4" x2="72.25" y2="32.4"/><line class="cls-10" x1="-0.25" y1="18" x2="72.25" y2="18"/><line class="cls-10" x1="-0.25" y1="3.6" x2="72.25" y2="3.6"/><line class="cls-10" x1="-72.25" y1="68.4" x2="0.25" y2="68.4"/><line class="cls-10" x1="-72.25" y1="54" x2="0.25" y2="54"/><line class="cls-10" x1="-72.25" y1="39.6" x2="0.25" y2="39.6"/><line class="cls-10" x1="-72.25" y1="25.2" x2="0.25" y2="25.2"/><line class="cls-10" x1="-72.25" y1="10.8" x2="0.25" y2="10.8"/><line class="cls-10" x1="-72.25" y1="61.2" x2="0.25" y2="61.2"/><line class="cls-10" x1="-72.25" y1="46.8" x2="0.25" y2="46.8"/><line class="cls-10" x1="-72.25" y1="32.4" x2="0.25" y2="32.4"/><line class="cls-10" x1="-72.25" y1="18" x2="0.25" y2="18"/><line class="cls-10" x1="-72.25" y1="3.6" x2="0.25" y2="3.6"/></pattern><pattern id="New_Pattern_6" data-name="New Pattern 6" width="37.72" height="47.24" patternTransform="matrix(-0.98, -0.19, -0.19, 0.98, 49.23, -82.35)" patternUnits="userSpaceOnUse" viewBox="0 0 37.72 47.24"><rect class="cls-1" width="37.72" height="47.24"/><g class="cls-2"><polygon class="cls-3" points="62.71 58.35 50.14 70.78 37.71 58.21 50.28 45.78 62.71 58.35"/><polygon class="cls-3" points="50.21 58.28 37.64 70.71 25.21 58.14 37.78 45.71 50.21 58.28"/><polygon class="cls-3" points="37.71 58.21 25.14 70.64 12.71 58.07 25.28 45.64 37.71 58.21"/><polygon class="cls-4" points="62.43 52.67 49.86 65.1 37.43 52.53 50 40.1 62.43 52.67"/><polygon class="cls-4" points="49.93 52.6 37.36 65.03 24.93 52.46 37.5 40.03 49.93 52.6"/><polygon class="cls-4" points="37.43 52.53 24.86 64.96 12.43 52.39 25 39.96 37.43 52.53"/><polygon class="cls-5" points="62.22 46.96 49.65 59.39 37.22 46.82 49.79 34.39 62.22 46.96"/><polygon class="cls-5" points="49.72 46.89 37.15 59.32 24.72 46.75 37.29 34.32 49.72 46.89"/><polygon class="cls-5" points="37.22 46.82 24.65 59.25 12.22 46.68 24.79 34.25 37.22 46.82"/><polygon class="cls-4" points="62.17 41.11 49.6 53.54 37.17 40.97 49.74 28.54 62.17 41.11"/><polygon class="cls-4" points="49.67 41.04 37.1 53.47 24.67 40.9 37.24 28.47 49.67 41.04"/><polygon class="cls-4" points="37.17 40.97 24.6 53.4 12.17 40.83 24.74 28.4 37.17 40.97"/></g><g class="cls-6"><polygon class="cls-3" points="37.49 58.42 24.92 70.85 12.49 58.28 25.06 45.85 37.49 58.42"/><polygon class="cls-3" points="24.99 58.35 12.42 70.78 -0.01 58.21 12.56 45.78 24.99 58.35"/><polygon class="cls-3" points="12.49 58.28 -0.08 70.71 -12.51 58.14 0.06 45.71 12.49 58.28"/><polygon class="cls-4" points="37.21 52.74 24.64 65.17 12.21 52.6 24.78 40.17 37.21 52.74"/><polygon class="cls-4" points="24.71 52.67 12.14 65.1 -0.29 52.53 12.28 40.1 24.71 52.67"/><polygon class="cls-4" points="12.21 52.6 -0.36 65.03 -12.79 52.46 -0.22 40.03 12.21 52.6"/><polygon class="cls-5" points="37 47.03 24.43 59.46 12 46.89 24.57 34.46 37 47.03"/><polygon class="cls-5" points="24.5 46.96 11.93 59.39 -0.5 46.82 12.07 34.39 24.5 46.96"/><polygon class="cls-5" points="12 46.89 -0.57 59.32 -13 46.75 -0.43 34.32 12 46.89"/><polygon class="cls-4" points="36.95 41.18 24.38 53.61 11.95 41.04 24.52 28.61 36.95 41.18"/><polygon class="cls-4" points="24.45 41.11 11.88 53.54 -0.55 40.97 12.02 28.54 24.45 41.11"/><polygon class="cls-4" points="11.95 41.04 -0.62 53.47 -13.05 40.9 -0.48 28.47 11.95 41.04"/></g><g class="cls-7"><polygon class="cls-3" points="50.42 34.67 37.85 47.1 25.42 34.53 37.99 22.11 50.42 34.67"/><polygon class="cls-3" points="37.92 34.6 25.35 47.03 12.92 34.47 25.49 22.04 37.92 34.6"/><polygon class="cls-4" points="50.44 28.16 37.87 40.59 25.44 28.02 38.01 15.59 50.44 28.16"/><polygon class="cls-4" points="37.94 28.09 25.37 40.52 12.94 27.95 25.51 15.52 37.94 28.09"/><polygon class="cls-8" points="50.23 22.45 37.66 34.88 25.23 22.31 37.8 9.88 50.23 22.45"/><polygon class="cls-8" points="37.73 22.38 25.16 34.81 12.73 22.24 25.3 9.81 37.73 22.38"/><polygon class="cls-4" points="50.42 16.75 37.85 29.18 25.42 16.61 37.99 4.18 50.42 16.75"/><polygon class="cls-4" points="37.92 16.68 25.35 29.11 12.92 16.54 25.49 4.11 37.92 16.68"/><polygon class="cls-3" points="62.71 11.11 50.14 23.54 37.71 10.97 50.28 -1.46 62.71 11.11"/><polygon class="cls-3" points="50.21 11.04 37.64 23.47 25.21 10.9 37.78 -1.53 50.21 11.04"/><polygon class="cls-3" points="37.71 10.97 25.14 23.4 12.71 10.83 25.28 -1.6 37.71 10.97"/><polygon class="cls-4" points="62.43 5.43 49.86 17.86 37.43 5.29 50 -7.14 62.43 5.43"/><polygon class="cls-4" points="49.93 5.36 37.36 17.79 24.93 5.22 37.5 -7.21 49.93 5.36"/><polygon class="cls-4" points="37.43 5.29 24.86 17.72 12.43 5.15 25 -7.28 37.43 5.29"/><polygon class="cls-5" points="62.22 -0.28 49.65 12.14 37.22 -0.42 49.79 -12.85 62.22 -0.28"/><polygon class="cls-5" points="49.72 -0.35 37.15 12.07 24.72 -0.49 37.29 -12.92 49.72 -0.35"/><polygon class="cls-5" points="37.22 -0.42 24.65 12.01 12.22 -0.56 24.79 -12.99 37.22 -0.42"/><polygon class="cls-4" points="62.17 -6.13 49.6 6.3 37.17 -6.27 49.74 -18.7 62.17 -6.13"/><polygon class="cls-4" points="49.67 -6.2 37.1 6.23 24.67 -6.34 37.24 -18.77 49.67 -6.2"/><polygon class="cls-4" points="37.17 -6.27 24.6 6.16 12.17 -6.41 24.74 -18.84 37.17 -6.27"/></g><g class="cls-9"><polygon class="cls-3" points="37.7 34.81 25.13 47.24 12.7 34.67 25.27 22.25 37.7 34.81"/><polygon class="cls-3" points="25.2 34.74 12.63 47.17 0.2 34.6 12.77 22.18 25.2 34.74"/><polygon class="cls-3" points="12.7 34.67 0.13 47.1 -12.3 34.53 0.27 22.11 12.7 34.67"/><polygon class="cls-3" points="0.2 34.6 -12.37 47.03 -24.8 34.47 -12.23 22.04 0.2 34.6"/><polygon class="cls-4" points="37.72 28.3 25.15 40.73 12.72 28.16 25.29 15.73 37.72 28.3"/><polygon class="cls-4" points="25.22 28.23 12.65 40.66 0.22 28.09 12.79 15.66 25.22 28.23"/><polygon class="cls-4" points="12.72 28.16 0.15 40.59 -12.28 28.02 0.29 15.59 12.72 28.16"/><polygon class="cls-4" points="0.22 28.09 -12.35 40.52 -24.78 27.95 -12.21 15.52 0.22 28.09"/><polygon class="cls-8" points="37.51 22.59 24.94 35.02 12.51 22.45 25.08 10.02 37.51 22.59"/><polygon class="cls-8" points="25.01 22.52 12.44 34.95 0.01 22.38 12.58 9.95 25.01 22.52"/><polygon class="cls-8" points="12.51 22.45 -0.06 34.88 -12.49 22.31 0.08 9.88 12.51 22.45"/><polygon class="cls-8" points="0.01 22.38 -12.56 34.81 -24.99 22.24 -12.42 9.81 0.01 22.38"/><polygon class="cls-4" points="37.7 16.89 25.13 29.32 12.7 16.75 25.27 4.32 37.7 16.89"/><polygon class="cls-4" points="25.2 16.82 12.63 29.25 0.2 16.68 12.77 4.25 25.2 16.82"/><polygon class="cls-4" points="12.7 16.75 0.13 29.18 -12.3 16.61 0.27 4.18 12.7 16.75"/><polygon class="cls-4" points="0.2 16.68 -12.37 29.11 -24.8 16.54 -12.23 4.11 0.2 16.68"/><polygon class="cls-3" points="37.49 11.18 24.92 23.61 12.49 11.04 25.06 -1.39 37.49 11.18"/><polygon class="cls-3" points="24.99 11.11 12.42 23.54 -0.01 10.97 12.56 -1.46 24.99 11.11"/><polygon class="cls-3" points="12.49 11.04 -0.08 23.47 -12.51 10.9 0.06 -1.53 12.49 11.04"/><polygon class="cls-3" points="-0.01 10.97 -12.58 23.4 -25.01 10.83 -12.44 -1.6 -0.01 10.97"/><polygon class="cls-4" points="37.21 5.5 24.64 17.93 12.21 5.36 24.78 -7.07 37.21 5.5"/><polygon class="cls-4" points="24.71 5.43 12.14 17.86 -0.29 5.29 12.28 -7.14 24.71 5.43"/><polygon class="cls-4" points="12.21 5.36 -0.36 17.79 -12.79 5.22 -0.22 -7.21 12.21 5.36"/><polygon class="cls-4" points="-0.29 5.29 -12.86 17.72 -25.29 5.15 -12.72 -7.28 -0.29 5.29"/><polygon class="cls-5" points="37 -0.21 24.43 12.21 12 -0.35 24.57 -12.78 37 -0.21"/><polygon class="cls-5" points="24.5 -0.28 11.93 12.14 -0.5 -0.42 12.07 -12.85 24.5 -0.28"/><polygon class="cls-5" points="12 -0.35 -0.57 12.07 -13 -0.49 -0.43 -12.92 12 -0.35"/><polygon class="cls-5" points="-0.5 -0.42 -13.07 12.01 -25.5 -0.56 -12.93 -12.99 -0.5 -0.42"/><polygon class="cls-4" points="36.95 -6.06 24.38 6.37 11.95 -6.2 24.52 -18.63 36.95 -6.06"/><polygon class="cls-4" points="24.45 -6.13 11.88 6.3 -0.55 -6.27 12.02 -18.7 24.45 -6.13"/><polygon class="cls-4" points="11.95 -6.2 -0.62 6.23 -13.05 -6.34 -0.48 -18.77 11.95 -6.2"/><polygon class="cls-4" points="-0.55 -6.27 -13.12 6.16 -25.55 -6.41 -12.98 -18.84 -0.55 -6.27"/></g></pattern><pattern id="yellow_ochre_lines_10_3" data-name="yellow ochre lines 10%" width="72" height="72" patternTransform="matrix(-0.76, -0.12, 0.03, 0.59, -77.56, -139.45)" patternUnits="userSpaceOnUse" viewBox="0 0 72 72"><rect class="cls-1" width="72" height="72"/><line class="cls-10" x1="71.75" y1="68.4" x2="144.25" y2="68.4"/><line class="cls-10" x1="71.75" y1="54" x2="144.25" y2="54"/><line class="cls-10" x1="71.75" y1="39.6" x2="144.25" y2="39.6"/><line class="cls-10" x1="71.75" y1="25.2" x2="144.25" y2="25.2"/><line class="cls-10" x1="71.75" y1="10.8" x2="144.25" y2="10.8"/><line class="cls-10" x1="71.75" y1="61.2" x2="144.25" y2="61.2"/><line class="cls-10" x1="71.75" y1="46.8" x2="144.25" y2="46.8"/><line class="cls-10" x1="71.75" y1="32.4" x2="144.25" y2="32.4"/><line class="cls-10" x1="71.75" y1="18" x2="144.25" y2="18"/><line class="cls-10" x1="71.75" y1="3.6" x2="144.25" y2="3.6"/><line class="cls-10" x1="-0.25" y1="68.4" x2="72.25" y2="68.4"/><line class="cls-10" x1="-0.25" y1="54" x2="72.25" y2="54"/><line class="cls-10" x1="-0.25" y1="39.6" x2="72.25" y2="39.6"/><line class="cls-10" x1="-0.25" y1="25.2" x2="72.25" y2="25.2"/><line class="cls-10" x1="-0.25" y1="10.8" x2="72.25" y2="10.8"/><line class="cls-10" x1="-0.25" y1="61.2" x2="72.25" y2="61.2"/><line class="cls-10" x1="-0.25" y1="46.8" x2="72.25" y2="46.8"/><line class="cls-10" x1="-0.25" y1="32.4" x2="72.25" y2="32.4"/><line class="cls-10" x1="-0.25" y1="18" x2="72.25" y2="18"/><line class="cls-10" x1="-0.25" y1="3.6" x2="72.25" y2="3.6"/><line class="cls-10" x1="-72.25" y1="68.4" x2="0.25" y2="68.4"/><line class="cls-10" x1="-72.25" y1="54" x2="0.25" y2="54"/><line class="cls-10" x1="-72.25" y1="39.6" x2="0.25" y2="39.6"/><line class="cls-10" x1="-72.25" y1="25.2" x2="0.25" y2="25.2"/><line class="cls-10" x1="-72.25" y1="10.8" x2="0.25" y2="10.8"/><line class="cls-10" x1="-72.25" y1="61.2" x2="0.25" y2="61.2"/><line class="cls-10" x1="-72.25" y1="46.8" x2="0.25" y2="46.8"/><line class="cls-10" x1="-72.25" y1="32.4" x2="0.25" y2="32.4"/><line class="cls-10" x1="-72.25" y1="18" x2="0.25" y2="18"/><line class="cls-10" x1="-72.25" y1="3.6" x2="0.25" y2="3.6"/></pattern></defs><g id="Layer_2" data-name="Layer 2"><g id="Items_Right" data-name="Items Right"><g id="Item_Bounding_Box-pose4_6" data-name="Item Bounding Box-pose4/6"><rect class="cls-1" width="325" height="867"/><g id="Flail"><polygon class="cls-11" points="245.92 131.95 248.45 140.62 99.75 312.65 94.47 308.11 245.92 131.95"/><polygon class="cls-12" points="246.48 132.12 248.11 140.02 99.48 312.11 95.03 308.27 246.48 132.12"/><path class="cls-11" d="M257.68,117.58,213,385.9a1.8,1.8,0,0,1-2.16,1.46l-40.52-8.76a1.71,1.71,0,0,1-1.27-2.18L246.59,131"/><path class="cls-13" d="M241.85,212.61,213,386a1.71,1.71,0,0,1-2.05,1.4l-40.6-8.77a1.73,1.73,0,0,1-1.28-2.2L221.91,209.1"/><polyline class="cls-14" points="257.68 117.58 241.85 212.61 221.91 209.1 246.59 130.97"/><line class="cls-15" x1="257.93" y1="117.47" x2="245.66" y2="131.98"/><line class="cls-16" x1="241.3" y1="212.52" x2="222.37" y2="209.18"/><line class="cls-17" x1="246.64" y1="181.97" x2="231.53" y2="179.28"/><line class="cls-17" x1="245.63" y1="190.23" x2="228.91" y2="187.14"/><line class="cls-17" x1="253.41" y1="140.91" x2="244.08" y2="139.26"/></g></g></g></g></svg>