<svg xmlns="http://www.w3.org/2000/svg" xmlns:xlink="http://www.w3.org/1999/xlink" viewBox="0 0 325 867"><defs><style>.cls-1{fill:none;}.cls-2{clip-path:url(#clip-path);}.cls-3{fill:#fdfd99;}</style><clipPath id="clip-path"><path class="cls-1" d="M31,407.79,220.05,158.66a1.4,1.4,0,0,1,1.52-.5c4.26,1.26,13.77,3.24,29.68,2.26,10.19-.63,17-4.66,20.9-12.33l.34-.66c2.73-5.37,5.82-11.45,3.62-25.75-2.29-14.85-11-20.69-14.72-23.18l-.24-.16c-2.86-1.93-8.61-3.87-19.73-2.18-8.43,1.29-12.8,8.38-17.86,16.59a109.32,109.32,0,0,1-8.64,12.58c-.31.37-.61.8-.93,1.26-1.33,1.91-2.29,3.29-5.67,2.63l-1,4.9c6.6,1.3,9.3-2.59,10.75-4.68.23-.33.45-.65.67-.92a112.85,112.85,0,0,0,9-13.15c4.6-7.45,8.22-13.33,14.37-14.27,10.39-1.58,14.78.44,16.18,1.39l.25.16c3.7,2.49,10.6,7.11,12.56,19.79S270.65,140,268,145.16l-.34.67c-3.09,6.11-8.26,9.07-16.75,9.6-15.14.94-24-.89-27.94-2.07a6.45,6.45,0,0,0-6.93,2.28L27,404.77Z"/></clipPath></defs><g id="Layer_2" data-name="Layer 2"><g id="Items_Right" data-name="Items Right"><g id="Item_Bounding_Box-pose4_6" data-name="Item Bounding Box-pose4/6"><rect class="cls-1" width="325" height="867"/><g id="Crook_experiment" data-name="Crook experiment"><g class="cls-2"><rect x="205.9" y="128.56" width="5" height="6" transform="translate(297.63 -98.16) rotate(78.96)"/><rect class="cls-3" x="211.78" y="127.41" width="5" height="6" transform="translate(301.27 -104.87) rotate(78.96)"/><rect x="214.66" y="123.47" width="5" height="6" transform="translate(110.04 -100.86) rotate(34.56)"/><rect class="cls-3" x="218.06" y="118.53" width="5" height="6" transform="translate(107.84 -103.66) rotate(34.56)"/><rect x="220.78" y="114.57" width="5" height="6" transform="translate(106.08 -105.9) rotate(34.56)"/><rect class="cls-3" x="224.19" y="109.63" width="5" height="6" transform="translate(103.88 -108.71) rotate(34.56)"/><rect x="226.93" y="105.69" width="5" height="6" transform="matrix(0.82, 0.57, -0.57, 0.82, 102.79, -111.34)"/><rect class="cls-3" x="230.35" y="100.76" width="5" height="6" transform="translate(100.58 -114.16) rotate(34.73)"/><rect x="234.54" y="98.4" width="5" height="6" transform="translate(205.58 -154.49) rotate(59.83)"/><rect class="cls-3" x="239.73" y="95.38" width="5" height="6" transform="translate(205.55 -160.48) rotate(59.83)"/><rect x="244.6" y="95.53" width="5" height="6" transform="translate(340.91 -150.39) rotate(88.91)"/><rect class="cls-3" x="250.6" y="95.42" width="5" height="6" transform="translate(346.68 -156.5) rotate(88.91)"/><rect x="255.49" y="96.08" width="5" height="6" transform="translate(492.49 -47.15) rotate(127.05)"/><rect class="cls-3" x="260.28" y="99.69" width="5" height="6" transform="translate(503.05 -45.18) rotate(127.05)"/><rect x="263.65" y="103.06" width="5" height="6" transform="translate(540.28 22.79) rotate(141.37)"/><rect class="cls-3" x="267.39" y="107.75" width="5" height="6" transform="translate(549.87 28.8) rotate(141.37)"/><rect x="268.9" y="112.31" width="5" height="6" transform="translate(565.3 139.24) rotate(161.64)"/><rect class="cls-3" x="270.79" y="118" width="5" height="6" transform="translate(570.78 149.75) rotate(161.64)"/><rect x="271.14" y="122.74" width="5" height="6" transform="matrix(-1, 0, 0, -1, 547.28, 251.49)"/><rect class="cls-3" x="271.14" y="128.74" width="5" height="6" transform="matrix(-1, 0, 0, -1, 547.28, 263.49)"/><rect x="271.58" y="133.63" width="5" height="6" transform="translate(477.36 365.68) rotate(-158.09)"/><rect class="cls-3" x="269.34" y="139.2" width="5" height="6" transform="translate(470.97 375.57) rotate(-158.09)"/><rect x="267.66" y="143.72" width="5" height="6" transform="translate(359.09 441.01) rotate(-135.32)"/><rect class="cls-3" x="263.44" y="147.99" width="5" height="6" transform="translate(348.87 445.34) rotate(-135.32)"/><rect x="260.46" y="152.11" width="5" height="6" transform="translate(172.69 446.76) rotate(-103.34)"/><rect class="cls-3" x="254.63" y="153.5" width="5" height="6" transform="translate(164.16 442.79) rotate(-103.34)"/><rect x="249.99" y="154.94" width="5" height="6" transform="translate(90.97 408.16) rotate(-89.18)"/><rect class="cls-3" x="243.99" y="154.86" width="5" height="6" transform="translate(85.14 402.08) rotate(-89.18)"/><rect x="239.19" y="154.79" width="5" height="6" transform="translate(80.48 397.21) rotate(-89.18)"/><rect class="cls-3" x="233.19" y="154.71" width="5" height="6" transform="translate(74.65 391.13) rotate(-89.18)"/><rect x="228.42" y="154.38" width="5" height="6" transform="translate(33.57 355.24) rotate(-79.35)"/><rect class="cls-3" x="222.52" y="153.27" width="5" height="6" transform="translate(29.85 348.54) rotate(-79.35)"/><rect x="217.66" y="152.86" width="5" height="6" transform="translate(221.06 425.6) rotate(-125.49)"/><rect class="cls-3" x="212.77" y="156.34" width="5" height="6" transform="translate(210.5 427.13) rotate(-125.49)"/><rect x="210.5" y="160.81" width="5" height="6" transform="translate(283.63 423.07) rotate(-142.8)"/><rect class="cls-3" x="206.87" y="165.59" width="5" height="6" transform="translate(274.22 429.47) rotate(-142.8)"/><rect x="203.97" y="169.41" width="5" height="6" transform="translate(266.7 434.58) rotate(-142.8)"/><rect class="cls-3" x="200.34" y="174.19" width="5" height="6" transform="translate(257.29 440.97) rotate(-142.8)"/><rect x="197.44" y="178.02" width="5" height="6" transform="translate(249.76 446.09) rotate(-142.8)"/><rect class="cls-3" x="193.82" y="182.8" width="5" height="6" transform="translate(240.36 452.48) rotate(-142.8)"/><rect x="190.91" y="186.62" width="5" height="6" transform="translate(232.83 457.59) rotate(-142.8)"/><rect class="cls-3" x="187.29" y="191.4" width="5" height="6" transform="translate(223.43 463.99) rotate(-142.8)"/><rect x="184.38" y="195.22" width="5" height="6" transform="translate(215.9 469.1) rotate(-142.8)"/><rect class="cls-3" x="180.76" y="200" width="5" height="6" transform="translate(206.49 475.49) rotate(-142.8)"/><rect x="177.85" y="203.82" width="5" height="6" transform="translate(198.97 480.61) rotate(-142.8)"/><rect class="cls-3" x="174.23" y="208.6" width="5" height="6" transform="translate(189.56 487) rotate(-142.8)"/><rect x="171.32" y="212.43" width="5" height="6" transform="translate(182.04 492.12) rotate(-142.8)"/><rect class="cls-3" x="167.7" y="217.21" width="5" height="6" transform="translate(172.63 498.51) rotate(-142.8)"/><rect x="164.79" y="221.03" width="5" height="6" transform="translate(165.11 503.62) rotate(-142.8)"/><rect class="cls-3" x="161.17" y="225.81" width="5" height="6" transform="translate(155.7 510.02) rotate(-142.8)"/><rect x="158.27" y="229.63" width="5" height="6" transform="translate(148.17 515.13) rotate(-142.8)"/><rect class="cls-3" x="154.64" y="234.41" width="5" height="6" transform="translate(138.77 521.52) rotate(-142.8)"/><rect x="151.74" y="238.23" width="5" height="6" transform="translate(131.24 526.64) rotate(-142.8)"/><rect class="cls-3" x="148.11" y="243.01" width="5" height="6" transform="translate(121.84 533.03) rotate(-142.8)"/><rect x="145.21" y="246.84" width="5" height="6" transform="translate(114.31 538.14) rotate(-142.8)"/><rect class="cls-3" x="141.58" y="251.62" width="5" height="6" transform="translate(104.9 544.54) rotate(-142.8)"/><rect x="138.68" y="255.44" width="5" height="6" transform="translate(97.38 549.65) rotate(-142.8)"/><rect class="cls-3" x="135.05" y="260.22" width="5" height="6" transform="translate(87.97 556.04) rotate(-142.8)"/><rect x="132.15" y="264.04" width="5" height="6" transform="translate(80.45 561.16) rotate(-142.8)"/><rect class="cls-3" x="128.52" y="268.82" width="5" height="6" transform="translate(71.04 567.55) rotate(-142.8)"/><rect x="125.62" y="272.65" width="5" height="6" transform="translate(63.52 572.67) rotate(-142.8)"/><rect class="cls-3" x="121.99" y="277.42" width="5" height="6" transform="translate(54.11 579.06) rotate(-142.8)"/><rect x="119.09" y="281.25" width="5" height="6" transform="translate(46.58 584.17) rotate(-142.8)"/><rect class="cls-3" x="115.46" y="286.03" width="5" height="6" transform="translate(37.18 590.57) rotate(-142.8)"/><rect x="112.56" y="289.85" width="5" height="6" transform="translate(29.65 595.68) rotate(-142.8)"/><rect class="cls-3" x="108.93" y="294.63" width="5" height="6" transform="translate(20.25 602.07) rotate(-142.8)"/><rect x="106.03" y="298.45" width="5" height="6" transform="translate(12.72 607.19) rotate(-142.8)"/><rect class="cls-3" x="102.4" y="303.23" width="5" height="6" transform="translate(3.31 613.58) rotate(-142.8)"/><rect x="99.5" y="307.06" width="5" height="6" transform="translate(-4.21 618.69) rotate(-142.8)"/><rect class="cls-3" x="95.87" y="311.83" width="5" height="6" transform="translate(-13.62 625.09) rotate(-142.8)"/><rect x="92.97" y="315.66" width="5" height="6" transform="translate(-21.14 630.2) rotate(-142.8)"/><rect class="cls-3" x="89.34" y="320.44" width="5" height="6" transform="translate(-30.55 636.59) rotate(-142.8)"/><rect x="86.44" y="324.26" width="5" height="6" transform="translate(-38.07 641.71) rotate(-142.8)"/><rect class="cls-3" x="82.81" y="329.04" width="5" height="6" transform="translate(-47.48 648.1) rotate(-142.8)"/><rect x="79.91" y="332.86" width="5" height="6" transform="translate(-55.01 653.22) rotate(-142.8)"/><rect class="cls-3" x="76.28" y="337.64" width="5" height="6" transform="translate(-64.41 659.61) rotate(-142.8)"/><rect x="73.38" y="341.47" width="5" height="6" transform="translate(-71.94 664.72) rotate(-142.8)"/><rect class="cls-3" x="69.75" y="346.25" width="5" height="6" transform="translate(-81.34 671.12) rotate(-142.8)"/><rect x="66.85" y="350.07" width="5" height="6" transform="translate(-88.87 676.23) rotate(-142.8)"/><rect class="cls-3" x="63.22" y="354.85" width="5" height="6" transform="translate(-98.28 682.62) rotate(-142.8)"/><rect x="60.32" y="358.67" width="5" height="6" transform="translate(-105.8 687.74) rotate(-142.8)"/><rect class="cls-3" x="56.69" y="363.45" width="5" height="6" transform="translate(-115.21 694.13) rotate(-142.8)"/><rect x="53.79" y="367.27" width="5" height="6" transform="translate(-122.73 699.24) rotate(-142.8)"/><rect class="cls-3" x="50.16" y="372.05" width="5" height="6" transform="translate(-132.14 705.64) rotate(-142.8)"/><rect x="47.26" y="375.88" width="5" height="6" transform="translate(-139.66 710.75) rotate(-142.8)"/><rect class="cls-3" x="43.63" y="380.66" width="5" height="6" transform="translate(-149.07 717.14) rotate(-142.8)"/><rect x="40.73" y="384.48" width="5" height="6" transform="translate(-156.6 722.26) rotate(-142.8)"/><rect class="cls-3" x="37.11" y="389.26" width="5" height="6" transform="translate(-166 728.65) rotate(-142.8)"/><rect x="34.2" y="393.08" width="5" height="6" transform="translate(-173.53 733.77) rotate(-142.8)"/><rect class="cls-3" x="30.58" y="397.86" width="5" height="6" transform="translate(-182.93 740.16) rotate(-142.8)"/><rect x="27.67" y="401.68" width="5" height="6" transform="translate(-190.46 745.27) rotate(-142.8)"/><rect class="cls-3" x="24.05" y="406.46" width="5" height="6" transform="translate(-199.87 751.67) rotate(-142.8)"/></g></g></g></g></g></svg>