<svg xmlns="http://www.w3.org/2000/svg" xmlns:xlink="http://www.w3.org/1999/xlink" viewBox="0 0 350 1000"><defs><style>.cls-1{fill:none;}.cls-2{clip-path:url(#clip-path);}.cls-3{fill:#fdfd99;}</style><clipPath id="clip-path"><path class="cls-1" d="M128.09,541,128,228.23a1.41,1.41,0,0,0-.91-1.32c-4.15-1.56-12.93-5.73-25-16.13-7.74-6.66-10.74-14-9.2-22.46l.13-.73c1.07-5.92,2.28-12.64,12.68-22.7,10.8-10.44,21.27-9.83,25.74-9.57l.28,0c3.45.19,9.21,2.12,17,10.19,5.94,6.12,5.14,14.41,4.21,24a106.65,106.65,0,0,0-.73,15.25c0,.48,0,1,0,1.56-.1,2.33-.17,4,2.93,5.52L153,216.36c-6-3-5.84-7.68-5.74-10.22,0-.41,0-.79,0-1.14a112.09,112.09,0,0,1,.74-15.94c.84-8.71,1.51-15.59-2.82-20.05-7.33-7.54-12-8.59-13.73-8.68l-.3,0c-4.45-.26-12.74-.74-22,8.17S99,182.79,98,188.48l-.13.74C96.6,196,98.92,201.44,105.37,207c11.5,9.9,19.66,13.8,23.51,15.24a6.44,6.44,0,0,1,4.15,6L133.09,541Z"/></clipPath></defs><g id="Layer_2" data-name="Layer 2"><g id="Items_Right" data-name="Items Right"><g id="Item_Bounding_Box-pose2_3_5_7_9_10" data-name="Item Bounding Box-pose2/3/5/7/9/10"><g id="Crook_experiment" data-name="Crook experiment"><g class="cls-2"><rect x="151.19" y="210.69" width="5" height="6" transform="translate(-103.29 156.73) rotate(-41.78)"/><rect class="cls-3" x="147.2" y="206.22" width="5" height="6" transform="translate(-101.33 152.93) rotate(-41.78)"/><rect x="147.29" y="201.34" width="5" height="6" transform="translate(9.54 -6.66) rotate(2.63)"/><rect class="cls-3" x="147.57" y="195.34" width="5" height="6" transform="translate(9.27 -6.68) rotate(2.63)"/><rect x="147.79" y="190.55" width="5" height="6" transform="translate(9.05 -6.7) rotate(2.63)"/><rect class="cls-3" x="148.06" y="184.55" width="5" height="6" transform="translate(8.77 -6.72) rotate(2.63)"/><rect x="148.26" y="179.76" width="5" height="6" transform="translate(7.98 -6.3) rotate(2.46)"/><rect class="cls-3" x="148.52" y="173.76" width="5" height="6" transform="translate(7.73 -6.32) rotate(2.46)"/><rect x="146.6" y="169.35" width="5" height="6" transform="translate(-54.86 70.69) rotate(-22.64)"/><rect class="cls-3" x="144.29" y="163.81" width="5" height="6" transform="translate(-52.91 69.37) rotate(-22.64)"/><rect x="140.32" y="160.99" width="5" height="6" transform="translate(-74.38 174.52) rotate(-51.72)"/><rect class="cls-3" x="135.61" y="157.27" width="5" height="6" transform="translate(-73.26 169.41) rotate(-51.72)"/><rect x="131.32" y="154.84" width="5" height="6" transform="translate(-24.35 291.26) rotate(-89.86)"/><rect class="cls-3" x="125.32" y="154.82" width="5" height="6" transform="translate(-30.32 285.25) rotate(-89.86)"/><rect x="120.6" y="155.47" width="5" height="6" transform="translate(-0.37 316.65) rotate(-104.19)"/><rect class="cls-3" x="114.78" y="156.94" width="5" height="6" transform="translate(-9.04 312.85) rotate(-104.19)"/><rect x="110.83" y="159.66" width="5" height="6" transform="translate(43.3 348.13) rotate(-124.45)"/><rect class="cls-3" x="105.88" y="163.06" width="5" height="6" transform="translate(32.75 349.36) rotate(-124.45)"/><rect x="102.73" y="166.62" width="5" height="6" transform="translate(86.54 368.36) rotate(-142.81)"/><rect class="cls-3" x="99.1" y="171.4" width="5" height="6" transform="translate(77.14 374.75) rotate(-142.81)"/><rect x="95.8" y="175.03" width="5" height="6" transform="translate(146.23 375.67) rotate(-164.73)"/><rect class="cls-3" x="94.22" y="180.82" width="5" height="6" transform="translate(141.6 386.62) rotate(-164.73)"/><rect x="92.82" y="185.44" width="5" height="6" transform="translate(214.4 362.84) rotate(172.51)"/><rect class="cls-3" x="93.61" y="191.39" width="5" height="6" transform="translate(216.74 374.59) rotate(172.51)"/><rect x="93.49" y="196.47" width="5" height="6" transform="translate(296.89 292.42) rotate(140.52)"/><rect class="cls-3" x="97.3" y="201.1" width="5" height="6" transform="translate(306.59 298.2) rotate(140.52)"/><rect x="100.12" y="205.06" width="5" height="6" transform="matrix(-0.59, 0.81, -0.81, -0.59, 330.99, 248.81)"/><rect class="cls-3" x="104.95" y="208.61" width="5" height="6" transform="translate(341.55 250.59) rotate(126.37)"/><rect x="108.81" y="211.46" width="5" height="6" transform="matrix(-0.59, 0.81, -0.81, -0.59, 350, 252.01)"/><rect class="cls-3" x="113.64" y="215.02" width="5" height="6" transform="matrix(-0.59, 0.81, -0.81, -0.59, 360.56, 253.79)"/><rect x="117.64" y="217.65" width="5" height="6" transform="translate(371.22 211.75) rotate(116.54)"/><rect class="cls-3" x="123.01" y="220.33" width="5" height="6" transform="translate(381.38 210.82) rotate(116.54)"/><rect x="127.14" y="222.94" width="5" height="6" transform="translate(320.67 403.02) rotate(162.67)"/><rect class="cls-3" x="128.92" y="228.66" width="5" height="6" transform="translate(325.87 413.68) rotate(162.67)"/><rect x="128.03" y="233.6" width="5" height="6" transform="translate(261.11 473.17) rotate(179.99)"/><rect class="cls-3" x="128.03" y="239.6" width="5" height="6" transform="translate(261.11 485.17) rotate(179.99)"/><rect x="128.03" y="244.4" width="5" height="6" transform="translate(261.12 494.77) rotate(179.99)"/><rect class="cls-3" x="128.03" y="250.4" width="5" height="6" transform="translate(261.12 506.77) rotate(179.99)"/><rect x="128.03" y="255.2" width="5" height="6" transform="translate(261.12 516.37) rotate(179.99)"/><rect class="cls-3" x="128.04" y="261.2" width="5" height="6" transform="translate(261.13 528.37) rotate(179.99)"/><rect x="128.04" y="266" width="5" height="6" transform="translate(261.13 537.97) rotate(179.99)"/><rect class="cls-3" x="128.04" y="272" width="5" height="6" transform="translate(261.13 549.97) rotate(179.99)"/><rect x="128.04" y="276.8" width="5" height="6" transform="translate(261.13 559.57) rotate(179.99)"/><rect class="cls-3" x="128.04" y="282.8" width="5" height="6" transform="translate(261.14 571.57) rotate(179.99)"/><rect x="128.04" y="287.6" width="5" height="6" transform="translate(261.14 581.17) rotate(179.99)"/><rect class="cls-3" x="128.04" y="293.6" width="5" height="6" transform="translate(261.14 593.17) rotate(179.99)"/><rect x="128.04" y="298.4" width="5" height="6" transform="translate(261.15 602.77) rotate(179.99)"/><rect class="cls-3" x="128.04" y="304.4" width="5" height="6" transform="translate(261.15 614.77) rotate(179.99)"/><rect x="128.05" y="309.2" width="5" height="6" transform="translate(261.15 624.37) rotate(179.99)"/><rect class="cls-3" x="128.05" y="315.2" width="5" height="6" transform="translate(261.16 636.37) rotate(179.99)"/><rect x="128.05" y="320" width="5" height="6" transform="translate(261.16 645.97) rotate(179.99)"/><rect class="cls-3" x="128.05" y="326" width="5" height="6" transform="translate(261.16 657.97) rotate(179.99)"/><rect x="128.05" y="330.8" width="5" height="6" transform="translate(261.17 667.57) rotate(179.99)"/><rect class="cls-3" x="128.05" y="336.8" width="5" height="6" transform="translate(261.17 679.57) rotate(179.99)"/><rect x="128.05" y="341.6" width="5" height="6" transform="translate(261.17 689.17) rotate(179.99)"/><rect class="cls-3" x="128.05" y="347.6" width="5" height="6" transform="translate(261.18 701.17) rotate(179.99)"/><rect x="128.05" y="352.4" width="5" height="6" transform="translate(261.18 710.77) rotate(179.99)"/><rect class="cls-3" x="128.06" y="358.4" width="5" height="6" transform="translate(261.18 722.77) rotate(179.99)"/><rect x="128.06" y="363.2" width="5" height="6" transform="translate(261.19 732.37) rotate(179.99)"/><rect class="cls-3" x="128.06" y="369.2" width="5" height="6" transform="translate(261.19 744.37) rotate(179.99)"/><rect x="128.06" y="374" width="5" height="6" transform="translate(261.19 753.97) rotate(179.99)"/><rect class="cls-3" x="128.06" y="380" width="5" height="6" transform="translate(261.2 765.97) rotate(179.99)"/><rect x="128.06" y="384.8" width="5" height="6" transform="translate(261.2 775.57) rotate(179.99)"/><rect class="cls-3" x="128.06" y="390.8" width="5" height="6" transform="translate(261.2 787.57) rotate(179.99)"/><rect x="128.06" y="395.6" width="5" height="6" transform="translate(261.21 797.17) rotate(179.99)"/><rect class="cls-3" x="128.06" y="401.6" width="5" height="6" transform="translate(261.21 809.17) rotate(179.99)"/><rect x="128.07" y="406.4" width="5" height="6" transform="translate(261.21 818.77) rotate(179.99)"/><rect class="cls-3" x="128.07" y="412.4" width="5" height="6" transform="translate(261.22 830.77) rotate(179.99)"/><rect x="128.07" y="417.2" width="5" height="6" transform="translate(261.22 840.37) rotate(179.99)"/><rect class="cls-3" x="128.07" y="423.2" width="5" height="6" transform="translate(261.22 852.37) rotate(179.99)"/><rect x="128.07" y="428" width="5" height="6" transform="translate(261.23 861.97) rotate(179.99)"/><rect class="cls-3" x="128.07" y="434" width="5" height="6" transform="translate(261.23 873.97) rotate(179.99)"/><rect x="128.07" y="438.8" width="5" height="6" transform="translate(261.23 883.57) rotate(179.99)"/><rect class="cls-3" x="128.07" y="444.8" width="5" height="6" transform="translate(261.24 895.57) rotate(179.99)"/><rect x="128.07" y="449.6" width="5" height="6" transform="translate(261.24 905.17) rotate(179.99)"/><rect class="cls-3" x="128.08" y="455.6" width="5" height="6" transform="translate(261.24 917.17) rotate(179.99)"/><rect x="128.08" y="460.4" width="5" height="6" transform="translate(261.25 926.77) rotate(179.99)"/><rect class="cls-3" x="128.08" y="466.4" width="5" height="6" transform="translate(261.25 938.77) rotate(179.99)"/><rect x="128.08" y="471.2" width="5" height="6" transform="translate(261.25 948.37) rotate(179.99)"/><rect class="cls-3" x="128.08" y="477.2" width="5" height="6" transform="translate(261.26 960.37) rotate(179.99)"/><rect x="128.08" y="482" width="5" height="6" transform="translate(261.26 969.97) rotate(179.99)"/><rect class="cls-3" x="128.08" y="488" width="5" height="6" transform="translate(261.26 981.97) rotate(179.99)"/><rect x="128.08" y="492.8" width="5" height="6" transform="translate(261.27 991.57) rotate(179.99)"/><rect class="cls-3" x="128.08" y="498.8" width="5" height="6" transform="translate(261.27 1003.57) rotate(179.99)"/><rect x="128.08" y="503.6" width="5" height="6" transform="translate(261.27 1013.17) rotate(179.99)"/><rect class="cls-3" x="128.09" y="509.6" width="5" height="6" transform="translate(261.28 1025.17) rotate(179.99)"/><rect x="128.09" y="514.4" width="5" height="6" transform="translate(261.28 1034.77) rotate(179.99)"/><rect class="cls-3" x="128.09" y="520.4" width="5" height="6" transform="translate(261.28 1046.77) rotate(179.99)"/><rect x="128.09" y="525.2" width="5" height="6" transform="translate(261.29 1056.37) rotate(179.99)"/><rect class="cls-3" x="128.09" y="531.2" width="5" height="6" transform="translate(261.29 1068.37) rotate(179.99)"/><rect x="128.09" y="536" width="5" height="6" transform="translate(261.29 1077.97) rotate(179.99)"/><rect class="cls-3" x="128.09" y="542" width="5" height="6" transform="translate(261.3 1089.97) rotate(179.99)"/></g></g><rect id="Item_Bounding_Box" data-name="Item Bounding Box" class="cls-1" width="350" height="1000"/></g></g></g></svg>