<svg xmlns="http://www.w3.org/2000/svg" viewBox="0 0 350 1000"><defs><style>.cls-1{fill:#7c001a;}.cls-1,.cls-2{stroke:#161616;stroke-miterlimit:10;}.cls-2,.cls-3{fill:none;}</style></defs><g id="Layer_2" data-name="Layer 2"><g id="Items_Right" data-name="Items Right"><g id="Item_Bounding_Box-pose2_3_5_7_9_10" data-name="Item Bounding Box-pose2/3/5/7/9/10"><g id="Knife"><path id="knife-2" data-name="knife" class="cls-1" d="M129.48,409,143,398.68s-9.44,0-9.1-35.94c.05-5.53,2.52-17.39,6.15-21.57,6.16-7.11,26.75-13.28,30.65-21.85,18.49-40.63,19-112.86,11.2-133.59-.36-1-1.36-1.35-1.69-.36,0,0-9.32,63.83-38.22,121.73-5.15,10.33-15.14,32.74-16.54,44.9-.45,3.95,1.5,12.38.34,16.28C121.78,381.82,129.48,409,129.48,409Z"/><path id="knife_line" data-name="knife line" class="cls-2" d="M136.46,348.73c-2.27-19.9,32.48-58.34,38.25-113"/></g><rect id="Item_Bounding_Box" data-name="Item Bounding Box" class="cls-3" width="350" height="1000"/></g></g></g></svg>