<svg xmlns="http://www.w3.org/2000/svg" xmlns:xlink="http://www.w3.org/1999/xlink" viewBox="0 0 486 350"><defs><style>.cls-1{fill:none;}.cls-2{clip-path:url(#clip-path);}.cls-3{fill:#fdfd99;}</style><clipPath id="clip-path"><path class="cls-1" d="M70.59,121.78l214,2.78a.92.92,0,0,0,.9-.6c1-2.8,3.8-8.71,10.81-16.81,4.49-5.18,9.49-7.16,15.28-6l.5.09c4.07.78,8.68,1.66,15.65,8.8,7.24,7.42,6.92,14.51,6.78,17.54v.19c-.1,2.34-1.37,6.22-6.82,11.46-4.13,4-9.81,3.35-16.39,2.63a73.83,73.83,0,0,0-10.44-.62l-1.07,0c-1.59-.09-2.73-.15-3.74,1.93l-3.1-1.53c2-4.06,5.2-3.88,6.94-3.79l.79,0a78.06,78.06,0,0,1,10.91.64c6,.66,10.68,1.17,13.69-1.73,5.09-4.89,5.76-8.08,5.81-9.23v-.2c.14-3,.4-8.63-5.79-15s-9.88-7-13.78-7.8l-.51-.1c-4.62-.89-8.35.64-12.09,5-6.66,7.7-9.26,13.2-10.21,15.79a4.25,4.25,0,0,1-4.07,2.76l-214-2.78Z"/></clipPath></defs><g id="Layer_2" data-name="Layer 2"><g id="Items_Left" data-name="Items Left"><g id="Item_Bounding_Box-pose1-2" data-name="Item Bounding Box-pose1-2"><g id="Crook_experiment" data-name="Crook experiment"><g class="cls-2"><rect x="297.82" y="136.48" width="5" height="6" transform="translate(460.57 -150.29) rotate(94.03)"/><rect class="cls-3" x="303.8" y="136.9" width="5" height="6" transform="translate(467.4 -155.81) rotate(94.03)"/><rect x="308.59" y="137.24" width="5" height="6" transform="translate(472.86 -160.22) rotate(94.03)"/><rect class="cls-3" x="314.58" y="137.66" width="5" height="6" transform="translate(479.69 -165.74) rotate(94.03)"/><rect x="319.21" y="136.12" width="5" height="6" transform="translate(380.5 -206.41) rotate(76.27)"/><rect class="cls-3" x="325.03" y="134.7" width="5" height="6" transform="translate(383.56 -213.16) rotate(76.27)"/><rect x="328.42" y="130.74" width="5" height="6" transform="translate(52.81 -89.98) rotate(16.81)"/><rect class="cls-3" x="330.15" y="124.99" width="5" height="6" transform="translate(51.22 -90.72) rotate(16.81)"/><rect x="330.92" y="119.91" width="5" height="6" transform="translate(-16.17 186.66) rotate(-30.57)"/><rect class="cls-3" x="327.87" y="114.75" width="5" height="6" transform="translate(-13.96 184.39) rotate(-30.57)"/><rect x="325.85" y="110.31" width="5" height="6" transform="translate(7.85 247.22) rotate(-41.71)"/><rect class="cls-3" x="321.85" y="105.83" width="5" height="6" transform="translate(9.81 243.43) rotate(-41.71)"/><rect x="317.9" y="102.94" width="5" height="6" transform="translate(82.77 345.55) rotate(-63.53)"/><rect class="cls-3" x="312.53" y="100.27" width="5" height="6" transform="translate(82.19 339.26) rotate(-63.53)"/><rect x="307.68" y="99.91" width="5" height="6" transform="translate(244.1 422.96) rotate(-96.69)"/><rect class="cls-3" x="301.72" y="100.61" width="5" height="6" transform="translate(236.75 417.82) rotate(-96.69)"/><rect x="297.76" y="103.1" width="5" height="6" transform="translate(407.13 406.09) rotate(-129.07)"/><rect class="cls-3" x="293.11" y="106.88" width="5" height="6" transform="translate(396.6 408.63) rotate(-129.07)"/><rect x="290.72" y="111.19" width="5" height="6" transform="translate(461.5 380.08) rotate(-143.6)"/><rect class="cls-3" x="287.16" y="116.02" width="5" height="6" transform="translate(452.21 386.69) rotate(-143.6)"/><rect x="285.66" y="120.84" width="5" height="6" transform="translate(347.29 431.86) rotate(-124.12)"/><rect class="cls-3" x="280.7" y="124.2" width="5" height="6" transform="translate(336.75 433) rotate(-124.12)"/><rect x="275.61" y="123.17" width="5" height="6" transform="translate(148.32 402.62) rotate(-89.25)"/><rect class="cls-3" x="269.61" y="123.1" width="5" height="6" transform="translate(142.48 396.54) rotate(-89.25)"/><rect x="264.81" y="123.03" width="5" height="6" transform="translate(137.81 391.68) rotate(-89.25)"/><rect class="cls-3" x="258.81" y="122.96" width="5" height="6" transform="translate(131.96 385.6) rotate(-89.25)"/><rect x="254.01" y="122.89" width="5" height="6" transform="translate(127.29 380.74) rotate(-89.25)"/><rect class="cls-3" x="248.01" y="122.82" width="5" height="6" transform="translate(121.44 374.67) rotate(-89.25)"/><rect x="243.21" y="122.75" width="5" height="6" transform="translate(116.77 369.81) rotate(-89.25)"/><rect class="cls-3" x="237.21" y="122.67" width="5" height="6" transform="translate(110.93 363.73) rotate(-89.25)"/><rect x="232.41" y="122.61" width="5" height="6" transform="translate(106.25 358.87) rotate(-89.25)"/><rect class="cls-3" x="226.41" y="122.53" width="5" height="6" transform="translate(100.41 352.79) rotate(-89.25)"/><rect x="221.61" y="122.47" width="5" height="6" transform="translate(95.73 347.93) rotate(-89.25)"/><rect class="cls-3" x="215.61" y="122.39" width="5" height="6" transform="translate(89.89 341.86) rotate(-89.25)"/><rect x="210.81" y="122.33" width="5" height="6" transform="translate(85.22 337) rotate(-89.25)"/><rect class="cls-3" x="204.82" y="122.25" width="5" height="6" transform="translate(79.37 330.92) rotate(-89.25)"/><rect x="200.02" y="122.19" width="5" height="6" transform="translate(74.7 326.06) rotate(-89.25)"/><rect class="cls-3" x="194.02" y="122.11" width="5" height="6" transform="translate(68.86 319.98) rotate(-89.25)"/><rect x="189.22" y="122.05" width="5" height="6" transform="translate(64.18 315.12) rotate(-89.25)"/><rect class="cls-3" x="183.22" y="121.97" width="5" height="6" transform="translate(58.34 309.04) rotate(-89.25)"/><rect x="178.42" y="121.91" width="5" height="6" transform="translate(53.66 304.18) rotate(-89.25)"/><rect class="cls-3" x="172.42" y="121.83" width="5" height="6" transform="translate(47.82 298.11) rotate(-89.25)"/><rect x="167.62" y="121.77" width="5" height="6" transform="translate(43.15 293.25) rotate(-89.25)"/><rect class="cls-3" x="161.62" y="121.69" width="5" height="6" transform="translate(37.3 287.17) rotate(-89.25)"/><rect x="156.82" y="121.63" width="5" height="6" transform="translate(32.63 282.31) rotate(-89.25)"/><rect class="cls-3" x="150.82" y="121.55" width="5" height="6" transform="translate(26.78 276.23) rotate(-89.25)"/><rect x="146.02" y="121.49" width="5" height="6" transform="translate(22.11 271.37) rotate(-89.25)"/><rect class="cls-3" x="140.02" y="121.41" width="5" height="6" transform="translate(16.27 265.3) rotate(-89.25)"/><rect x="135.22" y="121.35" width="5" height="6" transform="translate(11.59 260.44) rotate(-89.25)"/><rect class="cls-3" x="129.22" y="121.27" width="5" height="6" transform="translate(5.75 254.36) rotate(-89.25)"/><rect x="124.42" y="121.21" width="5" height="6" transform="translate(1.07 249.5) rotate(-89.25)"/><rect class="cls-3" x="118.42" y="121.13" width="5" height="6" transform="translate(-4.77 243.42) rotate(-89.25)"/><rect x="113.62" y="121.06" width="5" height="6" transform="translate(-9.44 238.56) rotate(-89.25)"/><rect class="cls-3" x="107.62" y="120.99" width="5" height="6" transform="translate(-15.29 232.49) rotate(-89.25)"/><rect x="102.82" y="120.92" width="5" height="6" transform="translate(-19.96 227.63) rotate(-89.25)"/><rect class="cls-3" x="96.82" y="120.85" width="5" height="6" transform="translate(-25.8 221.55) rotate(-89.25)"/><rect x="92.02" y="120.78" width="5" height="6" transform="translate(-30.48 216.69) rotate(-89.25)"/><rect class="cls-3" x="86.03" y="120.71" width="5" height="6" transform="translate(-36.32 210.61) rotate(-89.25)"/><rect x="81.23" y="120.64" width="5" height="6" transform="translate(-41 205.75) rotate(-89.25)"/><rect class="cls-3" x="75.23" y="120.56" width="5" height="6" transform="translate(-46.84 199.67) rotate(-89.25)"/><rect x="70.43" y="120.5" width="5" height="6" transform="translate(-51.51 194.81) rotate(-89.25)"/><rect class="cls-3" x="64.43" y="120.42" width="5" height="6" transform="translate(-57.36 188.74) rotate(-89.25)"/></g></g><rect id="Item_Bounding_Box" data-name="Item Bounding Box" class="cls-1" x="68" y="-68" width="350" height="486" transform="translate(418 -68) rotate(90)"/></g></g></g></svg>