<svg xmlns="http://www.w3.org/2000/svg" viewBox="0 0 486 350"><defs><style>.cls-1{fill:#7c001a;}.cls-1,.cls-2{stroke:#161616;stroke-miterlimit:10;}.cls-2,.cls-3{fill:none;}</style></defs><g id="Layer_2" data-name="Layer 2"><g id="Items_Left" data-name="Items Left"><g id="Item_Bounding_Box-pose1-2" data-name="Item Bounding Box-pose1-2"><g id="Knife"><path id="knife-2" data-name="knife" class="cls-1" d="M77,129.48,87.32,143s0-9.44,35.94-9.1c5.53.05,17.39,2.52,21.57,6.15,7.11,6.16,13.28,26.75,21.85,30.65,40.63,18.49,112.86,19,133.59,11.2,1-.36,1.35-1.36.36-1.69,0,0-63.83-9.32-121.73-38.22-10.33-5.15-32.74-15.14-44.9-16.54-3.95-.45-12.38,1.5-16.28.34C104.18,121.78,77,129.48,77,129.48Z"/><path id="knife_line" data-name="knife line" class="cls-2" d="M137.27,136.46c19.9-2.27,58.34,32.48,113,38.25"/></g><rect id="Item_Bounding_Box" data-name="Item Bounding Box" class="cls-3" x="68" y="-68" width="350" height="486" transform="translate(418 -68) rotate(90)"/></g></g></g></svg>