<svg xmlns="http://www.w3.org/2000/svg" viewBox="0 0 486 350"><defs><style>.cls-1{fill:#f4df9c;stroke:#000;stroke-miterlimit:10;}.cls-2{fill:none;}</style></defs><g id="Layer_2" data-name="Layer 2"><g id="Items_Left" data-name="Items Left"><g id="Item_Bounding_Box-pose1-2" data-name="Item Bounding Box-pose1-2"><g id="Sekhem_Scepter_copy_2" data-name="Sekhem Scepter copy 2"><path id="sekhem_scepter_outline" data-name="sekhem scepter outline" class="cls-1" d="M61.5,139.47a.37.37,0,0,0,.67.22c.86-1.15,2.75-2.77,6.79-3.33.84-.12,3.34-.54,4.69-.77a6.07,6.07,0,0,0,1.72-.55h0a1.11,1.11,0,0,1,1.35.34,1.38,1.38,0,0,0,1.09.52h4.73A1.92,1.92,0,0,0,84.48,134v-.51h116.7a.64.64,0,0,1,.57.33,7,7,0,0,0,1.49,1.95c2,1.63,7.77,2.35,11,3.92a32.6,32.6,0,0,1,7,6.52c1.17,1.94,3,4.24,4,7.5.28.9,0,2.82.33,3.59.21.48,2.16.86,2.6.65.8-.37,1.4-2.23,1.33-2.28s40.89-6.76,60.54-7.83c11.78-.64,48.92-.63,65.2.07,3.5.15,14,1,14,1a2.77,2.77,0,0,0,2.82-2.74V114.66a2.78,2.78,0,0,0-2.82-2.75s-10.49.87-14,1c-16.28.7-53.42.71-65.2.07-19.65-1.07-60.54-7.83-60.54-7.83s-.53-1.91-1.33-2.29c-.44-.2-2.39.18-2.6.66-.33.77-.05,2.69-.33,3.58-1,3.27-2.82,5.57-4,7.51a32.6,32.6,0,0,1-7,6.52c-3.2,1.57-9,2.28-11,3.92a7,7,0,0,0-1.49,2,.64.64,0,0,1-.57.33H84.48v-.52a1.92,1.92,0,0,0-1.94-1.9H77.81a1.38,1.38,0,0,0-1.09.52,1.11,1.11,0,0,1-1.35.34h0a6.09,6.09,0,0,0-1.72-.56c-1.35-.22-3.85-.64-4.69-.76-4.2-.59-6.08-2.31-6.89-3.46a.31.31,0,0,0-.57.18Z"/></g><rect id="Item_Bounding_Box" data-name="Item Bounding Box" class="cls-2" x="68" y="-68" width="350" height="486" transform="translate(418 -68) rotate(90)"/></g></g></g></svg>