<svg xmlns="http://www.w3.org/2000/svg" xmlns:xlink="http://www.w3.org/1999/xlink" viewBox="0 0 400 500"><defs><style>.cls-1,.cls-11,.cls-13{fill:none;}.cls-2{fill:#a74432;}.cls-2,.cls-8{stroke:#000;}.cls-11,.cls-12,.cls-13,.cls-2,.cls-8{stroke-miterlimit:10;}.cls-3{opacity:0.6;}.cls-4{opacity:0.5;}.cls-5{opacity:0.31;}.cls-6{fill:#fefcf0;}.cls-7{clip-path:url(#clip-path);}.cls-8{fill:#161616;}.cls-9{fill:#2d2c31;}.cls-10{fill:#0c0c0c;}.cls-11{stroke:#0c0c0c;}.cls-12{fill:#fdcc66;}.cls-12,.cls-13{stroke:#cd9933;}.cls-14{fill:#cd9933;}</style><clipPath id="clip-path"><path class="cls-1" d="M248,296s8.87-2.34,11.62-2.11c6.34.53,9.51,6.34,9.51,6.34s-8.45,1.59-14.79-.53C252.63,299.11,248,296,248,296Z"/></clipPath></defs><g id="Layer_2" data-name="Layer 2"><g id="Male_Poses" data-name="Male Poses"><g id="Head_copy_3" data-name="Head copy 3"><path id="head_round" data-name="head round" class="cls-2" d="M249.32,356.27c1.42-4.51,16.16-2.33,24.07-2.68,3.58-.16,4.42-.67,5.29-5.28.38-2.05-.56-4.55,1.58-7.4,3.17-4.23.23-4.83.53-5.29.61-.92,3.17-2.11,1.06-6.34s0-4.22,2.11-5.28c8.45-4.23-4.23-14.8-9-25.36-.49-1.08-.25-7.25-2.65-21.14-3.65-21.17-5.28-27.48-22.19-38-10.4-6.51-29.07-10.23-41.34-10.83-10.59-.52-20.43.94-29.46,6.6-8.51,5.32-12.69,9.51-19,21.13-8,14.75-7.1,31.95-.14,46.35,3.54,7.32,9.29,13.61,14.21,20.23,4.29,5.76,9.12,11.15,13.11,17.1a11.64,11.64,0,0,1,1.41,8.14c-1.94,8.73-4,15.8-6.39,24.43,0,3.17,4.22,10.57,11.62,15.85,15.5,11.08,33,6.18,42-.64S243.21,375.61,249.32,356.27Z"/><g id="face"><g id="mouth"><g class="cls-3"><path d="M269.23,333.91c3.82.72,8,0,11.78,1.27l-.44.89a11.14,11.14,0,0,0-2.69-.69c-1.67-.28-4.12-.52-5.83-.7a15.57,15.57,0,0,1-2.95-.51l.13-.26Z"/></g><g class="cls-4"><path d="M280.07,340.84c-3.91-1.77-7.63-3.84-11.4-5.88l.13-.25c3.84,1.81,7.7,3.68,11.65,5.21l-.38.92Z"/></g><g class="cls-4"><path d="M282.47,331.16c-4.78.39-9.78.7-14.27,2.53l-.18-.36c4.5-2.05,9.51-2.57,14.38-3.17l.07,1Z"/></g></g><g class="cls-5"><path d="M275.63,318.78c-.92,1.75-2.15,6.33,1.32,5.22.51-.25.94-.9,1.44-1.26,1.51-1.35,3.95-1.67,4.93.5a3.14,3.14,0,0,1,.32,1.18h-1a2.55,2.55,0,0,0-.7-1.41c-1.65-1.4-3.28.92-4.7,1.66a2.19,2.19,0,0,1-3.16-2.14,9.26,9.26,0,0,1,1.3-3.88l.25.13Z"/></g><path d="M269.49,291.13c-7.33-5.55-17.14-4.51-25.58-2.3-3,.69-6,1.36-9,2l-.3-1.23c8.8-2.19,18.29-6.23,27.5-4.21a20.54,20.54,0,0,1,8.86,3.88l-1.47,1.89Z"/><g id="eye"><path class="cls-6" d="M248,296s6.85-3,11.62-2.64c7.93.53,9.51,6.87,9.51,6.87a48,48,0,0,1-14.79-.53C251.74,299.09,248,296,248,296Z"/><path d="M247.22,295.88c.08-.43.46-.65.84-.83,7.22-3.5,18.72-4.44,21.59,5.05l.13.57c-2.06.21-4.11.29-6.16.3-4.67-.06-9.67-.13-13.66-2.87-.75-.44-1.54-.94-2.29-1.38a.89.89,0,0,1-.45-.84Zm1.62.23a.72.72,0,0,0-.24-.68,5.55,5.55,0,0,0,.42.42,13.44,13.44,0,0,0,9.08,4,44,44,0,0,0,11-.17l-.42.61a9.1,9.1,0,0,0-3.46-4.43c-5-3.46-11.28-1-16.52.73l-.17.06-.09,0a.72.72,0,0,0,.4-.61Z"/><polygon points="238.52 295.5 248.03 295.12 248.03 296.87 238.52 296.5 238.52 295.5 238.52 295.5"/><g class="cls-7"><circle class="cls-8" cx="260.14" cy="297.05" r="4.23"/></g></g><g id="ear"><g class="cls-5"><path d="M206.84,300.75c.27-2.18,2.07-3.12,3.23-4.65a7.58,7.58,0,0,0,.26-9.44c-2-2.85-6.22-3.45-9.33-2.32a10.73,10.73,0,0,0-3.7,3.55c-3.8,6.16-1.21,14.5,3.33,19.58a38.12,38.12,0,0,0,3.91,3.7c1.71,1.49,2.49,3.8,4.35,5.08a5.65,5.65,0,0,0,3.74.16,3.6,3.6,0,0,0,1.53-1.9,2.68,2.68,0,0,0,0-2.42c-.31-.82-.77-1.6-1.13-2.45-.67-1.74-.63-3.59-1.09-5.34-.22-1-1-1.43-1.15-2.49h.44a6.08,6.08,0,0,0,.89,1.68c.83,1.88.61,4.09,1.37,5.95.35.81.81,1.6,1.16,2.46a3.28,3.28,0,0,1,0,2.82,4,4,0,0,1-1.82,2.2,6.46,6.46,0,0,1-2.82.23c-2-.09-3.11-2.08-4.18-3.5-1.51-2.32-3.92-3.62-5.69-5.74A21.21,21.21,0,0,1,197,303.4c-2.38-4.87-3.44-11.13-.35-15.94a11.29,11.29,0,0,1,4-3.88c3.56-1.32,8-.6,10.36,2.54a8.51,8.51,0,0,1-.23,10.6c-.95,1.27-2.77,2.5-3,4Z"/></g><g class="cls-5"><path d="M207.65,295.91a4.8,4.8,0,0,0-4.42.18c-1.8,1.36-1.32,4.16-.72,6.08.45,1.63,1.5,1.69,2.66,2.54a30,30,0,0,1,5.29,4.77.65.65,0,0,0,.32.11c-.05,0-.07,0,0,0,.44-2.57-.7-5.46-2-7.67l.37-.25a13.93,13.93,0,0,1,1.73,3.76c.29.95,1.55,5.7-.7,4.55-.87-.64-1.43-1.5-2.22-2.19a21.94,21.94,0,0,0-4.89-3.48,1.54,1.54,0,0,1-.51-.4c-1.53-2.31-2.35-6.72.21-8.62a5.72,5.72,0,0,1,5.36-.28l-.44.89Z"/></g><g class="cls-5"><path d="M208.78,295.57c2.81-4.44,0-10-5.51-9.3a3.39,3.39,0,0,0-2.33,1c-3,2.62-3.78,6.62-2.95,10.39,1,5.93,5.25,10.43,10,13.72l-.32.32c-3.16-2.16-6.39-4.79-8.44-8.25s-3.06-7.71-2.17-11.67c.79-2.82,2.94-6.31,6.08-6.52,3.33-.42,6.62,1.27,7.21,4.7a7.78,7.78,0,0,1-1.32,5.84l-.29-.23Z"/></g></g></g><g id="double_cobra_wig" data-name="double cobra wig"><g id="wig"><path class="cls-9" d="M166.87,363.51C113,261,161.42,222.64,212.68,227c39.67,3.37,55.32,19,59.54,47.47.18,1.26.74,5.09.74,5.09a1.83,1.83,0,0,1-1.84.83,3.46,3.46,0,0,1-1.87-1c-.25.5-1.82.81-2.38.77a1.47,1.47,0,0,1-1.23-1,3.3,3.3,0,0,1-1.76.85c-.66.05-2.4-.41-2.42-1.07a3.27,3.27,0,0,1-1.85,1.22,2,2,0,0,1-2-.75,2.23,2.23,0,0,1-2.82.63.89.89,0,0,0-.45-.17.79.79,0,0,0-.42.25,2.7,2.7,0,0,1-3.64-.33,2.28,2.28,0,0,1-3.35.51,1.87,1.87,0,0,1-3.45.05,1.73,1.73,0,0,1-3.16.63,2.26,2.26,0,0,1-3.37.77c-.17.37-.95,2.23-1.95,2.23-1.41,0-1.79-.82-1.74-.54a33.83,33.83,0,0,1,.52,5.41,4.5,4.5,0,0,1-.35,2.13c-.34.64-1.38,1.54-1.79.94-.64-.94.92,3.67,1.11,4.67a7.05,7.05,0,0,1-.25,3.53,2.28,2.28,0,0,1-.7,1.11,1,1,0,0,1-1.23,0A14.31,14.31,0,0,1,231.8,307a2.27,2.27,0,0,1-.31,1.5.85.85,0,0,1-1.33.09,7.57,7.57,0,0,1,0,5.87c-.22.5-.78,1.05-1.2.71-.22-.17-.41-.55-.64-.4a6,6,0,0,1,1,5.58c-.14.38-.41.82-.81.78s-.75-.48-1.07-.27a11.33,11.33,0,0,1,.26,4.81,1.08,1.08,0,0,1-.38.78c-.61.4-1.66-.5-2.07.1a4.9,4.9,0,0,1,1.12,4,2.44,2.44,0,0,1-.71,1.43,1.24,1.24,0,0,1-1.51.14,12.64,12.64,0,0,1,0,2.68,2.91,2.91,0,0,1-.39,1.4,1.15,1.15,0,0,1-1.28.5l-.43-.08a2.94,2.94,0,0,1-1.69,5.24,3.35,3.35,0,0,1,.54,2.39,3.23,3.23,0,0,1-.42,1.62,1.33,1.33,0,0,1-1.45.61,6.87,6.87,0,0,1-.5,4.33c-.32.66-1,1.36-1.67,1.13a3.15,3.15,0,0,1,.08,2.85,3.09,3.09,0,0,1-2.3,1.69c0,1.44,1.34,3.5-.65,4.73a6.3,6.3,0,0,1-2-.4c-.13.85,1,2.17-.68,3.3a5.47,5.47,0,0,1-2.92-.33h-.23a2.07,2.07,0,0,1-3.91.27c.2.82-.68,1.58-1.53,1.57a4.2,4.2,0,0,1-2.28-1,1.82,1.82,0,0,1-1.79,1.45,4,4,0,0,1-2.32-.83,2,2,0,0,1-1.69,1.07,1.94,1.94,0,0,1-1.73-1,2,2,0,0,1-3.55-.08,1.43,1.43,0,0,1-1.68,1.07,3.23,3.23,0,0,1-1.82-1.18,2,2,0,0,1-3.65,0,1.44,1.44,0,0,1-1.74.58,3,3,0,0,1-1.46-1.32,2.27,2.27,0,0,1-3.86-.05,2.79,2.79,0,0,1-4.11,0,2.18,2.18,0,0,1-2,.75C168.35,365,166.87,363.51,166.87,363.51Z"/><path class="cls-10" d="M167.31,363.26a245.37,245.37,0,0,1-17-39.72A132.44,132.44,0,0,1,144,291.23a74.7,74.7,0,0,1,2.55-25.3,52.08,52.08,0,0,1,9.76-18.64,51.46,51.46,0,0,1,15.28-12.39,64.77,64.77,0,0,1,19.08-6.49,83.58,83.58,0,0,1,21.19-1c10.88.82,22,2.68,32.05,7.16a45,45,0,0,1,19.23,15.62c4.86,7.2,7.34,15.7,8.62,24.23.26,1.75.51,3.5.77,5.26l0-.39c-.73,1.14-2.17.41-2.93-.26a.5.5,0,0,0-.78.1c-.21.31-.93.41-1.27.47-.57.09-1.18.06-1.43-.57-.1-.26-.45-.52-.73-.3a2.57,2.57,0,0,1-2.07.74c-.35-.06-1.31-.24-1.37-.67a.51.51,0,0,0-.84-.22c-.7.83-2.19,1.74-3.07.58-.17-.22-.56-.38-.78-.1a1.8,1.8,0,0,1-1.82.7c-.52-.12-.89-.54-1.45-.3s-.9.68-1.59.71a2.15,2.15,0,0,1-1.76-.74.52.52,0,0,0-.79.11,1.8,1.8,0,0,1-2.57.41.51.51,0,0,0-.79.1,1.4,1.4,0,0,1-2.58.05.5.5,0,0,0-.91.12,1.25,1.25,0,0,1-2.25.51.5.5,0,0,0-.86,0,1.78,1.78,0,0,1-2.59.66c-.22-.17-.64-.23-.79.1-.26.62-.68,1.74-1.39,2a1.78,1.78,0,0,1-1.33-.32c-.23-.15-.36-.29-.66-.24a.51.51,0,0,0-.35.35,4.48,4.48,0,0,0,.17,1.4c.1.67.17,1.35.23,2,.09,1.19.39,2.94-.19,4.05-.12.24-.57.89-.91.87-.11,0-.27-.25-.43-.29-.54-.13-.69.41-.63.82a24.75,24.75,0,0,0,.95,3.47,8,8,0,0,1,.39,2c0,.66-.32,4.12-1.53,3.2-.45-.33-.87.29-.69.68a12.57,12.57,0,0,1,1,3.79,17,17,0,0,1,.12,1.74,2.12,2.12,0,0,1-.12,1.06c-.14.26-.44.45-.67.18s-1,0-.83.49a7.26,7.26,0,0,1,.44,4.22c-.07.33-.35,1.78-.8,1.8-.18,0-.37-.33-.54-.42a.73.73,0,0,0-.58,0,.5.5,0,0,0-.3.73,5.65,5.65,0,0,1,1.19,3.62,3.33,3.33,0,0,1-.38,1.79c-.31.34-1-.23-1.44,0a.51.51,0,0,0-.34.62,11.46,11.46,0,0,1,.37,2.26,7,7,0,0,1-.13,2.37c-.22.66-.7.3-1.23.23a1.14,1.14,0,0,0-1.07.34.52.52,0,0,0,0,.71,4.36,4.36,0,0,1,1,2.78c0,.72-.38,2.7-1.52,2a.51.51,0,0,0-.76.44,11.05,11.05,0,0,1,0,3c-.07.41-.24,1-.73,1.08a2.42,2.42,0,0,1-.7-.1c-.44-.08-.9.48-.48.83a2.48,2.48,0,0,1-1.34,4.39c-.33,0-.68.42-.43.75a3.08,3.08,0,0,1,.47,2.14c0,.67-.27,2-1.24,1.75a.5.5,0,0,0-.61.62,6.52,6.52,0,0,1,0,2.78c-.15.61-.6,2.26-1.51,2.06a.5.5,0,0,0-.56.73,2.62,2.62,0,0,1-1.92,3.81.5.5,0,0,0-.37.48c0,1.07.59,2.13.4,3.2-.08.46-.45,1.1-1,1a9.63,9.63,0,0,1-1.47-.38.5.5,0,0,0-.63.48,5,5,0,0,0,.22,1.39,1.27,1.27,0,0,1-.72,1.49c-1,.27-1.92-.42-2.83-.4a.53.53,0,0,0-.49.37,1.59,1.59,0,0,1-3,.15c-.26-.56-1-.13-.91.38.12.79-.92,1-1.47.89a4.91,4.91,0,0,1-1.61-.86.51.51,0,0,0-.74.3c-.3,1.75-2.42.93-3.37.31a.51.51,0,0,0-.68.18,1.45,1.45,0,0,1-2.56.07.5.5,0,0,0-.86,0,1.51,1.51,0,0,1-2.69-.08.5.5,0,0,0-.91.12.94.94,0,0,1-1.15.7,2.81,2.81,0,0,1-1.52-1,.5.5,0,0,0-.78.1,1.57,1.57,0,0,1-2.79,0,.5.5,0,0,0-.86,0c-.67,1.09-1.91-.09-2.34-.74a.51.51,0,0,0-.87,0,1.79,1.79,0,0,1-3-.05.5.5,0,0,0-.78-.1,2.31,2.31,0,0,1-3.41,0,.51.51,0,0,0-.71,0,1.55,1.55,0,0,1-2.29.19,10,10,0,0,1-1.16-1c-.46-.45-1.17.25-.71.7a8.63,8.63,0,0,0,1.87,1.49,2.53,2.53,0,0,0,3-.67h-.71a3.33,3.33,0,0,0,4.83.05l-.79-.1a2.81,2.81,0,0,0,4.72,0h-.87a3.29,3.29,0,0,0,2,1.61,1.9,1.9,0,0,0,2-.87h-.86a2.58,2.58,0,0,0,4.51,0l-.79.1a3.36,3.36,0,0,0,2.61,1.34,1.88,1.88,0,0,0,1.73-1.44l-.91.12a2.51,2.51,0,0,0,4.41.07h-.86a2.45,2.45,0,0,0,4.28-.06l-.69.18a4.19,4.19,0,0,0,3,.85,2.26,2.26,0,0,0,1.85-1.77l-.74.3c.91.63,2,1.31,3.16,1a1.9,1.9,0,0,0,1.39-2.11l-.91.38a2.59,2.59,0,0,0,4.82-.39l-.48.37c.31,0,0-.06.15,0s.23.09.35.12a5.93,5.93,0,0,0,1,.2,3.36,3.36,0,0,0,1.86-.06,2.3,2.3,0,0,0,1.2-1.84c0-.65-.31-1.27-.25-1.91l-.63.48a7,7,0,0,0,1.92.44,1.87,1.87,0,0,0,1.47-1.07c.79-1.35-.09-2.77-.09-4.18l-.37.49a3.63,3.63,0,0,0,2.52-5.28l-.56.73c1.23.27,2-.79,2.43-1.82a7.51,7.51,0,0,0,.35-4.25l-.61.62c2.74.61,3.05-3.83,1.89-5.36l-.43.75a3.44,3.44,0,0,0,2-6.1l-.48.84c.93.17,1.76.19,2.32-.73.71-1.17.51-3,.36-4.25l-.75.43c1.43.88,2.7-.54,2.95-1.87a5.45,5.45,0,0,0-1.24-4.47v.71c.2-.23,1.22.19,1.58.12a1.33,1.33,0,0,0,1-1.13,11,11,0,0,0-.24-5.17l-.35.62c.2-.08.7.27.94.28a1.14,1.14,0,0,0,.8-.32,3.4,3.4,0,0,0,.76-2,6.51,6.51,0,0,0-1.27-4.77l-.3.73.13,0-.39-.05c.3.13.44.46.77.56a1.07,1.07,0,0,0,.84-.12,2.84,2.84,0,0,0,1.11-1.81,8.1,8.1,0,0,0-.29-5.34l-.83.49a1.32,1.32,0,0,0,1.7.2,2.3,2.3,0,0,0,.79-2.15,15,15,0,0,0-1.29-6l-.69.68c1.18.9,2.29-.35,2.66-1.41a7.36,7.36,0,0,0,.19-4.08c-.2-.8-.45-1.58-.69-2.37-.12-.42-.24-.83-.35-1.25a3.57,3.57,0,0,0-.11-.47c-.14-.36.2-.09-.25.15l-.39.05c-.22-.05-.23-.1,0,.09a.83.83,0,0,0,.32.2,1.22,1.22,0,0,0,.9-.1,3,3,0,0,0,1.52-1.92,10.91,10.91,0,0,0,.09-3.47q-.08-.94-.18-1.89c0-.27-.07-.54-.11-.81a4.34,4.34,0,0,1-.17-.86l-.35.35h0l-.39-.05c.7.38,1.67,1,2.61.51a4.35,4.35,0,0,0,1.75-2.32l-.79.1a2.78,2.78,0,0,0,4.16-.87h-.86a2.24,2.24,0,0,0,4.07-.75l-.91.12a2.39,2.39,0,0,0,4.31-.05l-.79.1a2.81,2.81,0,0,0,4.15-.61l-.79.1a3.21,3.21,0,0,0,4.09.52s.3-.27.37-.27.31.17.43.22a2.79,2.79,0,0,0,1.22.18,2.76,2.76,0,0,0,1.93-1l-.79-.1c1.27,1.68,3.45,1,4.64-.38l-.84-.22c.12.82,1.24,1.18,1.92,1.33a3.37,3.37,0,0,0,3-.81l-.73-.3a2,2,0,0,0,2.21,1.34,3.16,3.16,0,0,0,2.31-1l-.78.1c1.06,1,2.64,1.65,3.94.68.83-.62.56-1.3.43-2.18-.33-2.26-.63-4.54-1-6.79a65.35,65.35,0,0,0-3.74-13.17,44.38,44.38,0,0,0-15.18-19.48c-8.28-5.92-18.31-9-28.24-10.73a106.08,106.08,0,0,0-27.26-1.61,71.46,71.46,0,0,0-20.7,4.74A55.52,55.52,0,0,0,159.9,242a51,51,0,0,0-12.06,17.27,66.55,66.55,0,0,0-5,24,112.89,112.89,0,0,0,3.82,31.19,210.42,210.42,0,0,0,14.46,38.76q2.55,5.36,5.32,10.61C166.74,364.33,167.61,363.83,167.31,363.26Z"/><g id="hair_strands" data-name="hair strands"><path class="cls-11" d="M167.92,252.69c4.86-11.18,12.49-20.18,24-25"/><path class="cls-11" d="M175.25,364.5C165,344,163,282.49,163,264"/><path class="cls-11" d="M170.28,253.55c4.89-12,12.94-21.49,25.53-26.16"/><path class="cls-11" d="M179,365c-10-19-13-78.86-13-102"/><path class="cls-11" d="M173.06,253.44c6.26-11.64,12.57-21.62,25.13-26.51"/><path class="cls-11" d="M182,365c-11-22-13-89-13-102"/><path class="cls-11" d="M164.74,252.76c4.78-11,12.19-19.61,23.26-23.76"/><path class="cls-11" d="M171,364.25C160,336,160.5,290,160.5,261"/><path class="cls-11" d="M162.3,252.87c4.72-11.15,12-19.85,22.7-23.62"/><path class="cls-11" d="M160.85,351.39c-4.1-11.41-7.44-53.94-4.44-85.94"/><path class="cls-11" d="M159.86,252.6C164.31,242.79,171,234.93,181,231"/><path class="cls-11" d="M154.9,337.81c-3.23-16.06-4.39-47.33-.25-72.36"/><path class="cls-11" d="M157.88,252.26c4.38-9.11,10.8-16.53,20.12-20.26"/><path class="cls-11" d="M150,324c-.61-7.36-3.59-35.09,2.66-58.62"/><path class="cls-11" d="M154.91,253.38c4.53-9.46,11.23-17.2,21.09-20.38"/><path class="cls-11" d="M146.18,310.1c-.56-6.68-.86-26.71,4.33-44.89"/><path class="cls-11" d="M144,298c0-16,3-30,5-34"/><path class="cls-11" d="M167,363.79C156,332,158,290,158,261"/><path class="cls-11" d="M185.83,365.34C172,329,171.5,276,171.5,263"/><path class="cls-11" d="M189.5,365.5C174,328,174.5,276,174.5,263"/><path class="cls-11" d="M193,365.44C177.5,327.94,178,276,178,263"/><path class="cls-11" d="M196.5,365.72C180,328,181,276,181,263"/><path class="cls-11" d="M200.5,365C184,327.28,184,277,184,264"/><path class="cls-11" d="M204.35,364.34C187.85,326.62,187,277,187,264"/><path class="cls-11" d="M208.55,364.21C192.05,326.48,190.5,278,190.5,265"/><path class="cls-11" d="M212,361c-7-10-18-59-18-97"/><path class="cls-11" d="M214.7,357c-7-10-17.41-58.75-17.41-96.75"/><path class="cls-11" d="M217.18,352.47c-7-10-17.31-58.84-17.31-96.84"/><path class="cls-11" d="M219.37,347C212.37,337,205,297.31,203,261.87"/><path class="cls-11" d="M220.38,341.88c-7-10-12.39-42.44-14.38-77.88"/><path class="cls-11" d="M222.51,336.93c-4.37-1.45-12.39-42.44-14.38-77.88"/><path class="cls-11" d="M224.65,332.36c-4.37-1.45-12.65-41.22-14-76.73"/><path class="cls-11" d="M225.69,326.84c-4.37-1.45-10-32.15-12.17-68.64"/><path class="cls-11" d="M227.93,321.24c-4.37-1.45-10-30.26-12.17-66.76"/><path class="cls-11" d="M228.72,315.08c-3.16-2.53-6.21-16.59-9.75-51.52"/><path class="cls-11" d="M230.13,308.63c-3.16-2.54-5.47-15.09-9-50"/><path class="cls-11" d="M230.86,301.51c-3.16-2.53-5.57-24.4-7-40.18"/><path class="cls-11" d="M231.66,292.43c-1.29-4-3.39-12.66-4.83-28.43"/><path class="cls-11" d="M233.45,284.24c-1.44-3.47-2.81-7.88-4.26-23.66"/><path class="cls-11" d="M237,281.85c-1.33-4-2.72-7.88-4.17-23.65"/><path class="cls-11" d="M240.43,281.42c-.52-4.42-2.13-11.4-2.59-16"/><path class="cls-11" d="M243.57,280.77c-.52-4.43-.52-11.32-2-15.77"/><path class="cls-11" d="M247,280.43a92,92,0,0,0-1.26-15.7"/><path class="cls-11" d="M250.28,280.26a92,92,0,0,0-1.25-15.7"/><path class="cls-11" d="M254.31,280.16a92,92,0,0,0-1.26-15.7"/><path class="cls-11" d="M257.62,279.7a92,92,0,0,0-1.26-15.7"/><path class="cls-11" d="M261.37,279.27a92.24,92.24,0,0,0-1.25-15.71"/><path class="cls-11" d="M265.56,279.27a91.78,91.78,0,0,0-1.76-15.71"/><path class="cls-11" d="M269.2,279.7c0-4.7-1.33-11.84-2.2-16.14"/><path class="cls-11" d="M177.93,253.44A43.3,43.3,0,0,1,200,226.93"/><path class="cls-11" d="M182,253.44c3.07-10,7-20.25,19.49-26.7"/><path class="cls-11" d="M185.93,252.87c2.07-9.68,5.82-18.31,15.56-26.13"/><path class="cls-11" d="M190.14,252.8c1.22-9.61,4.53-17.58,12.86-26.13"/><path class="cls-11" d="M193.09,252.87c1.22-9.61,3.72-17,11.26-26.2"/><path class="cls-11" d="M196.57,252.26c1.62-9.47,2.66-15.94,8.72-25.52"/><path class="cls-11" d="M200,251.62c1.62-9.47,1.38-14.87,6.95-24.88"/><path class="cls-11" d="M203.47,251.62c.88-9.19,1.16-15.91,3.8-24.69"/><path class="cls-11" d="M206.62,251.84c.32-9,.36-15.31,1.91-25.17"/><path class="cls-11" d="M208.76,252.08c.32-9,.38-15.32,1.59-25.25"/><path class="cls-11" d="M211.7,251.85c0-8.66-.47-15,0-24.93"/><path class="cls-11" d="M214.81,252.2c-.11-8.34-1.69-19.2-2.13-25.2"/><path class="cls-11" d="M218.25,251.78c-.11-8.34-2.33-17.34-5.09-24.74"/><path class="cls-11" d="M221,252.1c-.11-8.34-3.53-17.52-6.29-24.92"/><path class="cls-11" d="M223.79,251.75c-.11-8.34-3.86-17.64-7.71-24.36"/><path class="cls-11" d="M227,250.85c-.11-8.34-4.46-16.74-9.32-23.35"/><path class="cls-11" d="M230.43,251.48c-.11-8.34-5.05-18-11.3-23.8"/><path class="cls-11" d="M233.76,251.7c-.11-8.34-5.83-18.14-13-23.79"/><path class="cls-11" d="M238.1,252c-.1-8.33-10.17-20.62-15.59-23.79"/><path class="cls-11" d="M241.55,252.08c-.11-8.33-10.69-20.61-16.92-23.36"/><path class="cls-11" d="M244.85,252.08c-.11-8.33-10.09-20.28-18.18-23.2"/><path class="cls-11" d="M247.93,252.48c-.1-8.34-10.94-20.22-19-23.15"/><path class="cls-11" d="M251.34,252.08c-.11-8.33-10.66-18.74-19.25-22"/><path class="cls-11" d="M254.18,251.48c-.11-8.33-10.82-17.21-19.42-20.48"/><path class="cls-11" d="M257.59,251.62c-.87-10-12.61-16.68-21.21-20"/><path class="cls-11" d="M261,251.84c-2.87-9.63-13.68-16.53-22.28-19.8"/></g></g><g id="crown_copy" data-name="crown copy"><g id="side_thing" data-name="side thing"><path class="cls-12" d="M146.11,266.15l1.22-.75h0l45.74,72.18a1.52,1.52,0,0,1-.34,2l-1.2.94a.77.77,0,0,1-1.14-.21L146.1,266.18A0,0,0,0,1,146.11,266.15Z"/><path class="cls-12" d="M152.49,265.38h0a.84.84,0,0,1,1.16.2c16.09,22.34,31.93,45.36,49.23,66.75a.64.64,0,0,1-.16.94l-1.58,1a1.49,1.49,0,0,1-2-.41c-5-7.15-32.24-46.06-46.86-67.29A.84.84,0,0,1,152.49,265.38Z"/><path class="cls-12" d="M199.84,334.79s-32-45.68-48-68.93l-4.45-.47,46.38,73.25Z"/><line class="cls-13" x1="189.99" y1="332.49" x2="195.44" y2="328.86"/><line class="cls-13" x1="188.78" y1="330.76" x2="194.41" y2="327"/><line class="cls-13" x1="187.52" y1="328.88" x2="193.02" y2="325.15"/><line class="cls-13" x1="186.42" y1="327.06" x2="191.89" y2="323.39"/><line class="cls-13" x1="183.44" y1="322.66" x2="188.89" y2="319.02"/><line class="cls-13" x1="182.23" y1="320.93" x2="187.86" y2="317.16"/><line class="cls-13" x1="180.97" y1="319.04" x2="186.47" y2="315.32"/><line class="cls-13" x1="179.87" y1="317.23" x2="185.34" y2="313.55"/><line class="cls-13" x1="177.18" y1="312.65" x2="182.24" y2="309.31"/><line class="cls-13" x1="176.05" y1="311.06" x2="181.27" y2="307.59"/><line class="cls-13" x1="174.88" y1="309.33" x2="179.99" y2="305.9"/><line class="cls-13" x1="173.86" y1="307.65" x2="178.94" y2="304.27"/><line class="cls-13" x1="170.42" y1="301.67" x2="174.96" y2="298.67"/><line class="cls-13" x1="169.41" y1="300.24" x2="174.1" y2="297.14"/><line class="cls-13" x1="168.36" y1="298.69" x2="172.94" y2="295.62"/><line class="cls-13" x1="167.45" y1="297.19" x2="172" y2="294.16"/><line class="cls-13" x1="163.66" y1="291.8" x2="168.02" y2="288.92"/><line class="cls-13" x1="162.69" y1="290.43" x2="167.19" y2="287.45"/><line class="cls-13" x1="161.68" y1="288.94" x2="166.08" y2="285.98"/><line class="cls-13" x1="160.8" y1="287.5" x2="165.18" y2="284.58"/><line class="cls-13" x1="158.27" y1="283.32" x2="162.41" y2="280.59"/><line class="cls-13" x1="157.36" y1="282.02" x2="161.62" y2="279.2"/><line class="cls-13" x1="156.4" y1="280.61" x2="160.57" y2="277.81"/><line class="cls-13" x1="155.57" y1="279.24" x2="159.72" y2="276.48"/><line class="cls-13" x1="153.51" y1="275.54" x2="157.19" y2="273.1"/><line class="cls-13" x1="152.69" y1="274.38" x2="156.49" y2="271.86"/><line class="cls-13" x1="151.83" y1="273.12" x2="155.55" y2="270.62"/><line class="cls-13" x1="151.09" y1="271.9" x2="154.79" y2="269.43"/><g id="cobra"><path class="cls-12" d="M201.84,294.5s1.41-1,1.89-.84a12.07,12.07,0,0,0,4.32,0c2.31-.25,3.67-1.88,3.2-3.07-.31-.79-1.86-.35-2.69-.54a5.48,5.48,0,0,0-3.63-.87,4.23,4.23,0,0,0-2.68,1.07c-.5.62-19.64,4.13,1.35,27.44"/><path class="cls-14" d="M202,291.58l1.33-.43a6,6,0,0,0,1.32-.52,1.68,1.68,0,0,1,2.75.4l0,.3a3.21,3.21,0,0,1-1.32.7,1.43,1.43,0,0,1-.61.08c-.4-.14-.86-.55-1.32-.45a3.49,3.49,0,0,0-1.86.44l-.26-.52Z"/><path class="cls-12" d="M153.65,265.58c16.09,22.34,33.12,46.53,49.23,66.75,1.41,1.77,7.36,2.21,9.29,1,3.3-2,3.16-6.95,3-9.49-.25-4.06-2.78-9.86-3.28-12.89-.36-2.21-.33-10.81-4.65-14.64-1.22-1.08-11.25-6.24-10.34,7.52.23,3.56,4.39,9.76,6.12,12.88,1.15,2.07,4.06,5.85,5.1,8,.94,1.93-1.85,4.93-5.1,1.1-14.23-16.76-47.67-61.1-47.67-61.1l-1.7.86"/></g></g><g id="cobra-2" data-name="cobra"><path class="cls-12" d="M275.92,233.8s1.41-1,1.9-.84c1.16.41,3.47-.88,4.51-1,2.31-.25,3.67-1.88,3.2-3.08-.31-.78-1.86-.34-2.69-.53a5.48,5.48,0,0,0-3.63-.87,4.21,4.21,0,0,0-2.68,1.07c-.5.62-20.17,5.24,2.46,31.48"/><path class="cls-14" d="M276.23,229.87l1.33-.43a6.25,6.25,0,0,0,1.32-.52,1.68,1.68,0,0,1,2.75.4l0,.3a3.28,3.28,0,0,1-1.32.7,1.48,1.48,0,0,1-.62.08c-.39-.14-.85-.55-1.32-.45a3.47,3.47,0,0,0-1.85.44l-.26-.52Z"/><path class="cls-12" d="M264.66,267.36c3.85,10.08,9.77,9.09,13.51,7.68,7.65-2.88,5.28-19.85,5.14-24.19-.07-2.21,1.55-12.19-2.77-16-1.23-1.09-10.3-3.58-9.37,7.32a51.59,51.59,0,0,0,3.48,12.77c.93,2.18,3.47,9.69,2.47,12.66-.68,2-4.26,4.73-5.75-.22"/></g><path class="cls-12" d="M145.86,263.05a28.71,28.71,0,0,1,4.23-8.25c.23-.32,1.17-1.62,1.59-1.61l113.42.29c.55,0,2,2,2.35,2.39a25,25,0,0,1,3.52,8.21c.13.49-.33,1.7-.88,1.7l-123.73-.41C145.8,265.36,145.74,263.55,145.86,263.05Z"/><line class="cls-13" x1="161.54" y1="253.34" x2="161.4" y2="264.63"/><line class="cls-13" x1="158.55" y1="253.3" x2="158.4" y2="264.6"/><line class="cls-13" x1="155.55" y1="253.27" x2="155.41" y2="264.57"/><line class="cls-13" x1="152.56" y1="253.24" x2="152.41" y2="264.54"/><line class="cls-13" x1="182.25" y1="253.57" x2="182.1" y2="264.86"/><line class="cls-13" x1="179.21" y1="253.57" x2="179.07" y2="264.86"/><line class="cls-13" x1="176.22" y1="253.53" x2="176.07" y2="264.83"/><line class="cls-13" x1="173.22" y1="253.5" x2="173.08" y2="264.8"/><line class="cls-13" x1="170.23" y1="253.47" x2="170.08" y2="264.77"/><line class="cls-13" x1="203" y1="253.88" x2="202.86" y2="265.18"/><line class="cls-13" x1="199.96" y1="253.88" x2="199.82" y2="265.18"/><line class="cls-13" x1="196.97" y1="253.85" x2="196.82" y2="265.15"/><line class="cls-13" x1="193.97" y1="253.82" x2="193.83" y2="265.11"/><line class="cls-13" x1="190.98" y1="253.79" x2="190.83" y2="265.08"/><line class="cls-13" x1="225.81" y1="253.38" x2="225.66" y2="264.68"/><line class="cls-13" x1="222.77" y1="253.38" x2="222.62" y2="264.68"/><line class="cls-13" x1="219.77" y1="253.35" x2="219.63" y2="264.65"/><line class="cls-13" x1="216.78" y1="253.32" x2="216.63" y2="264.61"/><line class="cls-13" x1="213.78" y1="253.29" x2="213.64" y2="264.58"/><line class="cls-13" x1="247.76" y1="253.93" x2="247.61" y2="265.22"/><line class="cls-13" x1="244.72" y1="253.93" x2="244.57" y2="265.22"/><line class="cls-13" x1="241.72" y1="253.9" x2="241.58" y2="265.19"/><line class="cls-13" x1="238.73" y1="253.87" x2="238.58" y2="265.16"/><line class="cls-13" x1="235.73" y1="253.83" x2="235.59" y2="265.13"/><line class="cls-13" x1="266.12" y1="253.52" x2="265.97" y2="264.81"/><line class="cls-13" x1="263.08" y1="253.52" x2="262.93" y2="264.81"/><line class="cls-13" x1="260.08" y1="253.49" x2="259.94" y2="264.78"/><line class="cls-13" x1="257.09" y1="253.45" x2="256.94" y2="264.75"/><line class="cls-13" x1="254.09" y1="253.42" x2="253.95" y2="264.72"/><path class="cls-12" d="M144.66,265.81l.44-1.29a.94.94,0,0,1,.87-.59c60.09-1.08,118.06.43,124.45.6a.74.74,0,0,1,.71.52l.48,1.85a.38.38,0,0,1-.41.46c-6.2-.17-65.74-1.69-125.78-.62A.74.74,0,0,1,144.66,265.81Z"/><path class="cls-12" d="M150.64,253.76l.79-1.29a1.22,1.22,0,0,1,1-.59c58.93-1.09,106.63.3,112.9.48a.83.83,0,0,1,.77.52l.74,1.85c.07.24-.25.47-.52.46-6.08-.16-56.36-1.59-115.22-.51C150.62,254.69,150.48,254.22,150.64,253.76Z"/><g id="snake_coil_copy_2" data-name="snake coil copy 2"><path class="cls-12" d="M187.92,251.22c0-.93-1.65-.61-2.16,0-4.49,5.06-5.84,13-8.24,18.24a29,29,0,0,1-5.57,7.34c-.15.11-.34-.12-.21-.25a14.24,14.24,0,0,0,4-8.13c1-6.13,3.3-15.78,6.51-19.35,2.55-2.84,8.32-4.33,9.54,2.11"/><path class="cls-12" d="M194.57,266.52c0,.62,3.46.77,5.39-1.92,6.19-8.59,8-12.35,12.07-16.82A7.83,7.83,0,0,1,221.5,246c1.68.84,3.6,3.24,3.58,5.2l-6.22-.08c.18-1.09-1.6-1.15-2.61-.15-4.32,4.28-6.11,9.88-13.08,17.29-2.79,3-6.08,4.61-9.56,3.38-1.73-.6-3.46-3.39-3.44-5.19"/><path class="cls-12" d="M232.55,266.66a3.35,3.35,0,0,0,3.29.64C241,266,247.31,254,251.2,248.88c3.49-4.64,9.88-6.09,14,3l-6.87-.19c-1.67-4.24-10.47,16.28-18.18,20.11-2.48,1.23-5.76,2.37-9.53.63-1.36-.63-5.05-3.49-5-5.78"/></g></g></g></g></g><g id="Head_copy" data-name="Head copy"><rect id="head_bounding_box" data-name="head bounding box" class="cls-1" width="400" height="500"/></g></g></svg>