<svg xmlns="http://www.w3.org/2000/svg" xmlns:xlink="http://www.w3.org/1999/xlink" viewBox="0 0 400 500"><defs><style>.cls-1,.cls-2,.cls-3,.cls-31,.cls-4,.cls-5{fill:none;}.cls-2,.cls-22,.cls-32,.cls-6{stroke:#cd9933;}.cls-10,.cls-12,.cls-18,.cls-19,.cls-2,.cls-20,.cls-21,.cls-22,.cls-24,.cls-29,.cls-3,.cls-31,.cls-32,.cls-35,.cls-36,.cls-4,.cls-40,.cls-5,.cls-6,.cls-7,.cls-9{stroke-miterlimit:10;}.cls-10,.cls-3,.cls-35,.cls-36{stroke:#013334;}.cls-19,.cls-20,.cls-21,.cls-4,.cls-9{stroke:#7c001a;}.cls-4{stroke-width:2px;}.cls-5{stroke:#fdcc66;}.cls-38,.cls-6{fill:#fdcc66;}.cls-7{fill:#039;opacity:0.65;}.cls-24,.cls-40,.cls-7{stroke:#003466;}.cls-8{fill:#cd9933;}.cls-9{fill:#a50022;}.cls-10{fill:#339967;}.cls-11{fill:#7c001a;}.cls-12{fill:#a74432;}.cls-12,.cls-18{stroke:#000;}.cls-13{opacity:0.6;}.cls-14{opacity:0.5;}.cls-15{opacity:0.31;}.cls-16,.cls-22,.cls-29{fill:#fefcf0;}.cls-17{clip-path:url(#clip-path);}.cls-18{fill:#161616;}.cls-19{fill:#cd3333;}.cls-20{fill:url(#New_Pattern_16);}.cls-21{fill:url(#New_Pattern_16-3);}.cls-23{fill:url(#light_yellow_thick_lines);}.cls-24{fill:#003466;}.cls-25{fill:url(#light_yellow_thick_lines-181);}.cls-26{fill:url(#light_yellow_thick_lines-183);}.cls-27{fill:url(#light_yellow_thick_lines-185);}.cls-28{fill:url(#light_yellow_thick_lines-187);}.cls-29,.cls-31{stroke:silver;}.cls-30{clip-path:url(#clip-path-2);}.cls-32{fill:url(#New_Pattern_11);}.cls-33{clip-path:url(#clip-path-3);}.cls-34{clip-path:url(#clip-path-4);}.cls-35{fill:url(#New_Pattern_13);}.cls-36{fill:url(#New_Pattern_13-3);}.cls-37{fill:url(#uraeus_far);}.cls-39{clip-path:url(#clip-path-5);}.cls-40{fill:#00536f;}.cls-41{fill:url(#light_yellow_thick_lines-189);}</style><clipPath id="clip-path"><path class="cls-1" d="M248,296s8.87-2.34,11.62-2.11c6.34.53,9.51,6.34,9.51,6.34s-8.45,1.59-14.79-.53C252.63,299.11,248,296,248,296Z"/></clipPath><pattern id="New_Pattern_16" data-name="New Pattern 16" width="27.89" height="27.25" patternTransform="matrix(-0.11, -0.57, 0.27, 0.1, 2.99, -11.64)" patternUnits="userSpaceOnUse" viewBox="0 0 27.89 27.25"><rect class="cls-1" width="27.89" height="27.25"/><line class="cls-4" x1="21.92" x2="21.92" y2="27.25"/><line class="cls-4" x1="7.97" x2="7.97" y2="27.25"/><line class="cls-4" x1="14.97" x2="14.97" y2="27.25"/><line class="cls-4" x1="1.03" x2="1.03" y2="27.25"/></pattern><pattern id="New_Pattern_16-3" data-name="New Pattern 16" width="27.89" height="27.25" patternTransform="matrix(0.11, -0.57, -0.27, 0.1, -0.69, -9.02)" patternUnits="userSpaceOnUse" viewBox="0 0 27.89 27.25"><rect class="cls-1" width="27.89" height="27.25"/><line class="cls-4" x1="21.92" x2="21.92" y2="27.25"/><line class="cls-4" x1="7.97" x2="7.97" y2="27.25"/><line class="cls-4" x1="14.97" x2="14.97" y2="27.25"/><line class="cls-4" x1="1.03" x2="1.03" y2="27.25"/></pattern><pattern id="light_yellow_thick_lines" data-name="light yellow thick lines" width="5.1" height="8.75" patternUnits="userSpaceOnUse" viewBox="0 0 5.1 8.75"><rect class="cls-1" width="5.1" height="8.75"/><line class="cls-5" x1="5.36" y1="7.42" x2="12.36" y2="19.42"/><line class="cls-5" x1="3.4" y1="8.51" x2="10.4" y2="20.51"/><line class="cls-5" x1="2.76" y1="7.42" x2="9.76" y2="19.42"/><line class="cls-5" x1="0.26" y1="7.42" x2="7.26" y2="19.42"/><line class="cls-5" x1="-1.7" y1="8.51" x2="5.3" y2="20.51"/><line class="cls-5" x1="-2.34" y1="7.42" x2="4.66" y2="19.42"/><line class="cls-5" x1="-4.84" y1="7.42" x2="2.16" y2="19.42"/><line class="cls-5" x1="-6.79" y1="8.51" x2="0.21" y2="20.51"/><line class="cls-5" x1="5.36" y1="-1.33" x2="12.36" y2="10.67"/><line class="cls-5" x1="3.4" y1="-0.24" x2="10.4" y2="11.76"/><line class="cls-5" x1="2.76" y1="-1.33" x2="9.76" y2="10.67"/><line class="cls-5" x1="0.26" y1="-1.33" x2="7.26" y2="10.67"/><line class="cls-5" x1="-1.7" y1="-0.24" x2="5.3" y2="11.76"/><line class="cls-5" x1="-2.34" y1="-1.33" x2="4.66" y2="10.67"/><line class="cls-5" x1="-4.84" y1="-1.33" x2="2.16" y2="10.67"/><line class="cls-5" x1="-6.79" y1="-0.24" x2="0.21" y2="11.76"/><line class="cls-5" x1="5.36" y1="-10.09" x2="12.36" y2="1.91"/><line class="cls-5" x1="3.4" y1="-9" x2="10.4" y2="3"/><line class="cls-5" x1="2.76" y1="-10.09" x2="9.76" y2="1.91"/><line class="cls-5" x1="0.26" y1="-10.09" x2="7.26" y2="1.91"/><line class="cls-5" x1="-1.7" y1="-9" x2="5.3" y2="3"/><line class="cls-5" x1="-2.34" y1="-10.09" x2="4.66" y2="1.91"/><line class="cls-5" x1="-4.84" y1="-10.09" x2="2.16" y2="1.91"/><line class="cls-5" x1="-6.79" y1="-9" x2="0.21" y2="3"/></pattern><pattern id="light_yellow_thick_lines-181" data-name="light yellow thick lines" width="5.1" height="8.75" patternTransform="translate(3.71 1.09) rotate(-70.34)" patternUnits="userSpaceOnUse" viewBox="0 0 5.1 8.75"><rect class="cls-1" width="5.1" height="8.75"/><line class="cls-5" x1="5.36" y1="7.42" x2="12.36" y2="19.42"/><line class="cls-5" x1="3.4" y1="8.51" x2="10.4" y2="20.51"/><line class="cls-5" x1="2.76" y1="7.42" x2="9.76" y2="19.42"/><line class="cls-5" x1="0.26" y1="7.42" x2="7.26" y2="19.42"/><line class="cls-5" x1="-1.7" y1="8.51" x2="5.3" y2="20.51"/><line class="cls-5" x1="-2.34" y1="7.42" x2="4.66" y2="19.42"/><line class="cls-5" x1="-4.84" y1="7.42" x2="2.16" y2="19.42"/><line class="cls-5" x1="-6.79" y1="8.51" x2="0.21" y2="20.51"/><line class="cls-5" x1="5.36" y1="-1.33" x2="12.36" y2="10.67"/><line class="cls-5" x1="3.4" y1="-0.24" x2="10.4" y2="11.76"/><line class="cls-5" x1="2.76" y1="-1.33" x2="9.76" y2="10.67"/><line class="cls-5" x1="0.26" y1="-1.33" x2="7.26" y2="10.67"/><line class="cls-5" x1="-1.7" y1="-0.24" x2="5.3" y2="11.76"/><line class="cls-5" x1="-2.34" y1="-1.33" x2="4.66" y2="10.67"/><line class="cls-5" x1="-4.84" y1="-1.33" x2="2.16" y2="10.67"/><line class="cls-5" x1="-6.79" y1="-0.24" x2="0.21" y2="11.76"/><line class="cls-5" x1="5.36" y1="-10.09" x2="12.36" y2="1.91"/><line class="cls-5" x1="3.4" y1="-9" x2="10.4" y2="3"/><line class="cls-5" x1="2.76" y1="-10.09" x2="9.76" y2="1.91"/><line class="cls-5" x1="0.26" y1="-10.09" x2="7.26" y2="1.91"/><line class="cls-5" x1="-1.7" y1="-9" x2="5.3" y2="3"/><line class="cls-5" x1="-2.34" y1="-10.09" x2="4.66" y2="1.91"/><line class="cls-5" x1="-4.84" y1="-10.09" x2="2.16" y2="1.91"/><line class="cls-5" x1="-6.79" y1="-9" x2="0.21" y2="3"/></pattern><pattern id="light_yellow_thick_lines-183" data-name="light yellow thick lines" width="5.1" height="8.75" patternTransform="matrix(-0.34, -0.94, -0.94, 0.34, 3.95, -0.81)" patternUnits="userSpaceOnUse" viewBox="0 0 5.1 8.75"><rect class="cls-1" width="5.1" height="8.75"/><line class="cls-5" x1="5.36" y1="7.42" x2="12.36" y2="19.42"/><line class="cls-5" x1="3.4" y1="8.51" x2="10.4" y2="20.51"/><line class="cls-5" x1="2.76" y1="7.42" x2="9.76" y2="19.42"/><line class="cls-5" x1="0.26" y1="7.42" x2="7.26" y2="19.42"/><line class="cls-5" x1="-1.7" y1="8.51" x2="5.3" y2="20.51"/><line class="cls-5" x1="-2.34" y1="7.42" x2="4.66" y2="19.42"/><line class="cls-5" x1="-4.84" y1="7.42" x2="2.16" y2="19.42"/><line class="cls-5" x1="-6.79" y1="8.51" x2="0.21" y2="20.51"/><line class="cls-5" x1="5.36" y1="-1.33" x2="12.36" y2="10.67"/><line class="cls-5" x1="3.4" y1="-0.24" x2="10.4" y2="11.76"/><line class="cls-5" x1="2.76" y1="-1.33" x2="9.76" y2="10.67"/><line class="cls-5" x1="0.26" y1="-1.33" x2="7.26" y2="10.67"/><line class="cls-5" x1="-1.7" y1="-0.24" x2="5.3" y2="11.76"/><line class="cls-5" x1="-2.34" y1="-1.33" x2="4.66" y2="10.67"/><line class="cls-5" x1="-4.84" y1="-1.33" x2="2.16" y2="10.67"/><line class="cls-5" x1="-6.79" y1="-0.24" x2="0.21" y2="11.76"/><line class="cls-5" x1="5.36" y1="-10.09" x2="12.36" y2="1.91"/><line class="cls-5" x1="3.4" y1="-9" x2="10.4" y2="3"/><line class="cls-5" x1="2.76" y1="-10.09" x2="9.76" y2="1.91"/><line class="cls-5" x1="0.26" y1="-10.09" x2="7.26" y2="1.91"/><line class="cls-5" x1="-1.7" y1="-9" x2="5.3" y2="3"/><line class="cls-5" x1="-2.34" y1="-10.09" x2="4.66" y2="1.91"/><line class="cls-5" x1="-4.84" y1="-10.09" x2="2.16" y2="1.91"/><line class="cls-5" x1="-6.79" y1="-9" x2="0.21" y2="3"/></pattern><pattern id="light_yellow_thick_lines-185" data-name="light yellow thick lines" width="5.1" height="8.75" patternTransform="translate(3.7 9.64) rotate(-63.01)" patternUnits="userSpaceOnUse" viewBox="0 0 5.1 8.75"><rect class="cls-1" width="5.1" height="8.75"/><line class="cls-5" x1="5.36" y1="7.42" x2="12.36" y2="19.42"/><line class="cls-5" x1="3.4" y1="8.51" x2="10.4" y2="20.51"/><line class="cls-5" x1="2.76" y1="7.42" x2="9.76" y2="19.42"/><line class="cls-5" x1="0.26" y1="7.42" x2="7.26" y2="19.42"/><line class="cls-5" x1="-1.7" y1="8.51" x2="5.3" y2="20.51"/><line class="cls-5" x1="-2.34" y1="7.42" x2="4.66" y2="19.42"/><line class="cls-5" x1="-4.84" y1="7.42" x2="2.16" y2="19.42"/><line class="cls-5" x1="-6.79" y1="8.51" x2="0.21" y2="20.51"/><line class="cls-5" x1="5.36" y1="-1.33" x2="12.36" y2="10.67"/><line class="cls-5" x1="3.4" y1="-0.24" x2="10.4" y2="11.76"/><line class="cls-5" x1="2.76" y1="-1.33" x2="9.76" y2="10.67"/><line class="cls-5" x1="0.26" y1="-1.33" x2="7.26" y2="10.67"/><line class="cls-5" x1="-1.7" y1="-0.24" x2="5.3" y2="11.76"/><line class="cls-5" x1="-2.34" y1="-1.33" x2="4.66" y2="10.67"/><line class="cls-5" x1="-4.84" y1="-1.33" x2="2.16" y2="10.67"/><line class="cls-5" x1="-6.79" y1="-0.24" x2="0.21" y2="11.76"/><line class="cls-5" x1="5.36" y1="-10.09" x2="12.36" y2="1.91"/><line class="cls-5" x1="3.4" y1="-9" x2="10.4" y2="3"/><line class="cls-5" x1="2.76" y1="-10.09" x2="9.76" y2="1.91"/><line class="cls-5" x1="0.26" y1="-10.09" x2="7.26" y2="1.91"/><line class="cls-5" x1="-1.7" y1="-9" x2="5.3" y2="3"/><line class="cls-5" x1="-2.34" y1="-10.09" x2="4.66" y2="1.91"/><line class="cls-5" x1="-4.84" y1="-10.09" x2="2.16" y2="1.91"/><line class="cls-5" x1="-6.79" y1="-9" x2="0.21" y2="3"/></pattern><pattern id="light_yellow_thick_lines-187" data-name="light yellow thick lines" width="5.1" height="8.75" patternTransform="translate(2.78 8.94) rotate(-63.01)" patternUnits="userSpaceOnUse" viewBox="0 0 5.1 8.75"><rect class="cls-1" width="5.1" height="8.75"/><line class="cls-5" x1="5.36" y1="7.42" x2="12.36" y2="19.42"/><line class="cls-5" x1="3.4" y1="8.51" x2="10.4" y2="20.51"/><line class="cls-5" x1="2.76" y1="7.42" x2="9.76" y2="19.42"/><line class="cls-5" x1="0.26" y1="7.42" x2="7.26" y2="19.42"/><line class="cls-5" x1="-1.7" y1="8.51" x2="5.3" y2="20.51"/><line class="cls-5" x1="-2.34" y1="7.42" x2="4.66" y2="19.42"/><line class="cls-5" x1="-4.84" y1="7.42" x2="2.16" y2="19.42"/><line class="cls-5" x1="-6.79" y1="8.51" x2="0.21" y2="20.51"/><line class="cls-5" x1="5.36" y1="-1.33" x2="12.36" y2="10.67"/><line class="cls-5" x1="3.4" y1="-0.24" x2="10.4" y2="11.76"/><line class="cls-5" x1="2.76" y1="-1.33" x2="9.76" y2="10.67"/><line class="cls-5" x1="0.26" y1="-1.33" x2="7.26" y2="10.67"/><line class="cls-5" x1="-1.7" y1="-0.24" x2="5.3" y2="11.76"/><line class="cls-5" x1="-2.34" y1="-1.33" x2="4.66" y2="10.67"/><line class="cls-5" x1="-4.84" y1="-1.33" x2="2.16" y2="10.67"/><line class="cls-5" x1="-6.79" y1="-0.24" x2="0.21" y2="11.76"/><line class="cls-5" x1="5.36" y1="-10.09" x2="12.36" y2="1.91"/><line class="cls-5" x1="3.4" y1="-9" x2="10.4" y2="3"/><line class="cls-5" x1="2.76" y1="-10.09" x2="9.76" y2="1.91"/><line class="cls-5" x1="0.26" y1="-10.09" x2="7.26" y2="1.91"/><line class="cls-5" x1="-1.7" y1="-9" x2="5.3" y2="3"/><line class="cls-5" x1="-2.34" y1="-10.09" x2="4.66" y2="1.91"/><line class="cls-5" x1="-4.84" y1="-10.09" x2="2.16" y2="1.91"/><line class="cls-5" x1="-6.79" y1="-9" x2="0.21" y2="3"/></pattern><clipPath id="clip-path-2"><path class="cls-1" d="M214,92.15c-4.11,0-14.65,13.91-14.65,101.52,0,26.05,8.1,29.62,14.65,29.62s14.65-3.57,14.65-29.62C228.65,106.06,218.11,92.15,214,92.15Z"/></clipPath><pattern id="New_Pattern_11" data-name="New Pattern 11" width="5.1" height="8.75" patternTransform="translate(10.55 6.95) rotate(-59.84)" patternUnits="userSpaceOnUse" viewBox="0 0 5.1 8.75"><rect class="cls-1" width="5.1" height="8.75"/><line class="cls-2" x1="5.36" y1="7.42" x2="12.36" y2="19.42"/><line class="cls-2" x1="3.4" y1="8.51" x2="10.4" y2="20.51"/><line class="cls-2" x1="2.76" y1="7.42" x2="9.76" y2="19.42"/><line class="cls-2" x1="0.26" y1="7.42" x2="7.26" y2="19.42"/><line class="cls-2" x1="-1.7" y1="8.51" x2="5.3" y2="20.51"/><line class="cls-2" x1="-2.34" y1="7.42" x2="4.66" y2="19.42"/><line class="cls-2" x1="-4.84" y1="7.42" x2="2.16" y2="19.42"/><line class="cls-2" x1="-6.79" y1="8.51" x2="0.21" y2="20.51"/><line class="cls-2" x1="5.36" y1="-1.33" x2="12.36" y2="10.67"/><line class="cls-2" x1="3.4" y1="-0.24" x2="10.4" y2="11.76"/><line class="cls-2" x1="2.76" y1="-1.33" x2="9.76" y2="10.67"/><line class="cls-2" x1="0.26" y1="-1.33" x2="7.26" y2="10.67"/><line class="cls-2" x1="-1.7" y1="-0.24" x2="5.3" y2="11.76"/><line class="cls-2" x1="-2.34" y1="-1.33" x2="4.66" y2="10.67"/><line class="cls-2" x1="-4.84" y1="-1.33" x2="2.16" y2="10.67"/><line class="cls-2" x1="-6.79" y1="-0.24" x2="0.21" y2="11.76"/><line class="cls-2" x1="5.36" y1="-10.09" x2="12.36" y2="1.91"/><line class="cls-2" x1="3.4" y1="-9" x2="10.4" y2="3"/><line class="cls-2" x1="2.76" y1="-10.09" x2="9.76" y2="1.91"/><line class="cls-2" x1="0.26" y1="-10.09" x2="7.26" y2="1.91"/><line class="cls-2" x1="-1.7" y1="-9" x2="5.3" y2="3"/><line class="cls-2" x1="-2.34" y1="-10.09" x2="4.66" y2="1.91"/><line class="cls-2" x1="-4.84" y1="-10.09" x2="2.16" y2="1.91"/><line class="cls-2" x1="-6.79" y1="-9" x2="0.21" y2="3"/></pattern><clipPath id="clip-path-3"><path class="cls-1" d="M243.29,92.15c-4.11,0-14.65,13.91-14.65,101.52,0,26.05,8.1,29.62,14.65,29.62s14.65-3.57,14.65-29.62C257.94,106.06,247.4,92.15,243.29,92.15Z"/></clipPath><clipPath id="clip-path-4"><path class="cls-1" d="M184.7,92.15c-4.11,0-14.65,13.91-14.65,101.52,0,26.05,8.1,29.62,14.65,29.62s14.65-3.57,14.65-29.62C199.35,106.06,188.81,92.15,184.7,92.15Z"/></clipPath><pattern id="New_Pattern_13" data-name="New Pattern 13" width="20.15" height="27.25" patternTransform="translate(32.48 10.24) rotate(-62.94)" patternUnits="userSpaceOnUse" viewBox="0 0 20.15 27.25"><rect class="cls-1" width="20.15" height="27.25"/><line class="cls-3" x1="15.61" x2="15.61" y2="27.25"/><line class="cls-3" x1="20.61" x2="20.61" y2="27.25"/><line class="cls-3" x1="5.54" x2="5.54" y2="27.25"/><line class="cls-3" x1="10.54" x2="10.54" y2="27.25"/><line class="cls-3" x1="0.46" x2="0.46" y2="27.25"/></pattern><pattern id="New_Pattern_13-3" data-name="New Pattern 13" width="20.15" height="27.25" patternTransform="matrix(-0.45, -0.89, -0.89, 0.45, -13.56, 15.42)" patternUnits="userSpaceOnUse" viewBox="0 0 20.15 27.25"><rect class="cls-1" width="20.15" height="27.25"/><line class="cls-3" x1="15.61" x2="15.61" y2="27.25"/><line class="cls-3" x1="20.61" x2="20.61" y2="27.25"/><line class="cls-3" x1="5.54" x2="5.54" y2="27.25"/><line class="cls-3" x1="10.54" x2="10.54" y2="27.25"/><line class="cls-3" x1="0.46" x2="0.46" y2="27.25"/></pattern><pattern id="uraeus_far" data-name="uraeus far" width="57.57" height="72.55" patternTransform="translate(20.84 50.01) scale(0.36)" patternUnits="userSpaceOnUse" viewBox="0 0 57.57 72.55"><rect class="cls-1" width="57.57" height="72.55"/><g id="front_cobra_large" data-name="front cobra large"><circle class="cls-6" cx="61.15" cy="6.94" r="6.44"/><path class="cls-6" d="M62.67,17.5S64,16.81,64.4,17c1,.47,3-.53,3.92-.51,2,.05,3.39-1.16,3.11-2.22-.18-.7-1.57-.5-2.27-.75a4.91,4.91,0,0,0-3-1.14,3.81,3.81,0,0,0-2.44.59c-.5.47-10,2.83-8.87,11.9"/><path class="cls-6" d="M35.25,50.13c8.7,0,11.17-3.18,16-1.91,3.45.91,10.59,2.23,13.67,1.9,8.59-.91,5.32-12.49,5.62-16,.15-1.78,1.17-10.89-3.8-15.09-2-1.65-12.06-3.9-12.19,5-.05,2.89,2.86,7.47,4,10.32.77,1.87,2.58,5.75,2.41,8.76S57.52,45,55.09,44c-6.35-2.63-13.56,1.23-13.56,1.23"/><ellipse class="cls-7" cx="62.13" cy="24.41" rx="4.36" ry="4.89" transform="translate(27.57 81.52) rotate(-80.27)"/></g><g id="front_cobra_large-2" data-name="front cobra large"><circle class="cls-6" cx="32.37" cy="6.94" r="6.44"/><path class="cls-6" d="M33.88,17.5s1.33-.69,1.74-.49c1,.47,3-.53,3.92-.51,2,.05,3.38-1.16,3.1-2.22-.18-.7-1.57-.5-2.26-.75a4.92,4.92,0,0,0-3.06-1.14,3.81,3.81,0,0,0-2.44.59c-.5.47-10,2.83-8.86,11.9"/><path class="cls-6" d="M6.47,50.13c8.69,0,11.16-3.18,16-1.91,3.45.91,10.59,2.23,13.68,1.9,8.58-.91,5.32-12.49,5.61-16C41.91,32.35,42.94,23.24,38,19c-1.95-1.65-12.07-3.9-12.2,5,0,2.89,2.86,7.47,4,10.32.78,1.87,2.59,5.75,2.42,8.76S28.73,45,26.3,44C20,41.33,12.74,45.19,12.74,45.19"/><path class="cls-8" d="M34.67,14.26c.57-.09,1.11-.21,1.65-.35a1.27,1.27,0,0,0,.56-.2,1.81,1.81,0,0,1,.59-.37A1.69,1.69,0,0,1,39,14.39l-.06.29a2.67,2.67,0,0,1-1.12.58,1,1,0,0,1-.49,0c-.29-.18-.55-.63-1-.61a2.4,2.4,0,0,0-1.48.15l-.21-.55Z"/><ellipse class="cls-7" cx="33.34" cy="24.41" rx="4.36" ry="4.89" transform="translate(3.65 53.15) rotate(-80.27)"/><path class="cls-9" d="M31.47,31l3.91.66,3-2.29a.32.32,0,0,1,.5.28s.8,5.36-.17,6.71c-.57.79-3-.24-3-.24s-2.09,1.15-2.6.72c-1.06-.89-1.94-5.46-1.94-5.46A.27.27,0,0,1,31.47,31Z"/><path class="cls-10" d="M39.77,42.58c-.09,1.82-.6,3.25-1.16,3.25-1.32,0-.44-2.13-.49-3.56-.09-2.7.24-3,.8-3S39.85,40.77,39.77,42.58Z"/><path class="cls-10" d="M35.5,42c0,2.44-.37,3.51-.84,3.49S33.88,44,34,42.13s.53-3.27,1-3.25S35.51,40.14,35.5,42Z"/><path class="cls-8" d="M31.3,49.51c1.42-.41,2.58-.6,3.32-2,3.43-6.48-.53-14.22-2-20.87a36.05,36.05,0,0,1-1.25-6.77,4.08,4.08,0,0,0-.92-2.5l4.58.52c-1.6,1-1,2.53-1.06,4,.22,7.87,8.32,22.44-.21,28a12.76,12.76,0,0,1-2.25.49l-.24-.89Z"/><ellipse class="cls-11" cx="37.75" cy="14.28" rx="0.82" ry="0.49" transform="translate(-1.93 6.9) rotate(-10.19)"/></g><g id="front_cobra_large-3" data-name="front cobra large"><circle class="cls-6" cx="3.58" cy="6.94" r="6.44"/><path class="cls-6" d="M5.09,17.5s1.34-.69,1.74-.49c1,.47,3-.53,3.92-.51,2,.05,3.38-1.16,3.11-2.22-.19-.7-1.58-.5-2.27-.75a4.91,4.91,0,0,0-3.05-1.14A3.81,3.81,0,0,0,6.1,13c-.5.47-10,2.83-8.87,11.9"/><path class="cls-6" d="M-22.32,50.13c8.7,0,11.17-3.18,16-1.91,3.46.91,10.6,2.23,13.68,1.9,8.58-.91,5.32-12.49,5.62-16,.15-1.78,1.17-10.89-3.8-15.09C7.23,17.39-2.88,15.14-3,24c-.05,2.89,2.86,7.47,4,10.32.77,1.87,2.58,5.75,2.41,8.76S0,45-2.49,44C-8.83,41.33-16,45.19-16,45.19"/><path class="cls-8" d="M5.88,14.26c.58-.09,1.11-.21,1.66-.35a1.27,1.27,0,0,0,.55-.2,1.81,1.81,0,0,1,.59-.37,1.71,1.71,0,0,1,1.54,1.05l-.07.29A2.56,2.56,0,0,1,9,15.26a1,1,0,0,1-.49,0c-.29-.18-.55-.63-1-.61a2.4,2.4,0,0,0-1.48.15l-.21-.55Z"/><ellipse class="cls-7" cx="4.56" cy="24.41" rx="4.36" ry="4.89" transform="translate(-20.27 24.78) rotate(-80.27)"/><path class="cls-9" d="M2.68,31l3.92.66,3-2.29a.32.32,0,0,1,.51.28s.8,5.36-.17,6.71c-.58.79-3-.24-3-.24s-2.09,1.15-2.59.72c-1.06-.89-1.95-5.46-1.95-5.46A.27.27,0,0,1,2.68,31Z"/><path class="cls-10" d="M11,42.58c-.08,1.82-.6,3.25-1.15,3.25-1.33,0-.45-2.13-.5-3.56-.08-2.7.25-3,.8-3S11.06,40.77,11,42.58Z"/><path class="cls-10" d="M6.71,42c0,2.44-.37,3.51-.84,3.49S5.1,44,5.18,42.13s.53-3.27,1-3.25S6.73,40.14,6.71,42Z"/><path class="cls-8" d="M2.51,49.51c1.43-.41,2.59-.6,3.32-2,3.43-6.48-.53-14.22-2-20.87a36,36,0,0,1-1.24-6.77,4.08,4.08,0,0,0-.92-2.5l4.57.52c-1.59,1-1,2.53-1.06,4,.22,7.87,8.33,22.44-.21,28a12.76,12.76,0,0,1-2.25.49l-.24-.89Z"/><ellipse class="cls-11" cx="8.97" cy="14.28" rx="0.82" ry="0.49" transform="translate(-2.38 1.81) rotate(-10.19)"/></g></pattern><clipPath id="clip-path-5"><path class="cls-1" d="M206,283.48c-1.64-.64-4.83-.92-6.92,1.2-1.18,1.2-6.61,5.33-3.36,15.71,2,6.39,8,10.34,9,11.7s1.95,3.29,3.36,4.07c0,0,6.72,9.89,21.14,147.41.43,4.15-41.53,8.46-42.18,1.83-2.92-29.67-12.33-93.16-17.54-93.16-5.41,0-18.27,1.62-18.27,1.62-6.51.81-17.14-4.53-21-8.75-15.48-16.85-10.13-40.45-.78-77.06,7.71-30.24,34-62.93,76.4-64.94,21.17-1,73.33,3.46,66.51,51.76-.15,1.09-42.87-.52-44-.42Z"/></clipPath><pattern id="light_yellow_thick_lines-189" data-name="light yellow thick lines" width="5.1" height="8.75" patternTransform="matrix(0.47, -0.79, 0.79, 0.47, 8.3, 7.65)" patternUnits="userSpaceOnUse" viewBox="0 0 5.1 8.75"><rect class="cls-1" width="5.1" height="8.75"/><line class="cls-5" x1="5.36" y1="7.42" x2="12.36" y2="19.42"/><line class="cls-5" x1="3.4" y1="8.51" x2="10.4" y2="20.51"/><line class="cls-5" x1="2.76" y1="7.42" x2="9.76" y2="19.42"/><line class="cls-5" x1="0.26" y1="7.42" x2="7.26" y2="19.42"/><line class="cls-5" x1="-1.7" y1="8.51" x2="5.3" y2="20.51"/><line class="cls-5" x1="-2.34" y1="7.42" x2="4.66" y2="19.42"/><line class="cls-5" x1="-4.84" y1="7.42" x2="2.16" y2="19.42"/><line class="cls-5" x1="-6.79" y1="8.51" x2="0.21" y2="20.51"/><line class="cls-5" x1="5.36" y1="-1.33" x2="12.36" y2="10.67"/><line class="cls-5" x1="3.4" y1="-0.24" x2="10.4" y2="11.76"/><line class="cls-5" x1="2.76" y1="-1.33" x2="9.76" y2="10.67"/><line class="cls-5" x1="0.26" y1="-1.33" x2="7.26" y2="10.67"/><line class="cls-5" x1="-1.7" y1="-0.24" x2="5.3" y2="11.76"/><line class="cls-5" x1="-2.34" y1="-1.33" x2="4.66" y2="10.67"/><line class="cls-5" x1="-4.84" y1="-1.33" x2="2.16" y2="10.67"/><line class="cls-5" x1="-6.79" y1="-0.24" x2="0.21" y2="11.76"/><line class="cls-5" x1="5.36" y1="-10.09" x2="12.36" y2="1.91"/><line class="cls-5" x1="3.4" y1="-9" x2="10.4" y2="3"/><line class="cls-5" x1="2.76" y1="-10.09" x2="9.76" y2="1.91"/><line class="cls-5" x1="0.26" y1="-10.09" x2="7.26" y2="1.91"/><line class="cls-5" x1="-1.7" y1="-9" x2="5.3" y2="3"/><line class="cls-5" x1="-2.34" y1="-10.09" x2="4.66" y2="1.91"/><line class="cls-5" x1="-4.84" y1="-10.09" x2="2.16" y2="1.91"/><line class="cls-5" x1="-6.79" y1="-9" x2="0.21" y2="3"/></pattern></defs><g id="Layer_2" data-name="Layer 2"><g id="Male_Poses" data-name="Male Poses"><g id="Head_copy_3" data-name="Head copy 3"><path id="head_round" data-name="head round" class="cls-12" d="M249.44,356.08c1.42-4.5,16.16-2.33,24.08-2.68,3.57-.15,4.41-.66,5.28-5.28.38-2-.56-4.54,1.58-7.4,3.17-4.22.23-4.83.53-5.28.62-.92,3.17-2.11,1.06-6.34s0-4.23,2.11-5.29c8.46-4.22-4.22-14.79-9-25.36-.48-1.08-.25-7.24-2.64-21.14-3.65-21.17-5.29-27.47-22.19-38-10.41-6.5-29.07-10.23-41.35-10.83-10.59-.51-20.42.94-29.46,6.6-8.5,5.33-12.68,9.51-19,21.14-8.05,14.75-7.11,31.94-.14,46.34,3.54,7.33,9.28,13.61,14.21,20.23,4.29,5.77,9.11,11.16,13.11,17.11A11.6,11.6,0,0,1,189,348c-1.93,8.74-4,15.8-6.39,24.44,0,3.17,4.23,10.56,11.63,15.85,15.5,11.07,33,6.17,42-.64S243.33,375.42,249.44,356.08Z"/><g id="face"><g id="mouth"><g class="cls-13"><path d="M269.23,333.91c3.82.72,8,0,11.78,1.27l-.44.89a11.14,11.14,0,0,0-2.69-.69c-1.67-.28-4.12-.52-5.83-.7a15.57,15.57,0,0,1-2.95-.51l.13-.26Z"/></g><g class="cls-14"><path d="M280.07,340.84c-3.91-1.77-7.63-3.84-11.4-5.88l.13-.25c3.84,1.81,7.7,3.68,11.65,5.21l-.38.92Z"/></g><g class="cls-14"><path d="M282.47,331.16c-4.78.39-9.78.7-14.27,2.53l-.18-.36c4.5-2.05,9.51-2.57,14.38-3.17l.07,1Z"/></g></g><g class="cls-15"><path d="M275.63,318.78c-.92,1.75-2.15,6.33,1.32,5.22.51-.25.94-.9,1.44-1.26,1.51-1.35,3.95-1.67,4.93.5a3.14,3.14,0,0,1,.32,1.18h-1a2.55,2.55,0,0,0-.7-1.41c-1.65-1.4-3.28.92-4.7,1.66a2.19,2.19,0,0,1-3.16-2.14,9.26,9.26,0,0,1,1.3-3.88l.25.13Z"/></g><path d="M269.49,291.13c-7.33-5.55-17.14-4.51-25.58-2.3-3,.69-6,1.36-9,2l-.3-1.23c8.8-2.19,18.29-6.23,27.5-4.21a20.54,20.54,0,0,1,8.86,3.88l-1.47,1.89Z"/><g id="eye"><path class="cls-16" d="M248,296s6.85-3,11.62-2.64c7.93.53,9.51,6.87,9.51,6.87a48,48,0,0,1-14.79-.53C251.74,299.09,248,296,248,296Z"/><path d="M247.22,295.88c.08-.43.46-.65.84-.83,7.22-3.5,18.72-4.44,21.59,5.05l.13.57c-2.06.21-4.11.29-6.16.3-4.67-.06-9.67-.13-13.66-2.87-.75-.44-1.54-.94-2.29-1.38a.89.89,0,0,1-.45-.84Zm1.62.23a.72.72,0,0,0-.24-.68,5.55,5.55,0,0,0,.42.42,13.44,13.44,0,0,0,9.08,4,44,44,0,0,0,11-.17l-.42.61a9.1,9.1,0,0,0-3.46-4.43c-5-3.46-11.28-1-16.52.73l-.17.06-.09,0a.72.72,0,0,0,.4-.61Z"/><polygon points="238.52 295.5 248.03 295.12 248.03 296.87 238.52 296.5 238.52 295.5 238.52 295.5"/><g class="cls-17"><circle class="cls-18" cx="260.14" cy="297.05" r="4.23"/></g></g><g id="ear"><g class="cls-15"><path d="M206.84,300.75c.27-2.18,2.07-3.12,3.23-4.65a7.58,7.58,0,0,0,.26-9.44c-2-2.85-6.22-3.45-9.33-2.32a10.73,10.73,0,0,0-3.7,3.55c-3.8,6.16-1.21,14.5,3.33,19.58a38.12,38.12,0,0,0,3.91,3.7c1.71,1.49,2.49,3.8,4.35,5.08a5.65,5.65,0,0,0,3.74.16,3.6,3.6,0,0,0,1.53-1.9,2.68,2.68,0,0,0,0-2.42c-.31-.82-.77-1.6-1.13-2.45-.67-1.74-.63-3.59-1.09-5.34-.22-1-1-1.43-1.15-2.49h.44a6.08,6.08,0,0,0,.89,1.68c.83,1.88.61,4.09,1.37,5.95.35.81.81,1.6,1.16,2.46a3.28,3.28,0,0,1,0,2.82,4,4,0,0,1-1.82,2.2,6.46,6.46,0,0,1-2.82.23c-2-.09-3.11-2.08-4.18-3.5-1.51-2.32-3.92-3.62-5.69-5.74A21.21,21.21,0,0,1,197,303.4c-2.38-4.87-3.44-11.13-.35-15.94a11.29,11.29,0,0,1,4-3.88c3.56-1.32,8-.6,10.36,2.54a8.51,8.51,0,0,1-.23,10.6c-.95,1.27-2.77,2.5-3,4Z"/></g><g class="cls-15"><path d="M207.65,295.91a4.8,4.8,0,0,0-4.42.18c-1.8,1.36-1.32,4.16-.72,6.08.45,1.63,1.5,1.69,2.66,2.54a30,30,0,0,1,5.29,4.77.65.65,0,0,0,.32.11c-.05,0-.07,0,0,0,.44-2.57-.7-5.46-2-7.67l.37-.25a13.93,13.93,0,0,1,1.73,3.76c.29.95,1.55,5.7-.7,4.55-.87-.64-1.43-1.5-2.22-2.19a21.94,21.94,0,0,0-4.89-3.48,1.54,1.54,0,0,1-.51-.4c-1.53-2.31-2.35-6.72.21-8.62a5.72,5.72,0,0,1,5.36-.28l-.44.89Z"/></g><g class="cls-15"><path d="M208.78,295.57c2.81-4.44,0-10-5.51-9.3a3.39,3.39,0,0,0-2.33,1c-3,2.62-3.78,6.62-2.95,10.39,1,5.93,5.25,10.43,10,13.72l-.32.32c-3.16-2.16-6.39-4.79-8.44-8.25s-3.06-7.71-2.17-11.67c.79-2.82,2.94-6.31,6.08-6.52,3.33-.42,6.62,1.27,7.21,4.7a7.78,7.78,0,0,1-1.32,5.84l-.29-.23Z"/></g></g></g><g id="nemes"><g id="hemhem"><path class="cls-19" d="M153.36,189.62c-4-59.09,11.77-89.71,11.77-89.71s-9.71-1.18-9.71-10.77c0-4.79,5.54-11.16,12.64-9.79,3.67.71,10.86,4.87,8.39,27-1,8.93-2.56,87.46-2.56,87.46S153.59,193.09,153.36,189.62Z"/><path class="cls-20" d="M171.93,191.74c-7.88-.42-15-1.55-16.6-2.65-3.81-57.49,11.43-88,11.58-88.26l1.31-2.55-2.84-.35c-.81-.11-8-1.26-8-8.79,0-3.21,3.64-8,8.68-8a7.77,7.77,0,0,1,1.58.16c2.81.54,9.1,4.05,6.78,24.82C173.55,114.36,172.19,179.05,171.93,191.74Z"/><path class="cls-19" d="M274.64,189.62c4-59.09-11.77-89.71-11.77-89.71s9.71-1.18,9.71-10.77c0-4.79-5.54-11.16-12.64-9.79-3.67.71-10.86,4.87-8.39,27,1,8.93,2.56,87.46,2.56,87.46S274.41,193.09,274.64,189.62Z"/><path class="cls-21" d="M256.07,191.74c7.88-.42,15-1.55,16.6-2.65,3.81-57.49-11.43-88-11.58-88.26l-1.31-2.55,2.84-.35c.81-.11,8-1.26,8-8.79,0-3.21-3.64-8-8.68-8a7.77,7.77,0,0,0-1.58.16c-2.81.54-9.1,4.05-6.78,24.82C254.45,114.36,255.81,179.05,256.07,191.74Z"/><path class="cls-22" d="M199.25,72.75c-11,0-8.33,93,0,93C208.73,165.72,209.33,72.75,199.25,72.75Z"/><path class="cls-23" d="M197.42,76.15c.13.78,1.84,1.79,1.84,1.79"/><path class="cls-8" d="M197.64,76.11c.26.66,1.16,1.18,1.78,1.55l-.32.55c-.75-.55-1.63-1.07-1.91-2l.45-.08Z"/><path class="cls-23" d="M197,79c.2.87,2.25,2,2.25,2"/><path class="cls-8" d="M197.23,79a5,5,0,0,0,2.19,1.72l-.31.58c-.89-.59-1.94-1.13-2.32-2.2l.44-.1Z"/><path class="cls-23" d="M196.6,81.85c.27,1,2.66,2.14,2.66,2.14"/><path class="cls-8" d="M196.83,81.79a5.82,5.82,0,0,0,2.58,1.9l-.29.6c-1-.64-2.24-1.19-2.74-2.38l.45-.12Z"/><path class="cls-23" d="M196.2,84.7c.33,1.06,3.07,2.31,3.07,2.31"/><path class="cls-8" d="M196.42,84.63c.61,1,2,1.55,3,2.07l-.29.62c-1.17-.67-2.54-1.25-3.14-2.54l.44-.15Z"/><path class="cls-23" d="M195.79,87.56c.4,1.15,3.48,2.48,3.48,2.48"/><path class="cls-8" d="M196,87.48c.72,1.14,2.22,1.68,3.4,2.23l-.28.65c-1.31-.72-2.85-1.32-3.56-2.73l.44-.15Z"/><path class="cls-23" d="M195.39,90.41c.46,1.24,3.88,2.65,3.88,2.65"/><path class="cls-8" d="M195.61,90.33c.81,1.24,2.48,1.8,3.8,2.4l-.28.67c-1.45-.76-3.14-1.4-4-2.91l.44-.16Z"/><path class="cls-23" d="M195,93.26c.53,1.33,4.29,2.83,4.29,2.83"/><path class="cls-8" d="M195.2,93.17c.92,1.35,2.75,1.94,4.2,2.57l-.27.69c-1.58-.8-3.44-1.46-4.37-3.08l.44-.18Z"/><path class="cls-23" d="M194.57,96.11c.6,1.43,4.7,3,4.7,3"/><path class="cls-8" d="M194.79,96c1,1.45,3,2.06,4.61,2.74l-.27.71c-1.72-.85-3.74-1.54-4.78-3.26l.44-.19Z"/><path class="cls-23" d="M194.17,99c.66,1.51,5.1,3.17,5.1,3.17"/><path class="cls-8" d="M194.39,98.87c1.13,1.55,3.29,2.19,5,2.91l-.28.72c-1.86-.89-4-1.61-5.18-3.44l.44-.19Z"/><path class="cls-23" d="M193.76,101.82c.73,1.61,5.51,3.34,5.51,3.34"/><path class="cls-8" d="M194,101.72c1.25,1.65,3.56,2.32,5.43,3.07l-.27.75c-2-.94-4.34-1.68-5.6-3.62l.44-.2Z"/><path class="cls-23" d="M193.35,104.67c.8,1.7,5.92,3.52,5.92,3.52"/><path class="cls-8" d="M193.57,104.57c1.36,1.76,3.83,2.44,5.84,3.24l-.27.76c-2.14-1-4.64-1.75-6-3.8l.43-.2Z"/><path class="cls-23" d="M193,107.52c.86,1.8,6.32,3.69,6.32,3.69"/><path class="cls-8" d="M193.16,107.42c1.47,1.86,4.1,2.57,6.25,3.4l-.27.78c-2.28-1-4.94-1.82-6.41-4l.43-.21Z"/><path class="cls-23" d="M192.54,110.38c.94,1.88,6.73,3.86,6.73,3.86"/><path class="cls-8" d="M192.76,110.27c1.57,2,4.37,2.7,6.65,3.57l-.27.8c-2.42-1.07-5.23-1.9-6.81-4.16l.43-.21Z"/><path class="cls-23" d="M192.14,113.23c1,2,7.13,4,7.13,4"/><path class="cls-8" d="M192.35,113.12c1.68,2.07,4.64,2.82,7.06,3.74l-.27.81c-2.56-1.11-5.53-2-7.22-4.33l.43-.22Z"/><path class="cls-23" d="M191.73,116.08c1.07,2.07,7.55,4.21,7.55,4.21"/><path class="cls-8" d="M191.94,116c1.79,2.17,4.91,3,7.47,3.9l-.27.84c-2.69-1.16-5.83-2-7.62-4.52l.42-.22Z"/><path class="cls-23" d="M191.32,118.93c1.14,2.16,8,4.39,8,4.39"/><path class="cls-8" d="M191.53,118.82c1.9,2.27,5.18,3.08,7.88,4.07l-.27.85c-2.83-1.2-6.13-2.12-8-4.7l.42-.22Z"/><path class="cls-23" d="M190.92,121.79c1.2,2.25,8.36,4.55,8.36,4.55"/><path class="cls-8" d="M191.12,121.67c2,2.38,5.46,3.21,8.3,4.24l-.28.87c-2.95-1.24-6.44-2.21-8.43-4.88l.41-.23Z"/><path class="cls-23" d="M190.51,124.64c1.27,2.34,8.77,4.73,8.77,4.73"/><path class="cls-8" d="M190.72,124.53c2.11,2.47,5.72,3.32,8.7,4.39l-.28.89c-3.07-1.27-6.76-2.3-8.84-5.06l.42-.22Z"/><path class="cls-23" d="M190.1,127.49c1.34,2.43,9.18,4.9,9.18,4.9"/><path class="cls-8" d="M190.31,127.38c2.23,2.58,6,3.45,9.11,4.56l-.28.9c-3.19-1.3-7.09-2.39-9.24-5.24l.41-.22Z"/><path class="cls-23" d="M189.7,130.34c1.4,2.53,9.58,5.08,9.58,5.08"/><path class="cls-8" d="M189.9,130.23c2.32,2.67,6.28,3.59,9.52,4.73l-.28.92a37.86,37.86,0,0,1-7.57-3.47,6.31,6.31,0,0,1-2.07-1.95l.4-.23Z"/><path class="cls-23" d="M189.29,133.2c1.47,2.61,10,5.24,10,5.24"/><path class="cls-8" d="M189.49,133.08c2.38,2.75,6.59,3.73,9.93,4.89l-.28.94a39,39,0,0,1-7.89-3.58,6.7,6.7,0,0,1-2.16-2l.4-.23Z"/><path class="cls-23" d="M188.89,136.05c1.53,2.71,10.39,5.42,10.39,5.42"/><path class="cls-8" d="M189.08,135.94c2.47,2.83,6.88,3.86,10.35,5.05l-.3,1a41.35,41.35,0,0,1-8.19-3.7,6.9,6.9,0,0,1-2.25-2.09l.39-.22Z"/><path class="cls-23" d="M201.19,76.15c-.13.78-1.84,1.79-1.84,1.79"/><path class="cls-8" d="M201.42,76.19c-.27,1-1.16,1.47-1.91,2l-.32-.55a9,9,0,0,0,1.05-.69,2.13,2.13,0,0,0,.73-.86l.45.08Z"/><path class="cls-23" d="M201.6,79c-.2.87-2.25,2-2.25,2"/><path class="cls-8" d="M201.82,79.05c-.38,1.07-1.43,1.61-2.32,2.2l-.3-.58a10.73,10.73,0,0,0,1.26-.75,2.55,2.55,0,0,0,.92-1l.44.1Z"/><path class="cls-23" d="M202,81.85c-.27,1-2.66,2.14-2.66,2.14"/><path class="cls-8" d="M202.23,81.91c-.49,1.19-1.71,1.74-2.74,2.38l-.29-.6a14.25,14.25,0,0,0,1.48-.82,2.86,2.86,0,0,0,1.1-1.08l.45.12Z"/><path class="cls-23" d="M202.41,84.7c-.33,1.06-3.06,2.31-3.06,2.31"/><path class="cls-8" d="M202.64,84.78c-.61,1.29-2,1.87-3.15,2.54l-.29-.62a12.88,12.88,0,0,0,1.69-.88,3.19,3.19,0,0,0,1.3-1.19l.45.15Z"/><path class="cls-23" d="M202.82,87.56c-.4,1.15-3.47,2.48-3.47,2.48"/><path class="cls-8" d="M203,87.63c-.71,1.41-2.25,2-3.55,2.73l-.28-.65a15.88,15.88,0,0,0,1.9-.93,3.86,3.86,0,0,0,1.49-1.3l.44.15Z"/><path class="cls-23" d="M203.23,90.41c-.47,1.24-3.89,2.65-3.89,2.65"/><path class="cls-8" d="M203.45,90.49c-.83,1.51-2.52,2.15-4,2.91l-.27-.67c1.31-.6,3-1.16,3.8-2.4l.44.16Z"/><path class="cls-23" d="M203.63,93.26c-.53,1.33-4.29,2.83-4.29,2.83"/><path class="cls-8" d="M203.85,93.35c-.93,1.62-2.79,2.28-4.37,3.08l-.27-.69c1.45-.63,3.28-1.22,4.2-2.57l.44.18Z"/><path class="cls-23" d="M204,96.11c-.6,1.43-4.7,3-4.7,3"/><path class="cls-8" d="M204.26,96.21c-1,1.72-3.06,2.41-4.78,3.26l-.27-.71c1.59-.68,3.58-1.29,4.61-2.74l.44.19Z"/><path class="cls-23" d="M204.45,99c-.67,1.51-5.11,3.17-5.11,3.17"/><path class="cls-8" d="M204.66,99.06c-1.14,1.83-3.32,2.55-5.18,3.44l-.27-.72c1.72-.72,3.88-1.36,5-2.91l.43.19Z"/><path class="cls-23" d="M204.85,101.82c-.73,1.61-5.51,3.34-5.51,3.34"/><path class="cls-8" d="M205.07,101.92c-1.26,1.94-3.59,2.68-5.59,3.62l-.27-.75c1.86-.75,4.18-1.42,5.42-3.07l.44.2Z"/><path class="cls-23" d="M205.26,104.67c-.8,1.7-5.92,3.52-5.92,3.52"/><path class="cls-8" d="M205.47,104.77c-1.36,2-3.86,2.82-6,3.8l-.27-.76c2-.8,4.48-1.48,5.83-3.24l.43.2Z"/><path class="cls-23" d="M205.66,107.52c-.86,1.8-6.32,3.69-6.32,3.69"/><path class="cls-8" d="M205.88,107.63c-1.47,2.15-4.13,3-6.4,4l-.28-.78c2.15-.83,4.79-1.54,6.25-3.4l.43.21Z"/><path class="cls-23" d="M206.07,110.38c-.93,1.88-6.73,3.86-6.73,3.86"/><path class="cls-8" d="M206.28,110.48c-1.57,2.26-4.39,3.09-6.8,4.16l-.28-.8c2.28-.87,5.08-1.61,6.66-3.57l.42.21Z"/><path class="cls-23" d="M206.48,113.23c-1,2-7.14,4-7.14,4"/><path class="cls-8" d="M206.69,113.34c-1.68,2.36-4.66,3.22-7.21,4.33l-.28-.81c2.42-.92,5.38-1.67,7.06-3.74l.43.22Z"/><path class="cls-23" d="M206.88,116.08c-1.06,2.07-7.54,4.21-7.54,4.21"/><path class="cls-8" d="M207.09,116.19c-1.79,2.47-4.92,3.36-7.61,4.52l-.28-.84c2.56-1,5.68-1.73,7.47-3.9l.42.22Z"/><path class="cls-23" d="M207.29,118.93c-1.13,2.16-7.95,4.39-7.95,4.39"/><path class="cls-8" d="M207.5,119c-1.9,2.58-5.19,3.5-8,4.7l-.28-.85c2.7-1,6-1.8,7.88-4.07l.42.22Z"/><path class="cls-23" d="M207.7,121.79c-1.2,2.25-8.36,4.55-8.36,4.55"/><path class="cls-8" d="M207.9,121.9c-2,2.67-5.47,3.64-8.42,4.88l-.28-.87c2.83-1,6.28-1.86,8.29-4.23l.41.22Z"/><path class="cls-23" d="M208.1,124.64c-1.26,2.34-8.77,4.73-8.77,4.73"/><path class="cls-8" d="M208.31,124.75c-2.07,2.76-5.76,3.79-8.83,5.06l-.29-.89c3-1.07,6.59-1.92,8.71-4.39l.41.22Z"/><path class="cls-23" d="M208.51,127.49c-1.33,2.43-9.18,4.9-9.18,4.9"/><path class="cls-8" d="M208.71,127.6c-2.15,2.85-6,3.94-9.23,5.24l-.29-.9c3.12-1.11,6.89-2,9.11-4.56l.41.22Z"/><path class="cls-23" d="M208.91,130.34c-1.39,2.53-9.58,5.08-9.58,5.08"/><path class="cls-8" d="M209.12,130.46a6.43,6.43,0,0,1-2.08,1.95,38,38,0,0,1-7.56,3.47l-.29-.92c3.24-1.14,7.2-2.06,9.52-4.73l.41.23Z"/><path class="cls-23" d="M209.32,133.2c-1.46,2.61-10,5.24-10,5.24"/><path class="cls-8" d="M209.52,133.31c-1.12,1.71-3,2.51-4.7,3.42a50.64,50.64,0,0,1-5.34,2.18l-.29-.94c3.34-1.16,7.55-2.14,9.93-4.89l.4.23Z"/><path class="cls-23" d="M209.73,136.05c-1.53,2.71-10.4,5.42-10.4,5.42"/><path class="cls-8" d="M209.92,136.16c-1.16,1.76-3.1,2.6-4.88,3.54a52.54,52.54,0,0,1-5.56,2.25l-.29-1c3.46-1.19,7.87-2.22,10.34-5.05l.39.22Z"/><line class="cls-23" x1="199.31" y1="77.41" x2="199.31" y2="170.22"/><polygon class="cls-8" points="199.6 77.41 200 170.22 198.61 170.22 199.01 77.41 199.6 77.41 199.6 77.41"/><path class="cls-22" d="M228.75,72.75c11,0,8.33,93,0,93C219.27,165.72,218.67,72.75,228.75,72.75Z"/><path class="cls-23" d="M230.58,76.15c-.13.78-1.84,1.79-1.84,1.79"/><path class="cls-8" d="M230.81,76.19c-.28,1-1.16,1.47-1.91,2l-.32-.55a9,9,0,0,0,1-.69,2.13,2.13,0,0,0,.73-.86l.45.08Z"/><path class="cls-23" d="M231,79c-.2.87-2.25,2-2.25,2"/><path class="cls-8" d="M231.21,79.05c-.38,1.07-1.43,1.61-2.32,2.2l-.31-.58a10.85,10.85,0,0,0,1.27-.75,2.55,2.55,0,0,0,.92-1l.44.1Z"/><path class="cls-23" d="M231.4,81.85c-.27,1-2.66,2.14-2.66,2.14"/><path class="cls-8" d="M231.62,81.91c-.5,1.19-1.71,1.74-2.74,2.38l-.29-.6a13.15,13.15,0,0,0,1.47-.82,2.88,2.88,0,0,0,1.11-1.08l.45.12Z"/><path class="cls-23" d="M231.8,84.7c-.33,1.06-3.07,2.31-3.07,2.31"/><path class="cls-8" d="M232,84.78c-.6,1.29-2,1.87-3.14,2.54l-.29-.62a13.55,13.55,0,0,0,1.69-.88,3.26,3.26,0,0,0,1.3-1.19l.44.15Z"/><path class="cls-23" d="M232.21,87.56c-.4,1.15-3.48,2.48-3.48,2.48"/><path class="cls-8" d="M232.43,87.63c-.71,1.41-2.25,2-3.56,2.73l-.28-.65a15.3,15.3,0,0,0,1.91-.93,3.86,3.86,0,0,0,1.49-1.3l.44.15Z"/><path class="cls-23" d="M232.61,90.41c-.46,1.24-3.88,2.65-3.88,2.65"/><path class="cls-8" d="M232.83,90.49c-.82,1.51-2.51,2.15-4,2.91l-.28-.67c1.32-.6,3-1.16,3.8-2.4l.44.16Z"/><path class="cls-23" d="M233,93.26c-.53,1.33-4.29,2.83-4.29,2.83"/><path class="cls-8" d="M233.24,93.35c-.93,1.62-2.79,2.28-4.37,3.08l-.28-.69c1.46-.63,3.29-1.22,4.21-2.57l.44.18Z"/><path class="cls-23" d="M233.43,96.11c-.6,1.43-4.7,3-4.7,3"/><path class="cls-8" d="M233.65,96.21c-1,1.72-3.06,2.41-4.78,3.26l-.28-.71c1.59-.68,3.59-1.29,4.62-2.74l.44.19Z"/><path class="cls-23" d="M233.83,99c-.66,1.51-5.1,3.17-5.1,3.17"/><path class="cls-8" d="M234.05,99.06c-1.15,1.83-3.32,2.55-5.18,3.44l-.28-.72c1.73-.72,3.89-1.36,5-2.91l.44.19Z"/><path class="cls-23" d="M234.24,101.82c-.73,1.61-5.51,3.34-5.51,3.34"/><path class="cls-8" d="M234.46,101.92c-1.26,1.94-3.6,2.68-5.6,3.62l-.27-.75c1.87-.75,4.19-1.42,5.43-3.07l.44.2Z"/><path class="cls-23" d="M234.65,104.67c-.8,1.7-5.92,3.52-5.92,3.52"/><path class="cls-8" d="M234.86,104.77c-1.36,2-3.86,2.82-6,3.8l-.27-.76c2-.8,4.48-1.48,5.84-3.24l.43.2Z"/><path class="cls-23" d="M235.05,107.52c-.86,1.8-6.32,3.69-6.32,3.69"/><path class="cls-8" d="M235.27,107.63c-1.47,2.15-4.13,3-6.41,4l-.27-.78c2.14-.83,4.78-1.54,6.25-3.4l.43.21Z"/><path class="cls-23" d="M235.46,110.38c-.94,1.88-6.73,3.86-6.73,3.86"/><path class="cls-8" d="M235.67,110.48c-1.58,2.26-4.39,3.09-6.81,4.16l-.27-.8c2.28-.87,5.08-1.61,6.65-3.57l.43.21Z"/><path class="cls-23" d="M235.86,113.23c-1,2-7.13,4-7.13,4"/><path class="cls-8" d="M236.08,113.34c-1.69,2.36-4.66,3.22-7.22,4.33l-.27-.81c2.42-.92,5.38-1.67,7.06-3.74l.43.22Z"/><path class="cls-23" d="M236.27,116.08c-1.07,2.07-7.55,4.21-7.55,4.21"/><path class="cls-8" d="M236.48,116.19c-1.79,2.47-4.92,3.36-7.62,4.52l-.27-.84c2.56-1,5.68-1.73,7.47-3.9l.42.22Z"/><path class="cls-23" d="M236.68,118.93c-1.14,2.16-8,4.39-8,4.39"/><path class="cls-8" d="M236.89,119c-1.9,2.58-5.2,3.5-8,4.7l-.27-.85c2.69-1,6-1.8,7.88-4.07l.42.22Z"/><path class="cls-23" d="M237.08,121.79c-1.2,2.25-8.36,4.55-8.36,4.55"/><path class="cls-8" d="M237.29,121.9c-2,2.67-5.48,3.64-8.43,4.88l-.28-.87c2.84-1,6.29-1.86,8.3-4.23l.41.22Z"/><path class="cls-23" d="M237.49,124.64c-1.27,2.34-8.77,4.73-8.77,4.73"/><path class="cls-8" d="M237.7,124.75c-2.08,2.76-5.77,3.79-8.84,5.06l-.28-.89c3-1.07,6.59-1.92,8.7-4.39l.42.22Z"/><path class="cls-23" d="M237.9,127.49c-1.34,2.43-9.18,4.9-9.18,4.9"/><path class="cls-8" d="M238.1,127.6c-2.15,2.85-6,3.94-9.24,5.24l-.28-.9c3.12-1.11,6.88-2,9.11-4.56l.41.22Z"/><path class="cls-23" d="M238.3,130.34c-1.4,2.53-9.58,5.08-9.58,5.08"/><path class="cls-8" d="M238.5,130.46a6.31,6.31,0,0,1-2.07,1.95,37.86,37.86,0,0,1-7.57,3.47l-.28-.92c3.24-1.14,7.2-2.06,9.52-4.73l.4.23Z"/><path class="cls-23" d="M238.71,133.2c-1.47,2.61-10,5.24-10,5.24"/><path class="cls-8" d="M238.91,133.31c-1.12,1.71-3,2.51-4.7,3.42a50.8,50.8,0,0,1-5.35,2.18l-.29-.94c3.35-1.16,7.56-2.14,9.94-4.89l.4.23Z"/><path class="cls-23" d="M239.11,136.05c-1.53,2.71-10.39,5.42-10.39,5.42"/><path class="cls-8" d="M239.31,136.16c-1.16,1.76-3.1,2.6-4.89,3.54a52.38,52.38,0,0,1-5.55,2.25l-.3-1c3.46-1.19,7.88-2.22,10.35-5.05l.39.22Z"/><path class="cls-23" d="M226.81,76.15c.13.78,1.84,1.79,1.84,1.79"/><path class="cls-8" d="M227,76.11c.26.66,1.16,1.18,1.78,1.55l-.32.55c-.75-.55-1.64-1.07-1.91-2l.45-.08Z"/><path class="cls-23" d="M226.4,79c.2.87,2.25,2,2.25,2"/><path class="cls-8" d="M226.62,79a5,5,0,0,0,2.18,1.72l-.3.58c-.89-.59-1.94-1.13-2.32-2.2l.44-.1Z"/><path class="cls-23" d="M226,81.85c.27,1,2.66,2.14,2.66,2.14"/><path class="cls-8" d="M226.22,81.79a5.76,5.76,0,0,0,2.58,1.9l-.29.6c-1-.64-2.25-1.19-2.74-2.38l.45-.12Z"/><path class="cls-23" d="M225.59,84.7c.33,1.06,3.06,2.31,3.06,2.31"/><path class="cls-8" d="M225.81,84.63c.61,1,1.94,1.55,3,2.07l-.29.62c-1.17-.67-2.54-1.25-3.15-2.54l.45-.15Z"/><path class="cls-23" d="M225.18,87.56c.4,1.15,3.47,2.48,3.47,2.48"/><path class="cls-8" d="M225.4,87.48c.71,1.14,2.22,1.68,3.39,2.23l-.28.65c-1.3-.72-2.84-1.32-3.55-2.73l.44-.15Z"/><path class="cls-23" d="M224.77,90.41c.47,1.24,3.89,2.65,3.89,2.65"/><path class="cls-8" d="M225,90.33c.82,1.24,2.49,1.8,3.8,2.4l-.27.67c-1.45-.76-3.14-1.4-4-2.91l.44-.16Z"/><path class="cls-23" d="M224.37,93.26c.53,1.33,4.29,2.83,4.29,2.83"/><path class="cls-8" d="M224.59,93.17c.92,1.35,2.75,1.94,4.2,2.57l-.27.69c-1.58-.8-3.44-1.46-4.37-3.08l.44-.18Z"/><path class="cls-23" d="M224,96.11c.6,1.43,4.7,3,4.7,3"/><path class="cls-8" d="M224.18,96c1,1.45,3,2.06,4.61,2.74l-.27.71c-1.72-.85-3.74-1.54-4.78-3.26l.44-.19Z"/><path class="cls-23" d="M223.55,99c.67,1.51,5.11,3.17,5.11,3.17"/><path class="cls-8" d="M223.77,98.87c1.14,1.55,3.29,2.19,5,2.91l-.27.72c-1.86-.89-4-1.61-5.18-3.44l.43-.19Z"/><path class="cls-23" d="M223.15,101.82c.73,1.61,5.51,3.34,5.51,3.34"/><path class="cls-8" d="M223.37,101.72c1.24,1.65,3.56,2.32,5.42,3.07l-.27.75c-2-.94-4.33-1.68-5.59-3.62l.44-.2Z"/><path class="cls-23" d="M222.74,104.67c.8,1.7,5.92,3.52,5.92,3.52"/><path class="cls-8" d="M223,104.57c1.35,1.76,3.83,2.44,5.83,3.24l-.27.76c-2.13-1-4.63-1.75-6-3.8l.43-.2Z"/><path class="cls-23" d="M222.34,107.52c.86,1.8,6.32,3.69,6.32,3.69"/><path class="cls-8" d="M222.55,107.42c1.47,1.86,4.1,2.57,6.25,3.4l-.28.78c-2.27-1-4.93-1.82-6.4-4l.43-.21Z"/><path class="cls-23" d="M221.93,110.38c.93,1.88,6.73,3.86,6.73,3.86"/><path class="cls-8" d="M222.14,110.27c1.58,2,4.37,2.7,6.66,3.57l-.28.8c-2.41-1.07-5.23-1.9-6.8-4.16l.42-.21Z"/><path class="cls-23" d="M221.52,113.23c1,2,7.14,4,7.14,4"/><path class="cls-8" d="M221.74,113.12c1.68,2.07,4.64,2.82,7.06,3.74l-.28.81c-2.55-1.11-5.53-2-7.21-4.33l.43-.22Z"/><path class="cls-23" d="M221.12,116.08c1.06,2.07,7.54,4.21,7.54,4.21"/><path class="cls-8" d="M221.33,116c1.79,2.17,4.91,3,7.47,3.9l-.28.84c-2.69-1.16-5.82-2-7.61-4.52l.42-.22Z"/><path class="cls-23" d="M220.71,118.93c1.13,2.16,7.95,4.39,7.95,4.39"/><path class="cls-8" d="M220.92,118.82c1.9,2.27,5.18,3.08,7.88,4.07l-.28.85c-2.82-1.2-6.12-2.12-8-4.7l.42-.22Z"/><path class="cls-23" d="M220.3,121.79c1.2,2.25,8.36,4.55,8.36,4.55"/><path class="cls-8" d="M220.51,121.67c2,2.38,5.45,3.21,8.29,4.24l-.28.87c-3-1.24-6.44-2.21-8.42-4.88l.41-.23Z"/><path class="cls-23" d="M219.9,124.64c1.26,2.34,8.77,4.73,8.77,4.73"/><path class="cls-8" d="M220.1,124.53c2.12,2.47,5.73,3.32,8.71,4.39l-.29.89c-3.07-1.27-6.76-2.3-8.83-5.06l.41-.22Z"/><path class="cls-23" d="M219.49,127.49c1.33,2.43,9.18,4.9,9.18,4.9"/><path class="cls-8" d="M219.7,127.38c2.22,2.58,6,3.45,9.11,4.56l-.29.9c-3.19-1.3-7.08-2.39-9.23-5.24l.41-.22Z"/><path class="cls-23" d="M219.09,130.34c1.39,2.53,9.58,5.08,9.58,5.08"/><path class="cls-8" d="M219.29,130.23c2.32,2.67,6.28,3.59,9.52,4.73l-.29.92a38,38,0,0,1-7.56-3.47,6.43,6.43,0,0,1-2.08-1.95l.41-.23Z"/><path class="cls-23" d="M218.68,133.2c1.46,2.61,10,5.24,10,5.24"/><path class="cls-8" d="M218.88,133.08c2.38,2.75,6.59,3.73,9.93,4.89l-.29.94a39.15,39.15,0,0,1-7.88-3.58,6.7,6.7,0,0,1-2.16-2l.4-.23Z"/><path class="cls-23" d="M218.27,136.05c1.53,2.71,10.4,5.42,10.4,5.42"/><path class="cls-8" d="M218.47,135.94c2.47,2.83,6.88,3.86,10.34,5.05l-.29,1a41.35,41.35,0,0,1-8.19-3.7,6.9,6.9,0,0,1-2.25-2.09l.39-.22Z"/><line class="cls-23" x1="228.69" y1="77.41" x2="228.69" y2="170.22"/><polygon class="cls-8" points="228.99 77.41 229.39 170.22 228 170.22 228.4 77.41 228.99 77.41 228.99 77.41"/><g id="front_cobra_large-4" data-name="front cobra large"><circle class="cls-6" cx="308.13" cy="215.15" r="8.14"/><path class="cls-6" d="M309.8,226.91a1.18,1.18,0,0,1,1.78-.27c.84.67,3.05-.16,4,0,2,.3,3.5-.74,3.35-1.82-.1-.71-1.5-.69-2.16-1a4.85,4.85,0,0,0-2.89-1.51,3.85,3.85,0,0,0-2.5.3c-.55.4-10.27,1.58-10.25,10.72"/><path class="cls-24" d="M303.33,227.37A11.85,11.85,0,0,1,314.89,224c1.06.24,2-.14,1.84-.23a4.85,4.85,0,0,0-2.89-1.51,3.85,3.85,0,0,0-2.5.3c-.55.4-10.27,1.58-10.25,10.72"/><path class="cls-6" d="M291.15,194.37c6.87,4.71,5.43,43.27,5.43,58,0,8.64,3.09,9.67,5.68,9.73,4.86.1,1.09-16.82.55-18.77-.82-3-2.93-7.71-2.53-10.57,1.21-8.78,11.12-6.12,12.85-4.24,4.42,4.78,2.83,14.14,2.46,15.88-.72,3.44.15,20.89-12.51,21.74-4.21.29-9.63-2.17-9.63-13.76,0-14.72,1.93-49.07-4.43-57.33"/><path class="cls-8" d="M311,223.8c.58,0,1.12-.07,1.68-.15a1.42,1.42,0,0,0,.58-.13,1.81,1.81,0,0,1,.63-.3,1.74,1.74,0,0,1,1.4,1.23l-.11.28a2.55,2.55,0,0,1-1.18.44,1,1,0,0,1-.48,0c-.28-.21-.48-.69-.9-.72a2.38,2.38,0,0,0-1.49,0l-.13-.57Z"/><ellipse class="cls-7" cx="307.69" cy="234.04" rx="5.27" ry="4.85" transform="translate(-10.78 14.89) rotate(-2.73)"/><path class="cls-9" d="M305.48,241.18l3.88.84,3.14-2.14a.33.33,0,0,1,.49.31s.54,5.39-.49,6.69c-.61.77-3-.38-3-.38s-2.14,1.05-2.63.6c-1-.94-1.68-5.55-1.68-5.55A.28.28,0,0,1,305.48,241.18Z"/><path class="cls-10" d="M312.44,253.68c-.08,1.81-.6,3.25-1.15,3.25-1.33,0-.45-2.13-.5-3.56-.09-2.7.23-3,.79-3S312.52,251.86,312.44,253.68Z"/><path class="cls-10" d="M308.4,253c0,2.44-.37,3.5-.84,3.48s-.78-1.5-.69-3.32.53-3.27,1-3.25S308.42,251.22,308.4,253Z"/><ellipse class="cls-11" cx="314.03" cy="224.19" rx="0.49" ry="0.82" transform="translate(7.02 457.9) rotate(-72.8)"/><path class="cls-8" d="M304.33,265.51c7.54-5.22,3.76-25.57,2.4-33.68-.37-1.49-.34-3.7-1.51-4.92l3.73-.62c-.71,1.45,0,3.67.09,5.19.9,8.55,2.28,17.17.94,25.77a20.48,20.48,0,0,1-1.6,5.05,10.17,10.17,0,0,1-3.51,4.05l-.54-.84Z"/><path class="cls-25" d="M304.33,265.51c7.54-5.22,3.76-25.57,2.4-33.68-.37-1.49-.34-3.7-1.51-4.92l3.73-.62c-.71,1.45,0,3.67.09,5.19.9,8.55,2.28,17.17.94,25.77a20.48,20.48,0,0,1-1.6,5.05,10.17,10.17,0,0,1-3.51,4.05l-.54-.84Z"/></g><g id="back_cobra" data-name="back cobra"><circle class="cls-6" cx="119.87" cy="215.15" r="8.14"/><path class="cls-6" d="M118.2,226.91a1.18,1.18,0,0,0-1.78-.27c-.84.67-3-.16-4,0-2,.3-3.5-.74-3.35-1.82.1-.71,1.5-.69,2.16-1a4.85,4.85,0,0,1,2.89-1.51,3.85,3.85,0,0,1,2.5.3c.55.4,10.27,1.58,10.25,10.72"/><path class="cls-24" d="M124.67,227.37A11.85,11.85,0,0,0,113.11,224c-1.06.24-2-.14-1.84-.23a4.85,4.85,0,0,1,2.89-1.51,3.85,3.85,0,0,1,2.5.3c.55.4,10.27,1.58,10.25,10.72"/><path class="cls-6" d="M136.85,194.37c-6.87,4.71-5.43,43.27-5.43,58,0,8.64-3.09,9.67-5.68,9.73-4.86.1-1.09-16.82-.55-18.77.82-3,2.93-7.71,2.53-10.57-1.21-8.78-11.12-6.12-12.85-4.24-4.42,4.78-2.83,14.14-2.46,15.88.72,3.44-.15,20.89,12.51,21.74,4.21.29,9.63-2.17,9.63-13.76,0-14.72-1.93-49.07,4.43-57.33"/><path class="cls-8" d="M116.89,224.37a2.26,2.26,0,0,0-2,.28,2.48,2.48,0,0,1-.42.47,2,2,0,0,1-1.66-.39l-.11-.28a2,2,0,0,1,.85-1,1.23,1.23,0,0,1,.55-.18c.39.07.78.48,1.21.43s1.1.12,1.68.15l-.13.57Z"/><ellipse class="cls-7" cx="120.31" cy="234.04" rx="4.85" ry="5.27" transform="translate(-119.18 343.09) rotate(-87.27)"/><path class="cls-9" d="M122.52,241.18l-3.88.84-3.14-2.14a.33.33,0,0,0-.49.31s-.54,5.39.49,6.69c.61.77,3-.38,3-.38s2.14,1.05,2.63.6c1-.94,1.68-5.55,1.68-5.55A.28.28,0,0,0,122.52,241.18Z"/><path class="cls-10" d="M115.56,253.68c.08,1.81.6,3.25,1.15,3.25,1.33,0,.45-2.13.5-3.56.09-2.7-.23-3-.79-3S115.48,251.86,115.56,253.68Z"/><path class="cls-10" d="M119.6,253c0,2.44.37,3.5.84,3.48s.78-1.5.69-3.32-.53-3.27-1-3.25S119.58,251.22,119.6,253Z"/><ellipse class="cls-11" cx="113.97" cy="224.19" rx="0.82" ry="0.49" transform="translate(-61.19 43.72) rotate(-17.2)"/><path class="cls-8" d="M123.67,265.51c-7.54-5.22-3.76-25.57-2.4-33.68.37-1.49.34-3.7,1.51-4.92l-3.73-.62c.71,1.45,0,3.67-.09,5.19-.9,8.55-2.28,17.17-.94,25.77a20.48,20.48,0,0,0,1.6,5.05,10.17,10.17,0,0,0,3.51,4.05l.54-.84Z"/><path class="cls-26" d="M123.67,265.51c-7.54-5.22-3.76-25.57-2.4-33.68.37-1.49.34-3.7,1.51-4.92l-3.73-.62c.71,1.45,0,3.67-.09,5.19-.9,8.55-2.28,17.17-.94,25.77a20.48,20.48,0,0,0,1.6,5.05,10.17,10.17,0,0,0,3.51,4.05l.54-.84Z"/></g><g id="right_top_cobra" data-name="right top cobra"><circle class="cls-6" cx="291.54" cy="108.5" r="12.72"/><path class="cls-6" d="M294.14,126.88a1.85,1.85,0,0,1,2.79-.43c1.3,1,4.77-.25,6.18,0,3.13.47,5.46-1.16,5.23-2.85-.15-1.11-2.34-1.07-3.37-1.6-.59-.3-1.43-1.91-4.52-2.34-1.2-.17-2.92-.25-3.89.45s-16.05,2.48-16,16.75"/><path class="cls-24" d="M284,127.59c5.19-5.81,12.64-6.49,18.06-5.26,1.65.37,3.16-.22,2.87-.37-.59-.3-1.43-1.91-4.52-2.34-1.2-.17-2.92-.25-3.89.45s-16.05,2.48-16,16.75"/><path class="cls-6" d="M257.12,192.1c15.35-7.72,22.62-4.11,26.42-5.49,8.73-3.18,3.26-27.59,1.69-30.34-2.29-4-8.42-12.65-7.13-20.22,2.33-13.65,18.54-9.63,21.25-6.7,6.9,7.46,3.89,14.45,3.14,17.13-2.36,8.38,5.49,44.8-13.92,45.5-6.58.24-12.51,4.92-30.22,1.15"/><path class="cls-8" d="M296,122.18c1.11-.15,2.45-.08,3.44-.29a2.28,2.28,0,0,1,3.18,1.22l-.1.28a4.35,4.35,0,0,1-2.53.16,5.22,5.22,0,0,1-.71-.53,4.56,4.56,0,0,0-3.15-.27l-.13-.57Z"/><path class="cls-7" d="M299.68,138.93c.45,6-3.85,8.94-9.22,8.92s-7.79,1-9.61-8.3c-1.28-6.62,4.38-10.28,9.75-10.27S299.19,132.38,299.68,138.93Z"/><path class="cls-9" d="M286.77,151.44l6.72,1.92,4.7-4.68c.29-.36.66,0,.66.57,0,0-1.84,8.52-1,15.15.25,1.93-3.47-.82-3.47-.82s-3.38,3.54-3.34,2.44C291.23,161.07,286.53,151.38,286.77,151.44Z"/><path class="cls-10" d="M299.07,176.94c-.32,2.82-1.17,5.68-1.93,5.27s.09-1.1.12-2.48c.08-4.32-.23-8,.43-8C298.56,171.72,299.4,174.06,299.07,176.94Z"/><path class="cls-10" d="M293.69,177.07c.05,3.86-.83,5.05-1.56,5s-.05-2.83-.15-5.8.27-4.6,1-4.57S293.66,174,293.69,177.07Z"/><ellipse class="cls-11" cx="300.76" cy="122.62" rx="0.77" ry="1.28" transform="translate(94.7 373.68) rotate(-72.8)"/><path class="cls-8" d="M281.67,191.52c4.76-2.48,10.82-5.69,12.12-11.12a53,53,0,0,0,.07-8.73c-.5-9.06-2.19-17.92-3.76-26.89-.78-4.51-1.6-9.06-2.08-13.63-.19-1.63-.22-3.16-1.32-4.58l5.47-.24a6.68,6.68,0,0,0-.66,4.5c.33,4.51.9,9,1.61,13.45,1.66,10.5,3.83,21.15,3.76,31.87l-.05,2.32c.15,4.29-2.72,8.12-6,10.56a42.84,42.84,0,0,1-8.07,4.8l-1.12-2.31Z"/><path class="cls-27" d="M281.67,191.52c4.76-2.48,10.82-5.69,12.12-11.12a53,53,0,0,0,.07-8.73c-.5-9.06-2.19-17.92-3.76-26.89-.78-4.51-1.6-9.06-2.08-13.63-.19-1.63-.22-3.16-1.32-4.58l5.47-.24a6.68,6.68,0,0,0-.66,4.5c.33,4.51.9,9,1.61,13.45,1.66,10.5,3.83,21.15,3.76,31.87l-.05,2.32c.15,4.29-2.72,8.12-6,10.56a42.84,42.84,0,0,1-8.07,4.8l-1.12-2.31Z"/><path class="cls-2" d="M257.12,192.1c15.35-7.72,22.62-4.11,26.42-5.49,8.73-3.18,3.26-27.59,1.69-30.34-2.29-4-8.42-12.65-7.13-20.22,2.33-13.65,18.54-9.63,21.25-6.7,6.9,7.46,3.89,14.45,3.14,17.13-2.36,8.38,5.49,44.8-13.92,45.5-6.58.24-12,4.67-29.72.91"/></g><g id="left_top_cobra" data-name="left top cobra"><circle class="cls-6" cx="136.46" cy="108.5" r="12.72"/><path class="cls-6" d="M133.86,126.88a1.85,1.85,0,0,0-2.79-.43c-1.3,1-4.77-.25-6.18,0-3.13.47-5.46-1.16-5.23-2.85.15-1.11,2.34-1.07,3.37-1.6.59-.3,1.43-1.91,4.52-2.34,1.2-.17,2.92-.25,3.89.45s16.05,2.48,16,16.75"/><path class="cls-24" d="M144,127.59c-5.19-5.81-12.64-6.49-18.06-5.26-1.65.37-3.16-.22-2.87-.37.59-.3,1.43-1.91,4.52-2.34,1.2-.17,2.92-.25,3.89.45s16.05,2.48,16,16.75"/><path class="cls-6" d="M170.88,192.1c-15.35-7.72-22.62-4.11-26.42-5.49-8.73-3.18-3.26-27.59-1.69-30.34,2.29-4,8.42-12.65,7.13-20.22-2.33-13.65-18.54-9.63-21.25-6.7-6.9,7.46-3.89,14.45-3.14,17.13,2.36,8.38-5.49,44.8,13.92,45.5,6.58.24,12.17,4.75,29.87,1"/><path class="cls-8" d="M131.84,122.75a4.56,4.56,0,0,0-3.15.27,5.22,5.22,0,0,1-.71.53,4.35,4.35,0,0,1-2.53-.16l-.1-.28a3.2,3.2,0,0,1,1.41-1.22,2.54,2.54,0,0,1,.84-.25,10.07,10.07,0,0,0,1.8.36c.85,0,1.71.09,2.57.18l-.13.57Z"/><path class="cls-7" d="M128.32,138.93c-.45,6,3.85,8.94,9.22,8.92s7.79,1,9.61-8.3c1.28-6.62-4.38-10.28-9.75-10.27S128.81,132.38,128.32,138.93Z"/><path class="cls-9" d="M141.23,151.44l-6.72,1.92-4.7-4.68c-.29-.36-.66,0-.66.57,0,0,1.84,8.52,1,15.15-.25,1.93,3.47-.82,3.47-.82s3.38,3.54,3.34,2.44C136.77,161.07,141.47,151.38,141.23,151.44Z"/><path class="cls-10" d="M128.93,176.94c.32,2.82,1.17,5.68,1.93,5.27s-.09-1.1-.12-2.48c-.08-4.32.23-8-.43-8C129.44,171.72,128.6,174.06,128.93,176.94Z"/><path class="cls-10" d="M134.31,177.07c-.05,3.86.83,5.05,1.56,5s0-2.83.15-5.8-.27-4.6-1-4.57S134.34,174,134.31,177.07Z"/><ellipse class="cls-11" cx="127.24" cy="122.62" rx="1.28" ry="0.77" transform="translate(-30.57 43.1) rotate(-17.2)"/><path class="cls-8" d="M146.33,191.52c-4.76-2.48-10.82-5.69-12.12-11.12a53,53,0,0,1-.07-8.73c.5-9.06,2.19-17.92,3.76-26.89.78-4.51,1.6-9.06,2.08-13.63.19-1.63.22-3.16,1.32-4.58l-5.47-.24a6.68,6.68,0,0,1,.66,4.5c-.33,4.51-.9,9-1.61,13.45-1.66,10.5-3.83,21.15-3.76,31.87l0,2.32c-.15,4.29,2.72,8.12,6,10.56a42.84,42.84,0,0,0,8.07,4.8l1.12-2.31Z"/><path class="cls-28" d="M146.33,191.52c-4.76-2.48-10.82-5.69-12.12-11.12a53,53,0,0,1-.07-8.73c.5-9.06,2.19-17.92,3.76-26.89.78-4.51,1.6-9.06,2.08-13.63.19-1.63.22-3.16,1.32-4.58l-5.47-.24a6.68,6.68,0,0,1,.66,4.5c-.33,4.51-.9,9-1.61,13.45-1.66,10.5-3.83,21.15-3.76,31.87l0,2.32c-.15,4.29,2.72,8.12,6,10.56a42.84,42.84,0,0,0,8.07,4.8l1.12-2.31Z"/><path class="cls-2" d="M170.88,192.1c-15.35-7.72-22.62-4.11-26.42-5.49-8.73-3.18-3.26-27.59-1.69-30.34,2.29-4,8.42-12.65,7.13-20.22-2.33-13.65-18.54-9.63-21.25-6.7-6.9,7.46-3.89,14.45-3.14,17.13,2.36,8.38-5.49,44.8,13.92,45.5,6.58.24,11.34,4.75,29,1"/></g><path class="cls-29" d="M214,92.15c-4.11,0-14.65,13.91-14.65,101.52,0,26.05,8.1,29.62,14.65,29.62s14.65-3.57,14.65-29.62C228.65,106.06,218.11,92.15,214,92.15Z"/><g class="cls-30"><g id="Blend_4px" data-name="Blend 4px"><path class="cls-31" d="M206.41,98.07l-15.9,107.76"/><path class="cls-31" d="M208.58,98.07,193.49,215.94"/><path class="cls-31" d="M210.75,98.07q-5.28,62.3-10.54,124.61"/><path class="cls-31" d="M212.92,98.07q-1.89,64-3.77,128"/><path class="cls-31" d="M215.08,98.07q1.89,64,3.77,128"/><path class="cls-31" d="M217.25,98.07q5.28,62.3,10.54,124.61"/><path class="cls-31" d="M219.42,98.07l15.09,117.87"/><path class="cls-31" d="M221.59,98.07l15.9,107.76"/></g></g><circle class="cls-6" cx="214" cy="178.96" r="11.87"/><circle class="cls-6" cx="214" cy="53.17" r="9.35"/><path class="cls-9" d="M214,62.52c-9.35,0-2.13,20.88,0,20.88S223.35,62.52,214,62.52Z"/><path class="cls-10" d="M210.64,78.89c-.86-9.69-6.94-12.61-6.64-13.11s3.63.75,5.37,2.48c2.57,2.57,4.43,5,4.43,10.63C213.8,80.15,210.75,80.15,210.64,78.89Z"/><path class="cls-10" d="M217.36,78.89c.86-9.69,6.94-12.61,6.64-13.11s-3.63.75-5.37,2.48c-2.57,2.57-4.43,5-4.43,10.63C214.2,80.15,217.25,80.15,217.36,78.89Z"/><path class="cls-6" d="M217.43,78.89H210.5a.6.6,0,0,0-.62.48l-1.66,17a.57.57,0,0,0,.62.57h10.25a.57.57,0,0,0,.62-.57l-1.66-17A.59.59,0,0,0,217.43,78.89Z"/><path class="cls-32" d="M217.43,78.89H210.5a.6.6,0,0,0-.62.48l-1.66,17a.57.57,0,0,0,.62.57h10.25a.57.57,0,0,0,.62-.57l-1.66-17A.59.59,0,0,0,217.43,78.89Z"/><path class="cls-29" d="M243.29,92.15c-4.11,0-14.65,13.91-14.65,101.52,0,26.05,8.1,29.62,14.65,29.62s14.65-3.57,14.65-29.62C257.94,106.06,247.4,92.15,243.29,92.15Z"/><g class="cls-33"><g id="Blend_4px-2" data-name="Blend 4px"><path class="cls-31" d="M235.71,98.07q-8,53.88-15.91,107.76"/><path class="cls-31" d="M237.87,98.07Q230.33,157,222.79,215.94"/><path class="cls-31" d="M240,98.07q-5.26,62.3-10.54,124.61"/><path class="cls-31" d="M242.21,98.07q-1.89,64-3.76,128"/><path class="cls-31" d="M244.38,98.07q1.88,64,3.76,128"/><path class="cls-31" d="M246.54,98.07q5.28,62.3,10.54,124.61"/><path class="cls-31" d="M248.71,98.07,263.8,215.94"/><path class="cls-31" d="M250.88,98.07q8,53.88,15.91,107.76"/></g></g><circle class="cls-6" cx="243.29" cy="178.96" r="10.75"/><circle class="cls-6" cx="243.29" cy="53.17" r="9.35"/><path class="cls-9" d="M243.29,62.52c-9.35,0-2.13,20.88,0,20.88S252.64,62.52,243.29,62.52Z"/><path class="cls-10" d="M239.93,78.89c-.86-9.69-6.94-12.61-6.64-13.11s3.64.75,5.37,2.48c2.57,2.57,4.43,5,4.43,10.63C243.09,80.15,240,80.15,239.93,78.89Z"/><path class="cls-10" d="M246.66,78.89c.85-9.69,6.93-12.61,6.63-13.11s-3.63.75-5.37,2.48c-2.56,2.57-4.43,5-4.43,10.63C243.49,80.15,246.54,80.15,246.66,78.89Z"/><path class="cls-6" d="M246.72,78.89h-6.93a.6.6,0,0,0-.62.48l-1.66,17a.58.58,0,0,0,.62.57h10.25a.58.58,0,0,0,.63-.57l-1.67-17A.58.58,0,0,0,246.72,78.89Z"/><path class="cls-32" d="M246.72,78.89h-6.93a.6.6,0,0,0-.62.48l-1.66,17a.58.58,0,0,0,.62.57h10.25a.58.58,0,0,0,.63-.57l-1.67-17A.58.58,0,0,0,246.72,78.89Z"/><path class="cls-29" d="M184.7,92.15c-4.11,0-14.65,13.91-14.65,101.52,0,26.05,8.1,29.62,14.65,29.62s14.65-3.57,14.65-29.62C199.35,106.06,188.81,92.15,184.7,92.15Z"/><g class="cls-34"><g id="Blend_4px-3" data-name="Blend 4px"><path class="cls-31" d="M177.11,98.07l-15.9,107.76"/><path class="cls-31" d="M179.28,98.07,164.19,215.94"/><path class="cls-31" d="M181.45,98.07q-5.26,62.3-10.54,124.61"/><path class="cls-31" d="M183.62,98.07q-1.89,64-3.77,128"/><path class="cls-31" d="M185.78,98.07q1.89,64,3.77,128"/><path class="cls-31" d="M188,98.07q5.28,62.3,10.54,124.61"/><path class="cls-31" d="M190.12,98.07l15.09,117.87"/><path class="cls-31" d="M192.29,98.07l15.9,107.76"/></g></g><circle class="cls-6" cx="184.7" cy="178.96" r="10.75"/><circle class="cls-6" cx="184.7" cy="53.17" r="9.35"/><path class="cls-9" d="M184.7,62.52c-9.35,0-2.13,20.88,0,20.88S194.05,62.52,184.7,62.52Z"/><path class="cls-10" d="M181.34,78.89c-.86-9.69-6.94-12.61-6.64-13.11s3.63.75,5.37,2.48c2.57,2.57,4.43,5,4.43,10.63C184.5,80.15,181.45,80.15,181.34,78.89Z"/><path class="cls-10" d="M188.06,78.89c.86-9.69,6.94-12.61,6.64-13.11s-3.63.75-5.37,2.48c-2.57,2.57-4.43,5-4.43,10.63C184.9,80.15,188,80.15,188.06,78.89Z"/><path class="cls-6" d="M188.13,78.89H181.2a.6.6,0,0,0-.62.48l-1.66,17a.57.57,0,0,0,.62.57h10.25a.57.57,0,0,0,.62-.57l-1.66-17A.58.58,0,0,0,188.13,78.89Z"/><path class="cls-32" d="M188.13,78.89H181.2a.6.6,0,0,0-.62.48l-1.66,17a.57.57,0,0,0,.62.57h10.25a.57.57,0,0,0,.62-.57l-1.66-17A.58.58,0,0,0,188.13,78.89Z"/><g id="base"><path class="cls-10" d="M309.23,186.15a.38.38,0,0,0-.65-.35c-2.13,2.48-7.37,8-11.79,8-3.71,0-13-2.2-23.36-2.2-4.86,0-10.17.94-15,.94-5.12,0-18.23-2.65-23.17-2.65a20.5,20.5,0,0,0-18.66,12c-1,2.22,8.74,2.21,9.8,0,1.21-2.53,5.83-3.8,10.23-3.8,4.24,0,9.43,1.16,16.13,1.16,11.11,0,15.12-3,22.68-3,9.91,0,17.78,2.84,23.1.91C306,194.41,308.49,188.88,309.23,186.15Z"/><path class="cls-35" d="M309.23,186.15a.38.38,0,0,0-.65-.35c-2.13,2.48-7.37,8-11.79,8-3.71,0-13-2.2-23.36-2.2-4.86,0-10.17.94-15,.94-5.12,0-18.23-2.65-23.17-2.65a20.5,20.5,0,0,0-18.66,12c-1,2.22,8.74,2.21,9.8,0,1.21-2.53,5.83-3.8,10.23-3.8,4.24,0,9.43,1.16,16.13,1.16,11.11,0,15.12-3,22.68-3,9.91,0,17.78,2.84,23.1.91C306,194.41,308.49,188.88,309.23,186.15Z"/><path class="cls-10" d="M118.77,186.15a.38.38,0,0,1,.65-.35c2.13,2.48,7.37,8,11.79,8,3.71,0,13-2.2,23.36-2.2,4.86,0,10.17.94,15,.94,5.12,0,18.23-2.65,23.17-2.65a20.5,20.5,0,0,1,18.66,12c1,2.22-8.74,2.21-9.8,0-1.21-2.53-5.83-3.8-10.23-3.8-4.24,0-9.43,1.16-16.13,1.16-11.11,0-15.12-3-22.68-3-9.91,0-17.78,2.84-23.1.91C122,194.41,119.51,188.88,118.77,186.15Z"/><path class="cls-36" d="M118.77,186.15a.38.38,0,0,1,.65-.35c2.13,2.48,7.37,8,11.79,8,3.71,0,13-2.2,23.36-2.2,4.86,0,10.17.94,15,.94,5.12,0,18.23-2.65,23.17-2.65a20.5,20.5,0,0,1,18.66,12c1,2.22-8.74,2.21-9.8,0-1.21-2.53-5.83-3.8-10.23-3.8-4.24,0-9.43,1.16-16.13,1.16-11.11,0-15.12-3-22.68-3-9.91,0-17.78,2.84-23.1.91C122,194.41,119.51,188.88,118.77,186.15Z"/><rect class="cls-9" x="160.66" y="201.86" width="106.68" height="4.84" rx="1.34"/><path class="cls-9" d="M259.81,206.7s-6.49,4.17-6.45,27.85H174.64c0-23.68-6.45-27.85-6.45-27.85Z"/><path class="cls-37" d="M250.47,226H174.83s-.79-7.6-1.13-11.89c0-.63.31-1.49.27-1.92-.5-4.65.86-5.51.86-5.51h81.4l-2.78,1.46.53,4.65a23.9,23.9,0,0,0-.37,5c.12,3.15-.07,6.23-.83,7.06A3.94,3.94,0,0,1,250.47,226Z"/></g></g><g id="neme_1" data-name="neme 1"><path class="cls-38" d="M206.7,283.39c-1.64-.63-5.32-1-7.4,1.11-1.18,1.2-7,5.26-3.73,15.75,2,6.4,7.14,9.79,8.37,11.05s2.7,4.19,4.14,4.86c0,0,6.62,9.81,21,147.33.44,4.15-40.76,8.45-41.41,1.82-2.92-29.66-12.33-93.15-17.54-93.15-5.41,0-18.27,1.61-18.27,1.61-6.51.82-17.14-4.52-21-8.74-15.48-16.85-7.88-40.92,1.46-77.53,7.72-30.24,30.74-61,73.19-62,20.79-.48,61.76,6.63,67.48,49.28.15,1.09-42.87-.53-43.95-.42Z"/><g class="cls-39"><path class="cls-40" d="M244.22,272.45C234,258.82,222,253.32,205,254.44c-11.89.14-21.7,5-29.89,13.65-18.68,19.63-30.75,46.46-36.11,73.09a166.47,166.47,0,0,0-2.59,23.7h-1c.06-34.4,12.83-74.85,36.57-99.95,8.87-9.39,18.92-13.28,31.79-14.42,15.24-1.35,26,2.52,36.25,11.31,3.13,2.69,4.7,5.1,7.08,8.4l-2.94,2.24Z"/><path class="cls-40" d="M229.64,273c-6.3-10.09-19.59-10.55-30.1-8.72-7.29,1.34-13.32,6.08-18.82,11.43-23,24.05-37.48,56.5-40.79,89.92l-1-.06a143.64,143.64,0,0,1,7.45-40.28A155.15,155.15,0,0,1,170.49,280c7.26-9.27,17.57-18.11,29.49-20.59,12.44-2.43,28.88.1,35.88,12.43L229.64,273Z"/><path class="cls-40" d="M217.88,277.87c-3.34-3.23-8.76-4.12-13.34-3.4-10.8,1.62-23,12.52-29.48,21-17,22.17-26.71,44.08-32.53,71.56l-1-.2A197.28,197.28,0,0,1,150,334.1a158.37,158.37,0,0,1,19.64-37.39c7.23-10.72,20.76-24.8,34.11-27.12,6.18-1.06,12.86-.08,17.78,4.39Z"/><path class="cls-40" d="M201.33,290.48c-3.22.19-7,2.66-9.77,4.73-3.29,2.42-6.33,4.25-9.26,7.27a155.45,155.45,0,0,0-33,54.4,95.37,95.37,0,0,0-3.38,12.45l-1-.19c5-25.77,17.55-49.66,34-69.81A61.35,61.35,0,0,1,195,286.13a24.11,24.11,0,0,1,3.51-1.58c.65-.21,1.39-.35,2.09-.5l.69,5.33Z"/><path class="cls-40" d="M197.62,303.87c-5.87,3-11.47,8.41-16.14,13.11a163.5,163.5,0,0,0-24.6,33.61A78.75,78.75,0,0,0,149.16,370l-1-.2c4.18-20,17.66-40,30.73-55.26,4.81-5.28,10.84-11.46,17.09-15l1.74,3.66Z"/><path class="cls-40" d="M204.92,311.58a115.06,115.06,0,0,0-16.47,12.53A200.21,200.21,0,0,0,162.1,353.6a100.81,100.81,0,0,0-10.15,17l-.91-.39a102,102,0,0,1,9.5-17.76,196.45,196.45,0,0,1,32.72-38.06,72,72,0,0,1,8.14-6.28l3.37,3Z"/><path class="cls-40" d="M209.85,320.06c-19.1,12.19-43.11,31.4-54.44,51.38l-.87-.47c8.87-17.21,23.24-30.7,37.66-43.1,4.91-4.09,9.94-8,15.27-11.65l2.38,3.84Z"/><path class="cls-40" d="M254.68,272.89c-9.24-14.93-24.52-25.81-42.08-26.68-12.78-.59-26.32,1.48-36.92,9.25-23,16.72-37,55.78-41.19,83.44-1.37,8.94-1.08,16.88-1.08,26l-1,0c-4.29-20.24,4.1-55.29,15.81-80.11,7.76-16.72,20.39-32,38.08-38.59,28.84-9.65,56.38-2.49,70,25.62l-1.65,1.08Z"/><path class="cls-40" d="M156.22,371.8c7.23-9.35,16.1-17.22,25.25-24.54,9-7.05,18.25-13.84,28.22-19.42l1.28-.57,1.37,4.48c-10.29,4.84-19.85,11.29-29.2,17.8-9.4,6.74-18.55,14-26.15,22.88l-.77-.63Z"/><path class="cls-40" d="M157.89,373.41c11.56-11.4,25.82-19.47,40.16-26.69,5-2.34,10-4.85,15.44-6l.52,4.47c-.55.12-1.07.16-1.67.31A93.81,93.81,0,0,0,199.5,350a194.4,194.4,0,0,0-28.2,14.57,88,88,0,0,0-12.72,9.52l-.69-.72Z"/><path class="cls-40" d="M164.07,373a141.72,141.72,0,0,1,45.83-19.51,43.21,43.21,0,0,1,7.42-1.12v5.41c-9,.28-18.13,2.89-26.75,5.52A128.35,128.35,0,0,0,165,374.52l-.93-1.5Z"/><path class="cls-40" d="M169.77,373.31c16.14-4.27,32.48-7.53,49.19-8.46v4.33a190.37,190.37,0,0,0-24.35,2.1c-8.14,1.13-16.23,2.61-24.23,4.5l-.61-2.47Z"/><path class="cls-40" d="M169.89,378.07c16.78-1.89,33.49-3.26,50.38-3.74v3.09c-8.29.15-16.72.79-25,1.39s-16.7,1.38-25,2.4l-.37-3.14Z"/><path class="cls-40" d="M172.41,385.41c16.8-1.93,33.53-2.78,50.41-3.13v4c-8.3.06-16.71.44-25,.87s-16.7,1-25,2l-.44-3.71Z"/><path class="cls-40" d="M173.9,395.2c12.59-1.42,25.14-2.11,37.75-2.7,4.21-.19,8.39-.36,12.63-.43l0,4c-16.65.38-33.45,1.14-50,2.86l-.42-3.71Z"/><path class="cls-40" d="M175.39,405c16.79-1.72,33.5-2.54,50.35-3.13l.08,4c-8.33.2-16.71.58-25.06,1s-16.7,1-25,1.84l-.39-3.71Z"/><path class="cls-40" d="M176.88,414.78c16.77-1.62,33.5-2.43,50.31-3.13l.13,4c-8.35.27-16.72.66-25.07,1.1s-16.71,1-25,1.76l-.37-3.71Z"/><path class="cls-40" d="M178.38,424.57c16.75-1.51,33.49-2.32,50.27-3.13l.17,4q-12.56.51-25.09,1.18c-8.35.46-16.72.95-25,1.69l-.33-3.72Z"/><path class="cls-40" d="M179.87,434.36c14.54-1.28,35.48-2.29,50.24-3.13l.21,4c-14.78.75-35.62,1.68-50.15,2.87l-.3-3.72Z"/><polygon class="cls-40" points="181.36 444.14 231.57 441.03 231.82 445 181.64 447.87 181.36 444.14 181.36 444.14"/><polygon class="cls-40" points="182.85 453.94 233.03 450.82 233.32 454.79 183.1 457.66 182.85 453.94 182.85 453.94"/><polygon class="cls-40" points="184.35 463.72 234.49 460.61 234.81 464.57 184.57 467.45 184.35 463.72 184.35 463.72"/><path class="cls-40" d="M261.05,273c-11.75-26.21-22.83-32.15-43.36-34.45-14.07-1.58-29.11.82-41.7,7.75a56.81,56.81,0,0,0-20.76,19.35c-13.86,20.42-24,51.7-26.13,76.43-.64,7.29,0,13.26,2,22.68l-1,.17c-2.45-9.7-3.68-12.65-2.89-22.7,1.54-20.17,9-47.21,17.39-65.51,4.47-9.24,9.35-18.14,16.89-25.38A63.72,63.72,0,0,1,188,236.66a80.47,80.47,0,0,1,30.3-2.37c12.35,1.48,25.68,3.86,35.22,16.81,1.11,1.5,1.64,2.54,2.71,4.06,1.18,1.85,3.14,4.49,4.1,6.46,1.82,3.23,2.91,7.29,4.34,10.7l-3.23,1.26Z"/><path id="outline" class="cls-6" d="M134.53,365.25a.33.33,0,0,1,.22.11c3.29,3.48,10,5.33,15.45,5.33.37,0,1.73,1.66,2.05,1.62.54-.07,8.35-3.79,17.72-3.32,4.11.21,6,0,12.49,37.95,3.5,20.5,6.42,43.26,7.81,57.11a.36.36,0,0,0,.22.31c1,.42,3.66,1.22,10.36,1.22,10.24,0,21-1.78,24.62-3.2a.38.38,0,0,0,.23-.4C214.5,355.5,207.55,321.07,204,311.79a.37.37,0,0,1,.62-.39l2.74,3a.42.42,0,0,1,.06.08c.45.84,7.48,15.89,21.43,148.9.44,4.14-40.77,8.45-41.42,1.82C184.49,435.49,175.18,372,170,372c-5.42,0-17.16,1.88-17.16,1.88-6.13.77-17.11-4.18-21.47-8.25a.38.38,0,0,1,.29-.66Z"/><path class="cls-40" d="M268.45,272.14a1.38,1.38,0,0,1-.77-1c-9-43.12-44.42-43.62-64.81-42.18C145.19,233,135.38,287,128,318.58c-3.86,16.37-3.56,26.4-2.5,34.69,1,7.67,5.13,11.6,5.13,11.6C115.1,348,122.71,324,132.05,287.34c7.72-30.24,30.74-61,73.19-62,20.4-.48,65.26-2.3,67.12,46.93,0,1-.82,1.85-1.76,1.45Z"/></g><path class="cls-6" d="M131.4,364.9c-2.22,4.11-6.74,13.71-5.68,13.43a193,193,0,0,1,29.17-5.58S133.57,360.87,131.4,364.9Z"/><line class="cls-2" x1="131.23" y1="365.79" x2="150.42" y2="373.29"/><line class="cls-2" x1="129.98" y1="368.18" x2="145.24" y2="374.06"/><line class="cls-2" x1="128.75" y1="370.59" x2="140.5" y2="375.01"/><line class="cls-2" x1="127.91" y1="373.13" x2="135.75" y2="375.95"/><line class="cls-2" x1="126.71" y1="375.55" x2="131.01" y2="376.9"/><path class="cls-40" d="M255.63,353.28c-41.24-10.54-38.8-57.32-38.79-57.8l2,0c0,.46-2.65,47.7,42.38,57.65Z"/><path class="cls-40" d="M262.43,353.28s15,64,13.54,78c-.1.92,24.31-2.37,23-4-8.59-10.52-20-76.63-20-76.63-.05-.21-.59-.26-.66-.05-.46,1.27-1.79,3.46-7.19,2.83C268.31,353.15,262.43,353.28,262.43,353.28Z"/><path class="cls-6" d="M276.06,428.45c-.88.65,0,2.05-.09,2.84s24.31-2.37,23-4c-.57-.7-.75-2.79-2-2.79C291.25,424.53,280.32,425.36,276.06,428.45Z"/><path class="cls-6" d="M272.28,272.28c-24.87-3.3-50.73-4.75-65.36,10.62-.21.22,2,.34,3.16,1.53,2.14,2.12,4.22,5.06,2.55,10.3-.4,1.25,8.84,1,9.23.24,9.49-17.91,8.64-16.5,51.21-16.3C273.78,278.68,273,272.38,272.28,272.28Z"/><path class="cls-2" d="M273.07,276.69l-8.61-.07c-3.72,0-7-.05-10-.05-24,0-26,1.67-34,16.79a24.42,24.42,0,0,1-3.6.23c-.77,0-1.38,0-1.85-.06A11,11,0,0,0,211.48,283a5.93,5.93,0,0,0-1-.77c7.83-6.87,19.05-10.09,35-10.09,8.87,0,20,1.58,27.37,2.24"/><g id="front_cobra_large-5" data-name="front cobra large"><path class="cls-6" d="M278.85,241.46s1.34-.69,1.74-.49c1,.48,3-.53,3.92-.51,2,0,3.38-1.16,3.11-2.22-.19-.69-1.58-.5-2.27-.75a4.91,4.91,0,0,0-3.05-1.14,3.75,3.75,0,0,0-2.44.6c-.5.46-10,2.82-8.87,11.89"/><path class="cls-6" d="M271.52,267.49c2.36,1.18,5.5,2.71,5.68-.44s-1.64-6.89-2.42-8.76c-1.17-2.85-4.08-7.43-4-10.32.14-8.87,10.25-6.62,12.2-5,5,4.2,3.95,13.31,3.8,15.09-.3,3.5,2.92,14.75-5.62,16-4.18.61-6.86.15-14.62-5"/><path class="cls-8" d="M279.64,238.23c.58-.1,1.11-.21,1.66-.35a1.45,1.45,0,0,0,.55-.21,1.81,1.81,0,0,1,.59-.37,1.73,1.73,0,0,1,1.54,1l-.07.29a2.56,2.56,0,0,1-1.12.58,1,1,0,0,1-.49,0c-.29-.18-.55-.63-1-.61a2.4,2.4,0,0,0-1.48.15l-.21-.54Z"/><ellipse class="cls-7" cx="278.32" cy="248.37" rx="4.89" ry="4.36" transform="translate(-37.99 50.63) rotate(-9.73)"/><path class="cls-9" d="M276.44,254.94l3.92.66,3-2.29a.32.32,0,0,1,.5.28s.81,5.36-.17,6.71c-.57.8-3-.24-3-.24s-2.09,1.15-2.59.72c-1.07-.89-1.95-5.46-1.95-5.46A.27.27,0,0,1,276.44,254.94Z"/><path class="cls-10" d="M284.74,266.54c-.08,1.82-.6,3.25-1.15,3.25-1.33,0-.45-2.13-.5-3.55-.08-2.71.25-3.05.8-3S284.82,264.73,284.74,266.54Z"/><path class="cls-10" d="M280.47,265.92c0,2.45-.37,3.51-.84,3.49s-.77-1.5-.69-3.32.53-3.27,1-3.25S280.49,264.1,280.47,265.92Z"/><path class="cls-8" d="M276.27,273.48c1.43-.42,2.59-.61,3.32-2,3.43-6.47-.53-14.21-2-20.87a35.74,35.74,0,0,1-1.24-6.77,4.17,4.17,0,0,0-.92-2.5l4.57.52c-1.6,1-1,2.54-1.06,4,.22,7.86,8.33,22.43-.21,28a12.76,12.76,0,0,1-2.25.49l-.24-.88Z"/><path class="cls-41" d="M276.27,273.48c1.43-.42,2.59-.61,3.32-2,3.43-6.47-.53-14.21-2-20.87a35.74,35.74,0,0,1-1.24-6.77,4.17,4.17,0,0,0-.92-2.5l4.57.52c-1.6,1-1,2.54-1.06,4,.22,7.86,8.33,22.43-.21,28a12.76,12.76,0,0,1-2.25.49l-.24-.88Z"/><path class="cls-2" d="M269.48,270.93c6,3.56,7.46,3.76,11.64,3.15,8.54-1.24,5.32-12.49,5.62-16,.15-1.78,1.17-10.89-3.8-15.09-1.95-1.65-12.06-3.9-12.2,5,0,2.89,2.87,7.47,4,10.32.78,1.87,2.59,5.75,2.42,8.76"/><ellipse class="cls-11" cx="282.72" cy="238.24" rx="0.49" ry="0.82" transform="translate(-1.77 474.36) rotate(-79.81)"/></g><path class="cls-6" d="M271.52,267.49c-2.12-1.12-4.92-.78-7.2-.68a71.87,71.87,0,0,1-7.34-.05,18.84,18.84,0,0,1-3.74-.49c-.35-.11-.66-.27-.71-.58-.21-1.25,2.13-1,2.72-1,2.61.09,4.74.59,7.35.77a4.38,4.38,0,0,0,4.75-4,3.58,3.58,0,0,0-2-3.21c-1.83-.94-4-.76-6-.62a54.83,54.83,0,0,1-7.13.35,8,8,0,0,1-1.46-.17.91.91,0,0,1-.78-1c.11-1.18,2.68-.62,3.23-.57a20.09,20.09,0,0,0,3.29.05,17.73,17.73,0,0,0,7.24-2.17c1.09-.73,3.18-3,3.21-5.28,0-2.64-.77-5.16-7.53-10.87a50.32,50.32,0,0,0-10.59-6.49c-1-.5-2-1-3.08-1.43a3.05,3.05,0,0,0-1.45-.25c-.74-.05,7.48,4.56,10.51,6.8s7.6,6.53,9.4,9.35c1.29,2,1,3.8-1.82,5.61a16.5,16.5,0,0,1-7.2,1.78c-2.14,0-5-.9-6.84.47a4.1,4.1,0,0,0-.08,6.07,6,6,0,0,0,3.24,1,23.49,23.49,0,0,0,3.56,0c2.38-.14,4.75-.49,7.14-.43.52,0,1.78,0,1.84.75.08,1.18-1.7,1.17-2.1,1.14-2.6-.22-5.23-.59-7.84-.57-2,0-4.33.55-5,2.77a3.66,3.66,0,0,0,.57,3.14,4.34,4.34,0,0,0,3.18,1.67,63.25,63.25,0,0,0,7.28.47c2.4,0,6.67-.66,9.32,1.06"/></g></g></g></g><g id="Head_copy" data-name="Head copy"><rect id="head_bounding_box" data-name="head bounding box" class="cls-1" width="400" height="500"/></g></g></svg>