<svg xmlns="http://www.w3.org/2000/svg" xmlns:xlink="http://www.w3.org/1999/xlink" viewBox="0 0 400 500"><defs><style>.cls-1{fill:none;}.cls-2{fill:#a74432;}.cls-2,.cls-8{stroke:#000;}.cls-10,.cls-11,.cls-2,.cls-8{stroke-miterlimit:10;}.cls-3{opacity:0.6;}.cls-4{opacity:0.5;}.cls-5{opacity:0.31;}.cls-6{fill:#fefcf0;}.cls-7{clip-path:url(#clip-path);}.cls-8{fill:#161616;}.cls-9{clip-path:url(#clip-path-2);}.cls-10{fill:#fdcc66;stroke:#cd9933;}.cls-11{fill:#2d2c31;stroke:#0c0c0c;}.cls-12{fill:#0c0c0c;}</style><clipPath id="clip-path"><path class="cls-1" d="M248,296s8.87-2.34,11.62-2.11c6.34.53,9.51,6.34,9.51,6.34s-8.45,1.59-14.79-.53C252.63,299.11,248,296,248,296Z"/></clipPath><clipPath id="clip-path-2"><path class="cls-1" d="M118.5,392.27l73.61-108.58,6.27,1.2c-1.84,1.84-5.58,6.41-2.53,15.65,1.77,5.37,5.56,8.63,7.6,10.37.39.34.7.61.91.81a15.37,15.37,0,0,1,1.31,1.72c1,1.34,1.94,2.74,3,3.22a5.78,5.78,0,0,0,2.22.37,5.25,5.25,0,0,0,2.14-.38,5.1,5.1,0,0,0,2-3l1.17.27,3.62,111.58Z"/></clipPath></defs><g id="Layer_2" data-name="Layer 2"><g id="Male_Poses" data-name="Male Poses"><g id="Head_copy_3" data-name="Head copy 3"><path id="head_round" data-name="head round" class="cls-2" d="M249.32,356.27c1.42-4.51,16.16-2.33,24.07-2.68,3.58-.16,4.42-.67,5.29-5.28.38-2.05-.56-4.55,1.58-7.4,3.17-4.23.23-4.83.53-5.29.61-.92,3.17-2.11,1.06-6.34s0-4.22,2.11-5.28c8.45-4.23-4.23-14.8-9-25.36-.49-1.08-.25-7.25-2.65-21.14-3.65-21.17-5.28-27.48-22.19-38-10.4-6.51-29.07-10.23-41.34-10.83-10.59-.52-20.43.94-29.46,6.6-8.51,5.32-12.69,9.51-19,21.13-8,14.75-7.1,31.95-.14,46.35,3.54,7.32,9.29,13.61,14.21,20.23,4.29,5.76,9.12,11.15,13.11,17.1a11.64,11.64,0,0,1,1.41,8.14c-1.94,8.73-4,15.8-6.39,24.43,0,3.17,4.22,10.57,11.62,15.85,15.5,11.08,33,6.18,42-.64S243.21,375.61,249.32,356.27Z"/><g id="face"><g id="mouth"><g class="cls-3"><path d="M269.23,333.91c3.82.72,8,0,11.78,1.27l-.44.89a11.14,11.14,0,0,0-2.69-.69c-1.67-.28-4.12-.52-5.83-.7a15.57,15.57,0,0,1-2.95-.51l.13-.26Z"/></g><g class="cls-4"><path d="M280.07,340.84c-3.91-1.77-7.63-3.84-11.4-5.88l.13-.25c3.84,1.81,7.7,3.68,11.65,5.21l-.38.92Z"/></g><g class="cls-4"><path d="M282.47,331.16c-4.78.39-9.78.7-14.27,2.53l-.18-.36c4.5-2.05,9.51-2.57,14.38-3.17l.07,1Z"/></g></g><g class="cls-5"><path d="M275.63,318.78c-.92,1.75-2.15,6.33,1.32,5.22.51-.25.94-.9,1.44-1.26,1.51-1.35,3.95-1.67,4.93.5a3.14,3.14,0,0,1,.32,1.18h-1a2.55,2.55,0,0,0-.7-1.41c-1.65-1.4-3.28.92-4.7,1.66a2.19,2.19,0,0,1-3.16-2.14,9.26,9.26,0,0,1,1.3-3.88l.25.13Z"/></g><path d="M269.49,291.13c-7.33-5.55-17.14-4.51-25.58-2.3-3,.69-6,1.36-9,2l-.3-1.23c8.8-2.19,18.29-6.23,27.5-4.21a20.54,20.54,0,0,1,8.86,3.88l-1.47,1.89Z"/><g id="eye"><path class="cls-6" d="M248,296s6.85-3,11.62-2.64c7.93.53,9.51,6.87,9.51,6.87a48,48,0,0,1-14.79-.53C251.74,299.09,248,296,248,296Z"/><path d="M247.22,295.88c.08-.43.46-.65.84-.83,7.22-3.5,18.72-4.44,21.59,5.05l.13.57c-2.06.21-4.11.29-6.16.3-4.67-.06-9.67-.13-13.66-2.87-.75-.44-1.54-.94-2.29-1.38a.89.89,0,0,1-.45-.84Zm1.62.23a.72.72,0,0,0-.24-.68,5.55,5.55,0,0,0,.42.42,13.44,13.44,0,0,0,9.08,4,44,44,0,0,0,11-.17l-.42.61a9.1,9.1,0,0,0-3.46-4.43c-5-3.46-11.28-1-16.52.73l-.17.06-.09,0a.72.72,0,0,0,.4-.61Z"/><polygon points="238.52 295.5 248.03 295.12 248.03 296.87 238.52 296.5 238.52 295.5 238.52 295.5"/><g class="cls-7"><circle class="cls-8" cx="260.14" cy="297.05" r="4.23"/></g></g><g id="ear"><g class="cls-5"><path d="M206.84,300.75c.27-2.18,2.07-3.12,3.23-4.65a7.58,7.58,0,0,0,.26-9.44c-2-2.85-6.22-3.45-9.33-2.32a10.73,10.73,0,0,0-3.7,3.55c-3.8,6.16-1.21,14.5,3.33,19.58a38.12,38.12,0,0,0,3.91,3.7c1.71,1.49,2.49,3.8,4.35,5.08a5.65,5.65,0,0,0,3.74.16,3.6,3.6,0,0,0,1.53-1.9,2.68,2.68,0,0,0,0-2.42c-.31-.82-.77-1.6-1.13-2.45-.67-1.74-.63-3.59-1.09-5.34-.22-1-1-1.43-1.15-2.49h.44a6.08,6.08,0,0,0,.89,1.68c.83,1.88.61,4.09,1.37,5.95.35.81.81,1.6,1.16,2.46a3.28,3.28,0,0,1,0,2.82,4,4,0,0,1-1.82,2.2,6.46,6.46,0,0,1-2.82.23c-2-.09-3.11-2.08-4.18-3.5-1.51-2.32-3.92-3.62-5.69-5.74A21.21,21.21,0,0,1,197,303.4c-2.38-4.87-3.44-11.13-.35-15.94a11.29,11.29,0,0,1,4-3.88c3.56-1.32,8-.6,10.36,2.54a8.51,8.51,0,0,1-.23,10.6c-.95,1.27-2.77,2.5-3,4Z"/></g><g class="cls-5"><path d="M207.65,295.91a4.8,4.8,0,0,0-4.42.18c-1.8,1.36-1.32,4.16-.72,6.08.45,1.63,1.5,1.69,2.66,2.54a30,30,0,0,1,5.29,4.77.65.65,0,0,0,.32.11c-.05,0-.07,0,0,0,.44-2.57-.7-5.46-2-7.67l.37-.25a13.93,13.93,0,0,1,1.73,3.76c.29.95,1.55,5.7-.7,4.55-.87-.64-1.43-1.5-2.22-2.19a21.94,21.94,0,0,0-4.89-3.48,1.54,1.54,0,0,1-.51-.4c-1.53-2.31-2.35-6.72.21-8.62a5.72,5.72,0,0,1,5.36-.28l-.44.89Z"/></g><g class="cls-5"><path d="M208.78,295.57c2.81-4.44,0-10-5.51-9.3a3.39,3.39,0,0,0-2.33,1c-3,2.62-3.78,6.62-2.95,10.39,1,5.93,5.25,10.43,10,13.72l-.32.32c-3.16-2.16-6.39-4.79-8.44-8.25s-3.06-7.71-2.17-11.67c.79-2.82,2.94-6.31,6.08-6.52,3.33-.42,6.62,1.27,7.21,4.7a7.78,7.78,0,0,1-1.32,5.84l-.29-.23Z"/></g></g></g><g id="noble_wig_1" data-name="noble wig 1"><g id="wig_1_-_big_strands" data-name="wig 1 - big strands"><g class="cls-9"><g id="gold_beads_backup" data-name="gold beads backup"><g id="gold_bead_row" data-name="gold bead row"><path class="cls-10" d="M133.63,374.9l-2.86.25a.64.64,0,0,0-.58.71l.8,9.36a.64.64,0,0,0,.69.59l2.86-.25a.65.65,0,0,0,.59-.7l-.8-9.37A.65.65,0,0,0,133.63,374.9Z"/><rect class="cls-10" x="134.75" y="375.06" width="3.13" height="10.7" rx="0.64" transform="translate(-14.93 5.69) rotate(-2.27)"/><rect class="cls-10" x="138.1" y="376.68" width="4.15" height="10.7" rx="0.64" transform="translate(-14.99 5.84) rotate(-2.27)"/><path class="cls-10" d="M144.06,377.6l-2.83.36a.65.65,0,0,0-.56.74l1.17,9.31a.65.65,0,0,0,.73.57l2.82-.36a.67.67,0,0,0,.57-.74l-1.17-9.31A.65.65,0,0,0,144.06,377.6Z"/><path class="cls-10" d="M147.42,378.69l-2.86.25a.64.64,0,0,0-.58.7l.79,9.36a.66.66,0,0,0,.7.6l2.86-.25a.65.65,0,0,0,.58-.71l-.8-9.36A.64.64,0,0,0,147.42,378.69Z"/><path class="cls-10" d="M151.59,379.74l-2.85.25a.65.65,0,0,0-.59.71l.8,9.36a.64.64,0,0,0,.7.59l2.85-.25a.64.64,0,0,0,.59-.7l-.8-9.36A.65.65,0,0,0,151.59,379.74Z"/><path class="cls-10" d="M155.77,381.85l-2.86.25a.64.64,0,0,0-.58.7l.8,9.37a.65.65,0,0,0,.69.59l2.86-.25a.65.65,0,0,0,.58-.71l-.8-9.36A.64.64,0,0,0,155.77,381.85Z"/><path class="cls-10" d="M159.94,382.9l-2.85.25a.65.65,0,0,0-.59.71l.8,9.36a.64.64,0,0,0,.7.59l2.85-.25a.64.64,0,0,0,.59-.7l-.8-9.36A.65.65,0,0,0,159.94,382.9Z"/><rect class="cls-10" x="161.07" y="384.61" width="4.15" height="10.7" rx="0.64"/><rect class="cls-10" x="165.24" y="386.17" width="4.15" height="10.7" rx="0.64" transform="translate(-15.35 6.92) rotate(-2.27)"/><rect class="cls-10" x="169.42" y="388.28" width="4.15" height="10.7" rx="0.64" transform="translate(-15.43 7.09) rotate(-2.27)"/><rect class="cls-10" x="173.6" y="389.33" width="4.15" height="10.7" rx="0.64" transform="translate(-15.47 7.25) rotate(-2.27)"/><path class="cls-10" d="M180.59,391.3l-2.82.36a.67.67,0,0,0-.57.74l1.17,9.31a.65.65,0,0,0,.73.57l2.83-.36a.65.65,0,0,0,.56-.74l-1.17-9.31A.65.65,0,0,0,180.59,391.3Z"/><path class="cls-10" d="M184.77,393.41l-2.83.36a.66.66,0,0,0-.56.74l1.17,9.31a.65.65,0,0,0,.73.57l2.82-.36a.67.67,0,0,0,.57-.74L185.5,394A.65.65,0,0,0,184.77,393.41Z"/><path class="cls-10" d="M189.41,395.47l-2.78.66a.66.66,0,0,0-.48.79l2.14,9.14a.65.65,0,0,0,.79.48l2.77-.66a.65.65,0,0,0,.48-.79L190.19,396A.64.64,0,0,0,189.41,395.47Z"/><path class="cls-10" d="M194.63,397.58l-2.78.66a.66.66,0,0,0-.48.79l2.14,9.13a.65.65,0,0,0,.79.49l2.77-.66a.65.65,0,0,0,.48-.79l-2.14-9.14A.64.64,0,0,0,194.63,397.58Z"/><path class="cls-10" d="M199.39,399.65l-2.84,1a.66.66,0,0,0-.39.84l3.14,8.83a.65.65,0,0,0,.83.4l2.84-1a.66.66,0,0,0,.4-.84L200.23,400A.65.65,0,0,0,199.39,399.65Z"/><path class="cls-10" d="M205.57,402.83l-2.84,1a.66.66,0,0,0-.39.84l3.14,8.84a.64.64,0,0,0,.83.39l2.85-1a.66.66,0,0,0,.39-.84l-3.14-8.83A.66.66,0,0,0,205.57,402.83Z"/><path class="cls-10" d="M210.75,405.47l-3.14,1.13a.67.67,0,0,0-.39.85l3.14,8.83a.65.65,0,0,0,.83.4l3.14-1.14a.66.66,0,0,0,.39-.84l-3.14-8.84A.64.64,0,0,0,210.75,405.47Z"/></g><g id="gold_bead_row-2" data-name="gold bead row"><path class="cls-10" d="M134.13,369.68l-3.34.29a.65.65,0,0,0-.58.71L131,380a.64.64,0,0,0,.69.59l3.34-.29a.66.66,0,0,0,.59-.71l-.8-9.36A.65.65,0,0,0,134.13,369.68Z"/><rect class="cls-10" x="134.77" y="369.81" width="4.15" height="10.7" rx="0.64" transform="translate(-14.73 5.7) rotate(-2.27)"/><rect class="cls-10" x="139.15" y="371.41" width="4.15" height="10.7" rx="0.64" transform="translate(-14.79 5.88) rotate(-2.27)"/><path class="cls-10" d="M145.1,372.33l-2.82.36a.67.67,0,0,0-.57.74l1.17,9.31a.66.66,0,0,0,.73.57l2.83-.36a.66.66,0,0,0,.56-.74l-1.17-9.31A.65.65,0,0,0,145.1,372.33Z"/><path class="cls-10" d="M148.46,373.42l-2.85.25a.64.64,0,0,0-.59.7l.8,9.36a.65.65,0,0,0,.7.6l2.85-.25a.66.66,0,0,0,.59-.71l-.8-9.36A.65.65,0,0,0,148.46,373.42Z"/><path class="cls-10" d="M152.64,374.47l-2.86.25a.66.66,0,0,0-.59.71l.8,9.36a.65.65,0,0,0,.7.59l2.86-.25a.64.64,0,0,0,.58-.7l-.8-9.36A.65.65,0,0,0,152.64,374.47Z"/><path class="cls-10" d="M156.81,376.58l-2.85.25a.65.65,0,0,0-.59.7l.8,9.37a.65.65,0,0,0,.7.59l2.85-.25a.65.65,0,0,0,.59-.71l-.8-9.36A.65.65,0,0,0,156.81,376.58Z"/><path class="cls-10" d="M161,377.63l-2.86.25a.64.64,0,0,0-.58.71l.8,9.36a.64.64,0,0,0,.69.59l2.86-.24a.66.66,0,0,0,.58-.71l-.8-9.36A.65.65,0,0,0,161,377.63Z"/><rect class="cls-10" x="162.11" y="379.34" width="4.15" height="10.7" rx="0.64"/><rect class="cls-10" x="166.29" y="380.9" width="4.15" height="10.7" rx="0.64" transform="translate(-15.14 6.96) rotate(-2.27)"/><rect class="cls-10" x="170.46" y="383.01" width="4.15" height="10.7" rx="0.64" transform="translate(-15.22 7.13) rotate(-2.27)"/><rect class="cls-10" x="174.64" y="384.06" width="4.15" height="10.7" rx="0.64" transform="translate(-15.26 7.29) rotate(-2.27)"/><path class="cls-10" d="M181.64,386l-2.83.36a.65.65,0,0,0-.56.74l1.17,9.31a.65.65,0,0,0,.73.57l2.82-.36a.67.67,0,0,0,.57-.74l-1.17-9.31A.66.66,0,0,0,181.64,386Z"/><path class="cls-10" d="M185.81,388.14l-2.82.36a.67.67,0,0,0-.57.74l1.17,9.31a.66.66,0,0,0,.73.57l2.83-.36a.66.66,0,0,0,.56-.74l-1.17-9.31A.65.65,0,0,0,185.81,388.14Z"/><path class="cls-10" d="M190.45,390.2l-2.77.66a.66.66,0,0,0-.49.79l2.15,9.14a.64.64,0,0,0,.78.48l2.77-.66a.66.66,0,0,0,.49-.79l-2.14-9.13A.65.65,0,0,0,190.45,390.2Z"/><path class="cls-10" d="M195.67,392.31l-2.77.66a.66.66,0,0,0-.49.79l2.15,9.13a.64.64,0,0,0,.78.49l2.77-.66a.66.66,0,0,0,.49-.79l-2.15-9.14A.64.64,0,0,0,195.67,392.31Z"/><path class="cls-10" d="M200.44,394.38l-2.85,1a.66.66,0,0,0-.39.84l3.14,8.83a.66.66,0,0,0,.84.4l2.84-1a.66.66,0,0,0,.39-.84l-3.14-8.84A.64.64,0,0,0,200.44,394.38Z"/><path class="cls-10" d="M206,395.81l-2.84,1a.66.66,0,0,0-.39.84l3.76,10.59a.65.65,0,0,0,.84.39l2.84-1a.66.66,0,0,0,.39-.84l-3.76-10.58A.66.66,0,0,0,206,395.81Z"/><path class="cls-10" d="M211.79,400.2l-3.14,1.13a.68.68,0,0,0-.39.85L211.4,411a.66.66,0,0,0,.84.4l3.13-1.14a.66.66,0,0,0,.4-.84l-3.15-8.84A.64.64,0,0,0,211.79,400.2Z"/></g><g id="gold_bead_row-3" data-name="gold bead row"><rect class="cls-10" x="139.15" y="364.04" width="4.15" height="10.7" rx="0.64" transform="translate(-14.49 5.87) rotate(-2.27)"/><path class="cls-10" d="M145.1,365l-2.82.36a.67.67,0,0,0-.57.74l1.17,9.31a.65.65,0,0,0,.73.57l2.83-.36a.66.66,0,0,0,.56-.74l-1.17-9.31A.65.65,0,0,0,145.1,365Z"/><path class="cls-10" d="M148.46,366l-2.85.25a.65.65,0,0,0-.59.7l.8,9.37a.65.65,0,0,0,.7.59l2.85-.25A.66.66,0,0,0,150,376l-.8-9.36A.65.65,0,0,0,148.46,366Z"/><path class="cls-10" d="M152.64,367.09l-2.86.25a.66.66,0,0,0-.59.71l.8,9.36a.65.65,0,0,0,.7.59l2.86-.24a.66.66,0,0,0,.58-.71l-.8-9.36A.65.65,0,0,0,152.64,367.09Z"/><path class="cls-10" d="M156.81,369.2l-2.85.25a.65.65,0,0,0-.59.71l.8,9.36a.64.64,0,0,0,.7.59l2.85-.25a.64.64,0,0,0,.59-.7l-.8-9.36A.66.66,0,0,0,156.81,369.2Z"/><path class="cls-10" d="M161,370.25l-2.86.25a.64.64,0,0,0-.58.71l.8,9.36a.65.65,0,0,0,.69.6l2.86-.25a.65.65,0,0,0,.58-.71l-.8-9.36A.65.65,0,0,0,161,370.25Z"/><rect class="cls-10" x="162.11" y="371.96" width="4.15" height="10.7" rx="0.64"/><rect class="cls-10" x="166.29" y="373.52" width="4.15" height="10.7" rx="0.64" transform="matrix(1, -0.04, 0.04, 1, -14.85, 6.95)"/><rect class="cls-10" x="170.46" y="375.63" width="4.15" height="10.7" rx="0.64" transform="translate(-14.93 7.12) rotate(-2.27)"/><rect class="cls-10" x="174.64" y="376.68" width="4.15" height="10.7" rx="0.64" transform="translate(-14.97 7.29) rotate(-2.27)"/><path class="cls-10" d="M181.64,378.65l-2.83.36a.65.65,0,0,0-.56.74l1.17,9.31a.65.65,0,0,0,.73.57l2.82-.36a.67.67,0,0,0,.57-.74l-1.17-9.31A.67.67,0,0,0,181.64,378.65Z"/><path class="cls-10" d="M185.81,380.76l-2.82.36a.67.67,0,0,0-.57.74l1.17,9.31a.65.65,0,0,0,.73.57l2.83-.36a.66.66,0,0,0,.56-.74l-1.17-9.31A.65.65,0,0,0,185.81,380.76Z"/><path class="cls-10" d="M190.45,382.82l-2.77.66a.67.67,0,0,0-.49.8l2.15,9.13a.65.65,0,0,0,.78.49l2.77-.67a.66.66,0,0,0,.49-.79l-2.14-9.13A.66.66,0,0,0,190.45,382.82Z"/><path class="cls-10" d="M195.67,384.93l-2.77.66a.66.66,0,0,0-.49.79l2.15,9.14a.64.64,0,0,0,.78.48l2.77-.66a.66.66,0,0,0,.49-.79l-2.15-9.13A.64.64,0,0,0,195.67,384.93Z"/><path class="cls-10" d="M200.44,387l-2.85,1a.66.66,0,0,0-.39.84l3.14,8.83a.65.65,0,0,0,.84.4l2.84-1a.66.66,0,0,0,.39-.84l-3.14-8.83A.65.65,0,0,0,200.44,387Z"/><path class="cls-10" d="M206.62,390.18l-2.84,1a.67.67,0,0,0-.4.85l3.14,8.83a.67.67,0,0,0,.84.4l2.84-1a.67.67,0,0,0,.39-.85l-3.14-8.83A.65.65,0,0,0,206.62,390.18Z"/><path class="cls-10" d="M211.79,392.82,208.65,394a.66.66,0,0,0-.39.84l3.14,8.83a.66.66,0,0,0,.84.4l3.13-1.14a.66.66,0,0,0,.4-.84l-3.15-8.83A.64.64,0,0,0,211.79,392.82Z"/></g><g id="gold_bead_row-4" data-name="gold bead row"><path class="cls-10" d="M145.1,358.63l-2.82.36a.66.66,0,0,0-.57.74l1.17,9.31a.66.66,0,0,0,.73.57l2.83-.37a.65.65,0,0,0,.56-.73l-1.17-9.31A.65.65,0,0,0,145.1,358.63Z"/><path class="cls-10" d="M148.46,359.72l-2.85.24a.65.65,0,0,0-.59.71l.8,9.36a.65.65,0,0,0,.7.6l2.85-.25a.66.66,0,0,0,.59-.71l-.8-9.36A.64.64,0,0,0,148.46,359.72Z"/><path class="cls-10" d="M152.64,360.77l-2.86.25a.66.66,0,0,0-.59.71l.8,9.36a.65.65,0,0,0,.7.59l2.86-.25a.65.65,0,0,0,.58-.71l-.8-9.36A.64.64,0,0,0,152.64,360.77Z"/><path class="cls-10" d="M156.81,362.88l-2.85.25a.64.64,0,0,0-.59.7l.8,9.36a.65.65,0,0,0,.7.6l2.85-.25a.65.65,0,0,0,.59-.71l-.8-9.36A.65.65,0,0,0,156.81,362.88Z"/><path class="cls-10" d="M161,363.93l-2.86.25a.64.64,0,0,0-.58.71l.8,9.36a.64.64,0,0,0,.69.59l2.86-.25a.64.64,0,0,0,.58-.7l-.8-9.36A.65.65,0,0,0,161,363.93Z"/><rect class="cls-10" x="162.11" y="365.64" width="4.15" height="10.7" rx="0.64"/><rect class="cls-10" x="166.29" y="367.2" width="4.15" height="10.7" rx="0.64" transform="translate(-14.6 6.95) rotate(-2.27)"/><rect class="cls-10" x="170.46" y="369.31" width="4.15" height="10.7" rx="0.64" transform="translate(-14.68 7.11) rotate(-2.27)"/><rect class="cls-10" x="174.64" y="370.36" width="4.15" height="10.7" rx="0.64" transform="translate(-14.72 7.28) rotate(-2.27)"/><path class="cls-10" d="M181.64,372.33l-2.83.36a.65.65,0,0,0-.56.74l1.17,9.31a.65.65,0,0,0,.73.57L183,383a.67.67,0,0,0,.57-.74l-1.17-9.31A.66.66,0,0,0,181.64,372.33Z"/><path class="cls-10" d="M185.81,374.44l-2.82.36a.66.66,0,0,0-.57.74l1.17,9.31a.66.66,0,0,0,.73.57l2.83-.37a.65.65,0,0,0,.56-.73L186.54,375A.65.65,0,0,0,185.81,374.44Z"/><path class="cls-10" d="M190.45,376.5l-2.77.66a.66.66,0,0,0-.49.79l2.15,9.13a.64.64,0,0,0,.78.49l2.77-.66a.66.66,0,0,0,.49-.79L191.24,377A.65.65,0,0,0,190.45,376.5Z"/><path class="cls-10" d="M195.67,378.6l-2.77.67a.66.66,0,0,0-.49.79l2.15,9.13a.64.64,0,0,0,.78.49l2.77-.66a.67.67,0,0,0,.49-.8l-2.15-9.13A.65.65,0,0,0,195.67,378.6Z"/><path class="cls-10" d="M200.44,380.67l-2.85,1a.68.68,0,0,0-.39.85l3.14,8.83a.66.66,0,0,0,.84.4l2.84-1a.67.67,0,0,0,.39-.85l-3.14-8.83A.65.65,0,0,0,200.44,380.67Z"/><path class="cls-10" d="M206.62,383.86l-2.84,1a.66.66,0,0,0-.4.84l3.14,8.84a.65.65,0,0,0,.84.39l2.84-1a.66.66,0,0,0,.39-.84l-3.14-8.83A.65.65,0,0,0,206.62,383.86Z"/><path class="cls-10" d="M211.79,386.49l-3.14,1.14a.66.66,0,0,0-.39.84l3.14,8.84a.65.65,0,0,0,.84.39l3.13-1.13a.67.67,0,0,0,.4-.85l-3.15-8.83A.65.65,0,0,0,211.79,386.49Z"/></g><g id="gold_bead_row-5" data-name="gold bead row"><path class="cls-10" d="M148.46,353.39l-2.85.25a.65.65,0,0,0-.59.71l.8,9.36a.64.64,0,0,0,.7.59l2.85-.25a.65.65,0,0,0,.59-.7l-.8-9.36A.66.66,0,0,0,148.46,353.39Z"/><path class="cls-10" d="M152.64,354.45l-2.86.24a.66.66,0,0,0-.59.71l.8,9.36a.66.66,0,0,0,.7.6l2.86-.25a.65.65,0,0,0,.58-.71l-.8-9.36A.63.63,0,0,0,152.64,354.45Z"/><path class="cls-10" d="M156.81,356.55l-2.85.25a.65.65,0,0,0-.59.71l.8,9.36a.64.64,0,0,0,.7.59l2.85-.24a.66.66,0,0,0,.59-.71l-.8-9.36A.66.66,0,0,0,156.81,356.55Z"/><path class="cls-10" d="M161,357.61l-2.86.25a.64.64,0,0,0-.58.7l.8,9.36a.65.65,0,0,0,.69.6l2.86-.25a.65.65,0,0,0,.58-.71l-.8-9.36A.64.64,0,0,0,161,357.61Z"/><rect class="cls-10" x="162.11" y="359.31" width="4.15" height="10.7" rx="0.64"/><rect class="cls-10" x="166.29" y="360.87" width="4.15" height="10.7" rx="0.64" transform="translate(-14.35 6.94) rotate(-2.27)"/><rect class="cls-10" x="170.46" y="362.98" width="4.15" height="10.7" rx="0.64" transform="translate(-14.43 7.11) rotate(-2.27)"/><rect class="cls-10" x="174.64" y="364.04" width="4.15" height="10.7" rx="0.64" transform="translate(-14.47 7.28) rotate(-2.27)"/><path class="cls-10" d="M181.64,366l-2.83.36a.64.64,0,0,0-.56.73l1.17,9.31a.65.65,0,0,0,.73.57l2.82-.36a.65.65,0,0,0,.57-.73l-1.17-9.31A.65.65,0,0,0,181.64,366Z"/><path class="cls-10" d="M185.81,368.11l-2.82.37a.65.65,0,0,0-.57.73l1.17,9.31a.65.65,0,0,0,.73.57l2.83-.36a.66.66,0,0,0,.56-.74l-1.17-9.31A.65.65,0,0,0,185.81,368.11Z"/><path class="cls-10" d="M190.45,370.17l-3.28.79a.65.65,0,0,0-.48.79l2.14,9.13a.66.66,0,0,0,.79.49l3.27-.78a.67.67,0,0,0,.49-.8l-2.14-9.13A.67.67,0,0,0,190.45,370.17Z"/><path class="cls-10" d="M195.67,372.28l-2.77.66a.67.67,0,0,0-.49.8l2.15,9.13a.65.65,0,0,0,.78.49l2.77-.67a.66.66,0,0,0,.49-.79l-2.15-9.13A.65.65,0,0,0,195.67,372.28Z"/><path class="cls-10" d="M200.44,374.35l-2.85,1a.66.66,0,0,0-.39.84l3.14,8.84a.65.65,0,0,0,.84.39l2.84-1a.66.66,0,0,0,.39-.84l-3.14-8.83A.65.65,0,0,0,200.44,374.35Z"/><path class="cls-10" d="M206.62,377.54l-2.84,1a.66.66,0,0,0-.4.84l3.14,8.83a.67.67,0,0,0,.84.4l2.84-1a.66.66,0,0,0,.39-.84l-3.14-8.84A.64.64,0,0,0,206.62,377.54Z"/><path class="cls-10" d="M211.79,380.17l-3.14,1.14a.66.66,0,0,0-.39.84L211.4,391a.66.66,0,0,0,.84.4l3.13-1.14a.66.66,0,0,0,.4-.84l-3.15-8.83A.65.65,0,0,0,211.79,380.17Z"/></g><g id="gold_bead_row-6" data-name="gold bead row"><path class="cls-10" d="M153.68,347.07l-2.86.25a.64.64,0,0,0-.58.7l.8,9.36a.65.65,0,0,0,.69.6l2.86-.25a.66.66,0,0,0,.59-.71l-.8-9.36A.65.65,0,0,0,153.68,347.07Z"/><path class="cls-10" d="M157.85,349.18l-2.85.24a.66.66,0,0,0-.59.71l.8,9.36a.66.66,0,0,0,.7.6l2.85-.25a.65.65,0,0,0,.59-.71l-.8-9.36A.64.64,0,0,0,157.85,349.18Z"/><path class="cls-10" d="M162,350.23l-2.85.25a.65.65,0,0,0-.59.71l.8,9.36a.64.64,0,0,0,.7.59l2.85-.25a.66.66,0,0,0,.59-.71l-.8-9.36A.65.65,0,0,0,162,350.23Z"/><rect class="cls-10" x="163.16" y="351.93" width="4.15" height="10.7" rx="0.64"/><rect class="cls-10" x="167.33" y="353.5" width="4.15" height="10.7" rx="0.64" transform="translate(-14.05 6.98) rotate(-2.27)"/><rect class="cls-10" x="171.51" y="355.6" width="4.15" height="10.7" rx="0.64" transform="translate(-14.13 7.14) rotate(-2.27)"/><rect class="cls-10" x="175.68" y="356.66" width="4.15" height="10.7" rx="0.64" transform="matrix(1, -0.04, 0.04, 1, -14.17, 7.31)"/><path class="cls-10" d="M182.68,358.63l-2.83.36a.66.66,0,0,0-.56.74l1.17,9.31a.66.66,0,0,0,.73.57l2.83-.37a.65.65,0,0,0,.56-.73l-1.17-9.31A.65.65,0,0,0,182.68,358.63Z"/><path class="cls-10" d="M186.86,360.74l-2.83.36a.64.64,0,0,0-.56.73l1.17,9.31a.64.64,0,0,0,.72.57l2.83-.36a.65.65,0,0,0,.57-.73l-1.17-9.31A.65.65,0,0,0,186.86,360.74Z"/><path class="cls-10" d="M190.9,360.25l-2.77.66a.67.67,0,0,0-.49.8l2.74,11.67a.65.65,0,0,0,.79.49l2.77-.66a.65.65,0,0,0,.48-.79l-2.74-11.68A.65.65,0,0,0,190.9,360.25Z"/><path class="cls-10" d="M196.35,363.36l-2.77.66a.66.66,0,0,0-.49.79l2.51,10.68a.66.66,0,0,0,.79.49l2.77-.66a.67.67,0,0,0,.48-.8l-2.5-10.67A.65.65,0,0,0,196.35,363.36Z"/><path class="cls-10" d="M201.19,366.15l-2.84,1a.66.66,0,0,0-.4.84l3.69,10.37a.65.65,0,0,0,.84.4l2.84-1a.66.66,0,0,0,.39-.84L202,366.55A.65.65,0,0,0,201.19,366.15Z"/><path class="cls-10" d="M206.25,366.21,203,367.39a.66.66,0,0,0-.39.84L207.14,381a.65.65,0,0,0,.83.4l3.27-1.19a.66.66,0,0,0,.4-.84l-4.55-12.79A.65.65,0,0,0,206.25,366.21Z"/><path class="cls-10" d="M211.6,369.32l-3.14,1.14a.66.66,0,0,0-.39.84l4.38,12.3a.64.64,0,0,0,.83.4l3.14-1.13a.68.68,0,0,0,.39-.85l-4.38-12.3A.65.65,0,0,0,211.6,369.32Z"/></g><g id="gold_bead_row-7" data-name="gold bead row"><path class="cls-10" d="M156.81,340.74,154,341a.65.65,0,0,0-.59.71l.8,9.36a.64.64,0,0,0,.7.59l2.85-.24a.65.65,0,0,0,.59-.71l-.8-9.36A.66.66,0,0,0,156.81,340.74Z"/><path class="cls-10" d="M161,341.8l-2.86.25a.64.64,0,0,0-.58.7l.8,9.36a.65.65,0,0,0,.69.6l2.86-.25a.65.65,0,0,0,.58-.71l-.8-9.36A.64.64,0,0,0,161,341.8Z"/><rect class="cls-10" x="162.11" y="343.5" width="4.15" height="10.7" rx="0.64"/><rect class="cls-10" x="166.29" y="345.06" width="4.15" height="10.7" rx="0.64" transform="translate(-13.72 6.93) rotate(-2.27)"/><rect class="cls-10" x="170.46" y="347.17" width="4.15" height="10.7" rx="0.64" transform="translate(-13.8 7.1) rotate(-2.27)"/><rect class="cls-10" x="174.64" y="348.23" width="4.15" height="10.7" rx="0.64" transform="matrix(1, -0.04, 0.04, 1, -13.84, 7.26)"/><path class="cls-10" d="M181.64,350.2l-2.83.36a.64.64,0,0,0-.56.73l1.17,9.31a.65.65,0,0,0,.73.57l2.82-.36a.65.65,0,0,0,.57-.73l-1.17-9.31A.66.66,0,0,0,181.64,350.2Z"/><path class="cls-10" d="M185.81,352.3l-2.82.37a.65.65,0,0,0-.57.73l1.17,9.31a.65.65,0,0,0,.73.57l2.83-.36a.66.66,0,0,0,.56-.74l-1.17-9.31A.65.65,0,0,0,185.81,352.3Z"/><path class="cls-10" d="M190.45,354.36l-3,.73a.66.66,0,0,0-.49.79l2.14,9.14a.65.65,0,0,0,.79.48l3-.72a.67.67,0,0,0,.49-.8l-2.14-9.13A.67.67,0,0,0,190.45,354.36Z"/><path class="cls-10" d="M195.67,356.47l-2.77.66a.67.67,0,0,0-.49.8l2.15,9.13a.65.65,0,0,0,.78.49l2.77-.67a.66.66,0,0,0,.49-.79L196.45,357A.65.65,0,0,0,195.67,356.47Z"/><path class="cls-10" d="M199.36,355.52l-2.84,1a.65.65,0,0,0-.39.84l3.8,10.7a.65.65,0,0,0,.84.4l2.84-1a.66.66,0,0,0,.39-.84l-3.81-10.71A.64.64,0,0,0,199.36,355.52Z"/><path class="cls-10" d="M205.42,358.37l-2.84,1a.66.66,0,0,0-.39.84l4.33,12.19a.67.67,0,0,0,.84.4l2.84-1a.66.66,0,0,0,.39-.84l-4.33-12.19A.66.66,0,0,0,205.42,358.37Z"/><path class="cls-10" d="M211,362.16l-3.14,1.14a.66.66,0,0,0-.39.84l3.92,11a.65.65,0,0,0,.84.4l3.13-1.14a.66.66,0,0,0,.4-.84l-3.93-11A.64.64,0,0,0,211,362.16Z"/></g><g id="gold_bead_row-8" data-name="gold bead row"><path class="cls-10" d="M162,333.37l-2.85.24a.66.66,0,0,0-.59.71l.8,9.36a.65.65,0,0,0,.7.6l2.85-.25a.66.66,0,0,0,.59-.71l-.8-9.36A.65.65,0,0,0,162,333.37Z"/><rect class="cls-10" x="163.16" y="335.07" width="4.15" height="10.7" rx="0.64"/><rect class="cls-10" x="167.33" y="336.63" width="4.15" height="10.7" rx="0.64" transform="translate(-13.39 6.97) rotate(-2.27)"/><rect class="cls-10" x="171.51" y="338.74" width="4.15" height="10.7" rx="0.64" transform="translate(-13.47 7.13) rotate(-2.27)"/><rect class="cls-10" x="175.68" y="339.79" width="4.15" height="10.7" rx="0.64" transform="translate(-13.51 7.3) rotate(-2.27)"/><path class="cls-10" d="M182.68,341.76l-2.83.37a.65.65,0,0,0-.56.73l1.17,9.31a.65.65,0,0,0,.73.57l2.83-.36a.66.66,0,0,0,.56-.74l-1.17-9.31A.66.66,0,0,0,182.68,341.76Z"/><path class="cls-10" d="M186.86,343.87l-2.83.36a.65.65,0,0,0-.56.74l1.17,9.31a.64.64,0,0,0,.72.57l2.83-.36a.67.67,0,0,0,.57-.74l-1.17-9.31A.67.67,0,0,0,186.86,343.87Z"/><path class="cls-10" d="M191.49,345.93l-2.77.66a.66.66,0,0,0-.48.8l2.14,9.13a.66.66,0,0,0,.79.49l2.77-.67a.64.64,0,0,0,.48-.79l-2.14-9.13A.66.66,0,0,0,191.49,345.93Z"/><path class="cls-10" d="M196.71,348l-2.77.66a.65.65,0,0,0-.48.79l2.14,9.14a.66.66,0,0,0,.79.49l2.77-.67a.66.66,0,0,0,.48-.79l-2.14-9.13A.65.65,0,0,0,196.71,348Z"/><path class="cls-10" d="M201.48,350.11l-2.84,1a.66.66,0,0,0-.4.84l4.18,11.75a.67.67,0,0,0,.84.4l2.84-1a.66.66,0,0,0,.39-.84l-4.18-11.75A.64.64,0,0,0,201.48,350.11Z"/><path class="cls-10" d="M206.71,350.61l-2.84,1a.66.66,0,0,0-.4.84L208.28,366a.65.65,0,0,0,.83.4l2.84-1a.66.66,0,0,0,.39-.85l-4.8-13.5A.65.65,0,0,0,206.71,350.61Z"/><path class="cls-10" d="M212.38,354.66l-3.13,1.14a.66.66,0,0,0-.4.84l3.6,10.1a.65.65,0,0,0,.83.4l3.14-1.14a.66.66,0,0,0,.39-.84l-3.59-10.1A.67.67,0,0,0,212.38,354.66Z"/></g><g id="gold_bead_row-9" data-name="gold bead row"><rect class="cls-10" x="162.11" y="327.69" width="4.15" height="10.7" rx="0.64"/><rect class="cls-10" x="166.29" y="329.25" width="4.15" height="10.7" rx="0.64" transform="translate(-13.1 6.92) rotate(-2.27)"/><rect class="cls-10" x="170.46" y="331.36" width="4.15" height="10.7" rx="0.64" transform="translate(-13.18 7.08) rotate(-2.27)"/><rect class="cls-10" x="174.64" y="332.42" width="4.15" height="10.7" rx="0.64" transform="translate(-13.22 7.25) rotate(-2.27)"/><path class="cls-10" d="M181.64,334.39l-2.83.36a.64.64,0,0,0-.56.73l1.17,9.31a.64.64,0,0,0,.73.57L183,345a.65.65,0,0,0,.57-.73L182.37,335A.66.66,0,0,0,181.64,334.39Z"/><path class="cls-10" d="M185.81,336.49l-2.82.37a.65.65,0,0,0-.57.73l1.17,9.31a.65.65,0,0,0,.73.57l2.83-.36a.66.66,0,0,0,.56-.74l-1.17-9.31A.65.65,0,0,0,185.81,336.49Z"/><path class="cls-10" d="M190.45,338.55l-2.77.67a.66.66,0,0,0-.49.79l2.15,9.13a.65.65,0,0,0,.78.49l2.77-.66a.67.67,0,0,0,.49-.8L191.24,339A.67.67,0,0,0,190.45,338.55Z"/><path class="cls-10" d="M195.67,340.66l-2.77.66a.67.67,0,0,0-.49.8l2.15,9.13a.65.65,0,0,0,.78.49l2.77-.67a.66.66,0,0,0,.49-.79l-2.15-9.13A.65.65,0,0,0,195.67,340.66Z"/><path class="cls-10" d="M199.82,343,197,344a.66.66,0,0,0-.39.84L200.23,355a.65.65,0,0,0,.83.4l2.81-1a.66.66,0,0,0,.39-.84l-3.61-10.15A.64.64,0,0,0,199.82,343Z"/><path class="cls-10" d="M205,341.37l-3.6,1.3a.66.66,0,0,0-.4.84l4.76,13.39a.66.66,0,0,0,.84.4l3.6-1.31a.66.66,0,0,0,.39-.84l-4.76-13.39A.64.64,0,0,0,205,341.37Z"/><path class="cls-10" d="M211,346.35l-3.14,1.14a.66.66,0,0,0-.39.84l3.92,11a.65.65,0,0,0,.84.4l3.13-1.14a.66.66,0,0,0,.4-.84l-3.93-11A.64.64,0,0,0,211,346.35Z"/></g><g id="gold_bead_row-10" data-name="gold bead row"><path class="cls-10" d="M171.56,320.77l-2.63.11a.67.67,0,0,0-.6.71l.34,9.33a.66.66,0,0,0,.65.66l2.62-.11a.68.68,0,0,0,.61-.71l-.34-9.34A.66.66,0,0,0,171.56,320.77Z"/><path class="cls-10" d="M175.46,322.88l-2.62.11a.67.67,0,0,0-.61.71l.34,9.33a.64.64,0,0,0,.65.65l2.62-.11a.66.66,0,0,0,.61-.7l-.34-9.34A.65.65,0,0,0,175.46,322.88Z"/><path class="cls-10" d="M179.36,323.93l-2.62.11a.67.67,0,0,0-.61.71l.34,9.34a.66.66,0,0,0,.65.65l2.63-.11a.67.67,0,0,0,.6-.71l-.34-9.33A.66.66,0,0,0,179.36,323.93Z"/><path class="cls-10" d="M182.82,326l-2.6.35a.68.68,0,0,0-.55.76l1.09,9.27a.64.64,0,0,0,.7.59l2.61-.36a.67.67,0,0,0,.54-.76l-1.09-9.27A.63.63,0,0,0,182.82,326Z"/><path class="cls-10" d="M186.72,328.06l-2.6.36a.68.68,0,0,0-.55.76l1.09,9.27a.64.64,0,0,0,.7.59l2.61-.36a.67.67,0,0,0,.54-.76l-1.09-9.27A.64.64,0,0,0,186.72,328.06Z"/><path class="cls-10" d="M191.05,330.13l-2.55.65a.69.69,0,0,0-.47.82l2,9.09a.62.62,0,0,0,.75.5l2.56-.65a.69.69,0,0,0,.46-.82l-2-9.09A.63.63,0,0,0,191.05,330.13Z"/><path class="cls-10" d="M195.93,332.23l-2.55.67a.76.76,0,0,0-.44.94l2.41,10.87c.1.43.45.72.79.63l2.55-.66a.78.78,0,0,0,.44-.95l-2.41-10.87A.72.72,0,0,0,195.93,332.23Z"/><path class="cls-10" d="M200.38,334.31l-2.62,1a.7.7,0,0,0-.37.87l2.92,8.8a.62.62,0,0,0,.8.41l2.62-1a.69.69,0,0,0,.38-.87l-2.92-8.79A.62.62,0,0,0,200.38,334.31Z"/><path class="cls-10" d="M205,334.31l-2.61,1a.83.83,0,0,0-.31,1.07L206,348c.16.46.55.73.88.6l2.61-1a.85.85,0,0,0,.31-1.08l-3.91-11.55C205.75,334.46,205.35,334.19,205,334.31Z"/><path class="cls-10" d="M211,340.13l-2.89,1.12a.69.69,0,0,0-.38.87l2.92,8.79a.61.61,0,0,0,.8.41l2.9-1.12a.71.71,0,0,0,.38-.87l-2.93-8.79A.6.6,0,0,0,211,340.13Z"/></g><g id="gold_bead_row-11" data-name="gold bead row"><path class="cls-10" d="M175.46,315.5l-2.62.11a.67.67,0,0,0-.61.71l.34,9.33a.66.66,0,0,0,.65.66l2.62-.11a.67.67,0,0,0,.61-.71l-.34-9.34A.65.65,0,0,0,175.46,315.5Z"/><path class="cls-10" d="M179.36,316.56l-2.62.11a.66.66,0,0,0-.61.7l.34,9.34a.65.65,0,0,0,.65.65l2.63-.11a.67.67,0,0,0,.6-.71l-.34-9.33A.64.64,0,0,0,179.36,316.56Z"/><path class="cls-10" d="M182.82,318.58l-2.6.36a.66.66,0,0,0-.55.75l1.09,9.27a.64.64,0,0,0,.7.59l2.61-.35a.68.68,0,0,0,.54-.76l-1.09-9.27A.64.64,0,0,0,182.82,318.58Z"/><path class="cls-10" d="M186.72,320.69l-2.6.35a.68.68,0,0,0-.55.76l1.09,9.27a.64.64,0,0,0,.7.59l2.61-.36a.66.66,0,0,0,.54-.76l-1.09-9.27A.63.63,0,0,0,186.72,320.69Z"/><path class="cls-10" d="M191.05,322.75l-2.55.65a.69.69,0,0,0-.47.82l2,9.09a.63.63,0,0,0,.75.51l2.56-.66a.68.68,0,0,0,.46-.82l-2-9.09A.63.63,0,0,0,191.05,322.75Z"/><path class="cls-10" d="M195.93,324.86l-2.55.65a.69.69,0,0,0-.47.82l2,9.09a.63.63,0,0,0,.76.5l2.55-.65a.69.69,0,0,0,.47-.82l-2-9.09A.63.63,0,0,0,195.93,324.86Z"/><path class="cls-10" d="M200.38,326.93l-2.62,1a.68.68,0,0,0-.37.86l2.92,8.8a.62.62,0,0,0,.8.41l2.62-1a.69.69,0,0,0,.38-.87l-2.92-8.79A.62.62,0,0,0,200.38,326.93Z"/><path class="cls-10" d="M206.16,330.12l-2.62,1a.69.69,0,0,0-.38.87l2.92,8.79a.62.62,0,0,0,.81.41l2.62-1a.71.71,0,0,0,.38-.87l-2.93-8.8A.6.6,0,0,0,206.16,330.12Z"/><path class="cls-10" d="M211,332.75l-2.89,1.12a.69.69,0,0,0-.38.87l2.92,8.79a.61.61,0,0,0,.8.41l2.9-1.12a.71.71,0,0,0,.38-.87l-2.93-8.79A.61.61,0,0,0,211,332.75Z"/></g><g id="gold_bead_row-12" data-name="gold bead row"><path class="cls-10" d="M179.36,310.23l-2.62.11a.67.67,0,0,0-.61.71l.34,9.33a.66.66,0,0,0,.65.66l2.63-.11a.67.67,0,0,0,.6-.71l-.34-9.34A.65.65,0,0,0,179.36,310.23Z"/><path class="cls-10" d="M182.82,312.26l-2.6.35a.68.68,0,0,0-.55.76l1.09,9.27a.64.64,0,0,0,.7.59l2.61-.36a.67.67,0,0,0,.54-.76l-1.09-9.27A.63.63,0,0,0,182.82,312.26Z"/><path class="cls-10" d="M186.72,314.36l-2.6.36a.68.68,0,0,0-.55.76l1.09,9.27a.65.65,0,0,0,.7.59L188,325a.67.67,0,0,0,.54-.76L187.42,315A.64.64,0,0,0,186.72,314.36Z"/><path class="cls-10" d="M191.05,316.42l-2.55.66a.68.68,0,0,0-.47.82l2,9.09a.62.62,0,0,0,.75.5l2.56-.65a.69.69,0,0,0,.46-.82l-2-9.09A.64.64,0,0,0,191.05,316.42Z"/><path class="cls-10" d="M195.93,318.53l-2.55.66a.67.67,0,0,0-.47.81l2,9.1a.63.63,0,0,0,.76.5l2.55-.65a.69.69,0,0,0,.47-.82l-2-9.09A.64.64,0,0,0,195.93,318.53Z"/><path class="cls-10" d="M200.38,320.6l-2.62,1a.7.7,0,0,0-.37.87l2.92,8.79a.61.61,0,0,0,.8.41l2.62-1a.69.69,0,0,0,.38-.87l-2.92-8.8A.63.63,0,0,0,200.38,320.6Z"/><path class="cls-10" d="M206.16,323.79l-2.62,1a.69.69,0,0,0-.38.87l2.92,8.79a.62.62,0,0,0,.81.41l2.62-1a.7.7,0,0,0,.38-.86L207,324.2A.61.61,0,0,0,206.16,323.79Z"/><path class="cls-10" d="M211,326.43l-2.89,1.12a.69.69,0,0,0-.38.87l2.92,8.79a.62.62,0,0,0,.8.41l2.9-1.12a.71.71,0,0,0,.38-.87l-2.93-8.8A.6.6,0,0,0,211,326.43Z"/></g><g id="gold_bead_row-13" data-name="gold bead row"><path class="cls-10" d="M182.82,305.93l-2.6.36a.68.68,0,0,0-.55.76l1.09,9.27a.65.65,0,0,0,.7.59l2.61-.36a.68.68,0,0,0,.54-.76l-1.09-9.27A.64.64,0,0,0,182.82,305.93Z"/><path class="cls-10" d="M186.72,308l-2.6.36a.67.67,0,0,0-.55.76l1.09,9.27a.64.64,0,0,0,.7.58l2.61-.35a.67.67,0,0,0,.54-.76l-1.09-9.27A.63.63,0,0,0,186.72,308Z"/><path class="cls-10" d="M191.05,310.1l-2.55.65a.69.69,0,0,0-.47.82l2,9.09a.63.63,0,0,0,.75.51l2.56-.66a.68.68,0,0,0,.46-.81l-2-9.1A.63.63,0,0,0,191.05,310.1Z"/><path class="cls-10" d="M195.93,312.21l-2.55.65a.69.69,0,0,0-.47.82l2,9.09a.64.64,0,0,0,.76.51l2.55-.66a.67.67,0,0,0,.47-.81l-2-9.1A.63.63,0,0,0,195.93,312.21Z"/><path class="cls-10" d="M200.38,314.28l-2.62,1a.69.69,0,0,0-.37.87l2.92,8.79a.62.62,0,0,0,.8.41l2.62-1a.68.68,0,0,0,.38-.86l-2.92-8.8A.62.62,0,0,0,200.38,314.28Z"/><path class="cls-10" d="M206.16,317.47l-2.62,1a.69.69,0,0,0-.38.87l2.92,8.8a.63.63,0,0,0,.81.41l2.62-1a.71.71,0,0,0,.38-.87L207,317.88A.6.6,0,0,0,206.16,317.47Z"/><path class="cls-10" d="M211,320.1l-2.89,1.12a.69.69,0,0,0-.38.87l2.92,8.8a.62.62,0,0,0,.8.41l2.9-1.13a.7.7,0,0,0,.38-.86l-2.93-8.8A.61.61,0,0,0,211,320.1Z"/></g><g id="gold_bead_row-14" data-name="gold bead row"><path class="cls-10" d="M186.72,301.72l-2.6.35a.68.68,0,0,0-.55.76l1.09,9.27a.64.64,0,0,0,.7.59l2.61-.36a.66.66,0,0,0,.54-.76l-1.09-9.27A.63.63,0,0,0,186.72,301.72Z"/><path class="cls-10" d="M191.05,303.78l-2.55.65a.69.69,0,0,0-.47.82l2,9.09a.62.62,0,0,0,.75.5l2.56-.65a.69.69,0,0,0,.46-.82l-2-9.09A.63.63,0,0,0,191.05,303.78Z"/><path class="cls-10" d="M195.93,305.88l-2.55.66a.68.68,0,0,0-.47.82l2,9.09a.63.63,0,0,0,.76.5l2.55-.65a.69.69,0,0,0,.47-.82l-2-9.09A.64.64,0,0,0,195.93,305.88Z"/><path class="cls-10" d="M200.38,308l-2.62,1a.7.7,0,0,0-.37.87l2.92,8.8a.62.62,0,0,0,.8.41l2.62-1a.69.69,0,0,0,.38-.87l-2.92-8.79A.62.62,0,0,0,200.38,308Z"/><path class="cls-10" d="M206.16,311.14l-2.62,1a.69.69,0,0,0-.38.87l2.92,8.79a.62.62,0,0,0,.81.41l2.62-1a.71.71,0,0,0,.38-.87l-2.93-8.8A.62.62,0,0,0,206.16,311.14Z"/><path class="cls-10" d="M211,313.78l-2.89,1.12a.69.69,0,0,0-.38.87l2.92,8.79a.61.61,0,0,0,.8.41l2.9-1.12a.71.71,0,0,0,.38-.87l-2.93-8.79A.6.6,0,0,0,211,313.78Z"/></g><g id="gold_bead_row-15" data-name="gold bead row"><path class="cls-10" d="M186.72,296.45l-2.6.35a.68.68,0,0,0-.55.76l1.09,9.27a.64.64,0,0,0,.7.59l2.61-.36a.66.66,0,0,0,.54-.76L187.42,297A.63.63,0,0,0,186.72,296.45Z"/><path class="cls-10" d="M191.05,298.51l-2.55.65a.69.69,0,0,0-.47.82l2,9.09a.62.62,0,0,0,.75.5l2.56-.65a.69.69,0,0,0,.46-.82l-2-9.09A.63.63,0,0,0,191.05,298.51Z"/><path class="cls-10" d="M195.93,300.61l-2.55.66a.68.68,0,0,0-.47.82l2,9.09a.63.63,0,0,0,.76.5l2.55-.65a.69.69,0,0,0,.47-.82l-2-9.09A.64.64,0,0,0,195.93,300.61Z"/><path class="cls-10" d="M200.38,302.69l-2.62,1a.7.7,0,0,0-.37.87l2.92,8.8a.62.62,0,0,0,.8.41l2.62-1a.69.69,0,0,0,.38-.87l-2.92-8.79A.62.62,0,0,0,200.38,302.69Z"/><path class="cls-10" d="M206.16,305.87l-2.62,1a.69.69,0,0,0-.38.87l2.92,8.79a.62.62,0,0,0,.81.41l2.62-1a.71.71,0,0,0,.38-.87l-2.93-8.8A.62.62,0,0,0,206.16,305.87Z"/><path class="cls-10" d="M211,308.51l-2.89,1.12a.69.69,0,0,0-.38.87l2.92,8.79a.61.61,0,0,0,.8.41l2.9-1.12a.71.71,0,0,0,.38-.87l-2.93-8.79A.6.6,0,0,0,211,308.51Z"/><path class="cls-10" d="M194.18,294.12l-2.55.66a.67.67,0,0,0-.47.81l2,9.1a.63.63,0,0,0,.76.5l2.55-.65a.69.69,0,0,0,.47-.82l-2-9.09A.64.64,0,0,0,194.18,294.12Z"/></g></g></g><path class="cls-11" d="M269.41,276.66c-1,1.58-3.88-.44-4.17,0-1.05,1.58-3.89-.44-4.18,0-1,1.58-4.53-.5-4.69,0-.53,1.58-3.78-.53-3.94,0-.76,2.63-4.94-.08-4.94.52,0,2.11-4.17-.06-4.17.53,0,2.64-3.57.61-3.66,1.05-.52,2.64-3.65,0-3.65,1.06,0,2.63-4.53,1.89-4.44,2.63.26,2.11-3.91,1.52-3.91,2.11,0,10.54-3.13,5.48-3.13,6.33v7.9c0,1.58-3.95.07-4.18.53-1,2.1-3.82-.36-4.17,0-1.05,1.05-1.55.27-2.09,0C212,298.26,212,293,212,293c1.05-5.27-2.09-8.43-4.51-9.36-1.65-.63-5.93-1.18-8,.93A12.12,12.12,0,0,0,195,295.75s-.39,5.28-3.13,2.51c-.83-.84.26,5.27-5.48,5.27-1.17,0,.52,8.43-5.74,8.43-1.28,0,1,8.44-5.75,8.44-1.16,0,.53,8.43-6,8.43-1.43,0,1.31,8.43-6,8.43-1.52,0,2.09,7.38-5.74,7.38-.94,0,1.56,8.43-5.74,8.43-2.09,0,2.08,9-5.74,9-.53,0,1.56,9-5.75,9-1,0,2.09,7.37-5.21,7.37-.95,0,2.08,7.38-3.14,7.38-.37,0-.9,0-1-1.05-6.26-46.38,4.18-84.32,13.57-109.61,7.22-19.44,19.83-50.59,70.47-46.15,39.75,3.49,55.61,16.45,57.88,47.57a.63.63,0,0,1-.63.68S269.56,276.44,269.41,276.66Z"/><g id="hair_strands" data-name="hair strands"><path class="cls-12" d="M134.26,378.4c-1.09-21.07-.83-42.43,3.43-63.17,1.46-6.88,3-13.76,4.79-20.57,5.43-20.13,12.91-41.34,29.37-55.13a53.08,53.08,0,0,1,18.55-9.94l.12.37a52.49,52.49,0,0,0-18.37,9.93c-16.32,13.77-23.67,34.9-29,54.95-3.39,13.63-6.61,27.37-7.64,41.39a300.28,300.28,0,0,0-.26,42.1l-1,.07Z"/><path class="cls-12" d="M139.47,371c1.43-42,3.9-103,38.07-132.25A55,55,0,0,1,195.15,229l.12.35a54.32,54.32,0,0,0-17.44,9.76c-25.61,22.22-31.79,59.6-35.28,91.69-1.28,13.38-1.75,26.81-2.08,40.25l-1,0Z"/><path class="cls-12" d="M145.22,362c1-18.89,1.83-37.86,5-56.54,2.07-12.47,6.26-24.49,11-36.18,5-11.58,11.93-22.6,21.7-30.72a59.29,59.29,0,0,1,16.25-9.66l.17.43A58.39,58.39,0,0,0,183.3,239c-14.73,12.26-22.23,30.49-27.85,48.33A122.15,122.15,0,0,0,151,305.61c-3.1,18.65-3.89,37.58-4.79,56.44l-1,0Z"/><path class="cls-12" d="M150.72,353c1.35-23.76,1.79-48.21,10.22-70.78,6.81-19.67,18.56-38.61,36.73-49.55a76.36,76.36,0,0,1,8-4.15l.18.42a70.81,70.81,0,0,0-15.2,9.28c-23.25,19.18-33.54,49.93-36.57,79.09-1.24,11.87-1.8,23.81-2.34,35.74l-1,0Z"/><path class="cls-12" d="M156.58,344.76c.91-16.77,1.61-33.73,5.5-50.15,4-16.32,10.44-32.43,21.43-45.35a82.58,82.58,0,0,1,26.3-20.76l.21.41A81.87,81.87,0,0,0,184,249.64c-14.33,17.29-21.23,39.66-24,61.67-1.34,11.11-1.9,22.31-2.42,33.5l-1-.05Z"/><path class="cls-12" d="M212,228.58c19.85,2.69,44.35,7.18,53.24,27.65,2.89,6.43,4.09,13.45,4.65,20.39l-1,.07c-.5-6.88-1.63-13.8-4.4-20.13-5.41-13.22-18.86-20.38-32.09-23.76a164.69,164.69,0,0,0-20.44-4l0-.24Z"/><path class="cls-12" d="M218.29,229.64C236.1,233.89,255,240,262,258.75a63.28,63.28,0,0,1,3.8,17.89l-1,.06A62.43,62.43,0,0,0,261.29,259c-4.11-11.61-14.34-19.68-25.66-23.82a155.18,155.18,0,0,0-17.39-5.35l0-.23Z"/><path class="cls-12" d="M162.18,337.58A301.4,301.4,0,0,1,165,306.86a155.92,155.92,0,0,1,8-29.78,76.68,76.68,0,0,1,14.88-26.88c6.71-7.83,14.37-14.72,21.93-21.67l.31.34c-7.52,7-15.14,13.91-21.78,21.72a76,76,0,0,0-14.63,26.73A155.78,155.78,0,0,0,165.82,307a298.86,298.86,0,0,0-2.64,30.64l-1-.05Z"/><path class="cls-12" d="M167.88,329.6c2.43-27.64,7.39-56.54,24.09-79.44,5.44-7.61,11.7-14.54,17.77-21.61l.35.3c-6,7.1-12.26,14.05-17.63,21.65-15.09,20.93-20.5,47-22.93,72.23l-.65,6.95-1-.08Z"/><path class="cls-12" d="M174.19,320.61c4.15-39.58,10.09-61.49,36.59-92.05l.35.29c-18.16,21.48-27.88,38.88-32.66,66.89-1.46,8.27-2.44,16.61-3.29,25l-1-.1Z"/><path class="cls-12" d="M179.93,311.93c2.17-29.95,12.66-59.74,31.37-83.37l.36.28c-14,17.68-23,39-27.7,60.9a146.46,146.46,0,0,0-3,22.24l-1-.05Z"/><path class="cls-12" d="M197.17,286.59a565.92,565.92,0,0,1,14.61-57.95l.44.13a566.77,566.77,0,0,0-14.07,58l-1-.17Z"/><path class="cls-12" d="M202.64,282.87c3.14-18.11,6.12-36.28,10.18-54.22l.45.1c-3.88,18-6.68,36.14-9.65,54.29l-1-.17Z"/><path class="cls-12" d="M208.11,284.14c1.18-18.55,2.75-37.12,5.75-55.47l.46.07c-2.83,18.38-4.21,36.9-5.21,55.47l-1-.07Z"/><path class="cls-12" d="M211.5,288.76c.7-19.86,2.43-39.66,2.62-59.53h.46c0,19.87-1.56,39.71-2.08,59.56l-1,0Z"/><path class="cls-12" d="M185.67,303.77c2.44-26.64,11.9-52.62,26.14-75.19l.38.25a176.18,176.18,0,0,0-22.55,55.28,123.29,123.29,0,0,0-3,19.71l-1-.05Z"/><path class="cls-12" d="M190.82,299.21A138.87,138.87,0,0,1,194,281.05a362.19,362.19,0,0,1,17.23-52.44l.42.18a360.14,360.14,0,0,0-16.8,52.45,135.72,135.72,0,0,0-3.07,18.06l-1-.09Z"/><path class="cls-12" d="M215.68,299.32c.09-23.54.24-47.09-.78-70.61l.46,0c1.2,23.52,1.23,47.08,1.32,70.63Z"/><path class="cls-12" d="M219.85,299.32A530.82,530.82,0,0,0,216,229.6l.45-.06a530.3,530.3,0,0,1,4.45,69.78Z"/><path class="cls-12" d="M224,290.92c-1.21-20.67-2.21-41.44-7-61.64l.44-.1c5,20.18,6.2,41,7.59,61.67l-1,.07Z"/><path class="cls-12" d="M227.16,284.59C226.49,266,223,247.7,218,229.82l.45-.13c5.17,17.86,8.82,36.23,9.67,54.85l-1,0Z"/><path class="cls-12" d="M231,282.39a219.84,219.84,0,0,0-3.64-26.8c-1.85-8.85-5.36-17.22-8.27-25.76l.43-.15c3,8.53,6.6,16.89,8.56,25.75,1,4.42,1.75,8.9,2.37,13.38s1.08,9,1.54,13.49l-1,.09Z"/><path class="cls-12" d="M235.51,279.61a138.08,138.08,0,0,0-5-25.82c-2.51-8.45-6.73-16.2-10.91-23.93l.4-.21c2.1,3.86,4.29,7.69,6.24,11.65a97.91,97.91,0,0,1,8.22,25.11c.86,4.34,1.46,8.71,2,13.09l-1,.11Z"/><path class="cls-12" d="M239.32,278.8c-1.1-17.89-7.55-35.88-20.17-48.88l.32-.33c9.62,9.71,15.84,22.41,18.88,35.66a102.08,102.08,0,0,1,2,13.48l-1,.07Z"/><path class="cls-12" d="M242.82,277.73c-.54-18.79-9.28-34.94-22.63-47.81l.32-.33c9.88,9.46,18,21.12,21.32,34.53a74.92,74.92,0,0,1,2,13.57l-1,0Z"/><path class="cls-12" d="M247,277c-1.34-19.28-10.44-34.46-25.74-46l.29-.36c11,8.19,20.14,19.37,24,32.76a76,76,0,0,1,2.5,13.54l-1,.08Z"/><path class="cls-12" d="M252,276.7c-1.39-19.87-14.24-36.37-30.68-46.75l.25-.39c16.73,10.36,29.82,26.93,31.43,47.06l-1,.08Z"/><path class="cls-12" d="M256,276.93c-.77-14.89-8.47-28.84-20-38.15A50.3,50.3,0,0,0,223.4,231l.17-.42a50.72,50.72,0,0,1,12.77,7.72c11.79,9.34,19.71,23.44,20.62,38.55l-1,.06Z"/><path class="cls-12" d="M260.38,277.29c-.84-16.5-7.77-30.28-22-39.12A91.16,91.16,0,0,0,224.44,231l.18-.42a91.32,91.32,0,0,1,14.08,7.07c14.53,8.87,21.67,22.81,22.68,39.56l-1,.06Z"/></g></g></g></g></g><g id="Head_copy" data-name="Head copy"><rect id="head_bounding_box" data-name="head bounding box" class="cls-1" width="400" height="500"/></g></g></svg>