<svg xmlns="http://www.w3.org/2000/svg" xmlns:xlink="http://www.w3.org/1999/xlink" viewBox="0 0 400 500"><defs><style>.cls-1,.cls-11,.cls-16,.cls-18,.cls-2{fill:none;}.cls-12,.cls-18,.cls-2{stroke:#cd9933;}.cls-2{stroke-linecap:square;stroke-linejoin:bevel;stroke-width:0.3px;}.cls-3{fill:#a74432;}.cls-3,.cls-9{stroke:#000;}.cls-10,.cls-11,.cls-12,.cls-16,.cls-17,.cls-18,.cls-22,.cls-23,.cls-3,.cls-9{stroke-miterlimit:10;}.cls-4{opacity:0.6;}.cls-5{opacity:0.5;}.cls-6{opacity:0.31;}.cls-7{fill:#fefcf0;}.cls-8{clip-path:url(#clip-path);}.cls-9{fill:#161616;}.cls-10{fill:#2d2c31;}.cls-10,.cls-11{stroke:#0c0c0c;}.cls-12,.cls-26{fill:#fdcc66;}.cls-13{fill:#0c0c0c;}.cls-14{clip-path:url(#clip-path-2);}.cls-15{clip-path:url(#clip-path-3);}.cls-16,.cls-17{stroke:#a50022;}.cls-17,.cls-23{fill:#a50022;}.cls-19{fill:url(#gold_grid);}.cls-20{fill:url(#gold_grid-3);}.cls-21{fill:url(#gold_grid-5);}.cls-22{fill:#039;stroke:#003466;}.cls-23{stroke:#7c001a;}.cls-24{fill:#013334;}.cls-25{fill:#cd9933;}.cls-27{fill:#7c001a;}</style><clipPath id="clip-path"><path class="cls-1" d="M248,296s8.87-2.34,11.62-2.11c6.34.53,9.51,6.34,9.51,6.34s-8.45,1.59-14.79-.53C252.63,299.11,248,296,248,296Z"/></clipPath><clipPath id="clip-path-2"><path id="right_weave" data-name="right weave" class="cls-1" d="M178.07,407.16c-.59,1.47-6.34,0-6.34,0a1.81,1.81,0,0,0-1.8,1.81v4.47a3.59,3.59,0,0,1-.38,1.6l-3,6a1.51,1.51,0,0,0,.74,2.05l3.5,1.57a2,2,0,0,1,1.16,1.79v2.17a2,2,0,0,0,.75,1.54l7.11,5.52a1.69,1.69,0,0,0,2.34-.27l2.13-2.67a1.67,1.67,0,0,1,2.15-.39l7.08,4.25a1.22,1.22,0,0,0,1.85-1v-5.29a1.72,1.72,0,0,1,1.72-1.72h7.3a1.47,1.47,0,0,0,1.37-2L203.14,420a1.81,1.81,0,0,1,.93-2.32l7.81-3.55a1.62,1.62,0,0,0,.64-2.44l-6-8.19a1.8,1.8,0,0,1,.32-2.47l8.35-6.84a1.5,1.5,0,0,0-.07-2.38l-11.18-8a1.76,1.76,0,0,1-.38-2.5L214.52,367a1.81,1.81,0,0,0-.49-2.64l-16.6-10.21a1.75,1.75,0,0,1-.53-2.46l13.15-19.42a1.93,1.93,0,0,0-.54-2.71l-19.69-13a1.83,1.83,0,0,1-.49-2.58L206,290.18l.38-.47s18.89-24.33,26.68-21c0,0-1.55,9.15-2,12.21a266.66,266.66,0,0,0-3.06,59c1,22.4,3.06,55-3.05,76.34-2.45,8.56-7.12,20.36-16.28,26.46s-28.5,6.11-36.65,1c-10.53-6.58-13.23-15.27-13.23-24.43a22.85,22.85,0,0,1,9.16-18.32c4.07-3.05,11.7-4,15.27-2,.38.21.78.43,1.2.69a.62.62,0,0,1-.05,1.09A12.44,12.44,0,0,0,178.07,407.16Z"/></clipPath><clipPath id="clip-path-3"><path id="left_weave" data-name="left weave" class="cls-1" d="M206,290.18,189.33,314a1.83,1.83,0,0,0,.49,2.58l19.69,13a1.93,1.93,0,0,1,.54,2.71L196.9,351.71a1.75,1.75,0,0,0,.53,2.46L214,364.38a1.81,1.81,0,0,1,.49,2.64L203.6,381.29a1.76,1.76,0,0,0,.38,2.5l11.18,8a1.5,1.5,0,0,1,.07,2.38L206.88,401a1.8,1.8,0,0,0-.32,2.47l6,8.19a1.62,1.62,0,0,1-.64,2.44l-7.81,3.55a1.81,1.81,0,0,0-.93,2.32l2.62,6.55a1.47,1.47,0,0,1-1.37,2h-7.3a1.72,1.72,0,0,0-1.72,1.72v5.29a1.22,1.22,0,0,1-1.85,1l-7.08-4.25a1.67,1.67,0,0,0-2.15.39l-2.13,2.67a1.69,1.69,0,0,1-2.34.27l-7.11-5.52a2,2,0,0,1-.75-1.54v-2.17a2,2,0,0,0-1.16-1.79l-3.5-1.57a1.51,1.51,0,0,1-.74-2.05l3-6a3.59,3.59,0,0,0,.38-1.6V409c0-1,.85-2.12,1.8-1.81,6.34,2,6.8-1.37,6.34,0-1,3,.51,4.22,1.24,5.13a.63.63,0,0,1-.09.89,8.83,8.83,0,0,0-2.17,3.14,5.57,5.57,0,0,0,5.09,8.14c4.07,0,7.13-1,10.18-5.09,1.64-2.19,2.52-6.53,2.78-9.25,1-10.78-2.82-32.79-7.18-42.69-32.24-73.25-22.26-99.31-21-100.73,1.61-1.87,39.48,23,39.48,23"/></clipPath><pattern id="gold_grid" data-name="gold grid" width="72" height="72" patternTransform="matrix(0.04, -0.77, 0.27, 0.01, 16.4, -62.38)" patternUnits="userSpaceOnUse" viewBox="0 0 72 72"><rect class="cls-1" width="72" height="72"/><line class="cls-2" x1="72" y1="72" x2="144" y2="144"/><line class="cls-2" x1="144" y1="72" x2="72" y2="144"/><line class="cls-2" x1="138" y1="72" x2="69" y2="141"/><line class="cls-2" x1="132" y1="72" x2="68.99" y2="135.01"/><line class="cls-2" x1="126" y1="72" x2="68.99" y2="129.01"/><line class="cls-2" x1="120" y1="72" x2="68.99" y2="123.01"/><line class="cls-2" x1="114" y1="72" x2="68.98" y2="117.02"/><line class="cls-2" x1="108" y1="72" x2="68.98" y2="111.02"/><line class="cls-2" x1="102" y1="72" x2="68.98" y2="105.03"/><line class="cls-2" x1="96" y1="72" x2="68.97" y2="99.03"/><line class="cls-2" x1="90" y1="72" x2="68.97" y2="93.03"/><line class="cls-2" x1="84" y1="72" x2="68.96" y2="87.04"/><line class="cls-2" x1="78" y1="72" x2="68.96" y2="81.04"/><line class="cls-2" x1="72" y1="72" x2="68.96" y2="75.04"/><line class="cls-2" y1="72" x2="72" y2="144"/><line class="cls-2" x1="6" y1="72" x2="75" y2="141"/><line class="cls-2" x1="12" y1="72" x2="75" y2="135.01"/><line class="cls-2" x1="18" y1="72" x2="75.01" y2="129.01"/><line class="cls-2" x1="24" y1="72" x2="75.01" y2="123.01"/><line class="cls-2" x1="30" y1="72" x2="75.02" y2="117.02"/><line class="cls-2" x1="36" y1="72" x2="75.02" y2="111.02"/><line class="cls-2" x1="42" y1="72" x2="75.02" y2="105.03"/><line class="cls-2" x1="48" y1="72" x2="75.03" y2="99.03"/><line class="cls-2" x1="54" y1="72" x2="75.03" y2="93.03"/><line class="cls-2" x1="60" y1="72" x2="75.03" y2="87.04"/><line class="cls-2" x1="66" y1="72" x2="75.04" y2="81.04"/><line class="cls-2" x1="72" y1="72" x2="75.04" y2="75.04"/><line class="cls-2" x1="72" y1="72" y2="144"/><line class="cls-2" x1="66" y1="72" x2="-3" y2="141"/><line class="cls-2" x1="60" y1="72" x2="-3.01" y2="135.01"/><line class="cls-2" x1="54" y1="72" x2="-3.01" y2="129.01"/><line class="cls-2" x1="48" y1="72" x2="-3.01" y2="123.01"/><line class="cls-2" x1="42" y1="72" x2="-3.02" y2="117.02"/><line class="cls-2" x1="36" y1="72" x2="-3.02" y2="111.02"/><line class="cls-2" x1="30" y1="72" x2="-3.02" y2="105.03"/><line class="cls-2" x1="24" y1="72" x2="-3.03" y2="99.03"/><line class="cls-2" x1="18" y1="72" x2="-3.03" y2="93.03"/><line class="cls-2" x1="12" y1="72" x2="-3.04" y2="87.04"/><line class="cls-2" x1="6" y1="72" x2="-3.04" y2="81.04"/><line class="cls-2" y1="72" x2="-3.04" y2="75.04"/><line class="cls-2" x1="-72" y1="72" y2="144"/><line class="cls-2" x1="-66" y1="72" x2="3" y2="141"/><line class="cls-2" x1="-60" y1="72" x2="3" y2="135.01"/><line class="cls-2" x1="-54" y1="72" x2="3.01" y2="129.01"/><line class="cls-2" x1="-48" y1="72" x2="3.01" y2="123.01"/><line class="cls-2" x1="-42" y1="72" x2="3.02" y2="117.02"/><line class="cls-2" x1="-36" y1="72" x2="3.02" y2="111.02"/><line class="cls-2" x1="-30" y1="72" x2="3.02" y2="105.03"/><line class="cls-2" x1="-24" y1="72" x2="3.03" y2="99.03"/><line class="cls-2" x1="-18" y1="72" x2="3.03" y2="93.03"/><line class="cls-2" x1="-12" y1="72" x2="3.03" y2="87.04"/><line class="cls-2" x1="-6" y1="72" x2="3.04" y2="81.04"/><line class="cls-2" y1="72" x2="3.04" y2="75.04"/><line class="cls-2" y1="72" x2="-72" y2="144"/><line class="cls-2" x1="72" x2="144" y2="72"/><line class="cls-2" x1="69" y1="3" x2="138" y2="72"/><line class="cls-2" x1="68.99" y1="9" x2="132" y2="72"/><line class="cls-2" x1="68.99" y1="14.99" x2="126" y2="72"/><line class="cls-2" x1="68.99" y1="20.99" x2="120" y2="72"/><line class="cls-2" x1="68.98" y1="26.98" x2="114" y2="72"/><line class="cls-2" x1="68.98" y1="32.98" x2="108" y2="72"/><line class="cls-2" x1="68.98" y1="38.98" x2="102" y2="72"/><line class="cls-2" x1="68.97" y1="44.97" x2="96" y2="72"/><line class="cls-2" x1="68.97" y1="50.97" x2="90" y2="72"/><line class="cls-2" x1="68.96" y1="56.96" x2="84" y2="72"/><line class="cls-2" x1="68.96" y1="62.96" x2="78" y2="72"/><line class="cls-2" x1="68.96" y1="68.96" x2="72" y2="72"/><line class="cls-2" x1="144" x2="72" y2="72"/><line class="cls-2" x1="138" x2="69" y2="69"/><line class="cls-2" x1="132" x2="68.99" y2="63.01"/><line class="cls-2" x1="126" x2="68.99" y2="57.01"/><line class="cls-2" x1="120" x2="68.99" y2="51.01"/><line class="cls-2" x1="114" x2="68.98" y2="45.02"/><line class="cls-2" x1="108" x2="68.98" y2="39.02"/><line class="cls-2" x1="102" x2="68.98" y2="33.03"/><line class="cls-2" x1="96" x2="68.97" y2="27.03"/><line class="cls-2" x1="90" x2="68.97" y2="21.03"/><line class="cls-2" x1="84" x2="68.96" y2="15.04"/><line class="cls-2" x1="78" x2="68.96" y2="9.04"/><line class="cls-2" x1="72" x2="68.96" y2="3.04"/><line class="cls-2" x2="72" y2="72"/><line class="cls-2" x1="-3" y1="3" x2="66" y2="72"/><line class="cls-2" x1="-3.01" y1="9" x2="60" y2="72"/><line class="cls-2" x1="-3.01" y1="14.99" x2="54" y2="72"/><line class="cls-2" x1="-3.01" y1="20.99" x2="48" y2="72"/><line class="cls-2" x1="-3.02" y1="26.98" x2="42" y2="72"/><line class="cls-2" x1="-3.02" y1="32.98" x2="36" y2="72"/><line class="cls-2" x1="-3.02" y1="38.98" x2="30" y2="72"/><line class="cls-2" x1="-3.03" y1="44.97" x2="24" y2="72"/><line class="cls-2" x1="-3.03" y1="50.97" x2="18" y2="72"/><line class="cls-2" x1="-3.04" y1="56.96" x2="12" y2="72"/><line class="cls-2" x1="-3.04" y1="62.96" x2="6" y2="72"/><line class="cls-2" x1="-3.04" y1="68.96" y2="72"/><line class="cls-2" x1="6" x2="75" y2="69"/><line class="cls-2" x1="12" x2="75" y2="63.01"/><line class="cls-2" x1="18" x2="75.01" y2="57.01"/><line class="cls-2" x1="24" x2="75.01" y2="51.01"/><line class="cls-2" x1="30" x2="75.02" y2="45.02"/><line class="cls-2" x1="36" x2="75.02" y2="39.02"/><line class="cls-2" x1="42" x2="75.02" y2="33.03"/><line class="cls-2" x1="48" x2="75.03" y2="27.03"/><line class="cls-2" x1="54" x2="75.03" y2="21.03"/><line class="cls-2" x1="60" x2="75.03" y2="15.04"/><line class="cls-2" x1="66" x2="75.04" y2="9.04"/><line class="cls-2" x1="72" x2="75.04" y2="3.04"/><line class="cls-2" x1="72" y2="72"/><line class="cls-2" x1="66" x2="-3" y2="69"/><line class="cls-2" x1="60" x2="-3.01" y2="63.01"/><line class="cls-2" x1="54" x2="-3.01" y2="57.01"/><line class="cls-2" x1="48" x2="-3.01" y2="51.01"/><line class="cls-2" x1="42" x2="-3.02" y2="45.02"/><line class="cls-2" x1="36" x2="-3.02" y2="39.02"/><line class="cls-2" x1="30" x2="-3.02" y2="33.03"/><line class="cls-2" x1="24" x2="-3.03" y2="27.03"/><line class="cls-2" x1="18" x2="-3.03" y2="21.03"/><line class="cls-2" x1="12" x2="-3.04" y2="15.04"/><line class="cls-2" x1="6" x2="-3.04" y2="9.04"/><line class="cls-2" x2="-3.04" y2="3.04"/><line class="cls-2" x1="75" y1="3" x2="6" y2="72"/><line class="cls-2" x1="75" y1="9" x2="12" y2="72"/><line class="cls-2" x1="75.01" y1="14.99" x2="18" y2="72"/><line class="cls-2" x1="75.01" y1="20.99" x2="24" y2="72"/><line class="cls-2" x1="75.02" y1="26.98" x2="30" y2="72"/><line class="cls-2" x1="75.02" y1="32.98" x2="36" y2="72"/><line class="cls-2" x1="75.02" y1="38.98" x2="42" y2="72"/><line class="cls-2" x1="75.03" y1="44.97" x2="48" y2="72"/><line class="cls-2" x1="75.03" y1="50.97" x2="54" y2="72"/><line class="cls-2" x1="75.03" y1="56.96" x2="60" y2="72"/><line class="cls-2" x1="75.04" y1="62.96" x2="66" y2="72"/><line class="cls-2" x1="75.04" y1="68.96" x2="72" y2="72"/><line class="cls-2" x1="-72" y2="72"/><line class="cls-2" x1="-66" x2="3" y2="69"/><line class="cls-2" x1="-60" x2="3" y2="63.01"/><line class="cls-2" x1="-54" x2="3.01" y2="57.01"/><line class="cls-2" x1="-48" x2="3.01" y2="51.01"/><line class="cls-2" x1="-42" x2="3.02" y2="45.02"/><line class="cls-2" x1="-36" x2="3.02" y2="39.02"/><line class="cls-2" x1="-30" x2="3.02" y2="33.03"/><line class="cls-2" x1="-24" x2="3.03" y2="27.03"/><line class="cls-2" x1="-18" x2="3.03" y2="21.03"/><line class="cls-2" x1="-12" x2="3.03" y2="15.04"/><line class="cls-2" x1="-6" x2="3.04" y2="9.04"/><line class="cls-2" x2="3.04" y2="3.04"/><line class="cls-2" x2="-72" y2="72"/><line class="cls-2" x1="3" y1="3" x2="-66" y2="72"/><line class="cls-2" x1="3" y1="9" x2="-60" y2="72"/><line class="cls-2" x1="3.01" y1="14.99" x2="-54" y2="72"/><line class="cls-2" x1="3.01" y1="20.99" x2="-48" y2="72"/><line class="cls-2" x1="3.02" y1="26.98" x2="-42" y2="72"/><line class="cls-2" x1="3.02" y1="32.98" x2="-36" y2="72"/><line class="cls-2" x1="3.02" y1="38.98" x2="-30" y2="72"/><line class="cls-2" x1="3.03" y1="44.97" x2="-24" y2="72"/><line class="cls-2" x1="3.03" y1="50.97" x2="-18" y2="72"/><line class="cls-2" x1="3.03" y1="56.96" x2="-12" y2="72"/><line class="cls-2" x1="3.04" y1="62.96" x2="-6" y2="72"/><line class="cls-2" x1="3.04" y1="68.96" y2="72"/><line class="cls-2" x1="72" y1="-72" x2="144"/><line class="cls-2" x1="69" y1="-69" x2="138"/><line class="cls-2" x1="68.99" y1="-63" x2="132"/><line class="cls-2" x1="68.99" y1="-57.01" x2="126"/><line class="cls-2" x1="68.99" y1="-51.01" x2="120"/><line class="cls-2" x1="68.98" y1="-45.02" x2="114"/><line class="cls-2" x1="68.98" y1="-39.02" x2="108"/><line class="cls-2" x1="68.98" y1="-33.02" x2="102"/><line class="cls-2" x1="68.97" y1="-27.03" x2="96"/><line class="cls-2" x1="68.97" y1="-21.03" x2="90"/><line class="cls-2" x1="68.96" y1="-15.04" x2="84"/><line class="cls-2" x1="68.96" y1="-9.04" x2="78"/><line class="cls-2" x1="68.96" y1="-3.04" x2="72"/><line class="cls-2" x1="144" y1="-72" x2="72"/><line class="cls-2" y1="-72" x2="72"/><line class="cls-2" x1="-3" y1="-69" x2="66"/><line class="cls-2" x1="-3.01" y1="-63" x2="60"/><line class="cls-2" x1="-3.01" y1="-57.01" x2="54"/><line class="cls-2" x1="-3.01" y1="-51.01" x2="48"/><line class="cls-2" x1="-3.02" y1="-45.02" x2="42"/><line class="cls-2" x1="-3.02" y1="-39.02" x2="36"/><line class="cls-2" x1="-3.02" y1="-33.02" x2="30"/><line class="cls-2" x1="-3.03" y1="-27.03" x2="24"/><line class="cls-2" x1="-3.03" y1="-21.03" x2="18"/><line class="cls-2" x1="-3.04" y1="-15.04" x2="12"/><line class="cls-2" x1="-3.04" y1="-9.04" x2="6"/><line class="cls-2" x1="-3.04" y1="-3.04"/><line class="cls-2" x1="72" y1="-72"/><line class="cls-2" x1="75" y1="-69" x2="6"/><line class="cls-2" x1="75" y1="-63" x2="12"/><line class="cls-2" x1="75.01" y1="-57.01" x2="18"/><line class="cls-2" x1="75.01" y1="-51.01" x2="24"/><line class="cls-2" x1="75.02" y1="-45.02" x2="30"/><line class="cls-2" x1="75.02" y1="-39.02" x2="36"/><line class="cls-2" x1="75.02" y1="-33.02" x2="42"/><line class="cls-2" x1="75.03" y1="-27.03" x2="48"/><line class="cls-2" x1="75.03" y1="-21.03" x2="54"/><line class="cls-2" x1="75.03" y1="-15.04" x2="60"/><line class="cls-2" x1="75.04" y1="-9.04" x2="66"/><line class="cls-2" x1="75.04" y1="-3.04" x2="72"/><line class="cls-2" x1="-72" y1="-72"/><line class="cls-2" y1="-72" x2="-72"/><line class="cls-2" x1="3" y1="-69" x2="-66"/><line class="cls-2" x1="3" y1="-63" x2="-60"/><line class="cls-2" x1="3.01" y1="-57.01" x2="-54"/><line class="cls-2" x1="3.01" y1="-51.01" x2="-48"/><line class="cls-2" x1="3.02" y1="-45.02" x2="-42"/><line class="cls-2" x1="3.02" y1="-39.02" x2="-36"/><line class="cls-2" x1="3.02" y1="-33.02" x2="-30"/><line class="cls-2" x1="3.03" y1="-27.03" x2="-24"/><line class="cls-2" x1="3.03" y1="-21.03" x2="-18"/><line class="cls-2" x1="3.03" y1="-15.04" x2="-12"/><line class="cls-2" x1="3.04" y1="-9.04" x2="-6"/><line class="cls-2" x1="3.04" y1="-3.04"/></pattern><pattern id="gold_grid-3" data-name="gold grid" width="72" height="72" patternTransform="matrix(-0.42, 0.65, -0.23, -0.15, 10.15, -26.33)" patternUnits="userSpaceOnUse" viewBox="0 0 72 72"><rect class="cls-1" width="72" height="72"/><line class="cls-2" x1="72" y1="72" x2="144" y2="144"/><line class="cls-2" x1="144" y1="72" x2="72" y2="144"/><line class="cls-2" x1="138" y1="72" x2="69" y2="141"/><line class="cls-2" x1="132" y1="72" x2="68.99" y2="135.01"/><line class="cls-2" x1="126" y1="72" x2="68.99" y2="129.01"/><line class="cls-2" x1="120" y1="72" x2="68.99" y2="123.01"/><line class="cls-2" x1="114" y1="72" x2="68.98" y2="117.02"/><line class="cls-2" x1="108" y1="72" x2="68.98" y2="111.02"/><line class="cls-2" x1="102" y1="72" x2="68.98" y2="105.03"/><line class="cls-2" x1="96" y1="72" x2="68.97" y2="99.03"/><line class="cls-2" x1="90" y1="72" x2="68.97" y2="93.03"/><line class="cls-2" x1="84" y1="72" x2="68.96" y2="87.04"/><line class="cls-2" x1="78" y1="72" x2="68.96" y2="81.04"/><line class="cls-2" x1="72" y1="72" x2="68.96" y2="75.04"/><line class="cls-2" y1="72" x2="72" y2="144"/><line class="cls-2" x1="6" y1="72" x2="75" y2="141"/><line class="cls-2" x1="12" y1="72" x2="75" y2="135.01"/><line class="cls-2" x1="18" y1="72" x2="75.01" y2="129.01"/><line class="cls-2" x1="24" y1="72" x2="75.01" y2="123.01"/><line class="cls-2" x1="30" y1="72" x2="75.02" y2="117.02"/><line class="cls-2" x1="36" y1="72" x2="75.02" y2="111.02"/><line class="cls-2" x1="42" y1="72" x2="75.02" y2="105.03"/><line class="cls-2" x1="48" y1="72" x2="75.03" y2="99.03"/><line class="cls-2" x1="54" y1="72" x2="75.03" y2="93.03"/><line class="cls-2" x1="60" y1="72" x2="75.03" y2="87.04"/><line class="cls-2" x1="66" y1="72" x2="75.04" y2="81.04"/><line class="cls-2" x1="72" y1="72" x2="75.04" y2="75.04"/><line class="cls-2" x1="72" y1="72" y2="144"/><line class="cls-2" x1="66" y1="72" x2="-3" y2="141"/><line class="cls-2" x1="60" y1="72" x2="-3.01" y2="135.01"/><line class="cls-2" x1="54" y1="72" x2="-3.01" y2="129.01"/><line class="cls-2" x1="48" y1="72" x2="-3.01" y2="123.01"/><line class="cls-2" x1="42" y1="72" x2="-3.02" y2="117.02"/><line class="cls-2" x1="36" y1="72" x2="-3.02" y2="111.02"/><line class="cls-2" x1="30" y1="72" x2="-3.02" y2="105.03"/><line class="cls-2" x1="24" y1="72" x2="-3.03" y2="99.03"/><line class="cls-2" x1="18" y1="72" x2="-3.03" y2="93.03"/><line class="cls-2" x1="12" y1="72" x2="-3.04" y2="87.04"/><line class="cls-2" x1="6" y1="72" x2="-3.04" y2="81.04"/><line class="cls-2" y1="72" x2="-3.04" y2="75.04"/><line class="cls-2" x1="-72" y1="72" y2="144"/><line class="cls-2" x1="-66" y1="72" x2="3" y2="141"/><line class="cls-2" x1="-60" y1="72" x2="3" y2="135.01"/><line class="cls-2" x1="-54" y1="72" x2="3.01" y2="129.01"/><line class="cls-2" x1="-48" y1="72" x2="3.01" y2="123.01"/><line class="cls-2" x1="-42" y1="72" x2="3.02" y2="117.02"/><line class="cls-2" x1="-36" y1="72" x2="3.02" y2="111.02"/><line class="cls-2" x1="-30" y1="72" x2="3.02" y2="105.03"/><line class="cls-2" x1="-24" y1="72" x2="3.03" y2="99.03"/><line class="cls-2" x1="-18" y1="72" x2="3.03" y2="93.03"/><line class="cls-2" x1="-12" y1="72" x2="3.03" y2="87.04"/><line class="cls-2" x1="-6" y1="72" x2="3.04" y2="81.04"/><line class="cls-2" y1="72" x2="3.04" y2="75.04"/><line class="cls-2" y1="72" x2="-72" y2="144"/><line class="cls-2" x1="72" x2="144" y2="72"/><line class="cls-2" x1="69" y1="3" x2="138" y2="72"/><line class="cls-2" x1="68.99" y1="9" x2="132" y2="72"/><line class="cls-2" x1="68.99" y1="14.99" x2="126" y2="72"/><line class="cls-2" x1="68.99" y1="20.99" x2="120" y2="72"/><line class="cls-2" x1="68.98" y1="26.98" x2="114" y2="72"/><line class="cls-2" x1="68.98" y1="32.98" x2="108" y2="72"/><line class="cls-2" x1="68.98" y1="38.98" x2="102" y2="72"/><line class="cls-2" x1="68.97" y1="44.97" x2="96" y2="72"/><line class="cls-2" x1="68.97" y1="50.97" x2="90" y2="72"/><line class="cls-2" x1="68.96" y1="56.96" x2="84" y2="72"/><line class="cls-2" x1="68.96" y1="62.96" x2="78" y2="72"/><line class="cls-2" x1="68.96" y1="68.96" x2="72" y2="72"/><line class="cls-2" x1="144" x2="72" y2="72"/><line class="cls-2" x1="138" x2="69" y2="69"/><line class="cls-2" x1="132" x2="68.99" y2="63.01"/><line class="cls-2" x1="126" x2="68.99" y2="57.01"/><line class="cls-2" x1="120" x2="68.99" y2="51.01"/><line class="cls-2" x1="114" x2="68.98" y2="45.02"/><line class="cls-2" x1="108" x2="68.98" y2="39.02"/><line class="cls-2" x1="102" x2="68.98" y2="33.03"/><line class="cls-2" x1="96" x2="68.97" y2="27.03"/><line class="cls-2" x1="90" x2="68.97" y2="21.03"/><line class="cls-2" x1="84" x2="68.96" y2="15.04"/><line class="cls-2" x1="78" x2="68.96" y2="9.04"/><line class="cls-2" x1="72" x2="68.96" y2="3.04"/><line class="cls-2" x2="72" y2="72"/><line class="cls-2" x1="-3" y1="3" x2="66" y2="72"/><line class="cls-2" x1="-3.01" y1="9" x2="60" y2="72"/><line class="cls-2" x1="-3.01" y1="14.99" x2="54" y2="72"/><line class="cls-2" x1="-3.01" y1="20.99" x2="48" y2="72"/><line class="cls-2" x1="-3.02" y1="26.98" x2="42" y2="72"/><line class="cls-2" x1="-3.02" y1="32.98" x2="36" y2="72"/><line class="cls-2" x1="-3.02" y1="38.98" x2="30" y2="72"/><line class="cls-2" x1="-3.03" y1="44.97" x2="24" y2="72"/><line class="cls-2" x1="-3.03" y1="50.97" x2="18" y2="72"/><line class="cls-2" x1="-3.04" y1="56.96" x2="12" y2="72"/><line class="cls-2" x1="-3.04" y1="62.96" x2="6" y2="72"/><line class="cls-2" x1="-3.04" y1="68.96" y2="72"/><line class="cls-2" x1="6" x2="75" y2="69"/><line class="cls-2" x1="12" x2="75" y2="63.01"/><line class="cls-2" x1="18" x2="75.01" y2="57.01"/><line class="cls-2" x1="24" x2="75.01" y2="51.01"/><line class="cls-2" x1="30" x2="75.02" y2="45.02"/><line class="cls-2" x1="36" x2="75.02" y2="39.02"/><line class="cls-2" x1="42" x2="75.02" y2="33.03"/><line class="cls-2" x1="48" x2="75.03" y2="27.03"/><line class="cls-2" x1="54" x2="75.03" y2="21.03"/><line class="cls-2" x1="60" x2="75.03" y2="15.04"/><line class="cls-2" x1="66" x2="75.04" y2="9.04"/><line class="cls-2" x1="72" x2="75.04" y2="3.04"/><line class="cls-2" x1="72" y2="72"/><line class="cls-2" x1="66" x2="-3" y2="69"/><line class="cls-2" x1="60" x2="-3.01" y2="63.01"/><line class="cls-2" x1="54" x2="-3.01" y2="57.01"/><line class="cls-2" x1="48" x2="-3.01" y2="51.01"/><line class="cls-2" x1="42" x2="-3.02" y2="45.02"/><line class="cls-2" x1="36" x2="-3.02" y2="39.02"/><line class="cls-2" x1="30" x2="-3.02" y2="33.03"/><line class="cls-2" x1="24" x2="-3.03" y2="27.03"/><line class="cls-2" x1="18" x2="-3.03" y2="21.03"/><line class="cls-2" x1="12" x2="-3.04" y2="15.04"/><line class="cls-2" x1="6" x2="-3.04" y2="9.04"/><line class="cls-2" x2="-3.04" y2="3.04"/><line class="cls-2" x1="75" y1="3" x2="6" y2="72"/><line class="cls-2" x1="75" y1="9" x2="12" y2="72"/><line class="cls-2" x1="75.01" y1="14.99" x2="18" y2="72"/><line class="cls-2" x1="75.01" y1="20.99" x2="24" y2="72"/><line class="cls-2" x1="75.02" y1="26.98" x2="30" y2="72"/><line class="cls-2" x1="75.02" y1="32.98" x2="36" y2="72"/><line class="cls-2" x1="75.02" y1="38.98" x2="42" y2="72"/><line class="cls-2" x1="75.03" y1="44.97" x2="48" y2="72"/><line class="cls-2" x1="75.03" y1="50.97" x2="54" y2="72"/><line class="cls-2" x1="75.03" y1="56.96" x2="60" y2="72"/><line class="cls-2" x1="75.04" y1="62.96" x2="66" y2="72"/><line class="cls-2" x1="75.04" y1="68.96" x2="72" y2="72"/><line class="cls-2" x1="-72" y2="72"/><line class="cls-2" x1="-66" x2="3" y2="69"/><line class="cls-2" x1="-60" x2="3" y2="63.01"/><line class="cls-2" x1="-54" x2="3.01" y2="57.01"/><line class="cls-2" x1="-48" x2="3.01" y2="51.01"/><line class="cls-2" x1="-42" x2="3.02" y2="45.02"/><line class="cls-2" x1="-36" x2="3.02" y2="39.02"/><line class="cls-2" x1="-30" x2="3.02" y2="33.03"/><line class="cls-2" x1="-24" x2="3.03" y2="27.03"/><line class="cls-2" x1="-18" x2="3.03" y2="21.03"/><line class="cls-2" x1="-12" x2="3.03" y2="15.04"/><line class="cls-2" x1="-6" x2="3.04" y2="9.04"/><line class="cls-2" x2="3.04" y2="3.04"/><line class="cls-2" x2="-72" y2="72"/><line class="cls-2" x1="3" y1="3" x2="-66" y2="72"/><line class="cls-2" x1="3" y1="9" x2="-60" y2="72"/><line class="cls-2" x1="3.01" y1="14.99" x2="-54" y2="72"/><line class="cls-2" x1="3.01" y1="20.99" x2="-48" y2="72"/><line class="cls-2" x1="3.02" y1="26.98" x2="-42" y2="72"/><line class="cls-2" x1="3.02" y1="32.98" x2="-36" y2="72"/><line class="cls-2" x1="3.02" y1="38.98" x2="-30" y2="72"/><line class="cls-2" x1="3.03" y1="44.97" x2="-24" y2="72"/><line class="cls-2" x1="3.03" y1="50.97" x2="-18" y2="72"/><line class="cls-2" x1="3.03" y1="56.96" x2="-12" y2="72"/><line class="cls-2" x1="3.04" y1="62.96" x2="-6" y2="72"/><line class="cls-2" x1="3.04" y1="68.96" y2="72"/><line class="cls-2" x1="72" y1="-72" x2="144"/><line class="cls-2" x1="69" y1="-69" x2="138"/><line class="cls-2" x1="68.99" y1="-63" x2="132"/><line class="cls-2" x1="68.99" y1="-57.01" x2="126"/><line class="cls-2" x1="68.99" y1="-51.01" x2="120"/><line class="cls-2" x1="68.98" y1="-45.02" x2="114"/><line class="cls-2" x1="68.98" y1="-39.02" x2="108"/><line class="cls-2" x1="68.98" y1="-33.02" x2="102"/><line class="cls-2" x1="68.97" y1="-27.03" x2="96"/><line class="cls-2" x1="68.97" y1="-21.03" x2="90"/><line class="cls-2" x1="68.96" y1="-15.04" x2="84"/><line class="cls-2" x1="68.96" y1="-9.04" x2="78"/><line class="cls-2" x1="68.96" y1="-3.04" x2="72"/><line class="cls-2" x1="144" y1="-72" x2="72"/><line class="cls-2" y1="-72" x2="72"/><line class="cls-2" x1="-3" y1="-69" x2="66"/><line class="cls-2" x1="-3.01" y1="-63" x2="60"/><line class="cls-2" x1="-3.01" y1="-57.01" x2="54"/><line class="cls-2" x1="-3.01" y1="-51.01" x2="48"/><line class="cls-2" x1="-3.02" y1="-45.02" x2="42"/><line class="cls-2" x1="-3.02" y1="-39.02" x2="36"/><line class="cls-2" x1="-3.02" y1="-33.02" x2="30"/><line class="cls-2" x1="-3.03" y1="-27.03" x2="24"/><line class="cls-2" x1="-3.03" y1="-21.03" x2="18"/><line class="cls-2" x1="-3.04" y1="-15.04" x2="12"/><line class="cls-2" x1="-3.04" y1="-9.04" x2="6"/><line class="cls-2" x1="-3.04" y1="-3.04"/><line class="cls-2" x1="72" y1="-72"/><line class="cls-2" x1="75" y1="-69" x2="6"/><line class="cls-2" x1="75" y1="-63" x2="12"/><line class="cls-2" x1="75.01" y1="-57.01" x2="18"/><line class="cls-2" x1="75.01" y1="-51.01" x2="24"/><line class="cls-2" x1="75.02" y1="-45.02" x2="30"/><line class="cls-2" x1="75.02" y1="-39.02" x2="36"/><line class="cls-2" x1="75.02" y1="-33.02" x2="42"/><line class="cls-2" x1="75.03" y1="-27.03" x2="48"/><line class="cls-2" x1="75.03" y1="-21.03" x2="54"/><line class="cls-2" x1="75.03" y1="-15.04" x2="60"/><line class="cls-2" x1="75.04" y1="-9.04" x2="66"/><line class="cls-2" x1="75.04" y1="-3.04" x2="72"/><line class="cls-2" x1="-72" y1="-72"/><line class="cls-2" y1="-72" x2="-72"/><line class="cls-2" x1="3" y1="-69" x2="-66"/><line class="cls-2" x1="3" y1="-63" x2="-60"/><line class="cls-2" x1="3.01" y1="-57.01" x2="-54"/><line class="cls-2" x1="3.01" y1="-51.01" x2="-48"/><line class="cls-2" x1="3.02" y1="-45.02" x2="-42"/><line class="cls-2" x1="3.02" y1="-39.02" x2="-36"/><line class="cls-2" x1="3.02" y1="-33.02" x2="-30"/><line class="cls-2" x1="3.03" y1="-27.03" x2="-24"/><line class="cls-2" x1="3.03" y1="-21.03" x2="-18"/><line class="cls-2" x1="3.03" y1="-15.04" x2="-12"/><line class="cls-2" x1="3.04" y1="-9.04" x2="-6"/><line class="cls-2" x1="3.04" y1="-3.04"/></pattern><pattern id="gold_grid-5" data-name="gold grid" width="72" height="72" patternTransform="matrix(0.69, -0.36, 0.13, 0.24, 0.83, 13)" patternUnits="userSpaceOnUse" viewBox="0 0 72 72"><rect class="cls-1" width="72" height="72"/><line class="cls-2" x1="72" y1="72" x2="144" y2="144"/><line class="cls-2" x1="144" y1="72" x2="72" y2="144"/><line class="cls-2" x1="138" y1="72" x2="69" y2="141"/><line class="cls-2" x1="132" y1="72" x2="68.99" y2="135.01"/><line class="cls-2" x1="126" y1="72" x2="68.99" y2="129.01"/><line class="cls-2" x1="120" y1="72" x2="68.99" y2="123.01"/><line class="cls-2" x1="114" y1="72" x2="68.98" y2="117.02"/><line class="cls-2" x1="108" y1="72" x2="68.98" y2="111.02"/><line class="cls-2" x1="102" y1="72" x2="68.98" y2="105.03"/><line class="cls-2" x1="96" y1="72" x2="68.97" y2="99.03"/><line class="cls-2" x1="90" y1="72" x2="68.97" y2="93.03"/><line class="cls-2" x1="84" y1="72" x2="68.96" y2="87.04"/><line class="cls-2" x1="78" y1="72" x2="68.96" y2="81.04"/><line class="cls-2" x1="72" y1="72" x2="68.96" y2="75.04"/><line class="cls-2" y1="72" x2="72" y2="144"/><line class="cls-2" x1="6" y1="72" x2="75" y2="141"/><line class="cls-2" x1="12" y1="72" x2="75" y2="135.01"/><line class="cls-2" x1="18" y1="72" x2="75.01" y2="129.01"/><line class="cls-2" x1="24" y1="72" x2="75.01" y2="123.01"/><line class="cls-2" x1="30" y1="72" x2="75.02" y2="117.02"/><line class="cls-2" x1="36" y1="72" x2="75.02" y2="111.02"/><line class="cls-2" x1="42" y1="72" x2="75.02" y2="105.03"/><line class="cls-2" x1="48" y1="72" x2="75.03" y2="99.03"/><line class="cls-2" x1="54" y1="72" x2="75.03" y2="93.03"/><line class="cls-2" x1="60" y1="72" x2="75.03" y2="87.04"/><line class="cls-2" x1="66" y1="72" x2="75.04" y2="81.04"/><line class="cls-2" x1="72" y1="72" x2="75.04" y2="75.04"/><line class="cls-2" x1="72" y1="72" y2="144"/><line class="cls-2" x1="66" y1="72" x2="-3" y2="141"/><line class="cls-2" x1="60" y1="72" x2="-3.01" y2="135.01"/><line class="cls-2" x1="54" y1="72" x2="-3.01" y2="129.01"/><line class="cls-2" x1="48" y1="72" x2="-3.01" y2="123.01"/><line class="cls-2" x1="42" y1="72" x2="-3.02" y2="117.02"/><line class="cls-2" x1="36" y1="72" x2="-3.02" y2="111.02"/><line class="cls-2" x1="30" y1="72" x2="-3.02" y2="105.03"/><line class="cls-2" x1="24" y1="72" x2="-3.03" y2="99.03"/><line class="cls-2" x1="18" y1="72" x2="-3.03" y2="93.03"/><line class="cls-2" x1="12" y1="72" x2="-3.04" y2="87.04"/><line class="cls-2" x1="6" y1="72" x2="-3.04" y2="81.04"/><line class="cls-2" y1="72" x2="-3.04" y2="75.04"/><line class="cls-2" x1="-72" y1="72" y2="144"/><line class="cls-2" x1="-66" y1="72" x2="3" y2="141"/><line class="cls-2" x1="-60" y1="72" x2="3" y2="135.01"/><line class="cls-2" x1="-54" y1="72" x2="3.01" y2="129.01"/><line class="cls-2" x1="-48" y1="72" x2="3.01" y2="123.01"/><line class="cls-2" x1="-42" y1="72" x2="3.02" y2="117.02"/><line class="cls-2" x1="-36" y1="72" x2="3.02" y2="111.02"/><line class="cls-2" x1="-30" y1="72" x2="3.02" y2="105.03"/><line class="cls-2" x1="-24" y1="72" x2="3.03" y2="99.03"/><line class="cls-2" x1="-18" y1="72" x2="3.03" y2="93.03"/><line class="cls-2" x1="-12" y1="72" x2="3.03" y2="87.04"/><line class="cls-2" x1="-6" y1="72" x2="3.04" y2="81.04"/><line class="cls-2" y1="72" x2="3.04" y2="75.04"/><line class="cls-2" y1="72" x2="-72" y2="144"/><line class="cls-2" x1="72" x2="144" y2="72"/><line class="cls-2" x1="69" y1="3" x2="138" y2="72"/><line class="cls-2" x1="68.99" y1="9" x2="132" y2="72"/><line class="cls-2" x1="68.99" y1="14.99" x2="126" y2="72"/><line class="cls-2" x1="68.99" y1="20.99" x2="120" y2="72"/><line class="cls-2" x1="68.98" y1="26.98" x2="114" y2="72"/><line class="cls-2" x1="68.98" y1="32.98" x2="108" y2="72"/><line class="cls-2" x1="68.98" y1="38.98" x2="102" y2="72"/><line class="cls-2" x1="68.97" y1="44.97" x2="96" y2="72"/><line class="cls-2" x1="68.97" y1="50.97" x2="90" y2="72"/><line class="cls-2" x1="68.96" y1="56.96" x2="84" y2="72"/><line class="cls-2" x1="68.96" y1="62.96" x2="78" y2="72"/><line class="cls-2" x1="68.96" y1="68.96" x2="72" y2="72"/><line class="cls-2" x1="144" x2="72" y2="72"/><line class="cls-2" x1="138" x2="69" y2="69"/><line class="cls-2" x1="132" x2="68.99" y2="63.01"/><line class="cls-2" x1="126" x2="68.99" y2="57.01"/><line class="cls-2" x1="120" x2="68.99" y2="51.01"/><line class="cls-2" x1="114" x2="68.98" y2="45.02"/><line class="cls-2" x1="108" x2="68.98" y2="39.02"/><line class="cls-2" x1="102" x2="68.98" y2="33.03"/><line class="cls-2" x1="96" x2="68.97" y2="27.03"/><line class="cls-2" x1="90" x2="68.97" y2="21.03"/><line class="cls-2" x1="84" x2="68.96" y2="15.04"/><line class="cls-2" x1="78" x2="68.96" y2="9.04"/><line class="cls-2" x1="72" x2="68.96" y2="3.04"/><line class="cls-2" x2="72" y2="72"/><line class="cls-2" x1="-3" y1="3" x2="66" y2="72"/><line class="cls-2" x1="-3.01" y1="9" x2="60" y2="72"/><line class="cls-2" x1="-3.01" y1="14.99" x2="54" y2="72"/><line class="cls-2" x1="-3.01" y1="20.99" x2="48" y2="72"/><line class="cls-2" x1="-3.02" y1="26.98" x2="42" y2="72"/><line class="cls-2" x1="-3.02" y1="32.98" x2="36" y2="72"/><line class="cls-2" x1="-3.02" y1="38.98" x2="30" y2="72"/><line class="cls-2" x1="-3.03" y1="44.97" x2="24" y2="72"/><line class="cls-2" x1="-3.03" y1="50.97" x2="18" y2="72"/><line class="cls-2" x1="-3.04" y1="56.96" x2="12" y2="72"/><line class="cls-2" x1="-3.04" y1="62.96" x2="6" y2="72"/><line class="cls-2" x1="-3.04" y1="68.96" y2="72"/><line class="cls-2" x1="6" x2="75" y2="69"/><line class="cls-2" x1="12" x2="75" y2="63.01"/><line class="cls-2" x1="18" x2="75.01" y2="57.01"/><line class="cls-2" x1="24" x2="75.01" y2="51.01"/><line class="cls-2" x1="30" x2="75.02" y2="45.02"/><line class="cls-2" x1="36" x2="75.02" y2="39.02"/><line class="cls-2" x1="42" x2="75.02" y2="33.03"/><line class="cls-2" x1="48" x2="75.03" y2="27.03"/><line class="cls-2" x1="54" x2="75.03" y2="21.03"/><line class="cls-2" x1="60" x2="75.03" y2="15.04"/><line class="cls-2" x1="66" x2="75.04" y2="9.04"/><line class="cls-2" x1="72" x2="75.04" y2="3.04"/><line class="cls-2" x1="72" y2="72"/><line class="cls-2" x1="66" x2="-3" y2="69"/><line class="cls-2" x1="60" x2="-3.01" y2="63.01"/><line class="cls-2" x1="54" x2="-3.01" y2="57.01"/><line class="cls-2" x1="48" x2="-3.01" y2="51.01"/><line class="cls-2" x1="42" x2="-3.02" y2="45.02"/><line class="cls-2" x1="36" x2="-3.02" y2="39.02"/><line class="cls-2" x1="30" x2="-3.02" y2="33.03"/><line class="cls-2" x1="24" x2="-3.03" y2="27.03"/><line class="cls-2" x1="18" x2="-3.03" y2="21.03"/><line class="cls-2" x1="12" x2="-3.04" y2="15.04"/><line class="cls-2" x1="6" x2="-3.04" y2="9.04"/><line class="cls-2" x2="-3.04" y2="3.04"/><line class="cls-2" x1="75" y1="3" x2="6" y2="72"/><line class="cls-2" x1="75" y1="9" x2="12" y2="72"/><line class="cls-2" x1="75.01" y1="14.99" x2="18" y2="72"/><line class="cls-2" x1="75.01" y1="20.99" x2="24" y2="72"/><line class="cls-2" x1="75.02" y1="26.98" x2="30" y2="72"/><line class="cls-2" x1="75.02" y1="32.98" x2="36" y2="72"/><line class="cls-2" x1="75.02" y1="38.98" x2="42" y2="72"/><line class="cls-2" x1="75.03" y1="44.97" x2="48" y2="72"/><line class="cls-2" x1="75.03" y1="50.97" x2="54" y2="72"/><line class="cls-2" x1="75.03" y1="56.96" x2="60" y2="72"/><line class="cls-2" x1="75.04" y1="62.96" x2="66" y2="72"/><line class="cls-2" x1="75.04" y1="68.96" x2="72" y2="72"/><line class="cls-2" x1="-72" y2="72"/><line class="cls-2" x1="-66" x2="3" y2="69"/><line class="cls-2" x1="-60" x2="3" y2="63.01"/><line class="cls-2" x1="-54" x2="3.01" y2="57.01"/><line class="cls-2" x1="-48" x2="3.01" y2="51.01"/><line class="cls-2" x1="-42" x2="3.02" y2="45.02"/><line class="cls-2" x1="-36" x2="3.02" y2="39.02"/><line class="cls-2" x1="-30" x2="3.02" y2="33.03"/><line class="cls-2" x1="-24" x2="3.03" y2="27.03"/><line class="cls-2" x1="-18" x2="3.03" y2="21.03"/><line class="cls-2" x1="-12" x2="3.03" y2="15.04"/><line class="cls-2" x1="-6" x2="3.04" y2="9.04"/><line class="cls-2" x2="3.04" y2="3.04"/><line class="cls-2" x2="-72" y2="72"/><line class="cls-2" x1="3" y1="3" x2="-66" y2="72"/><line class="cls-2" x1="3" y1="9" x2="-60" y2="72"/><line class="cls-2" x1="3.01" y1="14.99" x2="-54" y2="72"/><line class="cls-2" x1="3.01" y1="20.99" x2="-48" y2="72"/><line class="cls-2" x1="3.02" y1="26.98" x2="-42" y2="72"/><line class="cls-2" x1="3.02" y1="32.98" x2="-36" y2="72"/><line class="cls-2" x1="3.02" y1="38.98" x2="-30" y2="72"/><line class="cls-2" x1="3.03" y1="44.97" x2="-24" y2="72"/><line class="cls-2" x1="3.03" y1="50.97" x2="-18" y2="72"/><line class="cls-2" x1="3.03" y1="56.96" x2="-12" y2="72"/><line class="cls-2" x1="3.04" y1="62.96" x2="-6" y2="72"/><line class="cls-2" x1="3.04" y1="68.96" y2="72"/><line class="cls-2" x1="72" y1="-72" x2="144"/><line class="cls-2" x1="69" y1="-69" x2="138"/><line class="cls-2" x1="68.99" y1="-63" x2="132"/><line class="cls-2" x1="68.99" y1="-57.01" x2="126"/><line class="cls-2" x1="68.99" y1="-51.01" x2="120"/><line class="cls-2" x1="68.98" y1="-45.02" x2="114"/><line class="cls-2" x1="68.98" y1="-39.02" x2="108"/><line class="cls-2" x1="68.98" y1="-33.02" x2="102"/><line class="cls-2" x1="68.97" y1="-27.03" x2="96"/><line class="cls-2" x1="68.97" y1="-21.03" x2="90"/><line class="cls-2" x1="68.96" y1="-15.04" x2="84"/><line class="cls-2" x1="68.96" y1="-9.04" x2="78"/><line class="cls-2" x1="68.96" y1="-3.04" x2="72"/><line class="cls-2" x1="144" y1="-72" x2="72"/><line class="cls-2" y1="-72" x2="72"/><line class="cls-2" x1="-3" y1="-69" x2="66"/><line class="cls-2" x1="-3.01" y1="-63" x2="60"/><line class="cls-2" x1="-3.01" y1="-57.01" x2="54"/><line class="cls-2" x1="-3.01" y1="-51.01" x2="48"/><line class="cls-2" x1="-3.02" y1="-45.02" x2="42"/><line class="cls-2" x1="-3.02" y1="-39.02" x2="36"/><line class="cls-2" x1="-3.02" y1="-33.02" x2="30"/><line class="cls-2" x1="-3.03" y1="-27.03" x2="24"/><line class="cls-2" x1="-3.03" y1="-21.03" x2="18"/><line class="cls-2" x1="-3.04" y1="-15.04" x2="12"/><line class="cls-2" x1="-3.04" y1="-9.04" x2="6"/><line class="cls-2" x1="-3.04" y1="-3.04"/><line class="cls-2" x1="72" y1="-72"/><line class="cls-2" x1="75" y1="-69" x2="6"/><line class="cls-2" x1="75" y1="-63" x2="12"/><line class="cls-2" x1="75.01" y1="-57.01" x2="18"/><line class="cls-2" x1="75.01" y1="-51.01" x2="24"/><line class="cls-2" x1="75.02" y1="-45.02" x2="30"/><line class="cls-2" x1="75.02" y1="-39.02" x2="36"/><line class="cls-2" x1="75.02" y1="-33.02" x2="42"/><line class="cls-2" x1="75.03" y1="-27.03" x2="48"/><line class="cls-2" x1="75.03" y1="-21.03" x2="54"/><line class="cls-2" x1="75.03" y1="-15.04" x2="60"/><line class="cls-2" x1="75.04" y1="-9.04" x2="66"/><line class="cls-2" x1="75.04" y1="-3.04" x2="72"/><line class="cls-2" x1="-72" y1="-72"/><line class="cls-2" y1="-72" x2="-72"/><line class="cls-2" x1="3" y1="-69" x2="-66"/><line class="cls-2" x1="3" y1="-63" x2="-60"/><line class="cls-2" x1="3.01" y1="-57.01" x2="-54"/><line class="cls-2" x1="3.01" y1="-51.01" x2="-48"/><line class="cls-2" x1="3.02" y1="-45.02" x2="-42"/><line class="cls-2" x1="3.02" y1="-39.02" x2="-36"/><line class="cls-2" x1="3.02" y1="-33.02" x2="-30"/><line class="cls-2" x1="3.03" y1="-27.03" x2="-24"/><line class="cls-2" x1="3.03" y1="-21.03" x2="-18"/><line class="cls-2" x1="3.03" y1="-15.04" x2="-12"/><line class="cls-2" x1="3.04" y1="-9.04" x2="-6"/><line class="cls-2" x1="3.04" y1="-3.04"/></pattern></defs><g id="Layer_2" data-name="Layer 2"><g id="Male_Poses" data-name="Male Poses"><g id="Head_copy_3" data-name="Head copy 3"><path id="head_round" data-name="head round" class="cls-3" d="M249.32,356.27c1.42-4.51,16.16-2.33,24.07-2.68,3.58-.16,4.42-.67,5.29-5.28.38-2.05-.56-4.55,1.58-7.4,3.17-4.23.23-4.83.53-5.29.61-.92,3.17-2.11,1.06-6.34s0-4.22,2.11-5.28c8.45-4.23-4.23-14.8-9-25.36-.49-1.08-.25-7.25-2.65-21.14-3.65-21.17-5.28-27.48-22.19-38-10.4-6.51-29.07-10.23-41.34-10.83-10.59-.52-20.43.94-29.46,6.6-8.51,5.32-12.69,9.51-19,21.13-8,14.75-7.1,31.95-.14,46.35,3.54,7.32,9.29,13.61,14.21,20.23,4.29,5.76,9.12,11.15,13.11,17.1a11.64,11.64,0,0,1,1.41,8.14c-1.94,8.73-4,15.8-6.39,24.43,0,3.17,4.22,10.57,11.62,15.85,15.5,11.08,33,6.18,42-.64S243.21,375.61,249.32,356.27Z"/><g id="face"><g id="mouth"><g class="cls-4"><path d="M269.23,333.91c3.82.72,8,0,11.78,1.27l-.44.89a11.14,11.14,0,0,0-2.69-.69c-1.67-.28-4.12-.52-5.83-.7a15.57,15.57,0,0,1-2.95-.51l.13-.26Z"/></g><g class="cls-5"><path d="M280.07,340.84c-3.91-1.77-7.63-3.84-11.4-5.88l.13-.25c3.84,1.81,7.7,3.68,11.65,5.21l-.38.92Z"/></g><g class="cls-5"><path d="M282.47,331.16c-4.78.39-9.78.7-14.27,2.53l-.18-.36c4.5-2.05,9.51-2.57,14.38-3.17l.07,1Z"/></g></g><g class="cls-6"><path d="M275.63,318.78c-.92,1.75-2.15,6.33,1.32,5.22.51-.25.94-.9,1.44-1.26,1.51-1.35,3.95-1.67,4.93.5a3.14,3.14,0,0,1,.32,1.18h-1a2.55,2.55,0,0,0-.7-1.41c-1.65-1.4-3.28.92-4.7,1.66a2.19,2.19,0,0,1-3.16-2.14,9.26,9.26,0,0,1,1.3-3.88l.25.13Z"/></g><path d="M269.49,291.13c-7.33-5.55-17.14-4.51-25.58-2.3-3,.69-6,1.36-9,2l-.3-1.23c8.8-2.19,18.29-6.23,27.5-4.21a20.54,20.54,0,0,1,8.86,3.88l-1.47,1.89Z"/><g id="eye"><path class="cls-7" d="M248,296s6.85-3,11.62-2.64c7.93.53,9.51,6.87,9.51,6.87a48,48,0,0,1-14.79-.53C251.74,299.09,248,296,248,296Z"/><path d="M247.22,295.88c.08-.43.46-.65.84-.83,7.22-3.5,18.72-4.44,21.59,5.05l.13.57c-2.06.21-4.11.29-6.16.3-4.67-.06-9.67-.13-13.66-2.87-.75-.44-1.54-.94-2.29-1.38a.89.89,0,0,1-.45-.84Zm1.62.23a.72.72,0,0,0-.24-.68,5.55,5.55,0,0,0,.42.42,13.44,13.44,0,0,0,9.08,4,44,44,0,0,0,11-.17l-.42.61a9.1,9.1,0,0,0-3.46-4.43c-5-3.46-11.28-1-16.52.73l-.17.06-.09,0a.72.72,0,0,0,.4-.61Z"/><polygon points="238.52 295.5 248.03 295.12 248.03 296.87 238.52 296.5 238.52 295.5 238.52 295.5"/><g class="cls-8"><circle class="cls-9" cx="260.14" cy="297.05" r="4.23"/></g></g><g id="ear"><g class="cls-6"><path d="M206.84,300.75c.27-2.18,2.07-3.12,3.23-4.65a7.58,7.58,0,0,0,.26-9.44c-2-2.85-6.22-3.45-9.33-2.32a10.73,10.73,0,0,0-3.7,3.55c-3.8,6.16-1.21,14.5,3.33,19.58a38.12,38.12,0,0,0,3.91,3.7c1.71,1.49,2.49,3.8,4.35,5.08a5.65,5.65,0,0,0,3.74.16,3.6,3.6,0,0,0,1.53-1.9,2.68,2.68,0,0,0,0-2.42c-.31-.82-.77-1.6-1.13-2.45-.67-1.74-.63-3.59-1.09-5.34-.22-1-1-1.43-1.15-2.49h.44a6.08,6.08,0,0,0,.89,1.68c.83,1.88.61,4.09,1.37,5.95.35.81.81,1.6,1.16,2.46a3.28,3.28,0,0,1,0,2.82,4,4,0,0,1-1.82,2.2,6.46,6.46,0,0,1-2.82.23c-2-.09-3.11-2.08-4.18-3.5-1.51-2.32-3.92-3.62-5.69-5.74A21.21,21.21,0,0,1,197,303.4c-2.38-4.87-3.44-11.13-.35-15.94a11.29,11.29,0,0,1,4-3.88c3.56-1.32,8-.6,10.36,2.54a8.51,8.51,0,0,1-.23,10.6c-.95,1.27-2.77,2.5-3,4Z"/></g><g class="cls-6"><path d="M207.65,295.91a4.8,4.8,0,0,0-4.42.18c-1.8,1.36-1.32,4.16-.72,6.08.45,1.63,1.5,1.69,2.66,2.54a30,30,0,0,1,5.29,4.77.65.65,0,0,0,.32.11c-.05,0-.07,0,0,0,.44-2.57-.7-5.46-2-7.67l.37-.25a13.93,13.93,0,0,1,1.73,3.76c.29.95,1.55,5.7-.7,4.55-.87-.64-1.43-1.5-2.22-2.19a21.94,21.94,0,0,0-4.89-3.48,1.54,1.54,0,0,1-.51-.4c-1.53-2.31-2.35-6.72.21-8.62a5.72,5.72,0,0,1,5.36-.28l-.44.89Z"/></g><g class="cls-6"><path d="M208.78,295.57c2.81-4.44,0-10-5.51-9.3a3.39,3.39,0,0,0-2.33,1c-3,2.62-3.78,6.62-2.95,10.39,1,5.93,5.25,10.43,10,13.72l-.32.32c-3.16-2.16-6.39-4.79-8.44-8.25s-3.06-7.71-2.17-11.67c.79-2.82,2.94-6.31,6.08-6.52,3.33-.42,6.62,1.27,7.21,4.7a7.78,7.78,0,0,1-1.32,5.84l-.29-.23Z"/></g></g></g><g id="princes_sidelock_1" data-name="princes sidelock 1"><g id="wig"><g id="wig-2" data-name="wig"><path class="cls-10" d="M186.63,369.29a1.3,1.3,0,0,0,1.29-1.86c-32.24-73.25-22.26-99.31-21-100.73,1.61-1.87,39.48,23,39.48,23s18.89-24.33,26.68-21L231,281l15.26-4.07,21.43-.28h1.08l2.23.15a1.18,1.18,0,0,0,1.22-1.27c-2.71-30.31-19.87-45-59.54-48.48-51.26-4.46-98.73,33.58-45.81,139.44C167.39,367.47,181.07,368.8,186.63,369.29Z"/><path class="cls-11" d="M171,367.47s-22.4-42.75-24.43-76.34c-.62-10.21-2-35.62,26-57.24"/><path class="cls-11" d="M174.66,367.91S152,325.18,150.23,291.58c-.66-12.67-2.19-37.87,25.8-59.48"/><path class="cls-11" d="M178.07,368.48s-23-43.3-24.79-76.9c-.65-12.67-2.69-40.15,28.86-61.52"/><path class="cls-11" d="M182.14,368.48s-23-43.3-24.79-76.9c-.65-12.67-2.69-41.16,28.86-62.54"/><path class="cls-11" d="M186.21,369.5s-23.7-44.77-25.44-78.37c-.66-12.66-2-41.73,29.51-63.11"/><path class="cls-11" d="M166.87,266.7c3.06-16.28,10.18-24.43,23.41-38.68"/><path class="cls-11" d="M171.67,268.4c2.33-15.95,7.42-26.13,19.63-40.38"/><path class="cls-11" d="M175,269.75c2.33-15.94,6.61-28,18.83-42.24"/><path class="cls-11" d="M177.85,272.06c4.29-17.57,6.33-29.79,19.56-45.05"/><path class="cls-11" d="M182.21,274.21c2-17.69,8.07-37,17.23-47.2"/><path class="cls-11" d="M185.86,276.36c.35-17.8,7.48-36.12,14.6-49.35"/><path class="cls-11" d="M189.78,278.91c.35-17.8,5.59-38.67,12.72-51.9"/><path class="cls-11" d="M193.91,281.9c-.57-22.32,3.5-41.66,10.62-54.89"/><path class="cls-11" d="M198.43,284c-.58-22.32.51-43.76,7.63-57"/><path class="cls-11" d="M250,276.31c.32-21.82-10.88-38.11-18-46.25"/><path class="cls-11" d="M254.41,277.11a64.54,64.54,0,0,0-18.32-46"/><path class="cls-11" d="M258.2,276.91c.32-21.82-8.88-35.65-17-43.8"/><path class="cls-11" d="M261.84,276.82c.31-21.83-7.43-33.53-15.58-41.67"/><path class="cls-11" d="M265.6,276.26c-.6-18.72-5.09-28.9-12.21-37"/><path class="cls-11" d="M269.24,277.09c-.58-10.39-2.62-21.58-8.73-31.76"/><path class="cls-11" d="M246,276.6c-.7-24.15-10.88-39.42-18-47.56"/><path class="cls-11" d="M241.65,278.27c.54-26.84-9.63-41.59-16.76-49.74"/><path class="cls-11" d="M237.35,279.07c.77-30.69-9.41-42.9-16.53-51"/><path class="cls-11" d="M233.56,280.33c.77-30.68-8.67-44.67-15.79-52.82"/><path class="cls-11" d="M207.08,289.52c.77-30.69.51-53.35.51-62.51"/><path class="cls-11" d="M211.66,283.19c0-25.65,0-42.95-2-56.18"/><path class="cls-11" d="M216.24,279c0-25.65-2.55-38.72-4.58-51.95"/><path class="cls-11" d="M220.08,274.8c-.28-23.37-2.31-32.53-7.4-47.79"/><path class="cls-11" d="M223.82,271.64c-.27-23.37-3-28.35-9.11-44.63"/><path class="cls-11" d="M228.45,270c-.51-19.61-3.56-25.72-11.7-42.52"/><path class="cls-11" d="M203,288.08c-.51-22.4.51-47.84,3.56-61.07"/></g><path class="cls-12" d="M228.78,284.7l-2.19-3.43c11.72-7.48,41.35-7.49,45.45-7.45a.45.45,0,0,1,.45.44l.15,3.13a.42.42,0,0,1-.42.5C268.05,277.87,239.31,278,228.78,284.7Z"/><g id="side_lock" data-name="side lock"><path id="left_weave-2" data-name="left weave" class="cls-11" d="M206,290.18,189.33,314a1.83,1.83,0,0,0,.49,2.58l19.69,13a1.93,1.93,0,0,1,.54,2.71L196.9,351.71a1.75,1.75,0,0,0,.53,2.46L214,364.38a1.81,1.81,0,0,1,.49,2.64L203.6,381.29a1.76,1.76,0,0,0,.38,2.5l11.18,8a1.5,1.5,0,0,1,.07,2.38L206.88,401a1.8,1.8,0,0,0-.32,2.47l6,8.19a1.62,1.62,0,0,1-.64,2.44l-7.81,3.55a1.81,1.81,0,0,0-.93,2.32l2.62,6.55a1.47,1.47,0,0,1-1.37,2h-7.3a1.72,1.72,0,0,0-1.72,1.72v5.29a1.22,1.22,0,0,1-1.85,1l-7.08-4.25a1.67,1.67,0,0,0-2.15.39l-2.13,2.67a1.69,1.69,0,0,1-2.34.27l-7.11-5.52a2,2,0,0,1-.75-1.54v-2.17a2,2,0,0,0-1.16-1.79l-3.5-1.57a1.51,1.51,0,0,1-.74-2.05l3-6a3.59,3.59,0,0,0,.38-1.6V409c0-1,.85-2.12,1.8-1.81,6.34,2,6.8-1.37,6.34,0-1,3,.51,4.22,1.24,5.13a.63.63,0,0,1-.09.89,8.83,8.83,0,0,0-2.17,3.14,5.57,5.57,0,0,0,5.09,8.14c4.07,0,7.13-1,10.18-5.09,1.64-2.19,2.52-6.53,2.78-9.25,1-10.78-2.82-32.79-7.18-42.69-32.24-73.25-22.26-99.31-21-100.73,1.61-1.87,39.48,23,39.48,23"/><g id="center_line" data-name="center line"><path class="cls-13" d="M171.73,406.66a2.36,2.36,0,0,0-2.07,1.31,3.31,3.31,0,0,0-.23,1.49v3.73a5.9,5.9,0,0,1-.87,2.71l-1.82,3.65c-.46.92-1.12,1.87-.67,2.93s2,1.48,3,1.92c.48.22,1,.42,1.44.65a1.66,1.66,0,0,1,1,1.64c0,1.35-.24,2.82.9,3.8,1.68,1.44,3.52,2.73,5.26,4.09.62.48,1.22,1,1.84,1.43a2.23,2.23,0,0,0,2.31.3,3.49,3.49,0,0,0,1.16-1.1l1.33-1.65c.4-.51.8-1.08,1.55-.93a8.49,8.49,0,0,1,2.29,1.28l3.59,2.16a6.46,6.46,0,0,0,2.27,1.17,1.73,1.73,0,0,0,1.81-1.13,3.55,3.55,0,0,0,.1-1.17V431a3.1,3.1,0,0,1,.11-1.25,1.39,1.39,0,0,1,1.4-.72H201c1.08,0,2.17,0,3.25,0a2,2,0,0,0,2-2.67c-.71-2.08-1.65-4.12-2.47-6.16a1.78,1.78,0,0,1-.16-1.39,1.72,1.72,0,0,1,1-.89l3.17-1.44,3.54-1.61c.95-.43,1.87-.91,1.95-2.1a3.53,3.53,0,0,0-1.06-2.32L210,407.3l-2.32-3.19c-.59-.81-1.46-1.76-.49-2.7.48-.47,1.05-.87,1.57-1.3l3.19-2.6,2.92-2.39c.66-.55,1.38-1,1.43-2s-.62-1.6-1.36-2.14l-2.51-1.78-6.7-4.8a16.77,16.77,0,0,1-1.46-1c-.84-.72-.41-1.55.12-2.24l4-5.28,5-6.49c1-1.3,2.78-2.94,1.65-4.69a4,4,0,0,0-1.39-1.12l-2.37-1.45-7.12-4.38-5.76-3.55c-.6-.37-1.32-.71-1.27-1.56a3.07,3.07,0,0,1,.69-1.31l8.33-12.3,3.71-5.48c.22-.32.45-.63.65-1a2.5,2.5,0,0,0-.75-3.43c-3.46-2.4-7-4.64-10.54-6.95l-6.61-4.36-2-1.29c-.58-.38-1.19-.76-1.11-1.59a2.74,2.74,0,0,1,.66-1.23l1.24-1.79,4.16-6,9.17-13.13,1.67-2.4c.37-.52-.5-1-.86-.5l-5.89,8.42-9.06,13a29.46,29.46,0,0,0-1.8,2.61,2.39,2.39,0,0,0,.87,3.15L191,318l12.93,8.52,4.86,3.21c.63.41,1.26.87,1.11,1.76a3.57,3.57,0,0,1-.69,1.25L201,344.79l-3.77,5.56c-.24.36-.5.72-.73,1.09a2.28,2.28,0,0,0,.7,3.17c3.62,2.4,7.41,4.56,11.1,6.83l5.15,3.17c.79.49,1.26,1.27.64,2.17-.28.39-.59.77-.89,1.15l-9.1,11.91c-.3.39-.63.78-.91,1.18a2.3,2.3,0,0,0,.6,3.24c1.63,1.21,3.3,2.35,4.94,3.53l5.81,4.15c.69.49,1.06,1.21.28,1.91s-1.33,1.1-2,1.64l-5.87,4.8a2.54,2.54,0,0,0-1.13,2.76,6.65,6.65,0,0,0,1.22,1.89l4.56,6.28c.57.78,1.26,1.79,0,2.44-.71.38-1.48.68-2.22,1l-3.83,1.74a10,10,0,0,0-2.2,1.09c-1.08.87-.91,2.09-.46,3.22l1.43,3.58a24.28,24.28,0,0,1,1,2.44c.42,1.53-1.48,1.29-2.38,1.29h-4.07a6.34,6.34,0,0,0-2.78.25c-1.23.64-1.21,1.87-1.21,3.05v3.83c0,.54-.15,1.24-.88,1.08a2.75,2.75,0,0,1-.73-.4L190.11,434,187,432.11a2.31,2.31,0,0,0-3.12.27c-.72.82-1.34,1.72-2,2.56-.87,1-1.69.38-2.48-.23l-5.9-4.59a7,7,0,0,1-.6-.48,2.68,2.68,0,0,1-.44-2.05c0-1.38,0-2.7-1.44-3.4-1-.5-2.1-.94-3.15-1.4-.63-.29-1.17-.74-.88-1.52a6.94,6.94,0,0,1,.39-.77l1.77-3.54a10.54,10.54,0,0,0,1.23-2.92,22.29,22.29,0,0,0,.05-3.27c0-1.13-.33-3,1.3-3.11.64,0,.65-1,0-1Z"/></g><path class="cls-10" d="M227.94,340c1,22.4,3.06,55-3.05,76.34-2.45,8.56-7.12,20.36-16.28,26.46s-28.5,6.11-36.65,1c-10.53-6.58-13.23-15.27-13.23-24.43a22.85,22.85,0,0,1,9.16-18.32c4.07-3.05,11.7-4,15.27-2,2.79,1.54,7.12,4.07,6.11,11.19-.15,1-2,4.07-4.07,4.07s-1-2-3.06-2c-3,0-4.07,2-5.09,4.07a5.57,5.57,0,0,0,5.09,8.14c4.07,0,7.13-1,10.18-5.09,1.64-2.19,2.52-6.53,2.78-9.25,1-10.78-2.82-32.79-7.18-42.69-32.24-73.25-22.26-99.31-21-100.73,1.61-1.87,39.48,23,39.48,23s18.89-24.33,26.68-21c0,0-1.55,9.15-2,12.21A266.66,266.66,0,0,0,227.94,340Z"/><g id="right_weave_strands" data-name="right weave strands"><g class="cls-14"><path class="cls-11" d="M233,271.79c-16.28,6.11-33.59,30.53-42.75,46.82"/><path class="cls-11" d="M234.05,276.88c-16.28,6.11-33.59,27.48-42.75,43.77"/><path class="cls-11" d="M233,283c-16.28,6.1-30.53,22.39-39.69,38.67"/><path class="cls-11" d="M233,288.08c-16.28,6.1-27.48,17.3-36.64,33.58"/><path class="cls-11" d="M232.94,292.8c-16.29,6.1-27.49,17.3-36.65,33.59"/><path class="cls-11" d="M232.94,296.87c-16.29,6.11-27.49,17.3-36.65,33.59"/><path class="cls-11" d="M232,302.32c-16.29,6.11-23.41,12.22-31.66,26.1"/><path class="cls-11" d="M230,307.41c-14.25,6.11-20.36,10.18-28,22.45"/><path class="cls-11" d="M232,310.47c-14.25,6.1-21.38,11.19-27.91,21"/><path class="cls-11" d="M231,314.54c-10.18,4.07-18.32,8.14-22.58,16.39"/><path class="cls-11" d="M233,318.61c-8.14,1-18.52,5.2-22.77,13.45"/><path class="cls-11" d="M231,323.7c-12.22,1-16.29,5.09-33.56,31.39"/><path class="cls-11" d="M235.07,326.75c-12.22,1-17.88,3-36.17,30.31"/><path class="cls-11" d="M238.12,330.82c-12.21,1-19.18,1.44-37.47,28.76"/><path class="cls-11" d="M236.09,334.89c-12.22,1-27.48,13.24-32,24.93"/><path class="cls-11" d="M235.07,340c-12.22,1-25,10.48-31.54,25.23"/><path class="cls-11" d="M236.33,342.68c-12.21,1-25,10.48-31.54,25.22"/><path class="cls-11" d="M238.36,345.73c-12.21,1-26.23,10-32.81,24.79"/><path class="cls-11" d="M230,352.2c-5.09,0-15.27,8.14-18.32,14.25"/><path class="cls-11" d="M233,355.25c-5.09,0-14.25,6.11-18.28,11.49"/><path class="cls-11" d="M229,360.34c-6.11,1-13.48,9-27.48,26.46"/><path class="cls-11" d="M229,364.41c-6.11,2-16.28,11.2-24.39,22.1"/><path class="cls-11" d="M229,369.5c-6.11,2-13.65,7-21.76,17.9"/><path class="cls-11" d="M229,374.59c-6.11,2-11.31,2.86-19.43,13.76"/><path class="cls-11" d="M231,378.66c-6.11,1-13.23,2-20.3,11.69"/><path class="cls-11" d="M232,382.73c-6.11,1-13-.24-20.07,9.42"/><path class="cls-11" d="M232,386.8c-8.15,0-13.24,1-17.92,6.75"/><path class="cls-11" d="M231,390.88c-6.11,0-13,.85-19.34,6.1"/><path class="cls-11" d="M229,392.91c-7.12,1-12.21,1-22.44,11.39"/><path class="cls-11" d="M230.18,395.32c-6.67.47-12.05.71-22.44,11.39"/><path class="cls-11" d="M230,398c-6.67.47-11.94.49-22.34,11.16"/><path class="cls-11" d="M226.93,413.27a36,36,0,0,0-15.53,1"/><path class="cls-11" d="M224.89,416.32c-6.11-1-14.25-1-22,4.37"/><path class="cls-11" d="M224.89,419.37c-6.11-1-13.42-2.36-21.21,3"/><path class="cls-11" d="M224.89,423.45a29.21,29.21,0,0,0-20.8,0"/><path class="cls-11" d="M230,402.07c-5.09-2-14.3,2.73-20.36,7.13"/><path class="cls-11" d="M227.94,406.14c-5.09-2-10.9.36-17,4.76"/><path class="cls-11" d="M227.94,410.21c-5.09-1-10.23-1.84-16.28,2.55"/><path class="cls-11" d="M221.84,427.52c-4.07-2-12.22-4.07-16.48-2.92"/><path class="cls-11" d="M218.78,430.57c-3.05-2-9.49-5-13.75-3.86"/><path class="cls-11" d="M216.75,434.64c-2-3.05-7.13-6.11-11.89-6.2"/><path class="cls-11" d="M215.73,436.68c-4.07-4.07-9.16-7.13-20.7-6.85"/><path class="cls-11" d="M213.69,438.71c-4.07-4.07-11.19-7.12-19.18-7.18"/><path class="cls-11" d="M210.64,441.77c-4.07-4.08-8.14-8.15-16.39-9.4"/><path class="cls-11" d="M206.57,443.8c0-1-5.09-7.12-11.2-9.16"/><path class="cls-11" d="M202.5,446.86c0-5.09-3.06-8.15-8.14-11.2"/><path class="cls-11" d="M199.44,449.91c0-5.09-2-9.16-6.38-13.66"/><path class="cls-11" d="M196.39,447.87c0-5.09-5.09-10.18-11.89-16.32"/><path class="cls-11" d="M192.32,448.89c1-6.11-3.39-10.88-10.19-17"/><path class="cls-11" d="M188.25,447.87c1-6.1-3.05-10.18-8.58-15.22"/><path class="cls-11" d="M185.2,447.87c1-5.09-1-8.14-5.09-12.21"/><path class="cls-11" d="M180.92,446.59c1.22-3.81.2-8.9-2.85-13"/><path class="cls-11" d="M177.83,445.89c1.26-7.18-1.8-11.25-5.87-15.32"/><path class="cls-11" d="M166.6,440.19c2.31-2.5,5.36-7.58,5.36-11.66"/><path class="cls-11" d="M174,444.82c1-3.05,2-7.13-3.05-12.21"/><path class="cls-11" d="M171,442.78c1-3,1-6.1-1.13-7.19"/><path class="cls-11" d="M164.54,437.36c2.3-2.49,5.39-8.83,5.39-12.9"/><path class="cls-11" d="M162.54,433.94c2.3-2.49,5.35-6.42,5.35-10.49"/><path class="cls-11" d="M160.52,429.69a12.77,12.77,0,0,0,5.85-8.28"/><path class="cls-11" d="M159,425.41c2.77-1,7.08-3.46,8.36-6"/><path class="cls-11" d="M158.63,421c2.77-.94,9.26-2.59,11.3-6.67"/><path class="cls-11" d="M159.2,416.83c3.6.51,8.69-3.05,10.73-6.11"/><path class="cls-11" d="M160.43,411.8c3.6.51,6.7-.82,9.75-3.88"/><path class="cls-11" d="M159.75,407.16c3.05,2,8.14.51,10.18.51"/><path class="cls-11" d="M164.84,400c0,4.07,4.58,7.12,6.61,7.12"/><path class="cls-11" d="M185.45,400.54c-4.07.51-6.36,4.58-7.38,6.62"/><path class="cls-11" d="M188,402.58c-4.07.51-7.88,2.54-7.12,9.67"/><path class="cls-11" d="M189.27,405.12c-3.06,1-5.09,2-6.71,7.26"/><path class="cls-11" d="M189.27,408.18c-2,0-4.07,3.05-4.47,6.15"/><path class="cls-11" d="M166.87,401.05c3.06,5.09,9.67,5.09,11.71,5.09"/><path class="cls-11" d="M169.93,398c1,6.11,7.63,6.62,9.67,6.62"/><path class="cls-11" d="M174.51,398a6.18,6.18,0,0,0,6.11,5.09"/><path class="cls-11" d="M178.07,398c.1,2.83,2.55,3.56,4.58,3.56"/><path class="cls-11" d="M180.11,398c1,2,2.84,2.31,4.88,2.31"/></g></g><path class="cls-11" d="M187.74,402.58c-4.58.51-7.63,3.56-6.62,9.67"/><path class="cls-11" d="M189.27,405.12c-3.06,1-6.11,2-5.86,7.64"/><path class="cls-11" d="M189.27,408.18c-1,0-4.07,1-4.24,5.71"/><g id="left_weave-3" data-name="left weave"><g class="cls-15"><path class="cls-11" d="M204.53,292.15c-13.86-10.4-31.48-18.5-38.67-21.38"/><path class="cls-11" d="M203.52,294.18c-13.87-10.4-31.48-17.48-38.68-20.35"/><path class="cls-11" d="M201.48,296.22c-13.87-10.4-31.48-16.46-38.68-19.34"/><path class="cls-11" d="M200.46,299.27C186.6,288.87,169.93,284,162.8,282"/><path class="cls-11" d="M200.46,303.34c-13.86-10.4-30.52-15.72-37.64-17.75"/><path class="cls-11" d="M197.41,305.38C183.54,295,170,292.49,162.83,290.45"/><path class="cls-11" d="M198.94,309.85c-13.87-10.4-27.46-12.9-34.58-14.93"/><path class="cls-11" d="M197.41,312.5c-13.87-10.4-28-12.49-35.09-14.53"/><path class="cls-11" d="M193.34,312.5c-6.11-5.09-21.38-9.16-27.2-9.24"/><path class="cls-11" d="M194.42,316.58c-6.11-5.09-21.38-9.16-27.2-9.24"/><path class="cls-11" d="M191.3,317.59c-6.1-4.07-17.24-6.1-23.06-6.18"/><path class="cls-11" d="M209.62,332.86c-18.32-14.25-31.55-16.29-40.1-16.74"/><path class="cls-11" d="M208.61,335.91c-18.33-14.25-29.79-14.81-38.34-15.26"/><path class="cls-11" d="M206.57,338c-17.3-12.22-25.85-12.22-34.4-12.68"/><path class="cls-11" d="M204.53,340c-17.3-12.21-23.06-10.42-31.61-10.88"/><path class="cls-11" d="M204.53,343c-13.6-9.45-21.67-9.72-30.22-10.18"/><path class="cls-11" d="M205.55,347.11c-13.6-9.45-21-10.18-29.53-10.64"/><path class="cls-11" d="M201.48,348.13c-9.16-7.13-16.57-7.36-25.12-7.82"/><path class="cls-11" d="M199.44,350.16c-8.14-5.09-13.26-5-21.81-5.49"/><path class="cls-11" d="M199.44,353.22c-6.1-4.08-12.11-4.15-20.66-4.6"/><path class="cls-11" d="M199.44,355.51c-5.08-3.31-10.48-3-19-3.45"/><path class="cls-11" d="M214.71,368.48c-19.34-14.25-24.76-12.69-33.3-13.15"/><path class="cls-11" d="M212.68,370.52c-15.27-11.2-20.14-10.45-28.69-10.91"/><path class="cls-11" d="M211.66,373.57c-12.22-8.14-16.81-9.61-25.36-10.07"/><path class="cls-11" d="M209.62,374.59c-7.12-5.09-16.28-7.12-22.39-7.63"/><path class="cls-11" d="M208.61,377.64a38.13,38.13,0,0,0-19.83-7.31"/><path class="cls-11" d="M206.57,379.68c-6.11-4.07-10.41-4.62-16.51-5.13"/><path class="cls-11" d="M206.57,382.73c-6.11-4.07-8.79-4.47-14.9-5"/><path class="cls-11" d="M205.55,384.92c-6.11-4.07-8-3.53-14.09-4"/><path class="cls-11" d="M215.73,395c-13.23-10.18-15.27-10.18-23.18-11.2"/><path class="cls-11" d="M213.69,397c-9.16-8.14-13.46-9.67-21.37-10.69"/><path class="cls-11" d="M213.11,400c-9.16-8.14-11.86-9.59-19.77-10.61"/><path class="cls-11" d="M210.64,402.07c-5.09-5.09-11.2-9.16-16.5-9.17"/><path class="cls-11" d="M206.67,403.6c-3-4.07-7-7.63-12.3-7.64"/><path class="cls-11" d="M211.66,410.21c-3-4.07-11.94-11.3-17.24-11.31"/><path class="cls-11" d="M212.68,415.3c-4.83-6-12.2-13-17.51-13"/><path class="cls-11" d="M210.64,417.34c-4.83-6-10.23-11.95-15.54-12"/><path class="cls-11" d="M207.59,417.34c-5.09-5.09-9.16-9.16-12.36-8.65"/><path class="cls-11" d="M204.53,418.36c-2-3.06-7.31-6.11-11.19-7.13"/><path class="cls-11" d="M203.77,421.41c-2-3.05-6.07-6.61-10-7.63"/><path class="cls-11" d="M204,428.53c-.5-5.08-6.61-11.19-10.6-12.63"/><path class="cls-11" d="M200.83,429c-.51-5.08-4.44-8.65-7.49-10.68"/><path class="cls-11" d="M197.41,428.31c-.72-3.85-3-6.39-6.11-8.43"/><path class="cls-11" d="M195.37,432.61a13.82,13.82,0,0,0-6.1-11.2"/><path class="cls-11" d="M192.32,436.68c1-6.11-1-12.22-5.23-14.36"/><path class="cls-11" d="M189.48,434.56c.8-5-2.25-10.1-4.28-11.11"/><path class="cls-11" d="M178.07,414.28c-1-1-3-4.07-2.36-6.75"/><path class="cls-11" d="M177.05,416.32c-1-1-5.09-5.09-4.18-8.83"/><path class="cls-11" d="M177.05,417.34c-2,0-5.19-2.35-7.12-6.11"/><path class="cls-11" d="M179.09,423.45c-1,3.05-3.06,5.08-7.13,6.1"/><path class="cls-11" d="M178.07,421.41c-1,3-4.07,3.56-7.12,3.56"/><path class="cls-11" d="M181.12,423.45c-1,4.07-3.05,8.14-7.12,9.16"/><path class="cls-11" d="M182.14,423.45c1,4.07-2,11.19-5.09,11.19"/><path class="cls-11" d="M183.67,424.46c1,4.07-.51,12.22-3.56,12.22"/><path class="cls-11" d="M186.09,432.88c.8-5-.89-9.43-2.93-10.45"/><path class="cls-11" d="M178.07,420.39c-1,3.06-10.18,2-12.21,1"/><path class="cls-11" d="M178.07,418.36c-1,3.05-10,1.31-12.21-1"/><path class="cls-11" d="M178.07,417.34c-1,3.05-8.14,0-10.21-3"/></g></g><g id="center_line-2" data-name="center line"><path class="cls-13" d="M171.73,406.66a2.36,2.36,0,0,0-2.07,1.31,3.31,3.31,0,0,0-.23,1.49v3.73a5.9,5.9,0,0,1-.87,2.71l-1.82,3.65c-.46.92-1.12,1.87-.67,2.93s2,1.48,3,1.92c.48.22,1,.42,1.44.65a1.66,1.66,0,0,1,1,1.64c0,1.35-.24,2.82.9,3.8,1.68,1.44,3.52,2.73,5.26,4.09.62.48,1.22,1,1.84,1.43a2.23,2.23,0,0,0,2.31.3,3.49,3.49,0,0,0,1.16-1.1l1.33-1.65c.4-.51.8-1.08,1.55-.93a8.49,8.49,0,0,1,2.29,1.28l3.59,2.16a6.46,6.46,0,0,0,2.27,1.17,1.73,1.73,0,0,0,1.81-1.13,3.55,3.55,0,0,0,.1-1.17V431a3.1,3.1,0,0,1,.11-1.25,1.39,1.39,0,0,1,1.4-.72H201c1.08,0,2.17,0,3.25,0a2,2,0,0,0,2-2.67c-.71-2.08-1.65-4.12-2.47-6.16a1.78,1.78,0,0,1-.16-1.39,1.72,1.72,0,0,1,1-.89l3.17-1.44,3.54-1.61c.95-.43,1.87-.91,1.95-2.1a3.53,3.53,0,0,0-1.06-2.32L210,407.3l-2.32-3.19c-.59-.81-1.46-1.76-.49-2.7.48-.47,1.05-.87,1.57-1.3l3.19-2.6,2.92-2.39c.66-.55,1.38-1,1.43-2s-.62-1.6-1.36-2.14l-2.51-1.78-6.7-4.8a16.77,16.77,0,0,1-1.46-1c-.84-.72-.41-1.55.12-2.24l4-5.28,5-6.49c1-1.3,2.78-2.94,1.65-4.69a4,4,0,0,0-1.39-1.12l-2.37-1.45-7.12-4.38-5.76-3.55c-.6-.37-1.32-.71-1.27-1.56a3.07,3.07,0,0,1,.69-1.31l8.33-12.3,3.71-5.48c.22-.32.45-.63.65-1a2.5,2.5,0,0,0-.75-3.43c-3.46-2.4-7-4.64-10.54-6.95l-6.61-4.36-2-1.29c-.58-.38-1.19-.76-1.11-1.59a2.74,2.74,0,0,1,.66-1.23l1.24-1.79,4.16-6,9.17-13.13,1.67-2.4c.37-.52-.5-1-.86-.5l-5.89,8.42-9.06,13a29.46,29.46,0,0,0-1.8,2.61,2.39,2.39,0,0,0,.87,3.15L191,318l12.93,8.52,4.86,3.21c.63.41,1.26.87,1.11,1.76a3.57,3.57,0,0,1-.69,1.25L201,344.79l-3.77,5.56c-.24.36-.5.72-.73,1.09a2.28,2.28,0,0,0,.7,3.17c3.62,2.4,7.41,4.56,11.1,6.83l5.15,3.17c.79.49,1.26,1.27.64,2.17-.28.39-.59.77-.89,1.15l-9.1,11.91c-.3.39-.63.78-.91,1.18a2.3,2.3,0,0,0,.6,3.24c1.63,1.21,3.3,2.35,4.94,3.53l5.81,4.15c.69.49,1.06,1.21.28,1.91s-1.33,1.1-2,1.64l-5.87,4.8a2.54,2.54,0,0,0-1.13,2.76,6.65,6.65,0,0,0,1.22,1.89l4.56,6.28c.57.78,1.26,1.79,0,2.44-.71.38-1.48.68-2.22,1l-3.83,1.74a10,10,0,0,0-2.2,1.09c-1.08.87-.91,2.09-.46,3.22l1.43,3.58a24.28,24.28,0,0,1,1,2.44c.42,1.53-1.48,1.29-2.38,1.29h-4.07a6.34,6.34,0,0,0-2.78.25c-1.23.64-1.21,1.87-1.21,3.05v3.83c0,.54-.15,1.24-.88,1.08a2.75,2.75,0,0,1-.73-.4L190.11,434,187,432.11a2.31,2.31,0,0,0-3.12.27c-.72.82-1.34,1.72-2,2.56-.87,1-1.69.38-2.48-.23l-5.9-4.59a7,7,0,0,1-.6-.48,2.68,2.68,0,0,1-.44-2.05c0-1.38,0-2.7-1.44-3.4-1-.5-2.1-.94-3.15-1.4-.63-.29-1.17-.74-.88-1.52a6.94,6.94,0,0,1,.39-.77l1.77-3.54a10.54,10.54,0,0,0,1.23-2.92,22.29,22.29,0,0,0,.05-3.27c0-1.13-.33-3,1.3-3.11.64,0,.65-1,0-1Z"/></g><path class="cls-11" d="M178.07,407.16c-1,0-3,1-6.27,0"/><path class="cls-11" d="M185.45,400.54c-1,0-10.43,4.58-5.85,12.73"/></g></g><g id="crown"><g id="tassle"><path class="cls-16" d="M146,265.83c-7.59,3.92-8.1,32.42-8.1,41.58"/><ellipse class="cls-17" cx="137.87" cy="302.83" rx="2.04" ry="1.53"/><path class="cls-17" d="M140.62,319.63h-5.5c-.42,0-1-.57-.65-.8,1.87-1.24.85-12.43,3.4-12.43s1.52,11.19,3.39,12.44C141.61,319.07,141,319.63,140.62,319.63Z"/></g><path class="cls-12" d="M147,262.17a32.27,32.27,0,0,1,4.07-9c.22-.35,1.14-1.76,1.55-1.77l112-1c.54,0,2.05,2.1,2.35,2.55a28.48,28.48,0,0,1,3.58,8.83c.14.53-.3,1.85-.85,1.85l-122.13,1C147,264.67,146.9,262.71,147,262.17Z"/><line class="cls-18" x1="175.02" y1="251.43" x2="175.02" y2="263.65"/><line class="cls-18" x1="170.95" y1="251.43" x2="170.95" y2="263.65"/><line class="cls-18" x1="166.87" y1="251.43" x2="166.87" y2="263.65"/><line class="cls-18" x1="162.8" y1="251.43" x2="162.8" y2="263.65"/><line class="cls-18" x1="256.44" y1="250.92" x2="256.44" y2="263.14"/><line class="cls-18" x1="252.37" y1="250.92" x2="252.37" y2="263.14"/><line class="cls-18" x1="248.3" y1="250.92" x2="248.3" y2="263.14"/><line class="cls-18" x1="244.23" y1="250.92" x2="244.23" y2="263.14"/><line class="cls-18" x1="228.96" y1="250.92" x2="228.96" y2="263.14"/><line class="cls-18" x1="224.89" y1="250.92" x2="224.89" y2="263.14"/><line class="cls-18" x1="220.82" y1="250.92" x2="220.82" y2="263.14"/><line class="cls-18" x1="216.75" y1="250.92" x2="216.75" y2="263.14"/><line class="cls-18" x1="202.5" y1="250.92" x2="202.5" y2="263.14"/><line class="cls-18" x1="198.43" y1="250.92" x2="198.43" y2="263.14"/><line class="cls-18" x1="194.36" y1="250.92" x2="194.36" y2="263.14"/><line class="cls-18" x1="190.28" y1="250.92" x2="190.28" y2="263.14"/><path class="cls-12" d="M145.86,265.16l.42-1.39a.92.92,0,0,1,.85-.65c59.31-1.89,116.54-.94,122.86-.83a.75.75,0,0,1,.7.56l.5,2a.41.41,0,0,1-.4.5c-6.12-.11-64.92-1.06-124.16.81A.78.78,0,0,1,145.86,265.16Z"/><path class="cls-12" d="M151.61,252.06l.76-1.4a1.16,1.16,0,0,1,1-.64c58.15-1.89,105.25-.94,111.45-.83a.82.82,0,0,1,.76.56l.77,2c.06.26-.25.51-.51.51-6-.11-55.66-1.06-113.74.81C151.6,253.07,151.46,252.57,151.61,252.06Z"/><g id="snake_coil_copy" data-name="snake coil copy"><path class="cls-12" d="M167.89,249.4c0-1-2-.64-2.55,0-5.25,5.56-6.73,14.16-9.48,19.93a31.57,31.57,0,0,1-6.5,8c-.17.13-.4-.12-.25-.27a14.88,14.88,0,0,0,4.63-8.88c1.06-6.67,3.67-17.18,7.42-21.11,3-3.12,9.79-4.82,11.33,2.16"/><path class="cls-12" d="M176,265.92c0,.67,4.11.78,6.36-2.17,7.19-9.41,9.35-13.52,14-18.42a9.87,9.87,0,0,1,11.2-2c2,.89,4.31,3.47,4.31,5.6h-7.37c.2-1.19-1.91-1.23-3.09-.13-5.05,4.71-7.08,10.82-15.23,19-3.25,3.26-7.12,5.09-11.27,3.81a7.09,7.09,0,0,1-4.15-5.59"/><path class="cls-12" d="M221,265.54c0,.22,1.69,1.2,3.9.65,6.11-1.52,12.78-15.21,17.3-20.86,4.07-5.09,12.22-6.11,17.24,3.66l-9.09-.1c-2-4.58-11.2,17.81-20.27,22.08-2.93,1.38-6.79,2.66-11.29.82-1.61-.66-6-3.72-6-6.21"/></g><g id="snake_coil_pattern" data-name="snake coil pattern"><path class="cls-19" d="M167.89,249.4c0-1-2-.64-2.55,0-5.25,5.56-6.73,14.16-9.48,19.93a31.57,31.57,0,0,1-6.5,8c-.17.13-.4-.12-.25-.27a14.88,14.88,0,0,0,4.63-8.88c1.06-6.67,3.67-17.18,7.42-21.11,3-3.12,9.79-4.82,11.33,2.16"/><path class="cls-20" d="M176,265.92c0,.67,4.11.78,6.36-2.17,7.19-9.41,9.35-13.52,14-18.42a9.87,9.87,0,0,1,11.2-2c2,.89,4.31,3.47,4.31,5.6h-7.37c.2-1.19-1.91-1.23-3.09-.13-5.05,4.71-7.08,10.82-15.23,19-3.25,3.26-7.12,5.09-11.27,3.81a7.09,7.09,0,0,1-4.15-5.59"/><path class="cls-21" d="M221,265.54c0,.22,1.69,1.2,3.9.65,6.11-1.52,12.78-15.21,17.3-20.86,4.07-5.09,12.22-6.11,17.24,3.66l-9.09-.1c-2-4.58-11.2,17.81-20.27,22.08-2.93,1.38-6.79,2.66-11.29.82-1.61-.66-6-3.72-6-6.21"/></g><g id="uraeus"><path class="cls-12" d="M277.82,263.65c-9.16-16.29-8.15-25.45-2-30,2-1.52,6.09-.57,9.16-.51,2.14,0,4.07,0,3.06,2-1.88,3.75-7.13,3-7.14,4.58"/><path class="cls-22" d="M277.82,263.65c-9.16-16.29-8.15-25.45-2-30,2-1.52,6.09-.57,9.16-.51,1.85,0,3.44,0,3.31,1.31-.25,2.76-17.56-3.34-14.5,12.94"/><path class="cls-12" d="M262.39,265.21c4.42,13.7,14.59,13.7,19.68,9.63,2-1.59,4.07-5.59,4.07-8.14,0-13.23,2-16.28,1-22.39-.34-2-3.05-4.58-7.12-4.58-5.09,0-6.62,6.61-6.62,9.67,0,5.94,7.49,16,2.55,19.34-3.06,2-5.17-1.53-5.17-3.43"/><path class="cls-22" d="M279,244.31c-.84,0-3,1-3,4.07s3.22,6.11,4.07,6.11"/><path class="cls-22" d="M280.19,244.05c.83-.14,3.18.44,3.71,3.49s-2.12,6.57-2.95,6.71"/><path class="cls-23" d="M281.21,266.19s-2.19-1.52-3.85-9.47c-.1-.46.5-1,.75-.62a15.78,15.78,0,0,0,1.93,2.46h1.53a16.5,16.5,0,0,0,1.93-2.46c.25-.39.68.15.74.62C285.13,263.65,281.21,266.19,281.21,266.19Z"/><path class="cls-24" d="M272.91,272.81s-1.59-1.25,0-1c3.56.51,5.95-1.53,6.11-3.83.12-1.77,1.53.27,1.53.27C281.05,269.51,279.53,273.32,272.91,272.81Z"/><path class="cls-24" d="M272.79,274.94c-1.46-.13,0-1,0-1,5.72-.6,6.74-1.62,8.77-5.69.12-.23,1.59-1.23,1.53-.51C282.58,274.33,277.49,275.35,272.79,274.94Z"/><path class="cls-25" d="M280.24,261.12c-.33-5.91-.71-10.76-1.37-17.32,0-.24-1.27-3.46-1.05-3.56a18.32,18.32,0,0,1,3.05-.51c.15.05-.69,3.66-.68,3.82.36,5.65,1.18,11.52,1.52,17.49.53,6.74.87,13.29-8.87,12.86a.58.58,0,0,1,.14-1.16C281.56,273.32,280.55,267,280.24,261.12Z"/><path class="cls-18" d="M265.79,265.17c1.52,8.66,7.63,8.15,7.63,8.15"/><path class="cls-26" d="M281.38,235.66c0,2-3.31,4.23-3.31,0,0-1,.16-1.78,1.15-1.78S281.38,234.67,281.38,235.66Z"/><ellipse class="cls-27" cx="279.6" cy="235.15" rx="0.76" ry="1.27" transform="matrix(0.29, -0.96, 0.96, 0.29, -27.07, 433.7)"/></g></g></g></g></g><g id="Head_copy" data-name="Head copy"><rect id="head_bounding_box" data-name="head bounding box" class="cls-1" width="400" height="500"/></g></g></svg>