<svg xmlns="http://www.w3.org/2000/svg" xmlns:xlink="http://www.w3.org/1999/xlink" viewBox="0 0 400 500"><defs><style>.cls-1,.cls-15,.cls-17,.cls-2,.cls-3{fill:none;}.cls-12,.cls-15,.cls-18,.cls-2{stroke:#003466;}.cls-11,.cls-12,.cls-15,.cls-16,.cls-17,.cls-18,.cls-19,.cls-2,.cls-20,.cls-23,.cls-24,.cls-25,.cls-3,.cls-5{stroke-miterlimit:10;}.cls-3{stroke:#fdcc66;}.cls-24,.cls-4{fill:#cd9933;}.cls-5{fill:#a74432;}.cls-11,.cls-5{stroke:#000;}.cls-6{opacity:0.6;}.cls-7{opacity:0.5;}.cls-8{opacity:0.31;}.cls-9{fill:#fefcf0;}.cls-10{clip-path:url(#clip-path);}.cls-11{fill:#161616;}.cls-12{fill:#00536f;}.cls-13{fill:url(#concentricCircles1pxBlue);}.cls-14{fill:url(#concentricCircles1pxBlue-3);}.cls-15{stroke-width:3px;}.cls-16,.cls-23,.cls-25{fill:#fdcc66;}.cls-16,.cls-17,.cls-23,.cls-24,.cls-25{stroke:#cd9933;}.cls-18{fill:#039;opacity:0.65;}.cls-19{fill:#a50022;stroke:#7c001a;}.cls-20{fill:#339967;stroke:#013334;}.cls-21{fill:url(#light_yellow_thick_lines);}.cls-22{fill:#7c001a;}.cls-23,.cls-24{stroke-width:0.5px;}.cls-25{stroke-width:0.75px;}.cls-26{fill:url(#lion_mane);}</style><clipPath id="clip-path"><path class="cls-1" d="M248,296s8.87-2.34,11.62-2.11c6.34.53,9.51,6.34,9.51,6.34s-8.45,1.59-14.79-.53C252.63,299.11,248,296,248,296Z"/></clipPath><pattern id="concentricCircles1pxBlue" data-name="concentricCircles1pxBlue" width="8.12" height="14" patternTransform="translate(-0.45 -10.32) scale(0.84)" patternUnits="userSpaceOnUse" viewBox="0 0 8.12 14"><rect class="cls-1" width="8.12" height="14"/><circle class="cls-2" cx="8.06" cy="13.5" r="3"/><circle class="cls-2" cx="8.06" cy="13.5" r="1"/><circle class="cls-2" cx="-0.06" cy="13.5" r="3"/><circle class="cls-2" cx="-0.06" cy="13.5" r="1"/><circle class="cls-2" cx="4" cy="6.5" r="3"/><circle class="cls-2" cx="4" cy="6.5" r="1"/><circle class="cls-2" cx="8.06" cy="-0.5" r="3"/><circle class="cls-2" cx="8.06" cy="-0.5" r="1"/><circle class="cls-2" cx="-0.06" cy="-0.5" r="3"/><circle class="cls-2" cx="-0.06" cy="-0.5" r="1"/></pattern><pattern id="concentricCircles1pxBlue-3" data-name="concentricCircles1pxBlue" width="8.12" height="14" patternTransform="translate(3.73 1.78) scale(0.88 0.72)" patternUnits="userSpaceOnUse" viewBox="0 0 8.12 14"><rect class="cls-1" width="8.12" height="14"/><circle class="cls-2" cx="8.06" cy="13.5" r="3"/><circle class="cls-2" cx="8.06" cy="13.5" r="1"/><circle class="cls-2" cx="-0.06" cy="13.5" r="3"/><circle class="cls-2" cx="-0.06" cy="13.5" r="1"/><circle class="cls-2" cx="4" cy="6.5" r="3"/><circle class="cls-2" cx="4" cy="6.5" r="1"/><circle class="cls-2" cx="8.06" cy="-0.5" r="3"/><circle class="cls-2" cx="8.06" cy="-0.5" r="1"/><circle class="cls-2" cx="-0.06" cy="-0.5" r="3"/><circle class="cls-2" cx="-0.06" cy="-0.5" r="1"/></pattern><pattern id="light_yellow_thick_lines" data-name="light yellow thick lines" width="5.1" height="8.75" patternTransform="translate(5.92 8.02) rotate(-59.52)" patternUnits="userSpaceOnUse" viewBox="0 0 5.1 8.75"><rect class="cls-1" width="5.1" height="8.75"/><line class="cls-3" x1="5.36" y1="7.42" x2="12.36" y2="19.42"/><line class="cls-3" x1="3.4" y1="8.51" x2="10.4" y2="20.51"/><line class="cls-3" x1="2.76" y1="7.42" x2="9.76" y2="19.42"/><line class="cls-3" x1="0.26" y1="7.42" x2="7.26" y2="19.42"/><line class="cls-3" x1="-1.7" y1="8.51" x2="5.3" y2="20.51"/><line class="cls-3" x1="-2.34" y1="7.42" x2="4.66" y2="19.42"/><line class="cls-3" x1="-4.84" y1="7.42" x2="2.16" y2="19.42"/><line class="cls-3" x1="-6.79" y1="8.51" x2="0.21" y2="20.51"/><line class="cls-3" x1="5.36" y1="-1.33" x2="12.36" y2="10.67"/><line class="cls-3" x1="3.4" y1="-0.24" x2="10.4" y2="11.76"/><line class="cls-3" x1="2.76" y1="-1.33" x2="9.76" y2="10.67"/><line class="cls-3" x1="0.26" y1="-1.33" x2="7.26" y2="10.67"/><line class="cls-3" x1="-1.7" y1="-0.24" x2="5.3" y2="11.76"/><line class="cls-3" x1="-2.34" y1="-1.33" x2="4.66" y2="10.67"/><line class="cls-3" x1="-4.84" y1="-1.33" x2="2.16" y2="10.67"/><line class="cls-3" x1="-6.79" y1="-0.24" x2="0.21" y2="11.76"/><line class="cls-3" x1="5.36" y1="-10.09" x2="12.36" y2="1.91"/><line class="cls-3" x1="3.4" y1="-9" x2="10.4" y2="3"/><line class="cls-3" x1="2.76" y1="-10.09" x2="9.76" y2="1.91"/><line class="cls-3" x1="0.26" y1="-10.09" x2="7.26" y2="1.91"/><line class="cls-3" x1="-1.7" y1="-9" x2="5.3" y2="3"/><line class="cls-3" x1="-2.34" y1="-10.09" x2="4.66" y2="1.91"/><line class="cls-3" x1="-4.84" y1="-10.09" x2="2.16" y2="1.91"/><line class="cls-3" x1="-6.79" y1="-9" x2="0.21" y2="3"/></pattern><pattern id="lion_mane" data-name="lion mane" width="9.01" height="12.85" patternTransform="matrix(0.39, -0.23, 0.28, 0.33, 14.54, -1.09)" patternUnits="userSpaceOnUse" viewBox="0 0 9.01 12.85"><rect class="cls-1" width="9.01" height="12.85"/><path class="cls-4" d="M9.51,9.63c-.2,1.87-1.59,3-2.8,4.27-.1.09-.27.26-.21.19a0,0,0,0,0,0-.05s-.11,0,0,0c1.93-.44,5.9-1.11,6.22-3.38h.56c-.21,2.76-4.44,3.61-6.62,4.19a.8.8,0,0,1-.93-1.08A21.15,21.15,0,0,0,8,11a2.89,2.89,0,0,0,.49-1.38Z"/><path class="cls-4" d="M5,9.63c-.2,1.87-1.59,3-2.8,4.27-.1.09-.27.26-.21.19A.2.2,0,0,0,2,14s-.11,0,0,0c1.92-.44,5.89-1.11,6.22-3.38h.56c-.22,2.76-4.45,3.61-6.62,4.19a.79.79,0,0,1-.93-1.08A21.07,21.07,0,0,0,3.51,11,2.91,2.91,0,0,0,4,9.63Z"/><path class="cls-4" d="M.5,9.63c-.2,1.87-1.58,3-2.8,4.27-.09.09-.27.26-.21.19a0,0,0,0,0,0-.05s-.11,0,0,0c1.92-.44,5.89-1.11,6.21-3.38h.56c-.21,2.76-4.44,3.61-6.62,4.19a.79.79,0,0,1-.92-1.08A21.91,21.91,0,0,0-1,11,2.79,2.79,0,0,0-.5,9.63Z"/><path class="cls-4" d="M11.76,3.21c-.2,1.86-1.58,3-2.8,4.27l-.21.19a0,0,0,0,0,0,0s-.11,0,0,0c1.92-.44,5.89-1.11,6.21-3.39h.56C15.33,7,11.1,7.82,8.92,8.39A.79.79,0,0,1,8,7.31a21.12,21.12,0,0,0,2.27-2.72,2.82,2.82,0,0,0,.49-1.38Z"/><path class="cls-4" d="M7.26,3.21c-.2,1.86-1.59,3-2.8,4.27l-.21.19s0,0,0,0-.11,0,0,0c1.92-.44,5.9-1.11,6.22-3.39H11C10.82,7,6.59,7.82,4.42,8.39a.79.79,0,0,1-.93-1.08A20.41,20.41,0,0,0,5.77,4.59a3,3,0,0,0,.49-1.38Z"/><path class="cls-4" d="M2.76,3.21c-.2,1.86-1.59,3-2.8,4.27-.1.09-.27.25-.22.19a0,0,0,0,0,0,0s-.1,0,0,0C1.68,7.16,5.65,6.49,6,4.21h.56C6.32,7,2.09,7.82-.08,8.39A.79.79,0,0,1-1,7.31,20.33,20.33,0,0,0,1.26,4.59a3,3,0,0,0,.5-1.38Z"/><path class="cls-4" d="M-1.75,3.21c-.2,1.86-1.59,3-2.8,4.27l-.21.19a0,0,0,0,0,0,0s-.11,0,0,0c1.93-.44,5.9-1.11,6.22-3.39H2C1.82,7-2.41,7.82-4.59,8.39a.79.79,0,0,1-.93-1.08A20.41,20.41,0,0,0-3.24,4.59a2.92,2.92,0,0,0,.49-1.38Z"/><path class="cls-4" d="M9.51-3.21c-.2,1.86-1.59,3-2.8,4.27-.1.08-.27.25-.21.18s0,0,0,0-.11,0,0,0C8.44.74,12.41.06,12.73-2.21h.56C13.08.54,8.85,1.4,6.67,2A.79.79,0,0,1,5.74.89,21.76,21.76,0,0,0,8-1.83a2.92,2.92,0,0,0,.49-1.38Z"/><path class="cls-4" d="M5-3.21c-.2,1.86-1.59,3-2.8,4.27-.1.08-.27.25-.21.18a.06.06,0,0,0,0,0s-.11,0,0,0C3.93.74,7.9.06,8.23-2.21h.56C8.57.54,4.34,1.4,2.17,2A.79.79,0,0,1,1.24.89,21.68,21.68,0,0,0,3.51-1.83,3,3,0,0,0,4-3.21Z"/><path class="cls-4" d="M.5-3.21c-.2,1.86-1.58,3-2.8,4.27-.09.08-.27.25-.21.18s0,0,0,0-.11,0,0,0C-.57.74,3.4.06,3.72-2.21h.56C4.07.54-.16,1.4-2.34,2A.79.79,0,0,1-3.26.89,22.57,22.57,0,0,0-1-1.83,2.82,2.82,0,0,0-.5-3.21Z"/></pattern></defs><g id="Layer_2" data-name="Layer 2"><g id="Male_Poses" data-name="Male Poses"><g id="Head_copy_3" data-name="Head copy 3"><path id="head_round" data-name="head round" class="cls-5" d="M249.32,356.27c1.42-4.51,16.16-2.33,24.07-2.68,3.58-.16,4.42-.67,5.29-5.28.38-2.05-.56-4.55,1.58-7.4,3.17-4.23.23-4.83.53-5.29.61-.92,3.17-2.11,1.06-6.34s0-4.22,2.11-5.28c8.45-4.23-4.23-14.8-9-25.36-.49-1.08-.25-7.25-2.65-21.14-3.65-21.17-5.28-27.48-22.19-38-10.4-6.51-29.07-10.23-41.34-10.83-10.59-.52-20.43.94-29.46,6.6-8.51,5.32-12.69,9.51-19,21.13-8,14.75-7.1,31.95-.14,46.35,3.54,7.32,9.29,13.61,14.21,20.23,4.29,5.76,9.12,11.15,13.11,17.1a11.64,11.64,0,0,1,1.41,8.14c-1.94,8.73-4,15.8-6.39,24.43,0,3.17,4.22,10.57,11.62,15.85,15.5,11.08,33,6.18,42-.64S243.21,375.61,249.32,356.27Z"/><g id="face"><g id="mouth"><g class="cls-6"><path d="M269.23,333.91c3.82.72,8,0,11.78,1.27l-.44.89a11.14,11.14,0,0,0-2.69-.69c-1.67-.28-4.12-.52-5.83-.7a15.57,15.57,0,0,1-2.95-.51l.13-.26Z"/></g><g class="cls-7"><path d="M280.07,340.84c-3.91-1.77-7.63-3.84-11.4-5.88l.13-.25c3.84,1.81,7.7,3.68,11.65,5.21l-.38.92Z"/></g><g class="cls-7"><path d="M282.47,331.16c-4.78.39-9.78.7-14.27,2.53l-.18-.36c4.5-2.05,9.51-2.57,14.38-3.17l.07,1Z"/></g></g><g class="cls-8"><path d="M275.63,318.78c-.92,1.75-2.15,6.33,1.32,5.22.51-.25.94-.9,1.44-1.26,1.51-1.35,3.95-1.67,4.93.5a3.14,3.14,0,0,1,.32,1.18h-1a2.55,2.55,0,0,0-.7-1.41c-1.65-1.4-3.28.92-4.7,1.66a2.19,2.19,0,0,1-3.16-2.14,9.26,9.26,0,0,1,1.3-3.88l.25.13Z"/></g><path d="M269.49,291.13c-7.33-5.55-17.14-4.51-25.58-2.3-3,.69-6,1.36-9,2l-.3-1.23c8.8-2.19,18.29-6.23,27.5-4.21a20.54,20.54,0,0,1,8.86,3.88l-1.47,1.89Z"/><g id="eye"><path class="cls-9" d="M248,296s6.85-3,11.62-2.64c7.93.53,9.51,6.87,9.51,6.87a48,48,0,0,1-14.79-.53C251.74,299.09,248,296,248,296Z"/><path d="M247.22,295.88c.08-.43.46-.65.84-.83,7.22-3.5,18.72-4.44,21.59,5.05l.13.57c-2.06.21-4.11.29-6.16.3-4.67-.06-9.67-.13-13.66-2.87-.75-.44-1.54-.94-2.29-1.38a.89.89,0,0,1-.45-.84Zm1.62.23a.72.72,0,0,0-.24-.68,5.55,5.55,0,0,0,.42.42,13.44,13.44,0,0,0,9.08,4,44,44,0,0,0,11-.17l-.42.61a9.1,9.1,0,0,0-3.46-4.43c-5-3.46-11.28-1-16.52.73l-.17.06-.09,0a.72.72,0,0,0,.4-.61Z"/><polygon points="238.52 295.5 248.03 295.12 248.03 296.87 238.52 296.5 238.52 295.5 238.52 295.5"/><g class="cls-10"><circle class="cls-11" cx="260.14" cy="297.05" r="4.23"/></g></g><g id="ear"><g class="cls-8"><path d="M206.84,300.75c.27-2.18,2.07-3.12,3.23-4.65a7.58,7.58,0,0,0,.26-9.44c-2-2.85-6.22-3.45-9.33-2.32a10.73,10.73,0,0,0-3.7,3.55c-3.8,6.16-1.21,14.5,3.33,19.58a38.12,38.12,0,0,0,3.91,3.7c1.71,1.49,2.49,3.8,4.35,5.08a5.65,5.65,0,0,0,3.74.16,3.6,3.6,0,0,0,1.53-1.9,2.68,2.68,0,0,0,0-2.42c-.31-.82-.77-1.6-1.13-2.45-.67-1.74-.63-3.59-1.09-5.34-.22-1-1-1.43-1.15-2.49h.44a6.08,6.08,0,0,0,.89,1.68c.83,1.88.61,4.09,1.37,5.95.35.81.81,1.6,1.16,2.46a3.28,3.28,0,0,1,0,2.82,4,4,0,0,1-1.82,2.2,6.46,6.46,0,0,1-2.82.23c-2-.09-3.11-2.08-4.18-3.5-1.51-2.32-3.92-3.62-5.69-5.74A21.21,21.21,0,0,1,197,303.4c-2.38-4.87-3.44-11.13-.35-15.94a11.29,11.29,0,0,1,4-3.88c3.56-1.32,8-.6,10.36,2.54a8.51,8.51,0,0,1-.23,10.6c-.95,1.27-2.77,2.5-3,4Z"/></g><g class="cls-8"><path d="M207.65,295.91a4.8,4.8,0,0,0-4.42.18c-1.8,1.36-1.32,4.16-.72,6.08.45,1.63,1.5,1.69,2.66,2.54a30,30,0,0,1,5.29,4.77.65.65,0,0,0,.32.11c-.05,0-.07,0,0,0,.44-2.57-.7-5.46-2-7.67l.37-.25a13.93,13.93,0,0,1,1.73,3.76c.29.95,1.55,5.7-.7,4.55-.87-.64-1.43-1.5-2.22-2.19a21.94,21.94,0,0,0-4.89-3.48,1.54,1.54,0,0,1-.51-.4c-1.53-2.31-2.35-6.72.21-8.62a5.72,5.72,0,0,1,5.36-.28l-.44.89Z"/></g><g class="cls-8"><path d="M208.78,295.57c2.81-4.44,0-10-5.51-9.3a3.39,3.39,0,0,0-2.33,1c-3,2.62-3.78,6.62-2.95,10.39,1,5.93,5.25,10.43,10,13.72l-.32.32c-3.16-2.16-6.39-4.79-8.44-8.25s-3.06-7.71-2.17-11.67c.79-2.82,2.94-6.31,6.08-6.52,3.33-.42,6.62,1.27,7.21,4.7a7.78,7.78,0,0,1-1.32,5.84l-.29-.23Z"/></g></g></g><g id="horus_khepresh" data-name="horus khepresh"><path class="cls-12" d="M234.75,281.12l38.58-.88s-5.75-39.83-19.77-66.71c-9.82-18.85-22.47-26-45.41-31.49-16.22-3.88-44.42,4.24-64.07,17-15.12,9.78-28.55,7.17-28,7.92,5.4,6.94,13.39,38.09,20.54,52.68,30.38,62,48.71,76,51.79,90.55.65,3,10.38-6.15,15.75-16.11a42.19,42.19,0,0,0,4.48-16.87c-1.11-.51-1.93-1.72-2.91-3.09a13.86,13.86,0,0,0-1.47-2c-2.8-2.14-7.06-6.45-8.66-11.08-3.51-10.2,1.44-14.71,3-16.36.1-.11.2-.19.27-.26,2.44-2.44,7.14-1.78,8.91-1.11,2.57,1,4.71,2.85,5.26,7.87.36,3.2,11.14,3.21,16.46-.95C235.29,285.67,234.75,281.12,234.75,281.12Z"/><path class="cls-13" d="M118.45,206.92c-.16,0-2.07.35-2,.5,5.38,7.81,13.18,37.91,20.17,52.18,30.38,62,48.71,76,51.79,90.55.65,3,10.38-6.15,15.75-16.11a42.19,42.19,0,0,0,4.48-16.87c-1.11-.51-1.93-1.72-2.91-3.09a13.86,13.86,0,0,0-1.47-2c-2.8-2.14-7.06-6.45-8.66-11.08-3.51-10.2,1.44-14.71,3-16.36.1-.11.2-.19.27-.26,1.61-1.61,6.3-1.67,6.3-1.67C207.33,227.71,171.73,225.35,118.45,206.92Z"/><path class="cls-14" d="M205.18,282.7c0,1.08,2,.33,2.61.56,2.57,1,4.71,2.85,5.26,7.87.36,3.2,11.14,3.21,16.46-.95,5.78-4.51,5.24-9.06,5.24-9.06l38.58-.88s-5.75-39.83-19.77-66.71c-9.82-18.85-22.47-26-45.41-31.49-16.22-3.88-44.42,4.24-64.07,17-15.12,9.78-26.52,7.61-25.63,7.92C171.88,225.77,207.33,226.66,205.18,282.7Z"/><path class="cls-15" d="M117.7,208a335.81,335.81,0,0,1,38.92,11.09c47.93,17.41,49.47,37.85,48.3,63.63"/><g id="front_cobra_large" data-name="front cobra large"><path class="cls-16" d="M198.82,306.61c1.14,12.32-5.63,28.52-14.76,33.21h0a35.17,35.17,0,0,1,4.38,10.33c.65,3,10.38-6.15,15.75-16.11a42.19,42.19,0,0,0,4.48-16.87c-1.11-.51-1.93-1.72-2.91-3.09a13.86,13.86,0,0,0-1.47-2,30.79,30.79,0,0,1-5.47-5.46Z"/><path class="cls-17" d="M208.67,317.17c-1.11-.51-1.93-1.72-2.91-3.09a13.86,13.86,0,0,0-1.47-2,30.79,30.79,0,0,1-5.47-5.46h0"/><path class="cls-17" d="M188,348.34c9.13-4.7,19.51-21.12,18.37-33.43"/><path class="cls-17" d="M185.22,342c9.13-4.69,16.94-20.5,15.8-32.82"/><path class="cls-17" d="M273.4,278.72l-39.9.92c-1.16.92-.32,5.66-5.07,9.18-2.21,1.64-6,2.45-9.59,2.69-1.55.11-4.74.1-5.9-1.18"/><path class="cls-16" d="M272.54,274.71a.13.13,0,0,1,.14.11l1,4.83a1.17,1.17,0,0,1-1.12,1.41l-37.61.61s.54,4.34-5.29,8.66c-5.36,4-16.24,4-16.6.9a14.46,14.46,0,0,0-.77-3.38,21.72,21.72,0,0,0,5.19,1,14.72,14.72,0,0,0,8.73-2.43c2.79-1.91,4.59-4.72,5.51-8.89a1.84,1.84,0,0,1,1.73-1.45Z"/><path class="cls-16" d="M277.86,239.12s1.44-.76,1.88-.54c1.05.52,3.28-.57,4.27-.55,2.21.06,3.68-1.26,3.38-2.41-.2-.76-1.71-.55-2.47-.82a5.32,5.32,0,0,0-3.32-1.24,4.09,4.09,0,0,0-2.65.64c-.55.51-10.89,3.08-9.65,13"/><path class="cls-16" d="M264.77,266.86c3.84,2.29,11.09,3.53,11.29.11s-1.79-7.5-2.63-9.54c-1.29-3.1-4.44-8.09-4.4-11.23.14-9.65,11.15-7.2,13.27-5.41,5.41,4.57,4.3,14.49,4.13,16.42-.32,3.81,3.19,16.06-6.11,17.41-4.55.65-7.47.16-15.91-5.5"/><path class="cls-4" d="M278.73,235.62c.61-.11,1.2-.23,1.78-.37a1.53,1.53,0,0,0,.61-.21,1.36,1.36,0,0,1,2.31.7l-.07.3a2.92,2.92,0,0,1-1.21.56,1.35,1.35,0,0,1-.53,0c-.33-.19-.63-.64-1.07-.62a2.78,2.78,0,0,0-1.62.18l-.2-.55Z"/><ellipse class="cls-18" cx="277.27" cy="246.64" rx="5.32" ry="4.74" transform="translate(-37.71 50.43) rotate(-9.73)"/><path class="cls-19" d="M275.23,253.79l4.26.71L282.8,252a.34.34,0,0,1,.54.31s.87,5.83-.18,7.3c-.63.86-3.29-.26-3.29-.26s-2.26,1.25-2.82.78c-1.15-1-2.12-5.94-2.12-5.94A.3.3,0,0,1,275.23,253.79Z"/><path class="cls-20" d="M284.26,266.41c-.09,2-.65,3.53-1.25,3.54-1.45,0-.49-2.32-.54-3.87-.1-2.95.26-3.31.87-3.29S284.35,264.43,284.26,266.41Z"/><path class="cls-20" d="M279.62,265.73c0,2.66-.41,3.82-.91,3.8s-.85-1.63-.76-3.61.58-3.56,1.09-3.54S279.63,263.76,279.62,265.73Z"/><path class="cls-4" d="M275.05,274c1.55-.45,2.81-.65,3.61-2.14,3.73-7-.58-15.46-2.15-22.71a39.46,39.46,0,0,1-1.35-7.36,4.52,4.52,0,0,0-1-2.72l5,.57C277.4,240.7,278,242.34,278,244c.24,8.56,9.06,24.41-.23,30.41a14.19,14.19,0,0,1-2.45.54l-.25-1Z"/><path class="cls-21" d="M275.05,274c1.55-.45,2.81-.65,3.61-2.14,3.73-7-.58-15.46-2.15-22.71a39.46,39.46,0,0,1-1.35-7.36,4.52,4.52,0,0,0-1-2.72l5,.57C277.4,240.7,278,242.34,278,244c.24,8.56,9.06,24.41-.23,30.41a14.19,14.19,0,0,1-2.45.54l-.25-1Z"/><path class="cls-17" d="M264.77,266.86c3.84,2.29,11.09,3.53,11.29.11s-1.79-7.5-2.63-9.54c-1.29-3.1-4.44-8.09-4.4-11.23.14-9.65,11.15-7.2,13.27-5.41,5.41,4.57,4.3,14.49,4.13,16.42-.32,3.81,3.19,16.06-6.11,17.41-4.55.65-7.47.16-15.91-5.5"/><ellipse class="cls-22" cx="282.07" cy="235.61" rx="0.53" ry="0.89" transform="translate(0.28 471.55) rotate(-79.81)"/><path class="cls-16" d="M268.27,271.58c-4.15-2.79-7.12-3.35-8.71-3.31-.79,0-5.64.28-7.45.5a4.29,4.29,0,0,1-3.67-1.46,3.72,3.72,0,0,1-.68-3.44,4.4,4.4,0,0,1,2.8-2.26c2.36-.83,5.13-.63,7.58-.37a38.33,38.33,0,0,1,5.31,1,6.94,6.94,0,0,0,2.07.33.82.82,0,0,0,.85-.66c.2-1.25-1.1-1.84-2.08-2.18a11,11,0,0,0-5.84-.5c-.73.16-1.41.4-2.14.51s-1.51.16-2.26.19a10.29,10.29,0,0,1-3.67-.29,2.89,2.89,0,0,1-2-3.66c.49-1.65,2.14-2.34,3.7-2.55a30.51,30.51,0,0,1,5.57.15,16.75,16.75,0,0,0,5.65-.42,2.4,2.4,0,0,0,1.54-1,1.28,1.28,0,0,0,0-1.16,1.34,1.34,0,0,0-.69-.64,4.68,4.68,0,0,0-2,0c-1.71.27-3.31.89-5,1.27a16.78,16.78,0,0,1-4,.42,5,5,0,0,1-3.5-1.12,3.05,3.05,0,0,1-.39-3.3c1-2.14,4-2.42,6-2.6a47.71,47.71,0,0,0,7.4-.76c.05,0,.08-.42.08-.48a4.14,4.14,0,0,0-.27-1.32c-.37-1.51-.94-3-1.45-4.44-.8-2.28-1.39-4.63-2.15-6.92-1-2.95-2.09-5.86-3.33-8.72a79.21,79.21,0,0,0-11.74-19.86,43,43,0,0,0-18-12.74c-2.13-.8-6.2-2.33-8.34-3.12a98.68,98.68,0,0,0-9.77-2.7,37.91,37.91,0,0,0-8.75-.92c-15.51,0-37.19,6.87-53.78,17.6-12.3,8-24.93,8.56-28.75,6.89a.62.62,0,0,1-.36-.64c0-.8,12.75,1.53,27.86-8.25,19.65-12.72,47.86-20.79,64.08-16.9a104.15,104.15,0,0,1,10.38,2.92c2.08.77,5.06,1.83,7.14,2.6a62.48,62.48,0,0,1,6.07,2.9,47.65,47.65,0,0,1,16.81,14.59,87.84,87.84,0,0,1,10.23,19.56c1,2.61,2.13,5.09,2.95,7.76.32,1,.72,2.3,1,3.33.47,1.49,1.21,3.45,1.69,4.93a9.9,9.9,0,0,1,.74,4.17c-.29,1.61-1.34,1.6-2.55,1.86-2.57.55-5.24.42-7.84.72a13.54,13.54,0,0,0-1.65.28,4.51,4.51,0,0,0-1.3.48,1.59,1.59,0,0,0-.65.6c-.09.19,0-.06-.07.2,0,.06-.06.26,0,.09,0,.11,0,.23,0,.34s0,.35,0,.2c0,.2,0,.2.16.3s0,0,0,0l.16.11a1.07,1.07,0,0,0,.19.09,4.53,4.53,0,0,0,1.62.28,14.45,14.45,0,0,0,3.71-.39c1.68-.4,3.29-1,5-1.25,1.45-.22,3.09-.35,4.21.78a3.39,3.39,0,0,1,.8,3.5c-.62,1.66-2.34,2.35-4,2.66a23.7,23.7,0,0,1-5.89.21c-1.72-.1-3.59-.46-5.28,0a1.91,1.91,0,0,0-1.29.83.89.89,0,0,0,.3,1.23,3.19,3.19,0,0,0,.7.23,3.33,3.33,0,0,0,.45.08q1,.06,1.92,0c.73,0,1.46-.06,2.18-.15s1.4-.37,2.12-.51a13,13,0,0,1,6.1.3c1.48.42,3.08,1,3.82,2.46a3.09,3.09,0,0,1-.82,4.06c-1.29.85-3,.37-4.39,0a32.64,32.64,0,0,0-4.9-1,28,28,0,0,0-3.88-.14,8.7,8.7,0,0,0-3.18.59l-.35.2a.91.91,0,0,0-.16.11s.1-.08,0,0l-.23.23c.11-.13,0,.07-.07.12a1,1,0,0,0-.1.33,1.59,1.59,0,0,0,.06.6,1.61,1.61,0,0,0,.56.93,2.3,2.3,0,0,0,1.47.27c.87-.05,8.2-.83,8.77-.78,5.47.44,6.63,2.58,9.18,3.14"/></g><g id="horus"><circle class="cls-16" cx="147.05" cy="235.12" r="7.21"/><g id="horus_head" data-name="horus head"><path class="cls-16" d="M162,259.46c-5.79-12.16-5.38-18.14-3.66-19,.34-.18,1.13.37,1.13.37s-.34-1.65-1-2a9.14,9.14,0,0,0-3-.26c-.86.06-3.76-1.81-8,2.75-1.78,1.92-1.86,7.35-1.26,10.95.21,1.24.65,4.86.65,4.86"/><path class="cls-4" d="M153.1,239.5c-4.35,2.54-5.31,4.5-5.09,6.59a5.32,5.32,0,0,0,1.6,3.1c1.26.93,3.46-.1,4.17-.47a.14.14,0,0,0,0-.25c-.79-.42-4.09-2.89-2.89-4.11,2.61-2.62,3.79,2.67,3.83,3.41,0,0,.05.07.08,0a3.67,3.67,0,0,0,0-5.69"/><path class="cls-4" d="M153.19,239.65c-1.85,1.14-3.88,2.38-4.75,4.45a4.65,4.65,0,0,0,1.26,4.9c1.18.8,2.74.13,3.91-.43,0,0,.09-.06,0,0a.07.07,0,0,0,0,.06s.09.08,0,0a10.17,10.17,0,0,1-2.43-2c-.5-.6-1.14-1.46-.61-2.27a2,2,0,0,1,2.23-.82c1.48.9,1.82,2.66,2.12,4.21,0-.12-.2-.22-.3-.12h0a3.47,3.47,0,0,0,0-5.33l.36-.35a3.94,3.94,0,0,1-.06,6.06.29.29,0,0,1-.45-.2,9.08,9.08,0,0,0-.6-2.23c-.59-1.48-1.65-2.42-2.92-.95-.34.47.14,1.21.58,1.73a10.42,10.42,0,0,0,2.08,1.78c.14.11.35.14.42.36s-.19.44-.38.52c-1.26.58-2.94,1.22-4.22.31a5,5,0,0,1-1.36-5.36c.9-2.16,3-3.45,4.92-4.61l.18.3Z"/><path class="cls-23" d="M155.54,240.58a2,2,0,0,1-1.68,2.09,1.7,1.7,0,0,1-2-1.46c-.11-.94.92-1.76,1.88-1.89A1.39,1.39,0,0,1,155.54,240.58Z"/><path class="cls-24" d="M154.2,241.6a1,1,0,0,1-.35.12.82.82,0,0,1-1-.67.84.84,0,0,1,.49-.67,1.8,1.8,0,0,1,.56-.2c.73-.1.78.34.8.5A1.07,1.07,0,0,1,154.2,241.6Z"/><path class="cls-4" d="M146,247.33a4,4,0,0,0,2.56,2.2c2.36.74,5.23.82,7.42,2.36a6.48,6.48,0,0,1,2.42,3.21l-.18.09c-1.56-2.14-3.79-3-6.31-3.4-1.84-.36-4.31-.65-5.58-2.37a3.92,3.92,0,0,1-.67-2l.34-.09Z"/><path class="cls-17" d="M157.42,241.73s-.85,0-.92-.21c0,0,1.57-2.19-1.6-3.1"/></g><path class="cls-16" d="M161.53,291c2.85,1.94,9.16,15.19,12.51,21.35.58,1.08,3.32-.47,2.53-1.62-3.68-5.33-13.26-21.16-13.26-21.16l-2.15-1.54S160.91,290.6,161.53,291Z"/><path class="cls-16" d="M163.14,289.47c2.23,3.52,9.54,15.63,13.38,21.27.69,1,3.28-.43,2.54-1.61-3.44-5.41-14.63-21.18-14.63-21.18l-1.45-.88A5.25,5.25,0,0,0,163.14,289.47Z"/><path class="cls-16" d="M164.56,288c2.48,3.62,10.6,15.13,14.46,21,.67,1,4.1-1.05,3.16-2.07C178.76,303.3,166,287.39,166,287.39l-1.26-1.13S164.14,287.41,164.56,288Z"/><path class="cls-23" d="M176.73,281.15l4,2a.28.28,0,0,1,.06.45c-.64.54-1.66,2.07-1.51,2.72s1.78,1.29,2.2.74c2.91-3.78,6.28-.94,5.61-2.28-1-2-3.85-2.91-5.18-2.28-.22.1-.58-.18-.79-.3l-2.67-1.52Z"/><path class="cls-23" d="M174.84,285.08l3.38,1.24a.94.94,0,0,1,.61.92c-.06,1.23-.56,3.93,1.54,4.67,2.32.81-3.26-5.19,4.57-7.83.34-.12-.61-.91-2-.85-1,0-2.55,1.61-3.21,2.31a.49.49,0,0,1-.66,0l-2-1.47-2.31-.29Z"/><path class="cls-25" d="M180.34,286.74a4.77,4.77,0,1,1,2.11,6.4A4.78,4.78,0,0,1,180.34,286.74Zm2.93,4.77a2.94,2.94,0,1,0-1.29-3.95A2.93,2.93,0,0,0,183.27,291.51Z"/><rect class="cls-23" x="184.21" y="290.87" width="10.15" height="1.14" rx="0.45" transform="translate(-157.22 318) rotate(-61.38)"/><rect class="cls-23" x="186.46" y="290.11" width="1.27" height="4.62" rx="0.62" transform="translate(-159.21 316.58) rotate(-61.38)"/><rect class="cls-23" x="187.3" y="289.38" width="1.27" height="4.1" rx="0.62" transform="translate(-157.91 316.8) rotate(-61.38)"/><rect class="cls-23" x="187.9" y="288.27" width="1.27" height="4.1" rx="0.62" transform="translate(-156.62 316.76) rotate(-61.38)"/><rect class="cls-23" x="188.28" y="286.77" width="1.27" height="4.62" rx="0.62" transform="translate(-155.33 316.44) rotate(-61.38)"/><path class="cls-16" d="M163.28,262.84c2.14,5.33,12.45,16.81,16.75,18.22.56.18-2.68.06-3,.52s.41,2.73.41,2.73l-7.48-4-8.38-14.89S163,262.11,163.28,262.84Z"/><path class="cls-16" d="M174.47,288.91s-9.73-7.59-11.43-9.16c-2.49-2.28-.57-16.7.5-13.5,2,5.95,11.1,16.41,13.86,18.06.57.35-2.18.22-2.56.77s-.12,2.43.13,3.53A.31.31,0,0,1,174.47,288.91Z"/><path class="cls-16" d="M149.93,270.91c1.62,9.65,8.84,17,11.34,20a.42.42,0,0,0,.73-.19l.11-.86a.4.4,0,0,1,.45-.34l1.42.19a.62.62,0,0,0,.6-.28l.59-1a.68.68,0,0,1,.56-.33h.34a.31.31,0,0,0,.29-.35c.46-9.26-2.33-25.32-3.9-26.52C159.23,258.78,149.26,266.9,149.93,270.91Z"/><path class="cls-26" d="M149.93,270.91c1.62,9.65,8.84,17,11.34,20a.42.42,0,0,0,.73-.19l.11-.86a.4.4,0,0,1,.45-.34l1.42.19a.62.62,0,0,0,.6-.28l.59-1a.68.68,0,0,1,.56-.33h.34a.31.31,0,0,0,.29-.35c.46-9.26-2.33-25.32-3.9-26.52C159.23,258.78,149.26,266.9,149.93,270.91Z"/><g id="wing"><path class="cls-16" d="M148.54,265a41.93,41.93,0,0,0,1.39,6c.08.27.36.24.61.1,9-4.88,10.32-11,29.43-14.06,2.16-.34-8.49-5.4-13-4.95-5.79.58-19.76,7.19-18.46,13"/><path class="cls-17" d="M176.93,257.53a23.81,23.81,0,0,0-12-4.2"/><path class="cls-17" d="M173.22,258.43A20.46,20.46,0,0,0,161,254.84"/><path class="cls-17" d="M170.36,259.21c-4.55-3.25-12.16-2.63-12.16-2.63"/><path class="cls-17" d="M167.42,260.31c-4.55-2.66-11.92-2.15-11.92-2.15"/><path class="cls-17" d="M164.78,261.38c-4.55-2.66-11.44-1.78-11.44-1.78"/><path class="cls-17" d="M162.31,262.72c-4.34-2.23-10.61-1.41-10.61-1.41"/><path class="cls-17" d="M159.89,264.39c-4.35-2.22-10.83-.84-10.83-.84"/><path class="cls-17" d="M157.26,266.43a20.33,20.33,0,0,0-8.67-1.16"/><path class="cls-16" d="M182.38,256.37a43.48,43.48,0,0,1,2.42,9.53c.13,1.16,3.1,2.34,3.06.82-.07-2.2-1-9.54-3.37-11.52"/><path class="cls-16" d="M184.49,255.2s2.73,2,3.36,11.26c.08,1.17,3.4,2.37,3.35.85-.15-4.86-2.32-12.31-4.71-14.29"/><path class="cls-16" d="M186.47,252.66s4.13,4.87,4.76,14.17c.07,1.17,3.37,2.36,3.35.85-.07-6.88-4.69-15.73-7.08-17.71"/><path class="cls-16" d="M187.63,249.74s6.33,7.68,7,17c.08,1.17,2.89,1.71,2.87.19-.12-8.8-5.9-18.33-8.3-20.31"/><path class="cls-16" d="M189.28,246.7a33.14,33.14,0,0,1,8.19,19.74c.07,1.17,2.78,1.75,2.71.24-.56-12.15-7.11-20.63-9.5-22.61"/><path class="cls-16" d="M190.87,244s8.9,9.41,9.3,22.29c0,1.17,2.77,1.75,2.7.23-.56-12.14-7.14-22-10.24-24"/><path class="cls-16" d="M167.39,251.65s10.78,1.93,13.91,6c.71.94,3.4-.65,2.55-1.9-2.37-3.45-10.54-5.45-15.6-6"/><path class="cls-16" d="M170.39,250s10.79,1.94,13.91,6c.72.93,3.4-.65,2.55-1.9-2.37-3.45-10.83-5.16-15.9-5.72"/><path class="cls-16" d="M171.32,248.5s12,1,15.09,5.11c.71.93,3.4-.65,2.55-1.9-2.37-3.45-10.94-5-15.89-5.21"/><path class="cls-16" d="M172.41,246.52s12.44.75,15.72,4.26c.8.86,3.4-.65,2.55-1.9-2.37-3.45-11.53-4.75-17.16-4.57"/><path class="cls-16" d="M173.52,244.31c3.28.05,12.28.31,16,3.36.91.75,3.23-.78,2.38-2-2.37-3.45-12.45-3.76-18.08-3.58"/><path class="cls-16" d="M174,242.05c3.27,0,13.41-.31,17.1,2.74.9.75,2.84-1.06,1.73-2.08-3.28-3-11.14-3.41-19.13-2.23"/><path class="cls-16" d="M148.54,265s-2-6.53-1.67-8.73c.2-1.34,23.48-15.59,26.83-15.75,1.4-.06,2.64,8.71-9.14,13.62S148.54,265,148.54,265Z"/><path class="cls-16" d="M155.51,254.75c-2.27,1.16-8,6.31-8,6.31a16.52,16.52,0,0,1-.63-4.83c.15-1,15.1-10.19,19.84-12.6,1-.52,1.95.75,1,2.68C166.54,248.49,162.54,251.15,155.51,254.75Z"/><path class="cls-17" d="M154.4,268.57a18.19,18.19,0,0,0-5.44-1.34"/><ellipse class="cls-24" cx="148.45" cy="257.6" rx="0.03" ry="0.31" transform="translate(-113.65 397.93) rotate(-88.21)"/><ellipse class="cls-24" cx="150.22" cy="256.33" rx="0.03" ry="0.29" transform="translate(-112.02 395.98) rotate(-87.67)"/><ellipse class="cls-24" cx="152.08" cy="255.01" rx="0.02" ry="0.27" transform="translate(-110.4 393.8) rotate(-87.06)"/><ellipse class="cls-24" cx="154.06" cy="253.62" rx="0.02" ry="0.24" transform="translate(-108.78 391.36) rotate(-86.38)"/><ellipse class="cls-24" cx="156.18" cy="252.14" rx="0.02" ry="0.22" transform="translate(-107.15 388.61) rotate(-85.62)"/><ellipse class="cls-24" cx="158.45" cy="250.58" rx="0.01" ry="0.2" transform="translate(-105.57 385.45) rotate(-84.75)"/><ellipse class="cls-24" cx="160.91" cy="248.91" rx="0.01" ry="0.17" transform="translate(-104.11 381.63) rotate(-83.72)"/><ellipse class="cls-24" cx="163.56" cy="247.13" ry="0.15" transform="translate(-102.93 376.76) rotate(-82.44)"/><ellipse class="cls-24" cx="166.43" cy="245.21" ry="0.13" transform="matrix(0.16, -0.99, 0.99, 0.16, -102.37, 370.01)"/></g></g></g></g></g><g id="Head_copy" data-name="Head copy"><rect id="head_bounding_box" data-name="head bounding box" class="cls-1" width="400" height="500"/></g></g></svg>