<svg xmlns="http://www.w3.org/2000/svg" viewBox="0 0 400 500"><defs><style>.cls-1{fill:#a74432;}.cls-1,.cls-2,.cls-3,.cls-4,.cls-5,.cls-6,.cls-8,.cls-9{stroke:#000;}.cls-1,.cls-2,.cls-3,.cls-4,.cls-5,.cls-6,.cls-7,.cls-8,.cls-9{stroke-miterlimit:10;}.cls-10,.cls-2,.cls-4,.cls-5,.cls-7{fill:none;}.cls-3{fill:#fff;}.cls-3,.cls-5,.cls-6{stroke-width:2px;}.cls-4,.cls-7{stroke-width:3px;}.cls-7{stroke:#a50022;}.cls-8{fill:#fefcf0;}.cls-9{fill:#a50022;}</style></defs><g id="Layer_2" data-name="Layer 2"><g id="Head_copy" data-name="Head copy"><path id="head_flat" data-name="head flat" class="cls-1" d="M249.44,357.08c1-3.68,2.7-5.13,6.56-4.9a130.15,130.15,0,0,0,16,0c3.38-.15,7.52-.37,8.35-4.74.36-1.94-.85-5.41.66-8.43,2-4,.72-4.57,1-5,.58-.87.64-3.93.5-5.5-.5-5.5,1.5-6.5,3.59-6.54,4.91,0,4-5.44,1.61-8.94-7.36-10.89-9.16-15.62-10.7-29-2.33-20.19-18.25-41.86-35.38-44.86a278.31,278.31,0,0,0-34.74-3.38c-10-.49-19.33.88-27.88,6.24-8.05,5-4.66,71.74,0,78,4.06,5.46,3.94,15.55,7.72,21.18a11,11,0,0,1,1.33,7.7c-1.83,8.26-3.8,14.95-6.05,23.12,0,3,4,10,11,15,14.67,10.48,31,5.63,40,0C241,382,244.5,377.5,249.44,357.08Z"/><g id="face"><path id="mouth_middle" data-name="mouth middle" class="cls-2" d="M269,334s9,0,13.5.5"/><path id="eye" class="cls-3" d="M276.7,301.59c-1.26-1-2.83-4.18-4.2-5.09-3-2-7-1-12,0l-5,1c-2,1-1,1.09-.5,1.5a35.06,35.06,0,0,0,4,3c5.5,2.5,13.5,1.5,17,1.05C277,302.93,277.38,302.15,276.7,301.59Z"/><line class="cls-4" x1="242" y1="298" x2="255" y2="298"/><path id="eyebrow" class="cls-5" d="M242,293c3,0,5.92-.11,8-1,1.66-.71,5.25-3.56,7-4,4-1,14,0,17,3"/><path id="sideburns" class="cls-5" d="M228,301c0,14.59-3,44,28,51.18"/><path id="ear_outer" data-name="ear outer" class="cls-2" d="M220,310c.28.58,2.41,5.24,0,9a5.78,5.78,0,0,1-2,2c-3.46,1.95-8.74-.74-10-2-6-6-12-24-11-31,.78-5.47,3.37-6.66,4-7,4.22-2.28,9,1,13,6,.47.59,3.55,4.66,2,8-1.18,2.54-3.7,2.9-4,5-.28,1.91,1.49,3.75,3,5"/><path id="ear_inner" data-name="ear inner" class="cls-2" d="M207,308a37.27,37.27,0,0,1-6-12c-1.77-6.19-.51-8.29,0-9a5.18,5.18,0,0,1,3-2,6,6,0,0,1,6,3c1.82,3.21-.31,7.58-1,9-1.06,2.17-1.91,2.56-2,4-.15,2.41,2,4.53,4,6"/><ellipse id="pupil" class="cls-6" cx="268.5" cy="299.5" rx="2.5" ry="3.5"/></g><path class="cls-7" d="M312.37,115.15a3.3,3.3,0,0,1,4-.24,2.49,2.49,0,0,1,.37,4,5.18,5.18,0,0,1-6.23.37,3.89,3.89,0,0,1-.57-6.28,8.09,8.09,0,0,1,9.72-.59c3.61,2.52,4,6.91.9,9.83-3.88,3.64-10.68,4-15.19.91-5.63-3.93-6.27-10.8-1.41-15.35,6.07-5.69,16.7-6.33,23.74-1.42,8.8,6.13,31,39.6-61.73,116.49"/><path class="cls-8" d="M159.76,203.66c.34-14.41-.93-44.23-3.22-72.07-1.19-14.42-13.09-15.38-13.09-20.19,0-45.17,36.87-23.06,40.44-12.49,4.48,13.28-11.89,7.69,32.11,49,30.9,29,55.93,68.65,50,85.53-2.49,7-72.55-3.84-72.55-3.84S159.55,212.36,159.76,203.66Z"/><path class="cls-9" d="M100.64,70.08C164.86,216.16,141.07,240.19,293.72,231c2-.13-18.25,24.55-16.47,53.55.12,1.81-39.84-5.94-51.08,14.49-1,1.79-9.12,1.9-9.72,0-4-12.74-13.54-8.62-15.91-6-2.56,2.82-5,10-5.95,13.45-1.94,7.3-5.66,25.17-7.63,34.78-.31,1.52-2.75,1.67-3.49.16C161.29,295.93,100.64,90.26,93.5,72,93.5,72,99.75,68.05,100.64,70.08Z"/><rect id="head_bounding_box" data-name="head bounding box" class="cls-10" width="400" height="500"/></g></g></svg>