<svg xmlns="http://www.w3.org/2000/svg" xmlns:xlink="http://www.w3.org/1999/xlink" viewBox="0 0 400 500"><defs><style>.cls-1,.cls-14,.cls-2{fill:none;}.cls-2{stroke:#fdcc66;}.cls-12,.cls-13,.cls-14,.cls-16,.cls-17,.cls-18,.cls-2,.cls-3,.cls-9{stroke-miterlimit:10;}.cls-3{fill:#a74432;}.cls-3,.cls-9{stroke:#000;}.cls-4{opacity:0.6;}.cls-5{opacity:0.5;}.cls-6{opacity:0.31;}.cls-7{fill:#fefcf0;}.cls-8{clip-path:url(#clip-path);}.cls-9{fill:#161616;}.cls-10,.cls-13{fill:#fdcc66;}.cls-11{clip-path:url(#clip-path-2);}.cls-12{fill:#00536f;}.cls-12,.cls-16{stroke:#003466;}.cls-13,.cls-14{stroke:#cd9933;}.cls-15{fill:#cd9933;}.cls-16{fill:#039;opacity:0.65;}.cls-17{fill:#a50022;stroke:#7c001a;}.cls-18{fill:#339967;stroke:#013334;}.cls-19{fill:url(#light_yellow_thick_lines);}.cls-20{fill:#7c001a;}</style><clipPath id="clip-path"><path class="cls-1" d="M248,296s8.87-2.34,11.62-2.11c6.34.53,9.51,6.34,9.51,6.34s-8.45,1.59-14.79-.53C252.63,299.11,248,296,248,296Z"/></clipPath><clipPath id="clip-path-2"><path class="cls-1" d="M206,283.48c-1.64-.64-4.83-.92-6.92,1.2-1.18,1.2-6.61,5.33-3.36,15.71,2,6.39,8,10.34,9,11.7s1.95,3.29,3.36,4.07c0,0,6.72,9.89,21.14,147.41.43,4.15-41.53,8.46-42.18,1.83-2.92-29.67-12.33-93.16-17.54-93.16-5.41,0-18.27,1.62-18.27,1.62-6.51.81-17.14-4.53-21-8.75-15.48-16.85-10.13-40.45-.78-77.06,7.71-30.24,34-62.93,76.4-64.94,21.17-1,73.33,3.46,66.51,51.76-.15,1.09-42.87-.52-44-.42Z"/></clipPath><pattern id="light_yellow_thick_lines" data-name="light yellow thick lines" width="5.1" height="8.75" patternTransform="matrix(0.47, -0.79, 0.79, 0.47, 8.3, 7.65)" patternUnits="userSpaceOnUse" viewBox="0 0 5.1 8.75"><rect class="cls-1" width="5.1" height="8.75"/><line class="cls-2" x1="5.36" y1="7.42" x2="12.36" y2="19.42"/><line class="cls-2" x1="3.4" y1="8.51" x2="10.4" y2="20.51"/><line class="cls-2" x1="2.76" y1="7.42" x2="9.76" y2="19.42"/><line class="cls-2" x1="0.26" y1="7.42" x2="7.26" y2="19.42"/><line class="cls-2" x1="-1.7" y1="8.51" x2="5.3" y2="20.51"/><line class="cls-2" x1="-2.34" y1="7.42" x2="4.66" y2="19.42"/><line class="cls-2" x1="-4.84" y1="7.42" x2="2.16" y2="19.42"/><line class="cls-2" x1="-6.79" y1="8.51" x2="0.21" y2="20.51"/><line class="cls-2" x1="5.36" y1="-1.33" x2="12.36" y2="10.67"/><line class="cls-2" x1="3.4" y1="-0.24" x2="10.4" y2="11.76"/><line class="cls-2" x1="2.76" y1="-1.33" x2="9.76" y2="10.67"/><line class="cls-2" x1="0.26" y1="-1.33" x2="7.26" y2="10.67"/><line class="cls-2" x1="-1.7" y1="-0.24" x2="5.3" y2="11.76"/><line class="cls-2" x1="-2.34" y1="-1.33" x2="4.66" y2="10.67"/><line class="cls-2" x1="-4.84" y1="-1.33" x2="2.16" y2="10.67"/><line class="cls-2" x1="-6.79" y1="-0.24" x2="0.21" y2="11.76"/><line class="cls-2" x1="5.36" y1="-10.09" x2="12.36" y2="1.91"/><line class="cls-2" x1="3.4" y1="-9" x2="10.4" y2="3"/><line class="cls-2" x1="2.76" y1="-10.09" x2="9.76" y2="1.91"/><line class="cls-2" x1="0.26" y1="-10.09" x2="7.26" y2="1.91"/><line class="cls-2" x1="-1.7" y1="-9" x2="5.3" y2="3"/><line class="cls-2" x1="-2.34" y1="-10.09" x2="4.66" y2="1.91"/><line class="cls-2" x1="-4.84" y1="-10.09" x2="2.16" y2="1.91"/><line class="cls-2" x1="-6.79" y1="-9" x2="0.21" y2="3"/></pattern></defs><g id="Layer_2" data-name="Layer 2"><g id="Male_Poses" data-name="Male Poses"><g id="Head_copy_3" data-name="Head copy 3"><path id="head_round" data-name="head round" class="cls-3" d="M249.44,356.08c1.42-4.5,16.16-2.33,24.08-2.68,3.57-.15,4.41-.66,5.28-5.28.38-2-.56-4.54,1.58-7.4,3.17-4.22.23-4.83.53-5.28.62-.92,3.17-2.11,1.06-6.34s0-4.23,2.11-5.29c8.46-4.22-4.22-14.79-9-25.36-.48-1.08-.25-7.24-2.64-21.14-3.65-21.17-5.29-27.47-22.19-38-10.41-6.5-29.07-10.23-41.35-10.83-10.59-.51-20.42.94-29.46,6.6-8.5,5.33-12.68,9.51-19,21.14-8.05,14.75-7.11,31.94-.14,46.34,3.54,7.33,9.28,13.61,14.21,20.23,4.29,5.77,9.11,11.16,13.11,17.11A11.6,11.6,0,0,1,189,348c-1.93,8.74-4,15.8-6.39,24.44,0,3.17,4.23,10.56,11.63,15.85,15.5,11.07,33,6.17,42-.64S243.33,375.42,249.44,356.08Z"/><g id="face"><g id="mouth"><g class="cls-4"><path d="M269.23,333.91c3.82.72,8,0,11.78,1.27l-.44.89a11.14,11.14,0,0,0-2.69-.69c-1.67-.28-4.12-.52-5.83-.7a15.57,15.57,0,0,1-2.95-.51l.13-.26Z"/></g><g class="cls-5"><path d="M280.07,340.84c-3.91-1.77-7.63-3.84-11.4-5.88l.13-.25c3.84,1.81,7.7,3.68,11.65,5.21l-.38.92Z"/></g><g class="cls-5"><path d="M282.47,331.16c-4.78.39-9.78.7-14.27,2.53l-.18-.36c4.5-2.05,9.51-2.57,14.38-3.17l.07,1Z"/></g></g><g class="cls-6"><path d="M275.63,318.78c-.92,1.75-2.15,6.33,1.32,5.22.51-.25.94-.9,1.44-1.26,1.51-1.35,3.95-1.67,4.93.5a3.14,3.14,0,0,1,.32,1.18h-1a2.55,2.55,0,0,0-.7-1.41c-1.65-1.4-3.28.92-4.7,1.66a2.19,2.19,0,0,1-3.16-2.14,9.26,9.26,0,0,1,1.3-3.88l.25.13Z"/></g><path d="M269.49,291.13c-7.33-5.55-17.14-4.51-25.58-2.3-3,.69-6,1.36-9,2l-.3-1.23c8.8-2.19,18.29-6.23,27.5-4.21a20.54,20.54,0,0,1,8.86,3.88l-1.47,1.89Z"/><g id="eye"><path class="cls-7" d="M248,296s6.85-3,11.62-2.64c7.93.53,9.51,6.87,9.51,6.87a48,48,0,0,1-14.79-.53C251.74,299.09,248,296,248,296Z"/><path d="M247.22,295.88c.08-.43.46-.65.84-.83,7.22-3.5,18.72-4.44,21.59,5.05l.13.57c-2.06.21-4.11.29-6.16.3-4.67-.06-9.67-.13-13.66-2.87-.75-.44-1.54-.94-2.29-1.38a.89.89,0,0,1-.45-.84Zm1.62.23a.72.72,0,0,0-.24-.68,5.55,5.55,0,0,0,.42.42,13.44,13.44,0,0,0,9.08,4,44,44,0,0,0,11-.17l-.42.61a9.1,9.1,0,0,0-3.46-4.43c-5-3.46-11.28-1-16.52.73l-.17.06-.09,0a.72.72,0,0,0,.4-.61Z"/><polygon points="238.52 295.5 248.03 295.12 248.03 296.87 238.52 296.5 238.52 295.5 238.52 295.5"/><g class="cls-8"><circle class="cls-9" cx="260.14" cy="297.05" r="4.23"/></g></g><g id="ear"><g class="cls-6"><path d="M206.84,300.75c.27-2.18,2.07-3.12,3.23-4.65a7.58,7.58,0,0,0,.26-9.44c-2-2.85-6.22-3.45-9.33-2.32a10.73,10.73,0,0,0-3.7,3.55c-3.8,6.16-1.21,14.5,3.33,19.58a38.12,38.12,0,0,0,3.91,3.7c1.71,1.49,2.49,3.8,4.35,5.08a5.65,5.65,0,0,0,3.74.16,3.6,3.6,0,0,0,1.53-1.9,2.68,2.68,0,0,0,0-2.42c-.31-.82-.77-1.6-1.13-2.45-.67-1.74-.63-3.59-1.09-5.34-.22-1-1-1.43-1.15-2.49h.44a6.08,6.08,0,0,0,.89,1.68c.83,1.88.61,4.09,1.37,5.95.35.81.81,1.6,1.16,2.46a3.28,3.28,0,0,1,0,2.82,4,4,0,0,1-1.82,2.2,6.46,6.46,0,0,1-2.82.23c-2-.09-3.11-2.08-4.18-3.5-1.51-2.32-3.92-3.62-5.69-5.74A21.21,21.21,0,0,1,197,303.4c-2.38-4.87-3.44-11.13-.35-15.94a11.29,11.29,0,0,1,4-3.88c3.56-1.32,8-.6,10.36,2.54a8.51,8.51,0,0,1-.23,10.6c-.95,1.27-2.77,2.5-3,4Z"/></g><g class="cls-6"><path d="M207.65,295.91a4.8,4.8,0,0,0-4.42.18c-1.8,1.36-1.32,4.16-.72,6.08.45,1.63,1.5,1.69,2.66,2.54a30,30,0,0,1,5.29,4.77.65.65,0,0,0,.32.11c-.05,0-.07,0,0,0,.44-2.57-.7-5.46-2-7.67l.37-.25a13.93,13.93,0,0,1,1.73,3.76c.29.95,1.55,5.7-.7,4.55-.87-.64-1.43-1.5-2.22-2.19a21.94,21.94,0,0,0-4.89-3.48,1.54,1.54,0,0,1-.51-.4c-1.53-2.31-2.35-6.72.21-8.62a5.72,5.72,0,0,1,5.36-.28l-.44.89Z"/></g><g class="cls-6"><path d="M208.78,295.57c2.81-4.44,0-10-5.51-9.3a3.39,3.39,0,0,0-2.33,1c-3,2.62-3.78,6.62-2.95,10.39,1,5.93,5.25,10.43,10,13.72l-.32.32c-3.16-2.16-6.39-4.79-8.44-8.25s-3.06-7.71-2.17-11.67c.79-2.82,2.94-6.31,6.08-6.52,3.33-.42,6.62,1.27,7.21,4.7a7.78,7.78,0,0,1-1.32,5.84l-.29-.23Z"/></g></g></g><g id="nemes"><g id="neme_1" data-name="neme 1"><path class="cls-10" d="M206.7,283.39c-1.64-.63-5.32-1-7.4,1.11-1.18,1.2-7,5.26-3.73,15.75,2,6.4,7.14,9.79,8.37,11.05s2.7,4.19,4.14,4.86c0,0,6.62,9.81,21,147.33.44,4.15-40.76,8.45-41.41,1.82-2.92-29.66-12.33-93.15-17.54-93.15-5.41,0-18.27,1.61-18.27,1.61-6.51.82-17.14-4.52-21-8.74-15.48-16.85-7.88-40.92,1.46-77.53,7.72-30.24,30.74-61,73.19-62,20.79-.48,61.76,6.63,67.48,49.28.15,1.09-42.87-.53-43.95-.42Z"/><g class="cls-11"><path class="cls-12" d="M244.22,272.45C234,258.82,222,253.32,205,254.44c-11.89.14-21.7,5-29.89,13.65-18.68,19.63-30.75,46.46-36.11,73.09a166.47,166.47,0,0,0-2.59,23.7h-1c.06-34.4,12.83-74.85,36.57-99.95,8.87-9.39,18.92-13.28,31.79-14.42,15.24-1.35,26,2.52,36.25,11.31,3.13,2.69,4.7,5.1,7.08,8.4l-2.94,2.24Z"/><path class="cls-12" d="M229.64,273c-6.3-10.09-19.59-10.55-30.1-8.72-7.29,1.34-13.32,6.08-18.82,11.43-23,24.05-37.48,56.5-40.79,89.92l-1-.06a143.64,143.64,0,0,1,7.45-40.28A155.15,155.15,0,0,1,170.49,280c7.26-9.27,17.57-18.11,29.49-20.59,12.44-2.43,28.88.1,35.88,12.43L229.64,273Z"/><path class="cls-12" d="M217.88,277.87c-3.34-3.23-8.76-4.12-13.34-3.4-10.8,1.62-23,12.52-29.48,21-17,22.17-26.71,44.08-32.53,71.56l-1-.2A197.28,197.28,0,0,1,150,334.1a158.37,158.37,0,0,1,19.64-37.39c7.23-10.72,20.76-24.8,34.11-27.12,6.18-1.06,12.86-.08,17.78,4.39Z"/><path class="cls-12" d="M201.33,290.48c-3.22.19-7,2.66-9.77,4.73-3.29,2.42-6.33,4.25-9.26,7.27a155.45,155.45,0,0,0-33,54.4,95.37,95.37,0,0,0-3.38,12.45l-1-.19c5-25.77,17.55-49.66,34-69.81A61.35,61.35,0,0,1,195,286.13a24.11,24.11,0,0,1,3.51-1.58c.65-.21,1.39-.35,2.09-.5l.69,5.33Z"/><path class="cls-12" d="M197.62,303.87c-5.87,3-11.47,8.41-16.14,13.11a163.5,163.5,0,0,0-24.6,33.61A78.75,78.75,0,0,0,149.16,370l-1-.2c4.18-20,17.66-40,30.73-55.26,4.81-5.28,10.84-11.46,17.09-15l1.74,3.66Z"/><path class="cls-12" d="M204.92,311.58a115.06,115.06,0,0,0-16.47,12.53A200.21,200.21,0,0,0,162.1,353.6a100.81,100.81,0,0,0-10.15,17l-.91-.39a102,102,0,0,1,9.5-17.76,196.45,196.45,0,0,1,32.72-38.06,72,72,0,0,1,8.14-6.28l3.37,3Z"/><path class="cls-12" d="M209.85,320.06c-19.1,12.19-43.11,31.4-54.44,51.38l-.87-.47c8.87-17.21,23.24-30.7,37.66-43.1,4.91-4.09,9.94-8,15.27-11.65l2.38,3.84Z"/><path class="cls-12" d="M254.68,272.89c-9.24-14.93-24.52-25.81-42.08-26.68-12.78-.59-26.32,1.48-36.92,9.25-23,16.72-37,55.78-41.19,83.44-1.37,8.94-1.08,16.88-1.08,26l-1,0c-4.29-20.24,4.1-55.29,15.81-80.11,7.76-16.72,20.39-32,38.08-38.59,28.84-9.65,56.38-2.49,70,25.62l-1.65,1.08Z"/><path class="cls-12" d="M156.22,371.8c7.23-9.35,16.1-17.22,25.25-24.54,9-7.05,18.25-13.84,28.22-19.42l1.28-.57,1.37,4.48c-10.29,4.84-19.85,11.29-29.2,17.8-9.4,6.74-18.55,14-26.15,22.88l-.77-.63Z"/><path class="cls-12" d="M157.89,373.41c11.56-11.4,25.82-19.47,40.16-26.69,5-2.34,10-4.85,15.44-6l.52,4.47c-.55.12-1.07.16-1.67.31A93.81,93.81,0,0,0,199.5,350a194.4,194.4,0,0,0-28.2,14.57,88,88,0,0,0-12.72,9.52l-.69-.72Z"/><path class="cls-12" d="M164.07,373a141.72,141.72,0,0,1,45.83-19.51,43.21,43.21,0,0,1,7.42-1.12v5.41c-9,.28-18.13,2.89-26.75,5.52A128.35,128.35,0,0,0,165,374.52l-.93-1.5Z"/><path class="cls-12" d="M169.77,373.31c16.14-4.27,32.48-7.53,49.19-8.46v4.33a190.37,190.37,0,0,0-24.35,2.1c-8.14,1.13-16.23,2.61-24.23,4.5l-.61-2.47Z"/><path class="cls-12" d="M169.89,378.07c16.78-1.89,33.49-3.26,50.38-3.74v3.09c-8.29.15-16.72.79-25,1.39s-16.7,1.38-25,2.4l-.37-3.14Z"/><path class="cls-12" d="M172.41,385.41c16.8-1.93,33.53-2.78,50.41-3.13v4c-8.3.06-16.71.44-25,.87s-16.7,1-25,2l-.44-3.71Z"/><path class="cls-12" d="M173.9,395.2c12.59-1.42,25.14-2.11,37.75-2.7,4.21-.19,8.39-.36,12.63-.43l0,4c-16.65.38-33.45,1.14-50,2.86l-.42-3.71Z"/><path class="cls-12" d="M175.39,405c16.79-1.72,33.5-2.54,50.35-3.13l.08,4c-8.33.2-16.71.58-25.06,1s-16.7,1-25,1.84l-.39-3.71Z"/><path class="cls-12" d="M176.88,414.78c16.77-1.62,33.5-2.43,50.31-3.13l.13,4c-8.35.27-16.72.66-25.07,1.1s-16.71,1-25,1.76l-.37-3.71Z"/><path class="cls-12" d="M178.38,424.57c16.75-1.51,33.49-2.32,50.27-3.13l.17,4q-12.56.51-25.09,1.18c-8.35.46-16.72.95-25,1.69l-.33-3.72Z"/><path class="cls-12" d="M179.87,434.36c14.54-1.28,35.48-2.29,50.24-3.13l.21,4c-14.78.75-35.62,1.68-50.15,2.87l-.3-3.72Z"/><polygon class="cls-12" points="181.36 444.14 231.57 441.03 231.82 445 181.64 447.87 181.36 444.14 181.36 444.14"/><polygon class="cls-12" points="182.85 453.94 233.03 450.82 233.32 454.79 183.1 457.66 182.85 453.94 182.85 453.94"/><polygon class="cls-12" points="184.35 463.72 234.49 460.61 234.81 464.57 184.57 467.45 184.35 463.72 184.35 463.72"/><path class="cls-12" d="M261.05,273c-11.75-26.21-22.83-32.15-43.36-34.45-14.07-1.58-29.11.82-41.7,7.75a56.81,56.81,0,0,0-20.76,19.35c-13.86,20.42-24,51.7-26.13,76.43-.64,7.29,0,13.26,2,22.68l-1,.17c-2.45-9.7-3.68-12.65-2.89-22.7,1.54-20.17,9-47.21,17.39-65.51,4.47-9.24,9.35-18.14,16.89-25.38A63.72,63.72,0,0,1,188,236.66a80.47,80.47,0,0,1,30.3-2.37c12.35,1.48,25.68,3.86,35.22,16.81,1.11,1.5,1.64,2.54,2.71,4.06,1.18,1.85,3.14,4.49,4.1,6.46,1.82,3.23,2.91,7.29,4.34,10.7l-3.23,1.26Z"/><path id="outline" class="cls-13" d="M134.53,365.25a.33.33,0,0,1,.22.11c3.29,3.48,10,5.33,15.45,5.33.37,0,1.73,1.66,2.05,1.62.54-.07,8.35-3.79,17.72-3.32,4.11.21,6,0,12.49,37.95,3.5,20.5,6.42,43.26,7.81,57.11a.36.36,0,0,0,.22.31c1,.42,3.66,1.22,10.36,1.22,10.24,0,21-1.78,24.62-3.2a.38.38,0,0,0,.23-.4C214.5,355.5,207.55,321.07,204,311.79a.37.37,0,0,1,.62-.39l2.74,3a.42.42,0,0,1,.06.08c.45.84,7.48,15.89,21.43,148.9.44,4.14-40.77,8.45-41.42,1.82C184.49,435.49,175.18,372,170,372c-5.42,0-17.16,1.88-17.16,1.88-6.13.77-17.11-4.18-21.47-8.25a.38.38,0,0,1,.29-.66Z"/><path class="cls-12" d="M268.45,272.14a1.38,1.38,0,0,1-.77-1c-9-43.12-44.42-43.62-64.81-42.18C145.19,233,135.38,287,128,318.58c-3.86,16.37-3.56,26.4-2.5,34.69,1,7.67,5.13,11.6,5.13,11.6C115.1,348,122.71,324,132.05,287.34c7.72-30.24,30.74-61,73.19-62,20.4-.48,65.26-2.3,67.12,46.93,0,1-.82,1.85-1.76,1.45Z"/></g><path class="cls-13" d="M131.4,364.9c-2.22,4.11-6.74,13.71-5.68,13.43a193,193,0,0,1,29.17-5.58S133.57,360.87,131.4,364.9Z"/><line class="cls-14" x1="131.23" y1="365.79" x2="150.42" y2="373.29"/><line class="cls-14" x1="129.98" y1="368.18" x2="145.24" y2="374.06"/><line class="cls-14" x1="128.75" y1="370.59" x2="140.5" y2="375.01"/><line class="cls-14" x1="127.91" y1="373.13" x2="135.75" y2="375.95"/><line class="cls-14" x1="126.71" y1="375.55" x2="131.01" y2="376.9"/><path class="cls-12" d="M255.63,353.28c-41.24-10.54-38.8-57.32-38.79-57.8l2,0c0,.46-2.65,47.7,42.38,57.65Z"/><path class="cls-12" d="M262.43,353.28s15,64,13.54,78c-.1.92,24.31-2.37,23-4-8.59-10.52-20-76.63-20-76.63-.05-.21-.59-.26-.66-.05-.46,1.27-1.79,3.46-7.19,2.83C268.31,353.15,262.43,353.28,262.43,353.28Z"/><path class="cls-13" d="M276.06,428.45c-.88.65,0,2.05-.09,2.84s24.31-2.37,23-4c-.57-.7-.75-2.79-2-2.79C291.25,424.53,280.32,425.36,276.06,428.45Z"/><path class="cls-13" d="M272.28,272.28c-24.87-3.3-50.73-4.75-65.36,10.62-.21.22,2,.34,3.16,1.53,2.14,2.12,4.22,5.06,2.55,10.3-.4,1.25,8.84,1,9.23.24,9.49-17.91,8.64-16.5,51.21-16.3C273.78,278.68,273,272.38,272.28,272.28Z"/><path class="cls-14" d="M273.07,276.69l-8.61-.07c-3.72,0-7-.05-10-.05-24,0-26,1.67-34,16.79a24.42,24.42,0,0,1-3.6.23c-.77,0-1.38,0-1.85-.06A11,11,0,0,0,211.48,283a5.93,5.93,0,0,0-1-.77c7.83-6.87,19.05-10.09,35-10.09,8.87,0,20,1.58,27.37,2.24"/><g id="front_cobra_large" data-name="front cobra large"><path class="cls-13" d="M278.85,241.46s1.34-.69,1.74-.49c1,.48,3-.53,3.92-.51,2,0,3.38-1.16,3.11-2.22-.19-.69-1.58-.5-2.27-.75a4.91,4.91,0,0,0-3.05-1.14,3.75,3.75,0,0,0-2.44.6c-.5.46-10,2.82-8.87,11.89"/><path class="cls-13" d="M271.52,267.49c2.36,1.18,5.5,2.71,5.68-.44s-1.64-6.89-2.42-8.76c-1.17-2.85-4.08-7.43-4-10.32.14-8.87,10.25-6.62,12.2-5,5,4.2,3.95,13.31,3.8,15.09-.3,3.5,2.92,14.75-5.62,16-4.18.61-6.86.15-14.62-5"/><path class="cls-15" d="M279.64,238.23c.58-.1,1.11-.21,1.66-.35a1.45,1.45,0,0,0,.55-.21,1.81,1.81,0,0,1,.59-.37,1.73,1.73,0,0,1,1.54,1l-.07.29a2.56,2.56,0,0,1-1.12.58,1,1,0,0,1-.49,0c-.29-.18-.55-.63-1-.61a2.4,2.4,0,0,0-1.48.15l-.21-.54Z"/><ellipse class="cls-16" cx="278.32" cy="248.37" rx="4.89" ry="4.36" transform="translate(-37.99 50.63) rotate(-9.73)"/><path class="cls-17" d="M276.44,254.94l3.92.66,3-2.29a.32.32,0,0,1,.5.28s.81,5.36-.17,6.71c-.57.8-3-.24-3-.24s-2.09,1.15-2.59.72c-1.07-.89-1.95-5.46-1.95-5.46A.27.27,0,0,1,276.44,254.94Z"/><path class="cls-18" d="M284.74,266.54c-.08,1.82-.6,3.25-1.15,3.25-1.33,0-.45-2.13-.5-3.55-.08-2.71.25-3.05.8-3S284.82,264.73,284.74,266.54Z"/><path class="cls-18" d="M280.47,265.92c0,2.45-.37,3.51-.84,3.49s-.77-1.5-.69-3.32.53-3.27,1-3.25S280.49,264.1,280.47,265.92Z"/><path class="cls-15" d="M276.27,273.48c1.43-.42,2.59-.61,3.32-2,3.43-6.47-.53-14.21-2-20.87a35.74,35.74,0,0,1-1.24-6.77,4.17,4.17,0,0,0-.92-2.5l4.57.52c-1.6,1-1,2.54-1.06,4,.22,7.86,8.33,22.43-.21,28a12.76,12.76,0,0,1-2.25.49l-.24-.88Z"/><path class="cls-19" d="M276.27,273.48c1.43-.42,2.59-.61,3.32-2,3.43-6.47-.53-14.21-2-20.87a35.74,35.74,0,0,1-1.24-6.77,4.17,4.17,0,0,0-.92-2.5l4.57.52c-1.6,1-1,2.54-1.06,4,.22,7.86,8.33,22.43-.21,28a12.76,12.76,0,0,1-2.25.49l-.24-.88Z"/><path class="cls-14" d="M269.48,270.93c6,3.56,7.46,3.76,11.64,3.15,8.54-1.24,5.32-12.49,5.62-16,.15-1.78,1.17-10.89-3.8-15.09-1.95-1.65-12.06-3.9-12.2,5,0,2.89,2.87,7.47,4,10.32.78,1.87,2.59,5.75,2.42,8.76"/><ellipse class="cls-20" cx="282.72" cy="238.24" rx="0.49" ry="0.82" transform="translate(-1.77 474.36) rotate(-79.81)"/></g><path class="cls-13" d="M271.52,267.49c-2.12-1.12-4.92-.78-7.2-.68a71.87,71.87,0,0,1-7.34-.05,18.84,18.84,0,0,1-3.74-.49c-.35-.11-.66-.27-.71-.58-.21-1.25,2.13-1,2.72-1,2.61.09,4.74.59,7.35.77a4.38,4.38,0,0,0,4.75-4,3.58,3.58,0,0,0-2-3.21c-1.83-.94-4-.76-6-.62a54.83,54.83,0,0,1-7.13.35,8,8,0,0,1-1.46-.17.91.91,0,0,1-.78-1c.11-1.18,2.68-.62,3.23-.57a20.09,20.09,0,0,0,3.29.05,17.73,17.73,0,0,0,7.24-2.17c1.09-.73,3.18-3,3.21-5.28,0-2.64-.77-5.16-7.53-10.87a50.32,50.32,0,0,0-10.59-6.49c-1-.5-2-1-3.08-1.43a3.05,3.05,0,0,0-1.45-.25c-.74-.05,7.48,4.56,10.51,6.8s7.6,6.53,9.4,9.35c1.29,2,1,3.8-1.82,5.61a16.5,16.5,0,0,1-7.2,1.78c-2.14,0-5-.9-6.84.47a4.1,4.1,0,0,0-.08,6.07,6,6,0,0,0,3.24,1,23.49,23.49,0,0,0,3.56,0c2.38-.14,4.75-.49,7.14-.43.52,0,1.78,0,1.84.75.08,1.18-1.7,1.17-2.1,1.14-2.6-.22-5.23-.59-7.84-.57-2,0-4.33.55-5,2.77a3.66,3.66,0,0,0,.57,3.14,4.34,4.34,0,0,0,3.18,1.67,63.25,63.25,0,0,0,7.28.47c2.4,0,6.67-.66,9.32,1.06"/></g></g></g></g><g id="Head_copy" data-name="Head copy"><rect id="head_bounding_box" data-name="head bounding box" class="cls-1" width="400" height="500"/></g></g></svg>