<svg xmlns="http://www.w3.org/2000/svg" xmlns:xlink="http://www.w3.org/1999/xlink" viewBox="0 0 400 500"><defs><style>.cls-1,.cls-14,.cls-2,.cls-3{fill:none;}.cls-2{stroke:#fdcc66;}.cls-10,.cls-11,.cls-13,.cls-14,.cls-16,.cls-17,.cls-18,.cls-2,.cls-3,.cls-4{stroke-miterlimit:10;}.cls-11,.cls-16,.cls-3{stroke:#003466;}.cls-3{stroke-width:2px;}.cls-4{fill:#a74432;}.cls-10,.cls-4{stroke:#000;}.cls-5{opacity:0.6;}.cls-6{opacity:0.5;}.cls-7{opacity:0.31;}.cls-8{fill:#fefcf0;}.cls-9{clip-path:url(#clip-path);}.cls-10{fill:#161616;}.cls-11{fill:#00536f;}.cls-12{fill:url(#separated_lapis_lazuli_circles);}.cls-13{fill:#fdcc66;}.cls-13,.cls-14{stroke:#cd9933;}.cls-15{fill:#cd9933;}.cls-16{fill:#039;opacity:0.65;}.cls-17{fill:#a50022;stroke:#7c001a;}.cls-18{fill:#339967;stroke:#013334;}.cls-19{fill:url(#light_yellow_thick_lines);}.cls-20{fill:#7c001a;}.cls-21{fill:url(#light_yellow_thick_lines-3);}</style><clipPath id="clip-path"><path class="cls-1" d="M248,296s8.87-2.34,11.62-2.11c6.34.53,9.51,6.34,9.51,6.34s-8.45,1.59-14.79-.53C252.63,299.11,248,296,248,296Z"/></clipPath><pattern id="separated_lapis_lazuli_circles" data-name="separated lapis lazuli circles" width="20.07" height="18.26" patternTransform="translate(2.36 6.79) scale(0.66)" patternUnits="userSpaceOnUse" viewBox="0 0 20.07 18.26"><rect class="cls-1" width="20.07" height="18.26"/><circle class="cls-3" cx="14.04" cy="18.19" r="3"/><circle class="cls-3" cx="4" cy="18.19" r="3"/><circle class="cls-3" cx="19.06" cy="9.06" r="3"/><circle class="cls-3" cx="9.02" cy="9.06" r="3"/><circle class="cls-3" cx="-1.02" cy="9.06" r="3"/><circle class="cls-3" cx="14.04" cy="-0.07" r="3"/><circle class="cls-3" cx="4" cy="-0.07" r="3"/></pattern><pattern id="light_yellow_thick_lines" data-name="light yellow thick lines" width="5.1" height="8.75" patternTransform="translate(3.91 14.54) rotate(-61.22)" patternUnits="userSpaceOnUse" viewBox="0 0 5.1 8.75"><rect class="cls-1" width="5.1" height="8.75"/><line class="cls-2" x1="5.36" y1="7.42" x2="12.36" y2="19.42"/><line class="cls-2" x1="3.4" y1="8.51" x2="10.4" y2="20.51"/><line class="cls-2" x1="2.76" y1="7.42" x2="9.76" y2="19.42"/><line class="cls-2" x1="0.26" y1="7.42" x2="7.26" y2="19.42"/><line class="cls-2" x1="-1.7" y1="8.51" x2="5.3" y2="20.51"/><line class="cls-2" x1="-2.34" y1="7.42" x2="4.66" y2="19.42"/><line class="cls-2" x1="-4.84" y1="7.42" x2="2.16" y2="19.42"/><line class="cls-2" x1="-6.79" y1="8.51" x2="0.21" y2="20.51"/><line class="cls-2" x1="5.36" y1="-1.33" x2="12.36" y2="10.67"/><line class="cls-2" x1="3.4" y1="-0.24" x2="10.4" y2="11.76"/><line class="cls-2" x1="2.76" y1="-1.33" x2="9.76" y2="10.67"/><line class="cls-2" x1="0.26" y1="-1.33" x2="7.26" y2="10.67"/><line class="cls-2" x1="-1.7" y1="-0.24" x2="5.3" y2="11.76"/><line class="cls-2" x1="-2.34" y1="-1.33" x2="4.66" y2="10.67"/><line class="cls-2" x1="-4.84" y1="-1.33" x2="2.16" y2="10.67"/><line class="cls-2" x1="-6.79" y1="-0.24" x2="0.21" y2="11.76"/><line class="cls-2" x1="5.36" y1="-10.09" x2="12.36" y2="1.91"/><line class="cls-2" x1="3.4" y1="-9" x2="10.4" y2="3"/><line class="cls-2" x1="2.76" y1="-10.09" x2="9.76" y2="1.91"/><line class="cls-2" x1="0.26" y1="-10.09" x2="7.26" y2="1.91"/><line class="cls-2" x1="-1.7" y1="-9" x2="5.3" y2="3"/><line class="cls-2" x1="-2.34" y1="-10.09" x2="4.66" y2="1.91"/><line class="cls-2" x1="-4.84" y1="-10.09" x2="2.16" y2="1.91"/><line class="cls-2" x1="-6.79" y1="-9" x2="0.21" y2="3"/></pattern><pattern id="light_yellow_thick_lines-3" data-name="light yellow thick lines" width="5.1" height="8.75" patternTransform="translate(5.56 6.57) rotate(-59.52)" patternUnits="userSpaceOnUse" viewBox="0 0 5.1 8.75"><rect class="cls-1" width="5.1" height="8.75"/><line class="cls-2" x1="5.36" y1="7.42" x2="12.36" y2="19.42"/><line class="cls-2" x1="3.4" y1="8.51" x2="10.4" y2="20.51"/><line class="cls-2" x1="2.76" y1="7.42" x2="9.76" y2="19.42"/><line class="cls-2" x1="0.26" y1="7.42" x2="7.26" y2="19.42"/><line class="cls-2" x1="-1.7" y1="8.51" x2="5.3" y2="20.51"/><line class="cls-2" x1="-2.34" y1="7.42" x2="4.66" y2="19.42"/><line class="cls-2" x1="-4.84" y1="7.42" x2="2.16" y2="19.42"/><line class="cls-2" x1="-6.79" y1="8.51" x2="0.21" y2="20.51"/><line class="cls-2" x1="5.36" y1="-1.33" x2="12.36" y2="10.67"/><line class="cls-2" x1="3.4" y1="-0.24" x2="10.4" y2="11.76"/><line class="cls-2" x1="2.76" y1="-1.33" x2="9.76" y2="10.67"/><line class="cls-2" x1="0.26" y1="-1.33" x2="7.26" y2="10.67"/><line class="cls-2" x1="-1.7" y1="-0.24" x2="5.3" y2="11.76"/><line class="cls-2" x1="-2.34" y1="-1.33" x2="4.66" y2="10.67"/><line class="cls-2" x1="-4.84" y1="-1.33" x2="2.16" y2="10.67"/><line class="cls-2" x1="-6.79" y1="-0.24" x2="0.21" y2="11.76"/><line class="cls-2" x1="5.36" y1="-10.09" x2="12.36" y2="1.91"/><line class="cls-2" x1="3.4" y1="-9" x2="10.4" y2="3"/><line class="cls-2" x1="2.76" y1="-10.09" x2="9.76" y2="1.91"/><line class="cls-2" x1="0.26" y1="-10.09" x2="7.26" y2="1.91"/><line class="cls-2" x1="-1.7" y1="-9" x2="5.3" y2="3"/><line class="cls-2" x1="-2.34" y1="-10.09" x2="4.66" y2="1.91"/><line class="cls-2" x1="-4.84" y1="-10.09" x2="2.16" y2="1.91"/><line class="cls-2" x1="-6.79" y1="-9" x2="0.21" y2="3"/></pattern></defs><g id="Layer_2" data-name="Layer 2"><g id="Male_Poses" data-name="Male Poses"><g id="Head_copy_3" data-name="Head copy 3"><path id="head_round" data-name="head round" class="cls-4" d="M249.32,356.27c1.42-4.51,16.16-2.33,24.07-2.68,3.58-.16,4.42-.67,5.29-5.28.38-2.05-.56-4.55,1.58-7.4,3.17-4.23.23-4.83.53-5.29.61-.92,3.17-2.11,1.06-6.34s0-4.22,2.11-5.28c8.45-4.23-4.23-14.8-9-25.36-.49-1.08-.25-7.25-2.65-21.14-3.65-21.17-5.28-27.48-22.19-38-10.4-6.51-29.07-10.23-41.34-10.83-10.59-.52-20.43.94-29.46,6.6-8.51,5.32-12.69,9.51-19,21.13-8,14.75-7.1,31.95-.14,46.35,3.54,7.32,9.29,13.61,14.21,20.23,4.29,5.76,9.12,11.15,13.11,17.1a11.64,11.64,0,0,1,1.41,8.14c-1.94,8.73-4,15.8-6.39,24.43,0,3.17,4.22,10.57,11.62,15.85,15.5,11.08,33,6.18,42-.64S243.21,375.61,249.32,356.27Z"/><g id="face"><g id="mouth"><g class="cls-5"><path d="M269.23,333.91c3.82.72,8,0,11.78,1.27l-.44.89a11.14,11.14,0,0,0-2.69-.69c-1.67-.28-4.12-.52-5.83-.7a15.57,15.57,0,0,1-2.95-.51l.13-.26Z"/></g><g class="cls-6"><path d="M280.07,340.84c-3.91-1.77-7.63-3.84-11.4-5.88l.13-.25c3.84,1.81,7.7,3.68,11.65,5.21l-.38.92Z"/></g><g class="cls-6"><path d="M282.47,331.16c-4.78.39-9.78.7-14.27,2.53l-.18-.36c4.5-2.05,9.51-2.57,14.38-3.17l.07,1Z"/></g></g><g class="cls-7"><path d="M275.63,318.78c-.92,1.75-2.15,6.33,1.32,5.22.51-.25.94-.9,1.44-1.26,1.51-1.35,3.95-1.67,4.93.5a3.14,3.14,0,0,1,.32,1.18h-1a2.55,2.55,0,0,0-.7-1.41c-1.65-1.4-3.28.92-4.7,1.66a2.19,2.19,0,0,1-3.16-2.14,9.26,9.26,0,0,1,1.3-3.88l.25.13Z"/></g><path d="M269.49,291.13c-7.33-5.55-17.14-4.51-25.58-2.3-3,.69-6,1.36-9,2l-.3-1.23c8.8-2.19,18.29-6.23,27.5-4.21a20.54,20.54,0,0,1,8.86,3.88l-1.47,1.89Z"/><g id="eye"><path class="cls-8" d="M248,296s6.85-3,11.62-2.64c7.93.53,9.51,6.87,9.51,6.87a48,48,0,0,1-14.79-.53C251.74,299.09,248,296,248,296Z"/><path d="M247.22,295.88c.08-.43.46-.65.84-.83,7.22-3.5,18.72-4.44,21.59,5.05l.13.57c-2.06.21-4.11.29-6.16.3-4.67-.06-9.67-.13-13.66-2.87-.75-.44-1.54-.94-2.29-1.38a.89.89,0,0,1-.45-.84Zm1.62.23a.72.72,0,0,0-.24-.68,5.55,5.55,0,0,0,.42.42,13.44,13.44,0,0,0,9.08,4,44,44,0,0,0,11-.17l-.42.61a9.1,9.1,0,0,0-3.46-4.43c-5-3.46-11.28-1-16.52.73l-.17.06-.09,0a.72.72,0,0,0,.4-.61Z"/><polygon points="238.52 295.5 248.03 295.12 248.03 296.87 238.52 296.5 238.52 295.5 238.52 295.5"/><g class="cls-9"><circle class="cls-10" cx="260.14" cy="297.05" r="4.23"/></g></g><g id="ear"><g class="cls-7"><path d="M206.84,300.75c.27-2.18,2.07-3.12,3.23-4.65a7.58,7.58,0,0,0,.26-9.44c-2-2.85-6.22-3.45-9.33-2.32a10.73,10.73,0,0,0-3.7,3.55c-3.8,6.16-1.21,14.5,3.33,19.58a38.12,38.12,0,0,0,3.91,3.7c1.71,1.49,2.49,3.8,4.35,5.08a5.65,5.65,0,0,0,3.74.16,3.6,3.6,0,0,0,1.53-1.9,2.68,2.68,0,0,0,0-2.42c-.31-.82-.77-1.6-1.13-2.45-.67-1.74-.63-3.59-1.09-5.34-.22-1-1-1.43-1.15-2.49h.44a6.08,6.08,0,0,0,.89,1.68c.83,1.88.61,4.09,1.37,5.95.35.81.81,1.6,1.16,2.46a3.28,3.28,0,0,1,0,2.82,4,4,0,0,1-1.82,2.2,6.46,6.46,0,0,1-2.82.23c-2-.09-3.11-2.08-4.18-3.5-1.51-2.32-3.92-3.62-5.69-5.74A21.21,21.21,0,0,1,197,303.4c-2.38-4.87-3.44-11.13-.35-15.94a11.29,11.29,0,0,1,4-3.88c3.56-1.32,8-.6,10.36,2.54a8.51,8.51,0,0,1-.23,10.6c-.95,1.27-2.77,2.5-3,4Z"/></g><g class="cls-7"><path d="M207.65,295.91a4.8,4.8,0,0,0-4.42.18c-1.8,1.36-1.32,4.16-.72,6.08.45,1.63,1.5,1.69,2.66,2.54a30,30,0,0,1,5.29,4.77.65.65,0,0,0,.32.11c-.05,0-.07,0,0,0,.44-2.57-.7-5.46-2-7.67l.37-.25a13.93,13.93,0,0,1,1.73,3.76c.29.95,1.55,5.7-.7,4.55-.87-.64-1.43-1.5-2.22-2.19a21.94,21.94,0,0,0-4.89-3.48,1.54,1.54,0,0,1-.51-.4c-1.53-2.31-2.35-6.72.21-8.62a5.72,5.72,0,0,1,5.36-.28l-.44.89Z"/></g><g class="cls-7"><path d="M208.78,295.57c2.81-4.44,0-10-5.51-9.3a3.39,3.39,0,0,0-2.33,1c-3,2.62-3.78,6.62-2.95,10.39,1,5.93,5.25,10.43,10,13.72l-.32.32c-3.16-2.16-6.39-4.79-8.44-8.25s-3.06-7.71-2.17-11.67c.79-2.82,2.94-6.31,6.08-6.52,3.33-.42,6.62,1.27,7.21,4.7a7.78,7.78,0,0,1-1.32,5.84l-.29-.23Z"/></g></g></g><g id="battle_crown" data-name="battle crown"><path class="cls-11" d="M234.75,281.12l38.58-.88s-5.75-39.83-19.77-66.71c-9.82-18.85-22.47-26-45.41-31.49-16.22-3.88-44.42,4.24-64.07,17-15.12,9.78-28.55,7.17-28,7.92,5.4,6.94,13.39,38.09,20.54,52.68,30.38,62,48.71,76,51.79,90.55.65,3,10.38-6.15,15.75-16.11a42.19,42.19,0,0,0,4.48-16.87c-1.11-.51-1.93-1.72-2.91-3.09a13.86,13.86,0,0,0-1.47-2c-2.8-2.14-7.06-6.45-8.66-11.08-3.51-10.2,1.44-14.71,3-16.36.1-.11.2-.19.27-.26,2.44-2.44,7.14-1.78,8.91-1.11,2.57,1,4.71,2.85,5.26,7.87.36,3.2,11.14,3.21,16.46-.95C235.29,285.67,234.75,281.12,234.75,281.12Z"/><path class="cls-12" d="M234.75,281.12l38.58-.88s-5.75-39.83-19.77-66.71c-9.82-18.85-22.47-26-45.41-31.49-16.22-3.88-44.42,4.24-64.07,17-15.12,9.78-28.55,7.17-28,7.92,5.4,6.94,13.39,38.09,20.54,52.68,30.38,62,48.71,76,51.79,90.55.65,3,10.38-6.15,15.75-16.11a42.19,42.19,0,0,0,4.48-16.87c-1.11-.51-1.93-1.72-2.91-3.09a13.86,13.86,0,0,0-1.47-2c-2.8-2.14-7.06-6.45-8.66-11.08-3.51-10.2,1.44-14.71,3-16.36.1-.11.2-.19.27-.26,2.44-2.44,7.14-1.78,8.91-1.11,2.57,1,4.71,2.85,5.26,7.87.36,3.2,11.14,3.21,16.46-.95C235.29,285.67,234.75,281.12,234.75,281.12Z"/><path class="cls-13" d="M198.82,306.61c1.14,12.32-5.63,28.52-14.76,33.21h0a35.17,35.17,0,0,1,4.38,10.33c.65,3,10.38-6.15,15.75-16.11a42.19,42.19,0,0,0,4.48-16.87c-1.11-.51-1.93-1.72-2.91-3.09a13.86,13.86,0,0,0-1.47-2,30.79,30.79,0,0,1-5.47-5.46Z"/><path class="cls-14" d="M208.67,317.17c-1.11-.51-1.93-1.72-2.91-3.09a13.86,13.86,0,0,0-1.47-2,30.79,30.79,0,0,1-5.47-5.46h0"/><path class="cls-14" d="M188,348.34c9.13-4.7,19.51-21.12,18.37-33.43"/><path class="cls-14" d="M185.22,342c9.13-4.69,16.94-20.5,15.8-32.82"/><path class="cls-13" d="M269.68,260.45l4,19.2a1.17,1.17,0,0,1-1.12,1.41l-37.61.61s.54,4.34-5.29,8.66c-5.36,4-16.24,4-16.6.9a13.51,13.51,0,0,0-1.91-5.23s8.22,2.75,13.87-1.12c3.86-2.63,6.18-7.71,5.17-21.34C230.2,263.54,258.27,259.2,269.68,260.45Z"/><path class="cls-13" d="M236.1,275.91a50.45,50.45,0,0,0,.38-7.46c7.06-1,25.74-2.33,34.26-2.33l1.88,8.59Z"/><path class="cls-14" d="M273.4,278.72l-39.9.92c-1.16.92-.32,5.66-5.07,9.18-2.21,1.64-6,2.45-9.59,2.69-1.55.11-4.74.1-5.9-1.18"/><path class="cls-14" d="M212.38,288.2a32.09,32.09,0,0,0,5.11.66,14.72,14.72,0,0,0,8.73-2.43c4.81-3.29,6.66-9.23,6.16-20.19a1.22,1.22,0,0,1,1.06-1.24c6.29-.89,25-2.86,36.74-2.45"/><g id="side_cobra" data-name="side cobra"><g id="cobra"><path id="cobra_crown" data-name="cobra crown" class="cls-13" d="M213.6,239.19s-1.16-3.86-14-19.06c-.23-.28,1.33-.66,1.33-.66s8.72,9.3,11.5,11.73c.69.6,5.12-2.29,7-3.56a.6.6,0,0,1,.94.43l.93,8.19"/><path class="cls-13" d="M216.46,242.86s1.41-1,1.89-.84c1.16.41,3.47-.88,4.51-1,2.31-.25,3.67-1.88,3.2-3.07-.31-.79-1.86-.35-2.69-.54a5.48,5.48,0,0,0-3.63-.87,4.23,4.23,0,0,0-2.68,1.07c-.5.62-20.16,5.24,2.46,31.48"/><path class="cls-15" d="M216.76,238.93l1.33-.43a6,6,0,0,0,1.32-.52,1.68,1.68,0,0,1,2.75.4l0,.3a3.21,3.21,0,0,1-1.32.7,1.43,1.43,0,0,1-.61.08c-.4-.14-.86-.55-1.33-.45a3.47,3.47,0,0,0-1.85.44l-.26-.52Z"/><path class="cls-13" d="M207.08,275.21c5.27,9.83,9.07,9.6,14.2,8.23,10.5-2.82,6-20.28,5.84-24.53-.1-2.15,2.13-11.9-3.8-15.64-1.68-1.06-14.12-3.49-12.84,7.15.41,3.47,2.82,9.25,4.76,12.47a24.27,24.27,0,0,1,2.47,12c-.26,2.46-4.92,5-7,.16"/><ellipse class="cls-16" cx="218.45" cy="250.86" rx="5.88" ry="5.05" transform="translate(-31.2 31.03) rotate(-7.58)"/><path class="cls-17" d="M216.26,258.65l4.83.37,3.47-2.71a.39.39,0,0,1,.63.26s1.49,5.69.44,7.21c-.62.91-3.69,0-3.69,0s-2.42,1.41-3.08,1c-1.38-.87-2.89-5.7-2.89-5.7A.3.3,0,0,1,216.26,258.65Z"/><path class="cls-18" d="M226.56,270.4c.19,2.19-.22,4-.92,4.08s-.87-2-1.06-4.19-.32-3.68.37-3.74S226.37,268.22,226.56,270.4Z"/><path class="cls-18" d="M221.94,271c.37,2.94.11,4.27-.48,4.32s-1.22-1.68-1.41-3.87.13-4,.72-4.06S221.66,268.78,221.94,271Z"/><path class="cls-15" d="M218.23,283.59c9.34-5.22,1.78-22.16-.5-30.07-.57-1.77-1.16-3.55-1.67-5.38-.56-2-.8-3.8-2-5.73l5-.14a4.29,4.29,0,0,0-.7,2.59c.56,10.35,12.8,33.53.28,39.63l-.44-.9Z"/><path class="cls-19" d="M218.23,283.59c9.34-5.22,1.78-22.16-.5-30.07-.57-1.77-1.16-3.55-1.67-5.38-.56-2-.8-3.8-2-5.73l5-.14a4.29,4.29,0,0,0-.7,2.59c.56,10.35,12.8,33.53.28,39.63l-.44-.9Z"/><path class="cls-14" d="M207.08,275.21c5.27,9.83,9.07,9.6,14.2,8.23,10.5-2.82,6-20.28,5.84-24.53-.1-2.15,2.13-11.9-3.8-15.64-1.68-1.06-14.12-3.49-12.84,7.15.41,3.47,2.82,9.25,4.76,12.47a24.27,24.27,0,0,1,2.47,12c-.26,2.46-4.92,5-7,.16"/><ellipse class="cls-20" cx="220.58" cy="238.38" rx="0.93" ry="0.56"/></g><path class="cls-13" d="M116.71,207.77c31.08,20.76,69.49,57.11,82.36,68.1,11.56,9.86,28.65,2.72,11.12-13.21-18.62-16.93-60.08-39.88-92.62-55.91Z"/></g><g id="front_cobra" data-name="front cobra"><path class="cls-13" d="M275.12,224.45s1.45-.76,1.89-.54c1.05.52,3.28-.58,4.27-.55,2.21.06,3.68-1.27,3.38-2.42-.2-.75-1.71-.54-2.47-.82a5.33,5.33,0,0,0-3.32-1.23,4.09,4.09,0,0,0-2.65.64c-.55.51-10.89,3.08-9.65,12.95"/><path class="cls-13" d="M248.26,247.51a5.45,5.45,0,1,1-1.6-10.64c3,0,6.63,2.47,6.63,5.55,0,.14,0,.36.07.63.23,1.74.69,5.34-1.45,7.76-1.3,1.46-3.29,2.19-5.88,2.16-5.13-.06-10.18-5.31-10.18-10.6a11.81,11.81,0,0,1,2-6.2c3.33-4.77,8-6.64,12.73-5.14,5.38,1.69,9.75,7.31,9.75,12.54,0,8.91-5.23,14.45-13.65,14.45A15.67,15.67,0,0,1,231,242.37,15.1,15.1,0,0,1,234.62,232l.09-.1c6.75-7.74,8.28-14.57,6.64-21.49-3.16-13.31-19-21.57-24.29-23.73a69.16,69.16,0,0,0-9.37-2.72,37.91,37.91,0,0,0-8.75-.92c-15.51,0-37.19,6.87-53.78,17.6-12.3,8-24.93,8.56-28.75,6.89a.62.62,0,0,1-.36-.64c0-.8,12.75,1.53,27.86-8.25,19.65-12.72,47.86-20.79,64.08-16.9a70.7,70.7,0,0,1,9.82,3.09c12.24,5,42.91,22,19.43,48.94l-.12.13A12.74,12.74,0,0,0,246.66,255c6.77,0,10.65-4.17,10.65-11.45,0-3.88-3.57-8.4-7.64-9.68-2.47-.78-6.09-.71-9.38,4a8.8,8.8,0,0,0-1.44,4.48c0,3.65,3.71,7.56,7.22,7.6a4.48,4.48,0,0,0,3.59-1.16c1.24-1.39.91-4,.73-5.37a9.12,9.12,0,0,1-.1-1c0-1.15-2-2.55-3.63-2.55a2.55,2.55,0,0,0-1.6,4.49,2.66,2.66,0,0,0,2.41.25"/><path class="cls-13" d="M247.88,246.12c4.28-1.55,14.77,7.21,14.77,7.21"/><path class="cls-13" d="M247.41,244.63c4.15-.84,8.76,2.3,16.52,6.92,3.84,2.29,9.2,4.17,9.4.74.18-3.27-1.79-7.49-2.63-9.53-1.29-3.1-4.45-8.09-4.4-11.23.14-9.65,11.15-7.21,13.27-5.41,5.41,4.57,4.3,14.49,4.13,16.42-.32,3.81,3.19,16-6.11,17.4-4.55.66-7.53.61-16-5.05-10.3-6.89-11-7.88-13.58-7.32"/><path class="cls-15" d="M276,221c.62-.11,1.2-.23,1.79-.37a1.71,1.71,0,0,0,.61-.21,1.36,1.36,0,0,1,2.31.7l-.07.3a2.92,2.92,0,0,1-1.21.56,1.19,1.19,0,0,1-.53,0c-.33-.18-.63-.64-1.07-.61a2.78,2.78,0,0,0-1.62.18L276,221Z"/><ellipse class="cls-16" cx="274.54" cy="231.97" rx="5.32" ry="4.74" transform="translate(-35.27 49.76) rotate(-9.73)"/><path class="cls-17" d="M272.5,239.12l4.26.71,3.31-2.49a.34.34,0,0,1,.54.31s.87,5.83-.18,7.3c-.63.86-3.29-.26-3.29-.26s-2.27,1.24-2.82.78c-1.15-1-2.12-5.94-2.12-5.94A.3.3,0,0,1,272.5,239.12Z"/><path class="cls-18" d="M281.53,251.74c-.09,2-.65,3.53-1.26,3.53-1.44,0-.48-2.31-.53-3.86-.1-2.95.26-3.31.86-3.29S281.62,249.76,281.53,251.74Z"/><path class="cls-18" d="M276.89,251.06c0,2.66-.41,3.82-.92,3.8s-.84-1.64-.75-3.61.58-3.56,1.08-3.54S276.9,249.09,276.89,251.06Z"/><path class="cls-15" d="M272.32,259.28c1.55-.45,2.81-.65,3.61-2.14,3.73-7-.58-15.46-2.15-22.71a39.46,39.46,0,0,1-1.35-7.36,4.5,4.5,0,0,0-1-2.72l5,.57c-1.74,1.1-1.13,2.75-1.16,4.37.24,8.56,9.06,24.41-.23,30.42a14.19,14.19,0,0,1-2.45.54l-.25-1Z"/><path class="cls-21" d="M272.32,259.28c1.55-.45,2.81-.65,3.61-2.14,3.73-7-.58-15.46-2.15-22.71a39.46,39.46,0,0,1-1.35-7.36,4.5,4.5,0,0,0-1-2.72l5,.57c-1.74,1.1-1.13,2.75-1.16,4.37.24,8.56,9.06,24.41-.23,30.42a14.19,14.19,0,0,1-2.45.54l-.25-1Z"/><ellipse class="cls-20" cx="279.34" cy="220.94" rx="0.53" ry="0.89" transform="translate(12.47 456.79) rotate(-79.81)"/><path class="cls-14" d="M247.41,244.63c4.15-.84,8.76,2.3,16.52,6.92,3.84,2.29,9.2,4.17,9.4.74.18-3.27-1.79-7.49-2.63-9.53-1.29-3.1-4.45-8.09-4.4-11.23.14-9.65,11.15-7.21,13.27-5.41,5.41,4.57,4.3,14.49,4.13,16.42-.32,3.81,3.19,16-6.11,17.4-4.55.66-7.53.61-16-5.05-10.3-6.89-11-7.88-13.58-7.32"/></g><line class="cls-14" x1="271.43" y1="259.87" x2="272.58" y2="259.76"/></g></g></g><g id="Head_copy" data-name="Head copy"><rect id="head_bounding_box" data-name="head bounding box" class="cls-1" width="400" height="500"/></g></g></svg>