<svg xmlns="http://www.w3.org/2000/svg" viewBox="0 0 575 805"><defs><style>.cls-1{fill:#a74432;stroke:#000;stroke-miterlimit:10;}.cls-2{fill:none;}</style></defs><g id="Layer_2" data-name="Layer 2"><g id="Male_Poses" data-name="Male Poses"><g id="_4-Standing_Arms_Crossed" data-name="4-Standing/Arms Crossed"><path class="cls-1" d="M255.5,158a461.11,461.11,0,0,0,28.12,41.66c-20.75-7.23-40.5-13.86-53.59-18.72-8-3-19.07,19.17-13.33,25.52,9.32,10.33,78.1,48.16,115.82,46.2,10.4,2.48,20.18-6.67,19.5-16-1.3-17.64-47.62-118-54.55-128a30.2,30.2,0,0,0-7.38-7.46,47.32,47.32,0,0,0-5-2.87"/><path class="cls-1" d="M58.56,94c-3.12,1.74-6.47,3.24-9.26,5.79a29.9,29.9,0,0,0-6.39,8.33c-5.21,10-34.33,101.24-37.83,128.6a15.49,15.49,0,0,0,5.26,18.08c3.88,2.85,8.52,2.69,13,2.54,37.63-1.33,103-46.36,111.29-57.64,5.07-6.9-8.15-27.82-15.83-24.05C106,182,86.37,190.82,65.94,200.35A462.73,462.73,0,0,0,90.66,151.9"/></g><g id="Poses_Bounding_Box" data-name="Poses Bounding Box"><rect class="cls-2" width="575" height="805"/></g></g></g></svg>