<svg xmlns="http://www.w3.org/2000/svg" viewBox="0 0 575 805"><defs><style>.cls-1{fill:#a74432;stroke:#000;stroke-miterlimit:10;}.cls-2{fill:none;}</style></defs><g id="Layer_2" data-name="Layer 2"><g id="Male_Poses" data-name="Male Poses"><g id="_2-Standing_right_arm_extended_out" data-name="2-Standing/ right arm extended out"><path id="left_arm" data-name="left arm" class="cls-1" d="M54.79,95.63A30,30,0,0,0,40.2,115.56c-2.32,11-6,104.69-2.24,133.13-14,35.13-.62,112.2,6.11,124.35,4.14,7.49,28.67,4.24,28.46-4.31C71.9,342.79,73,293.06,71,256.44a33.3,33.3,0,0,0-.58-5.11c8.39-21.46,19.59-60.15,25.33-92.41"/><path id="right_arm" data-name="right arm" class="cls-1" d="M261.93,146a35.7,35.7,0,0,0,9,2.36c31.27,3.32,94.41-6.94,126.71-15.6,35.38,13.6,111.74.19,123.83-6.51,7.48-4.16,4.19-28.69-4.37-28.46-25.93.67-75.66-.32-112.28,1.71-1,0-1.81.12-2.61.21-26.38-6.63-122.58-12.41-133.88-11.18-.81.09-1.62.21-2.42.37"/></g><g id="Poses_Bounding_Box" data-name="Poses Bounding Box"><rect class="cls-2" width="575" height="805"/></g></g></g></svg>