<svg xmlns="http://www.w3.org/2000/svg" viewBox="0 0 575 805"><defs><style>.cls-1{fill:#a74432;stroke:#000;stroke-miterlimit:10;}.cls-2{fill:none;}</style></defs><g id="Layer_2" data-name="Layer 2"><g id="Male_Poses" data-name="Male Poses"><g id="_9-Sitting_right_arm_extended_out" data-name="9-Sitting/right arm extended out"><path class="cls-1" d="M261.93,146a35.7,35.7,0,0,0,9,2.36c31.27,3.32,94.41-6.94,126.71-15.6,35.38,13.6,111.74.19,123.83-6.51,7.48-4.16,4.19-28.69-4.37-28.46-25.93.67-75.66-.32-112.28,1.71-1,0-1.81.12-2.61.21-26.38-6.63-122.58-12.41-133.88-11.18-.81.09-1.62.21-2.42.37"/><path class="cls-1" d="M55.85,94.8A31.9,31.9,0,0,0,52,97.11a30,30,0,0,0-10.44,35.75c4.26,10.49,54.59,91.77,73.14,112.28,1.74,3.24,4.78,5.44,7.72,7.57,30.52,22,109.77,26.64,123.24,22.82,8.23-2.33,10.64-27,2.26-28.7-24.68-5.13-70.89-16.93-106.62-23.47A575.47,575.47,0,0,0,120.25,158c-1.31-3.4-2.65-6.76-4-10.05-1.79-4.33-3.6-8.54-5.43-12.59"/></g><g id="Poses_Bounding_Box" data-name="Poses Bounding Box"><rect class="cls-2" width="575" height="805"/></g></g></g></svg>