<svg xmlns="http://www.w3.org/2000/svg" viewBox="0 0 575 805"><defs><style>.cls-1{fill:#a74432;stroke:#000;stroke-miterlimit:10;}.cls-2{fill:none;}</style></defs><g id="Layer_2" data-name="Layer 2"><g id="Male_Poses" data-name="Male Poses"><g id="_1-Standing_Right_arm_raised" data-name="1-Standing/ Right arm raised"><path id="left_arm" data-name="left arm" class="cls-1" d="M54.79,95.63A30,30,0,0,0,40.2,115.56c-2.32,11-6,104.69-2.24,133.13-14,35.13-.62,112.2,6.11,124.35,4.14,7.49,28.67,4.24,28.46-4.31C71.9,342.79,73,293.06,71,256.44a33.3,33.3,0,0,0-.58-5.11c8.39-21.46,19.59-60.15,25.33-92.41"/><path id="right_arm" data-name="right arm" class="cls-1" d="M285.35,98.41a30.09,30.09,0,0,1,16.41,20.11c2.52,10.45,8.45,96.91,6.38,129.17.65,1,1.28,2.16,2,3.52,16.57,32.72,35.64,78.65,46.67,102.13,3.64,7.75-17.5,20.61-24.31,15.43-11-8.36-53.87-72.8-55.7-110.68-.08-.17-.17-.33-.25-.51-8.33-18.88-20-54.21-27.2-85.67"/></g><g id="Poses_Bounding_Box" data-name="Poses Bounding Box"><rect class="cls-2" width="575" height="805"/></g></g></g></svg>