<svg xmlns="http://www.w3.org/2000/svg" viewBox="0 0 575 805"><defs><style>.cls-1{fill:#a74432;stroke:#000;stroke-miterlimit:10;}.cls-2{fill:none;}</style></defs><g id="Layer_2" data-name="Layer 2"><g id="Male_Poses" data-name="Male Poses"><g id="_3-Standing_Arms_Forward" data-name="3-Standing/ Arms Forward"><path id="line" class="cls-1" d="M256,158.05c18.57,30.57,51.69,70.38,70.26,88.32,4.88,4.7,10.18,6,14.86,5.09,37.59,4.36,108.41-28.29,118.42-37.9,6.17-5.93-3.28-28.8-11.49-26.4-23,6.73-66.1,17.29-100,27.79-13.69-35-45.27-99-50.93-106.86a30,30,0,0,0-7.54-7.31,30.59,30.59,0,0,0-3.48-2,16,16,0,0,1-1.42-.77"/><path class="cls-1" d="M56,94.69c-.77.38-1.51.8-2.24,1.24a30,30,0,0,0-10.7,40c5.59,10.23,68.32,89.47,87.25,104.67,1.26,1.16,2.64,2.2,4,3.23,30.07,22.65,109.22,28.79,122.76,25.24,8.28-2.17,11.17-26.74,2.83-28.65-24.87-5.68-71.6-18.61-107.36-25.81-5.92-16-13-39.53-26.43-58.8C117.5,143.5,111.5,135.5,102.5,127.5"/></g><g id="Poses_Bounding_Box" data-name="Poses Bounding Box"><rect class="cls-2" width="575" height="805"/></g></g></g></svg>