<svg xmlns="http://www.w3.org/2000/svg" viewBox="0 0 575 805"><defs><style>.cls-1{fill:#a74432;stroke:#000;stroke-miterlimit:10;}.cls-2{fill:none;}</style></defs><g id="Layer_2" data-name="Layer 2"><g id="Male_Poses" data-name="Male Poses"><g id="_7-Sitting_right_arm_raised" data-name="7-Sitting/right arm raised"><path class="cls-1" d="M259,151.5C285.66,170,345.11,193,376.46,201.07c.24.15.48.3.74.43a14.85,14.85,0,0,0,8.94,1.15,16.34,16.34,0,0,0,4.55-.82c36.92-7.63,93.83-62.48,100.16-74.93,3.88-7.63-12.57-26.12-19.54-21.15-19.72,14.07-57.46,38.55-86.16,59.78C356.32,142.65,293.93,102,284.85,98"/><path class="cls-1" d="M55.85,94.8A31.9,31.9,0,0,0,52,97.11a30,30,0,0,0-10.44,35.75c4.26,10.49,54.59,91.77,73.14,112.28,1.74,3.24,4.78,5.44,7.72,7.57,30.52,22,109.77,26.64,123.24,22.82,8.23-2.33,10.64-27,2.26-28.7-24.68-5.13-70.89-16.93-106.62-23.47A575.47,575.47,0,0,0,120.25,158c-1.31-3.4-2.65-6.76-4-10.05-1.79-4.33-3.6-8.54-5.43-12.59"/></g><g id="Poses_Bounding_Box" data-name="Poses Bounding Box"><rect class="cls-2" width="575" height="805"/></g></g></g></svg>