<svg xmlns="http://www.w3.org/2000/svg" viewBox="0 0 575 805"><defs><style>.cls-1{fill:#a74432;stroke:#000;stroke-miterlimit:10;}.cls-2{fill:none;}</style></defs><g id="Layer_2" data-name="Layer 2"><g id="Male_Poses" data-name="Male Poses"><g id="_5-Standing_Left_Cross_Right_Arm_extended_out" data-name="5-Standing/Left Cross / Right Arm extended out"><path class="cls-1" d="M58.56,94c-3.12,1.74-6.47,3.24-9.26,5.79a29.9,29.9,0,0,0-6.39,8.33c-5.21,10-34.33,101.24-37.83,128.6a15.49,15.49,0,0,0,5.26,18.08c3.88,2.85,8.52,2.69,13,2.54,37.63-1.33,103-46.36,111.29-57.64,5.07-6.9-8.15-27.82-15.83-24.05C106,182,86.37,190.82,65.94,200.35A462.73,462.73,0,0,0,90.66,151.9"/><path class="cls-1" d="M264.5,146.5c3.29,1.31,3.9,1.57,6.46,1.84,31.27,3.32,94.41-6.94,126.71-15.6,35.38,13.6,111.74.19,123.83-6.51,7.48-4.16,4.19-28.69-4.37-28.46-25.93.67-75.66-.32-112.28,1.71-1,0-1.81.12-2.61.21-26.38-6.63-122.58-12.41-133.88-11.18-.81.09-1.62.21-2.42.37"/></g><g id="Poses_Bounding_Box" data-name="Poses Bounding Box"><rect class="cls-2" width="575" height="805"/></g></g></g></svg>