<svg xmlns="http://www.w3.org/2000/svg" xmlns:xlink="http://www.w3.org/1999/xlink" viewBox="0 0 91.85 305"><defs><style>.cls-1,.cls-11,.cls-2,.cls-4,.cls-5,.cls-9{fill:none;}.cls-2{stroke:#0071bc;stroke-width:3px;}.cls-10,.cls-11,.cls-12,.cls-2,.cls-4,.cls-5,.cls-6,.cls-8,.cls-9{stroke-miterlimit:10;}.cls-3{fill:#fdcc66;}.cls-4{stroke:#4899c3;stroke-width:2px;}.cls-10,.cls-12,.cls-5,.cls-6,.cls-9{stroke:#000;}.cls-6{fill:#cd9933;}.cls-7{fill:url(#New_Pattern);}.cls-8{fill:#039;stroke:#231f20;}.cls-9{stroke-width:5px;}.cls-11{stroke:#fbb03b;stroke-width:4px;}.cls-12{fill:#00cccb;}</style><pattern id="New_Pattern" data-name="New Pattern" width="9" height="10.41" patternTransform="translate(-34.45 -12.05) scale(1.57 1.59)" patternUnits="userSpaceOnUse" viewBox="0 0 9 10.41"><rect class="cls-1" width="9" height="10.41"/><polyline class="cls-2" points="8 7.7 13.96 2.43 19 7.7"/><polyline class="cls-2" points="-1 7.7 4.96 2.43 10 7.7"/><polyline class="cls-2" points="-10 7.7 -4.04 2.43 1 7.7"/></pattern></defs><g id="Layer_2" data-name="Layer 2"><g id="Hieroglyphics"><g id="EE_NFT" data-name="EE NFT"><g id="Section_1" data-name="Section 1"><rect class="cls-3" x="1" width="89.85" height="305" rx="7.02"/><line class="cls-4" x1="1" y1="299.23" x2="1" y2="1.65"/><line class="cls-4" x1="90.85" y1="299.23" x2="90.85" y2="1.65"/></g><g id="Horned_Viper" data-name="Horned Viper"><line class="cls-5" x1="21.67" y1="218.03" x2="17.55" y2="223.81"/><line class="cls-5" x1="16.72" y1="223.81" x2="13.43" y2="217.21"/><path class="cls-6" d="M82.26,234.07s-8.43-.46-11.13-1.2c-2.4-.65-6.64-3.58-9.07-4.12-4.43-1-13.64.16-18.13.83-4.29.63-13.2,2.18-17.31.82-2.43-.8-7.92-6.47-7.92-6.47a4.58,4.58,0,0,0-2.64-.81,11,11,0,0,0-3.45.33c-.92.13-1.33,1.51-.48,1.86,10.36,4.27,8.55,6.22,12.85,8.39,1.64.82,12.35.82,21.42.41,1.7-.08,9.69-1.27,14.84-.41,4.94.82,19.19.73,21,.47C82.32,234.16,82.32,234.07,82.26,234.07Z"/></g><rect class="cls-7" x="12.04" y="187.87" width="70.57" height="17.72"/><path class="cls-8" d="M83.43,284H12.54s0-26.79,35-27.2S83.43,284,83.43,284Z"/><g id="Cartouche"><rect class="cls-9" x="13.78" y="4.53" width="66.77" height="160.74" rx="33.39"/><path class="cls-10" d="M59.94,165.28V162H34.39v3.3c-13.19,2.83-22.26,2.34-22.26,3.11h0c0,.78.93,1.42,2.06,1.42h66c1.13,0,2.06-.64,2.06-1.42h0C82.2,167.62,71.48,168.11,59.94,165.28Z"/><line class="cls-11" x1="36.03" y1="161.98" x2="36.03" y2="169.4"/><line class="cls-11" x1="39.74" y1="161.98" x2="39.74" y2="169.4"/><line class="cls-11" x1="43.45" y1="161.98" x2="43.45" y2="169.4"/><line class="cls-11" x1="47.16" y1="161.98" x2="47.16" y2="169.4"/><line class="cls-11" x1="50.87" y1="161.98" x2="50.87" y2="169.4"/><line class="cls-11" x1="54.58" y1="161.98" x2="54.58" y2="169.4"/><line class="cls-11" x1="58.29" y1="161.98" x2="58.29" y2="169.4"/><path class="cls-12" d="M52.85,154.15s0-48.15,0-49.55c0-12.12-12.63-18.25-12.63-16.84,0,10.59-3.32,38.87-4.07,45.09a2.07,2.07,0,0,0,.87,1.93L48,142.49l.15,11.66Z"/><line class="cls-5" x1="36.41" y1="131.61" x2="48.34" y2="140.03"/><line class="cls-5" x1="36.59" y1="128.23" x2="48.69" y2="136.87"/><line class="cls-5" x1="37.3" y1="125.42" x2="48.52" y2="133.14"/><line class="cls-5" x1="37.3" y1="121.91" x2="48.52" y2="129.63"/><line class="cls-5" x1="38" y1="119.11" x2="48.69" y2="126.35"/><line class="cls-5" x1="38" y1="115.6" x2="48.69" y2="122.84"/><line class="cls-5" x1="38.7" y1="112.79" x2="48.69" y2="119.33"/><line class="cls-5" x1="38.7" y1="109.99" x2="48.69" y2="116.53"/><line class="cls-5" x1="38.86" y1="107.4" x2="48.69" y2="113.72"/><line class="cls-5" x1="39.4" y1="105.07" x2="48.69" y2="110.91"/><line class="cls-5" x1="39.4" y1="102.27" x2="48.69" y2="108.11"/><line class="cls-5" x1="39.57" y1="99.69" x2="47.99" y2="105.3"/><line class="cls-5" x1="40.1" y1="97.35" x2="47.99" y2="102.49"/><line class="cls-5" x1="40.1" y1="95.25" x2="47.28" y2="99.69"/><line class="cls-5" x1="40.1" y1="93.14" x2="46.58" y2="96.88"/><path class="cls-12" d="M53,82.83s0-48.14,0-49.55C53,21.17,40.41,15,40.41,16.44c0,10.59-3.31,38.87-4.06,45.09a2,2,0,0,0,.86,1.93l10.92,7.71.16,11.66Z"/><line class="cls-5" x1="36.55" y1="60.3" x2="48.48" y2="68.72"/><line class="cls-5" x1="36.74" y1="56.91" x2="48.83" y2="65.56"/><line class="cls-5" x1="37.44" y1="54.11" x2="48.67" y2="61.83"/><line class="cls-5" x1="37.44" y1="50.6" x2="48.67" y2="58.32"/><line class="cls-5" x1="38.14" y1="47.79" x2="48.83" y2="55.03"/><line class="cls-5" x1="38.14" y1="44.28" x2="48.83" y2="51.53"/><line class="cls-5" x1="38.85" y1="41.48" x2="48.83" y2="48.02"/><line class="cls-5" x1="38.85" y1="38.67" x2="48.83" y2="45.21"/><line class="cls-5" x1="39.01" y1="36.09" x2="48.83" y2="42.4"/><line class="cls-5" x1="39.55" y1="33.76" x2="48.83" y2="39.6"/><line class="cls-5" x1="39.55" y1="30.95" x2="48.83" y2="36.79"/><line class="cls-5" x1="39.71" y1="28.37" x2="48.13" y2="33.98"/><line class="cls-5" x1="40.25" y1="26.04" x2="48.13" y2="31.18"/><line class="cls-5" x1="40.25" y1="23.93" x2="47.43" y2="28.37"/><line class="cls-5" x1="40.25" y1="21.83" x2="46.73" y2="25.56"/></g></g></g></g></svg>