<svg xmlns="http://www.w3.org/2000/svg" xmlns:xlink="http://www.w3.org/1999/xlink" viewBox="0 0 568.79 1053.46"><defs><style>.cls-1{fill:none;}.cls-2{clip-path:url(#clip-path);}.cls-3{fill:#fdfd99;}</style><clipPath id="clip-path"><path class="cls-1" d="M229.37,556l71.26-304.55a1.41,1.41,0,0,0-.59-1.49c-3.69-2.47-11.28-8.53-20.67-21.41-6-8.25-7.27-16.09-3.84-24l.3-.68c2.39-5.53,5.1-11.8,17.52-19.22,12.89-7.71,22.94-4.72,27.24-3.45l.28.08c3.31,1,8.47,4.17,14.25,13.81,4.4,7.31,1.72,15.2-1.37,24.34a105.8,105.8,0,0,0-4.18,14.68c-.09.47-.23,1-.38,1.52-.63,2.24-1.07,3.86,1.6,6l-3.17,3.87c-5.2-4.25-3.93-8.81-3.25-11.25.11-.4.22-.77.29-1.11A113.72,113.72,0,0,1,329,217.82c2.81-8.28,5-14.83,1.83-20.16-5.41-9-9.77-11.1-11.39-11.58l-.28-.09c-4.28-1.26-12.25-3.63-23.26,2.95s-13.2,11.61-15.49,16.91l-.3.69c-2.74,6.28-1.72,12.15,3.29,19,8.93,12.26,16,17.92,19.41,20.2a6.43,6.43,0,0,1,2.67,6.79L234.24,557.1Z"/></clipPath></defs><g id="Layer_2" data-name="Layer 2"><g id="Items_Left" data-name="Items Left"><g id="Item_Bounding_Box_RIGHT-pose2_3_5_7_9_10_copy_2" data-name="Item Bounding Box RIGHT-pose2/3/5/7/9/10 copy 2"><g id="Crook_experiment" data-name="Crook experiment"><g class="cls-2"><rect x="326.43" y="240.1" width="5" height="6" transform="translate(-76.23 187.1) rotate(-28.6)"/><rect class="cls-3" x="323.56" y="234.84" width="5" height="6" transform="translate(-74.06 185.08) rotate(-28.6)"/><rect x="324.76" y="230.11" width="5" height="6" transform="translate(75.9 -80.35) rotate(15.81)"/><rect class="cls-3" x="326.4" y="224.34" width="5" height="6" transform="translate(74.39 -81.02) rotate(15.81)"/><rect x="327.71" y="219.72" width="5" height="6" transform="translate(73.18 -81.55) rotate(15.81)"/><rect class="cls-3" x="329.34" y="213.94" width="5" height="6" transform="translate(71.67 -82.21) rotate(15.81)"/><rect x="330.63" y="209.32" width="5" height="6" transform="translate(69.58 -81.95) rotate(15.64)"/><rect class="cls-3" x="332.25" y="203.54" width="5" height="6" transform="translate(68.08 -82.6) rotate(15.64)"/><rect x="331.39" y="198.8" width="5" height="6" transform="translate(-28.64 57.64) rotate(-9.46)"/><rect class="cls-3" x="330.4" y="192.89" width="5" height="6" transform="translate(-27.68 57.4) rotate(-9.46)"/><rect x="327.18" y="189.23" width="5" height="6" transform="translate(-47.96 247.3) rotate(-38.54)"/><rect class="cls-3" x="323.44" y="184.54" width="5" height="6" transform="translate(-45.85 243.95) rotate(-38.54)"/><rect x="319.81" y="181.19" width="5" height="6" transform="translate(68.81 455.39) rotate(-76.68)"/><rect class="cls-3" x="313.97" y="179.81" width="5" height="6" transform="translate(65.66 448.64) rotate(-76.68)"/><rect x="309.23" y="179.36" width="5" height="6" transform="translate(134.88 497.25) rotate(-91.01)"/><rect class="cls-3" x="303.23" y="179.47" width="5" height="6" transform="translate(128.67 491.36) rotate(-91.01)"/><rect x="298.76" y="181.22" width="5" height="6" transform="translate(238.88 531.78) rotate(-111.27)"/><rect class="cls-3" x="293.17" y="183.39" width="5" height="6" transform="translate(229.23 529.54) rotate(-111.27)"/><rect x="289.29" y="186.15" width="5" height="6" transform="translate(332.25 534.52) rotate(-129.63)"/><rect class="cls-3" x="284.67" y="189.98" width="5" height="6" transform="translate(321.73 537.23) rotate(-129.63)"/><rect x="280.63" y="192.75" width="5" height="6" transform="translate(438.79 502.76) rotate(-151.55)"/><rect class="cls-3" x="277.77" y="198.03" width="5" height="6" transform="translate(430.91 511.31) rotate(-151.55)"/><rect x="275.36" y="202.21" width="5" height="6" transform="translate(534 436.95) rotate(-174.31)"/><rect class="cls-3" x="274.76" y="208.18" width="5" height="6" transform="translate(532.23 448.8) rotate(-174.31)"/><rect x="273.49" y="213.1" width="5" height="6" transform="translate(619.14 287.58) rotate(153.7)"/><rect class="cls-3" x="276.14" y="218.48" width="5" height="6" transform="translate(626.57 296.6) rotate(153.7)"/><rect x="277.98" y="222.97" width="5" height="6" transform="translate(640.53 215.97) rotate(139.55)"/><rect class="cls-3" x="281.88" y="227.54" width="5" height="6" transform="translate(650.35 221.48) rotate(139.55)"/><rect x="284.99" y="231.19" width="5" height="6" transform="translate(658.2 225.9) rotate(139.55)"/><rect class="cls-3" x="288.88" y="235.76" width="5" height="6" transform="translate(668.02 231.41) rotate(139.55)"/><rect x="292.17" y="239.23" width="5" height="6" transform="translate(669.3 170.35) rotate(129.72)"/><rect class="cls-3" x="296.79" y="243.06" width="5" height="6" transform="translate(679.81 173.08) rotate(129.72)"/><rect x="300.21" y="246.54" width="5" height="6" transform="translate(622.68 476.55) rotate(175.85)"/><rect class="cls-3" x="300.65" y="252.53" width="5" height="6" transform="translate(623.97 488.47) rotate(175.85)"/><rect x="298.65" y="257.13" width="5" height="6" transform="translate(535.13 582.03) rotate(-166.83)"/><rect class="cls-3" x="297.29" y="262.97" width="5" height="6" transform="translate(531.1 593.25) rotate(-166.83)"/><rect x="296.19" y="267.65" width="5" height="6" transform="translate(527.88 602.22) rotate(-166.83)"/><rect class="cls-3" x="294.83" y="273.49" width="5" height="6" transform="translate(523.85 613.44) rotate(-166.83)"/><rect x="293.73" y="278.16" width="5" height="6" transform="translate(520.62 622.42) rotate(-166.83)"/><rect class="cls-3" x="292.37" y="284" width="5" height="6" transform="translate(516.6 633.64) rotate(-166.83)"/><rect x="291.27" y="288.68" width="5" height="6" transform="translate(513.37 642.61) rotate(-166.83)"/><rect class="cls-3" x="289.91" y="294.52" width="5" height="6" transform="translate(509.34 653.83) rotate(-166.83)"/><rect x="288.81" y="299.19" width="5" height="6" transform="translate(506.12 662.81) rotate(-166.83)"/><rect class="cls-3" x="287.45" y="305.04" width="5" height="6" transform="translate(502.09 674.03) rotate(-166.83)"/><rect x="286.35" y="309.71" width="5" height="6" transform="translate(498.87 683) rotate(-166.83)"/><rect class="cls-3" x="284.99" y="315.55" width="5" height="6" transform="translate(494.84 694.22) rotate(-166.83)"/><rect x="283.89" y="320.23" width="5" height="6" transform="translate(491.62 703.2) rotate(-166.83)"/><rect class="cls-3" x="282.52" y="326.07" width="5" height="6" transform="translate(487.59 714.42) rotate(-166.83)"/><rect x="281.43" y="330.74" width="5" height="6" transform="translate(484.37 723.39) rotate(-166.83)"/><rect class="cls-3" x="280.06" y="336.58" width="5" height="6" transform="translate(480.34 734.61) rotate(-166.83)"/><rect x="278.97" y="341.26" width="5" height="6" transform="translate(477.11 743.59) rotate(-166.83)"/><rect class="cls-3" x="277.6" y="347.1" width="5" height="6" transform="translate(473.09 754.81) rotate(-166.83)"/><rect x="276.51" y="351.77" width="5" height="6" transform="translate(469.86 763.78) rotate(-166.83)"/><rect class="cls-3" x="275.14" y="357.62" width="5" height="6" transform="translate(465.83 775) rotate(-166.83)"/><rect x="274.05" y="362.29" width="5" height="6" transform="translate(462.61 783.98) rotate(-166.83)"/><rect class="cls-3" x="272.68" y="368.13" width="5" height="6" transform="translate(458.58 795.2) rotate(-166.83)"/><rect x="271.59" y="372.81" width="5" height="6" transform="translate(455.36 804.17) rotate(-166.83)"/><rect class="cls-3" x="270.22" y="378.65" width="5" height="6" transform="translate(451.33 815.39) rotate(-166.83)"/><rect x="269.13" y="383.32" width="5" height="6" transform="translate(448.11 824.37) rotate(-166.83)"/><rect class="cls-3" x="267.76" y="389.16" width="5" height="6" transform="translate(444.08 835.59) rotate(-166.83)"/><rect x="266.67" y="393.84" width="5" height="6" transform="translate(440.86 844.56) rotate(-166.83)"/><rect class="cls-3" x="265.3" y="399.68" width="5" height="6" transform="translate(436.83 855.78) rotate(-166.83)"/><rect x="264.21" y="404.35" width="5" height="6" transform="translate(433.6 864.76) rotate(-166.83)"/><rect class="cls-3" x="262.84" y="410.2" width="5" height="6" transform="translate(429.58 875.98) rotate(-166.83)"/><rect x="261.75" y="414.87" width="5" height="6" transform="translate(426.35 884.95) rotate(-166.83)"/><rect class="cls-3" x="260.38" y="420.71" width="5" height="6" transform="translate(422.32 896.17) rotate(-166.83)"/><rect x="259.29" y="425.39" width="5" height="6" transform="translate(419.1 905.15) rotate(-166.83)"/><rect class="cls-3" x="257.92" y="431.23" width="5" height="6" transform="translate(415.07 916.37) rotate(-166.83)"/><rect x="256.83" y="435.9" width="5" height="6" transform="translate(411.85 925.34) rotate(-166.83)"/><rect class="cls-3" x="255.46" y="441.74" width="5" height="6" transform="translate(407.82 936.56) rotate(-166.83)"/><rect x="254.37" y="446.42" width="5" height="6" transform="translate(404.6 945.54) rotate(-166.83)"/><rect class="cls-3" x="253" y="452.26" width="5" height="6" transform="translate(400.57 956.76) rotate(-166.83)"/><rect x="251.91" y="456.93" width="5" height="6" transform="translate(397.35 965.73) rotate(-166.83)"/><rect class="cls-3" x="250.54" y="462.78" width="5" height="6" transform="translate(393.32 976.95) rotate(-166.83)"/><rect x="249.45" y="467.45" width="5" height="6" transform="translate(390.09 985.93) rotate(-166.83)"/><rect class="cls-3" x="248.08" y="473.29" width="5" height="6" transform="translate(386.07 997.15) rotate(-166.83)"/><rect x="246.99" y="477.97" width="5" height="6" transform="translate(382.84 1006.12) rotate(-166.83)"/><rect class="cls-3" x="245.62" y="483.81" width="5" height="6" transform="translate(378.81 1017.34) rotate(-166.83)"/><rect x="244.53" y="488.48" width="5" height="6" transform="translate(375.59 1026.32) rotate(-166.83)"/><rect class="cls-3" x="243.16" y="494.32" width="5" height="6" transform="translate(371.56 1037.54) rotate(-166.83)"/><rect x="242.07" y="499" width="5" height="6" transform="translate(368.34 1046.51) rotate(-166.83)"/><rect class="cls-3" x="240.7" y="504.84" width="5" height="6" transform="translate(364.31 1057.73) rotate(-166.83)"/><rect x="239.61" y="509.51" width="5" height="6" transform="translate(361.09 1066.71) rotate(-166.83)"/><rect class="cls-3" x="238.24" y="515.36" width="5" height="6" transform="translate(357.06 1077.93) rotate(-166.83)"/><rect x="237.14" y="520.03" width="5" height="6" transform="translate(353.84 1086.9) rotate(-166.83)"/><rect class="cls-3" x="235.78" y="525.87" width="5" height="6" transform="translate(349.81 1098.12) rotate(-166.83)"/><rect x="234.68" y="530.55" width="5" height="6" transform="translate(346.58 1107.1) rotate(-166.83)"/><rect class="cls-3" x="233.32" y="536.39" width="5" height="6" transform="translate(342.55 1118.32) rotate(-166.83)"/><rect x="232.22" y="541.06" width="5" height="6" transform="translate(339.33 1127.29) rotate(-166.83)"/><rect class="cls-3" x="230.86" y="546.9" width="5" height="6" transform="translate(335.3 1138.51) rotate(-166.83)"/><rect x="229.76" y="551.58" width="5" height="6" transform="translate(332.08 1147.49) rotate(-166.83)"/><rect class="cls-3" x="228.4" y="557.42" width="5" height="6" transform="translate(328.05 1158.71) rotate(-166.83)"/></g></g><rect id="Item_Bounding_Box" data-name="Item Bounding Box" class="cls-1" x="109.39" y="26.73" width="350" height="1000" transform="translate(127.59 -50.97) rotate(13.18)"/></g></g></g></svg>