<svg xmlns="http://www.w3.org/2000/svg" viewBox="0 0 568.79 1053.46"><defs><style>.cls-1{fill:#7c001a;}.cls-1,.cls-2{stroke:#161616;stroke-miterlimit:10;}.cls-2,.cls-3{fill:none;}</style></defs><g id="Layer_2" data-name="Layer 2"><g id="Items_Left" data-name="Items Left"><g id="Item_Bounding_Box_RIGHT-pose2_3_5_7_9_10_copy_2" data-name="Item Bounding Box RIGHT-pose2/3/5/7/9/10 copy 2"><g id="Knife"><path id="knife-2" data-name="knife" class="cls-1" d="M260.82,427.76l15.54-7s-9.18-2.18-.67-37.06c1.31-5.38,6.42-16.36,10.91-19.61,7.62-5.51,29.08-6.82,34.82-14.27,27.28-35.35,44.2-105.56,41.37-127.53-.13-1-1-1.62-1.56-.73,0,0-23.63,60-65,109.81-7.38,8.88-22.21,28.43-26.34,39.94-1.34,3.75-1.36,12.4-3.39,15.94C259.52,399.53,260.82,427.76,260.82,427.76Z"/><path id="knife_line" data-name="knife line" class="cls-2" d="M281.36,370.66c2.32-19.9,44.93-49.4,63-101.31"/></g><rect id="Item_Bounding_Box" data-name="Item Bounding Box" class="cls-3" x="109.39" y="26.73" width="350" height="1000" transform="translate(127.59 -50.97) rotate(13.18)"/></g></g></g></svg>