<svg xmlns="http://www.w3.org/2000/svg" viewBox="0 0 568.79 1053.46"><defs><style>.cls-1{fill:#f4df9c;stroke:#000;stroke-miterlimit:10;}.cls-2{fill:none;}</style></defs><g id="Layer_2" data-name="Layer 2"><g id="Items_Left" data-name="Items Left"><g id="Item_Bounding_Box_RIGHT-pose2_3_5_7_9_10_copy_2" data-name="Item Bounding Box RIGHT-pose2/3/5/7/9/10 copy 2"><g id="Sekhem_Scepter_copy_7" data-name="Sekhem Scepter copy 7"><path id="sekhem_scepter_outline" data-name="sekhem scepter outline" class="cls-1" d="M267,445.12a.37.37,0,0,0,.36-.6c-.93-1.1-2.06-3.32-1.7-7.37.08-.85.25-3.38.33-4.75a6.41,6.41,0,0,0-.14-1.8h0a1.09,1.09,0,0,1,.63-1.23,1.41,1.41,0,0,0,.76-.95l1.08-4.6a1.93,1.93,0,0,0-1.42-2.33l-.5-.11L293,307.75a.64.64,0,0,1,.45-.48,7.28,7.28,0,0,0,2.24-1c2-1.57,4.06-7,6.32-9.8a33,33,0,0,1,7.94-5.31c2.16-.69,4.81-2,8.22-2.18.93-.06,2.74.65,3.57.5.51-.1,1.32-1.91,1.22-2.38-.18-.86-1.85-1.88-1.92-1.82s2.75-41.35,6.18-60.73c2.07-11.62,10.54-47.77,14.93-63.46.95-3.38,4.18-13.39,4.18-13.39a2.78,2.78,0,0,0-2-3.38l-13.55-3.17-17.13-4a2.77,2.77,0,0,0-3.31,2.12s-1.55,10.41-2.2,13.85c-3,16-11.49,52.17-14.8,63.5-5.53,18.89-21.43,57.16-21.43,57.16a3.9,3.9,0,0,0-2.53.78c-.29.38-.37,2.36.05,2.67.67.51,2.61.67,3.42,1.14,2.94,1.72,4.77,4,6.39,5.6a32.92,32.92,0,0,1,4.76,8.29c.8,3.48.18,9.27,1.31,11.58a7.21,7.21,0,0,0,1.56,1.9.61.61,0,0,1,.19.63L260.45,420l-.5-.12a1.93,1.93,0,0,0-2.3,1.46l-1.07,4.6a1.39,1.39,0,0,0,.25,1.19,1.07,1.07,0,0,1,0,1.38h0a6.22,6.22,0,0,0-.92,1.55c-.54,1.27-1.51,3.6-1.82,4.4-1.53,3.95-3.63,5.39-4.94,5.91a.32.32,0,0,0,.05.6Z"/></g><rect id="Item_Bounding_Box" data-name="Item Bounding Box" class="cls-2" x="109.39" y="26.73" width="350" height="1000" transform="translate(127.59 -50.97) rotate(13.18)"/></g></g></g></svg>