<svg xmlns="http://www.w3.org/2000/svg" viewBox="0 0 575 805"><defs><style>.cls-1{fill:#a74432;stroke:#000;stroke-miterlimit:10;}.cls-2{fill:none;}</style></defs><g id="Layer_2" data-name="Layer 2"><g id="Male_Poses" data-name="Male Poses"><g id="_6-Sitting_Arms_Crossed" data-name="6-Sitting/Arms Crossed"><path class="cls-1" d="M541.13,642.48c-13,0-13.62-1.24-16-2-60-19-69-26-69.47-39.08a18.47,18.47,0,0,0-.29-2.6c-1.18-36.28-6-119.34-7.94-154.2-.43-7.58-.73-68.88-.83-70.92a39.9,39.9,0,0,0-1-6.92h0c-1.19-9.4-6.91-18.53-17.39-23.67-6.11-3-133-41.52-199.47-61.6-1.08-10.74-.79-20.74-.26-34,1-25,5-37.39,11-53,3.57-9.27,9.17-21.6,16.08-35.53,2.78-5.59,11.77,5.55,14.92-.47,20.72-39.56,22.72-55,15-60-7-4.5-26.23-15.08-59-20-6.18-.93-14-1.57-21.92-2-3.19,8.35-6.56,11.56-12.08,15-9,5.63-25.33,10.48-40,0-7-5-11-12-11-15,0-.14.07-.27.11-.4-10.42.42-21.78,1.15-30.11,2.4-32.77,4.92-60.65,15.46-58,20,5.18,8.87,10.12,45.44,24,65L91,151.89q3.12,4.53,6.55,9.61c8.2,12.14,13,30,17,41,5.72,15.72,9.45,29.65,10,46,.6,18-8.46,32.67-10,36-7,15.15-10.58,32.67-10,48.22A65.05,65.05,0,0,0,137.32,388l.08,0c.84.48,1.7.93,2.56,1.37l.34.18c.76.38,1.55.74,2.33,1.09l.67.32c.68.3,1.38.57,2.07.85.34.13.67.28,1,.41h0l1.16.42.71.25,1,.34.88.29.83.25,1.08.31.62.17,1.29.34.5.11,1.42.33.31.06,1.61.32.15,0a64.53,64.53,0,0,0,18.89.6c19.73-2.27,149.65-.48,209.61,1.64h0c-7.55,33.27,1.86,79.1,5.61,95.21,7,30,23.67,67.47,27.86,105.16a17.39,17.39,0,0,0-.33,3.25c0,3.66-8.54,25.49-8.57,44.49,0,5.1,2.26,9,8,9l123,.2h4C547,655.05,559.13,642.48,541.13,642.48Z"/></g><g id="Poses_Bounding_Box" data-name="Poses Bounding Box"><g id="box"><rect class="cls-2" width="575" height="805"/></g></g></g></g></svg>