<svg xmlns="http://www.w3.org/2000/svg" viewBox="0 0 575 805"><defs><style>.cls-1{fill:#a74432;stroke:#000;stroke-miterlimit:10;}.cls-2{fill:none;}</style></defs><g id="Layer_2" data-name="Layer 2"><g id="Male_Poses" data-name="Male Poses"><g id="_4-Standing_Arms_Crossed" data-name="4-Standing/Arms Crossed"><path class="cls-1" d="M362.46,789.12c-13,0-13.61-1.25-16-2-60-19-69-26-69.46-39.09a17.64,17.64,0,0,0-.34-2.84c-1.64-36.31-7.46-119.21-9.89-154-.52-7.58-.89-12.87-1-14.91,0-.47-.06-.93-.11-1.4.11-1,.19-2,.22-3,.26-8.65-27.86-218.49-31.46-245.42-.1-10.28-1.72-21.35-3.9-33-3-16-2.72-28-2-46,1-25,5-37.39,11-53,3.59-9.34,9.24-21.77,16.22-35.81,2.74-5.51,11.68,7.73,14.78,1.81,20.72-39.56,33-52,15-62-7.27-4-26.23-15.08-59-20-6.18-.93-14-1.57-21.92-2-3.19,8.35-6.56,11.56-12.08,15-9,5.63-25.33,10.48-40,0-7-5-11-12-11-15,0-.14.07-.27.11-.4-10.42.42-21.78,1.15-30.11,2.4-26.55,4-47,11.38-54.75,16.69-1.81,1.24-3.92,10.37-4.25,11.31-8.26,23.87,21,32,38.81,46.61,2.55,2.09,4.14,5.35,6.19,8.39,8.2,12.14,13,30,17,41,5.72,15.72,9.45,29.65,10,46,.6,18-8.46,32.67-10,36-7,15.08-10.55,32.51-10,48,0,.2,0,.39,0,.59.59,23.49-18.28,200.18-23.76,233.25,0,.24-.06.47-.1.7l-.42,1S68,586.6,65.45,631.45c-1.75,31.19,3.93,72.59-3.1,110.38a16.85,16.85,0,0,0-1.3,6.27c-.47,2.07-1,4.13-1.53,6.17a3.07,3.07,0,0,0-.1.91c-2.48,8.76-6.93,24-7,37.66,0,5.1,2.26,9,8,9l125,.2c1,0,13.05-12.56-4.95-12.56-13,0-13.62-1.25-16-2C106.07,769,96,761.87,95.09,749.43c9.54-35.82,28.64-114.93,36.74-148.39,1.65-6.85,2.85-11.78,3.41-14,3.69-7.67,19.95-47.18,38-91.39,15.15,35.06,28.61,67.09,34.05,81.36-1.13,5.75-3.94,26.69,5.44,63.25,7.75,30.25,25.67,68,30.39,106.13-.05.53-.08,1.07-.08,1.62,0,3.66-8.54,25.49-8.57,44.49,0,5.1,2.25,9,8,9l125,.2C368.37,801.68,380.46,789.12,362.46,789.12Z"/></g><g id="Poses_Bounding_Box" data-name="Poses Bounding Box"><rect class="cls-2" width="575" height="805"/></g></g></g></svg>