<svg xmlns="http://www.w3.org/2000/svg" viewBox="0 0 575 805"><defs><style>.cls-1,.cls-2,.cls-3{fill:#a74432;}.cls-2{stroke:#161616;}.cls-2,.cls-3{stroke-miterlimit:10;}.cls-3{stroke:#000;}.cls-4{fill:none;}</style></defs><g id="Layer_2" data-name="Layer 2"><g id="Male_Poses" data-name="Male Poses"><g id="_2-Standing_right_arm_extended_out" data-name="2-Standing/ right arm extended out"><g id="armless_body" data-name="armless body"><path id="body" class="cls-1" d="M266.25,88.89A180.59,180.59,0,0,0,226.5,78.5c-6.18-.93-14-1.57-21.92-2-3.19,8.35-6.56,11.56-12.08,15-9,5.63-25.33,10.48-40,0-7-5-11-12-11-15,0-.14.07-.27.11-.4-10.42.42-21.78,1.15-30.11,2.4-27,4.06-50.75,12-56.71,17.13l41,63.29c.58.85,1.16,1.7,1.75,2.58,8.2,12.14,13,30,17,41,5.72,15.72,9.45,29.65,10,46,.6,18-8.46,32.67-10,36-7,15.08-10.55,32.51-10,48,0,.2,0,.39,0,.59.59,23.49-18.28,200.18-23.76,233.25,0,.24-.06.47-.1.7l-.42,1S68,586.6,65.45,631.45c-1.75,31.19,3.93,72.59-3.1,110.39a16.75,16.75,0,0,0-1.3,6.26c-.47,2.07-1,4.13-1.53,6.17a3.07,3.07,0,0,0-.1.91c-2.48,8.76-6.93,24-7,37.66,0,5.1,2.26,9,8,9l125,.2c1,0,13.05-12.56-4.95-12.56-13,0-13.62-1.25-16-2C106.07,769,96,761.87,95.09,749.43c9.54-35.82,28.64-114.93,36.74-148.39,1.65-6.85,2.85-11.78,3.41-14,3.69-7.66,19.95-47.18,38-91.39,15.15,35.06,28.61,67.09,34.05,81.36-1.13,5.75-3.94,26.69,5.44,63.25,7.75,30.25,25.67,68,30.39,106.13-.05.53-.08,1.07-.08,1.62,0,3.66-8.54,25.49-8.57,44.49,0,5.1,2.25,9,8,9l125,.2c1,0,13-12.55-5-12.55-13,0-13.61-1.25-16-2-60-19-69-26-69.46-39.09a17.9,17.9,0,0,0-.34-2.85c-1.64-36.3-7.46-119.2-9.89-154-.52-7.58-.89-12.87-1-14.91,0-.47-.06-.93-.11-1.4.11-1,.19-2,.22-3,.26-8.65-27.86-218.49-31.46-245.42-.1-10.28-1.72-21.35-3.9-33-3-16-2.72-28-2-46,1-25,5-37.39,11-53,2.41-6.28,5.77-14,9.82-22.59,6.18-13.41,10.18-19.41,13.18-25.41"/><path id="body-2" data-name="body" class="cls-2" d="M95.75,158.92c.58.85,1.16,1.7,1.75,2.58,8.2,12.14,13,30,17,41,5.72,15.72,9.45,29.65,10,46,.6,18-8.46,32.67-10,36-7,15.08-10.55,32.51-10,48,0,.2,0,.39,0,.59.59,23.49-18.28,200.18-23.76,233.25,0,.24-.06.47-.1.7l-.42,1S68,586.6,65.45,631.45c-1.75,31.19,3.93,72.59-3.1,110.39a16.75,16.75,0,0,0-1.3,6.26c-.47,2.07-1,4.13-1.53,6.17a3.07,3.07,0,0,0-.1.91c-2.48,8.76-6.93,24-7,37.66,0,5.1,2.26,9,8,9l125,.2c1,0,13.05-12.56-4.95-12.56-13,0-13.62-1.25-16-2C106.07,769,96,761.87,95.09,749.43c9.54-35.82,28.64-114.93,36.74-148.39,1.65-6.85,2.85-11.78,3.41-14,3.69-7.66,19.95-47.18,38-91.39,15.15,35.06,28.61,67.09,34.05,81.36-1.13,5.75-3.94,26.69,5.44,63.25,7.75,30.25,25.67,68,30.39,106.13-.05.53-.08,1.07-.08,1.62,0,3.66-8.54,25.49-8.57,44.49,0,5.1,2.25,9,8,9l125,.2c1,0,13-12.55-5-12.55-13,0-13.61-1.25-16-2-60-19-69-26-69.46-39.09a17.9,17.9,0,0,0-.34-2.85c-1.64-36.3-7.46-119.2-9.89-154-.52-7.58-.89-12.87-1-14.91,0-.47-.06-.93-.11-1.4.11-1,.19-2,.22-3,.26-8.65-27.86-218.49-31.46-245.42-.1-10.28-1.72-21.35-3.9-33-3-16-2.72-28-2-46,1-25,5-37.39,11-53,2.41-6.28,5.77-14,9.82-22.59,6.18-13.41,10.18-19.41,13.18-25.41"/><path id="body-3" data-name="body" class="cls-3" d="M266.25,88.89A180.59,180.59,0,0,0,226.5,78.5c-6.18-.93-14-1.57-21.92-2-3.19,8.35-6.56,11.56-12.08,15-9,5.63-25.33,10.48-40,0-7-5-11-12-11-15,0-.14.07-.27.11-.4-10.42.42-21.78,1.15-30.11,2.4-27,4.06-50.75,12-56.71,17.13"/></g></g><g id="Poses_Bounding_Box" data-name="Poses Bounding Box"><rect class="cls-4" width="575" height="805"/></g></g></g></svg>