<svg xmlns="http://www.w3.org/2000/svg" viewBox="0 0 575 805"><defs><style>.cls-1,.cls-2{fill:#a74432;}.cls-2{stroke:#000;stroke-miterlimit:10;}.cls-3{fill:none;}</style></defs><g id="Layer_2" data-name="Layer 2"><g id="Male_Poses" data-name="Male Poses"><g id="_1-Standing_Right_arm_raised" data-name="1-Standing/ Right arm raised"><g id="armless_body" data-name="armless body"><path id="body" class="cls-1" d="M285.35,98.41c-7.11-4.55-26.3-15-58.85-19.91-6.18-.93-14-1.57-21.92-2-3.19,8.35-6.56,11.56-12.08,15-9,5.63-25.33,10.48-40,0-7-5-11-12-11-15,0-.14.07-.27.11-.4-10.42.42-21.78,1.15-30.11,2.4-27,4.06-50.75,12-56.71,17.13l41,63.29c.58.85,1.16,1.7,1.75,2.58,8.2,12.14,13,30,17,41,5.72,15.72,9.45,29.65,10,46,.6,18-8.46,32.67-10,36-7,15.08-10.55,32.51-10,48,0,.2,0,.39,0,.59.59,23.49-18.28,200.18-23.76,233.25,0,.24-.06.47-.1.7l-.42,1S68,586.6,65.45,631.45c-1.75,31.19,3.93,72.59-3.1,110.39a16.75,16.75,0,0,0-1.3,6.26c-.47,2.07-1,4.13-1.53,6.17a3.07,3.07,0,0,0-.1.91c-2.48,8.76-6.93,24-7,37.66,0,5.1,2.26,9,8,9l125,.2c1,0,13.05-12.56-4.95-12.56-13,0-13.62-1.25-16-2C106.07,769,96,761.87,95.09,749.43c9.54-35.82,28.64-114.93,36.74-148.39,1.65-6.85,2.85-11.78,3.41-14,3.69-7.66,19.95-47.18,38-91.39,15.15,35.06,28.61,67.09,34.05,81.36-1.13,5.75-3.94,26.69,5.44,63.25,7.75,30.25,25.67,68,30.39,106.13-.05.53-.08,1.07-.08,1.62,0,3.66-8.54,25.49-8.57,44.49,0,5.1,2.25,9,8,9l125,.2c1,0,13-12.55-5-12.55-13,0-13.61-1.25-16-2-60-19-69-26-69.46-39.09a17.9,17.9,0,0,0-.34-2.85c-1.64-36.3-7.46-119.2-9.89-154-.52-7.58-.89-12.87-1-14.91,0-.47-.06-.93-.11-1.4.11-1,.19-2,.22-3,.26-8.65-27.86-218.49-31.46-245.42-.1-10.28-1.72-21.35-3.9-33-3-16-2.72-28-2-46,1-25,5-37.39,11-53,2.41-6.28,5.77-14,9.82-22.59Z"/><path id="body-2" data-name="body" class="cls-2" d="M94.33,159.17a2.22,2.22,0,0,1,2.23.94l.94,1.39c8.2,12.14,13,30,17,41,5.72,15.72,9.45,29.65,10,46,.6,18-8.46,32.67-10,36-7,15.08-10.55,32.51-10,48,0,.2,0,.39,0,.59.59,23.49-18.28,200.18-23.76,233.25,0,.24-.06.47-.1.7l-.42,1S68,586.6,65.45,631.45c-1.75,31.14,3.91,72.46-3.07,110.21a1.91,1.91,0,0,1-.1.34,17,17,0,0,0-1.23,5.93,1.27,1.27,0,0,1,0,.34c-.46,2-.95,4-1.49,6a3.07,3.07,0,0,0-.1.91c-2.48,8.76-6.93,24-7,37.66,0,5.1,2.26,9,8,9l125,.2c1,0,13.05-12.56-4.95-12.56-13,0-13.62-1.25-16-2-57.91-18.34-68.31-25.5-69.38-37.74a1.78,1.78,0,0,1,.06-.65c9.56-36,28.57-114.71,36.65-148.07,1.61-6.68,2.79-11.54,3.37-13.87a1.31,1.31,0,0,1,.12-.33c3.71-7.78,19-44.85,36.18-87.06a1.89,1.89,0,0,1,3.49,0c14.24,33,26.73,62.79,32.07,76.71a1.78,1.78,0,0,1,.09,1c-1.18,6.42-3.58,27.19,5.54,62.74,7.74,30.2,25.61,67.85,30.37,105.93a1.7,1.7,0,0,1,0,.39c0,.47-.07,1-.07,1.43,0,3.66-8.54,25.49-8.57,44.49,0,5.1,2.25,9,8,9l125,.2c1,0,13-12.55-5-12.55-13,0-13.61-1.25-16-2-60-19-69-26-69.46-39.09a17.55,17.55,0,0,0-.32-2.73,1.79,1.79,0,0,1,0-.23c-1.65-36.36-7.47-119.13-9.89-153.9-.52-7.58-.89-12.87-1-14.91q0-.62-.09-1.23a1.82,1.82,0,0,1,0-.33c.1-.92.17-1.85.2-2.8.26-8.64-27.79-218-31.44-245.33a1.11,1.11,0,0,1,0-.19c-.11-10.25-1.73-21.28-3.9-32.88-3-16-2.72-28-2-46,1-25,5-37.39,11-53,2.33-6.05,5.52-13.4,9.38-21.64a1.88,1.88,0,0,1,1.48-1.08l1.18-.16a1.88,1.88,0,0,0,1.42-1l36.68-67.56a1.89,1.89,0,0,0-.69-2.52l-3.6-2.16c-7.11-4.55-26.3-15-58.85-19.91-5.82-.87-13.13-1.49-20.56-1.93a1.87,1.87,0,0,0-1.85,1.15C201,85.17,197.74,88.23,192.5,91.5c-9,5.63-25.33,10.48-40,0-7-5-11-12-11-15,0-.14.07-.27.11-.4-10.42.42-21.78,1.15-30.11,2.4C86.32,82.28,64,89.38,56.27,94.52c-.86.57-9.33,7.12-8.77,8l45,57Z"/></g></g><g id="Poses_Bounding_Box" data-name="Poses Bounding Box"><rect class="cls-3" width="575" height="805"/></g></g></g></svg>