<svg xmlns="http://www.w3.org/2000/svg" viewBox="0 0 654 345"><defs><style>.cls-1{fill:#fdcc66;}.cls-1,.cls-2{stroke:#cd9933;stroke-miterlimit:10;}.cls-2,.cls-3{fill:none;}</style></defs><g id="Layer_2" data-name="Layer 2"><g id="Shoes"><g id="Sitting_Shoes" data-name="Sitting Shoes"><g id="shoe_6" data-name="shoe 6"><g id="gold"><path class="cls-1" d="M552,171.91V163a1.11,1.11,0,0,0-1.11-1.11h-3.78A1.11,1.11,0,0,0,546,163v8.89"/><path class="cls-1" d="M548,163c-.53-1.13-11.34-4.68-20.64-7.48-17-5.12-38.14-11.49-45.6-18.95l1.42-1.41c7.1,7.1,28.87,13.66,44.76,18.45,16.65,5,22,6.84,22,9.26l-2,.13Z"/><path class="cls-1" d="M489.87,158.06c-1.46,10.27-5.84,15.57-15.22,14.86-9-.67-8.07-11.33-4.07-20.88,3.27-7.81,13.08-19.65,17.46-24.3a1.28,1.28,0,0,1,2.21.74C490.94,134.75,491.17,148.94,489.87,158.06Z"/><path class="cls-1" d="M600.5,152.91s-7,19-34.08,19H429.5c-5,0-5,4,0,4H566.23c30.27,0,36.27-21,36.27-21A2,2,0,0,0,600.5,152.91Z"/><line class="cls-2" x1="464.5" y1="171.41" x2="464.5" y2="175.41"/><line class="cls-2" x1="467.5" y1="171.41" x2="467.5" y2="175.41"/><line class="cls-2" x1="470.5" y1="171.41" x2="470.5" y2="175.41"/><line class="cls-2" x1="473.5" y1="171.41" x2="473.5" y2="175.41"/><line class="cls-2" x1="476.5" y1="171.41" x2="476.5" y2="175.41"/><line class="cls-2" x1="479.5" y1="171.41" x2="479.5" y2="175.41"/><line class="cls-2" x1="482.5" y1="171.41" x2="482.5" y2="175.41"/><line class="cls-2" x1="485.5" y1="171.41" x2="485.5" y2="175.41"/><line class="cls-2" x1="538.5" y1="172.41" x2="538.5" y2="176.41"/><line class="cls-2" x1="541.5" y1="172.41" x2="541.5" y2="176.41"/><line class="cls-2" x1="544.5" y1="172.41" x2="544.5" y2="176.41"/><line class="cls-2" x1="547.5" y1="172.41" x2="547.5" y2="176.41"/><line class="cls-2" x1="550.5" y1="172.41" x2="550.5" y2="176.41"/><line class="cls-2" x1="553.5" y1="172.41" x2="553.5" y2="176.41"/><line class="cls-2" x1="556.5" y1="172.41" x2="556.5" y2="176.41"/><line class="cls-2" x1="559.5" y1="172.41" x2="559.5" y2="176.41"/></g></g></g><g id="Shoe_Bounding_Box" data-name="Shoe Bounding Box"><rect class="cls-3" width="654" height="345"/></g></g></g></svg>