<svg xmlns="http://www.w3.org/2000/svg" viewBox="0 0 654 345"><defs><style>.cls-1{fill:#fdcc66;}.cls-1,.cls-2{stroke:#cd9933;stroke-miterlimit:10;}.cls-2,.cls-3{fill:none;}</style></defs><g id="Layer_2" data-name="Layer 2"><g id="Shoes"><g id="Sitting_Shoes" data-name="Sitting Shoes"><g id="shoe_7" data-name="shoe 7"><path class="cls-1" d="M589.5,146.91s4,25-23.08,25H429.5c-5,0-5,4,0,4H566.23c30.27,0,25.27-27,25.27-27A2,2,0,0,0,589.5,146.91Z"/><line class="cls-2" x1="453.5" y1="171.91" x2="453.5" y2="175.91"/><line class="cls-2" x1="456.5" y1="171.91" x2="456.5" y2="175.91"/><line class="cls-2" x1="459.5" y1="171.91" x2="459.5" y2="175.91"/><line class="cls-2" x1="462.5" y1="171.91" x2="462.5" y2="175.91"/><line class="cls-2" x1="465.5" y1="171.91" x2="465.5" y2="175.91"/><line class="cls-2" x1="468.5" y1="171.91" x2="468.5" y2="175.91"/><line class="cls-2" x1="471.5" y1="171.91" x2="471.5" y2="175.91"/><line class="cls-2" x1="474.5" y1="171.91" x2="474.5" y2="175.91"/><line class="cls-2" x1="538.5" y1="172.41" x2="538.5" y2="176.41"/><line class="cls-2" x1="541.5" y1="172.41" x2="541.5" y2="176.41"/><line class="cls-2" x1="544.5" y1="172.41" x2="544.5" y2="176.41"/><line class="cls-2" x1="547.5" y1="172.41" x2="547.5" y2="176.41"/><line class="cls-2" x1="550.5" y1="172.41" x2="550.5" y2="176.41"/><line class="cls-2" x1="553.5" y1="172.41" x2="553.5" y2="176.41"/><line class="cls-2" x1="556.5" y1="172.41" x2="556.5" y2="176.41"/><line class="cls-2" x1="559.5" y1="172.41" x2="559.5" y2="176.41"/><path class="cls-1" d="M548,163c-.53-1.13-11.34-4.68-20.64-7.48-17-5.12-38.14-11.49-45.6-18.95l1.42-1.41c7.1,7.1,28.87,13.66,44.76,18.45,16.65,5,22,6.84,22,9.26l-2,.13Z"/><path class="cls-1" d="M459.5,162.91c0-7,1.06-18,4-23,2.65-4.54,12-13,19-9,6.78,3.87,3.86,15.3,0,20-2.51,3.05-13,8-17,13C464.55,165.1,459.5,164.43,459.5,162.91Z"/><path class="cls-2" d="M463,140.86c15.5,3,16.5-6,17.5-5s-8,7-2.72,18.67"/><path class="cls-2" d="M460,163.71c2.46-1.8,4.52-8.89,5-10.8,1-4.36,3.34-5.78,4.5-5,3,2-1.07,7.07-2,9-.67,1.38-3,6-2.73,7.42"/><path class="cls-2" d="M462.81,164.71a3.76,3.76,0,0,1,0-1,7.36,7.36,0,0,1-1.55,1.63m7.36-15.4a6.65,6.65,0,0,0-1.63,3.44s-.08.35-.23.9C467.36,153.2,468.72,150.88,468.58,149.92Z"/><polygon class="cls-1" points="464.5 171.91 464.5 164.41 460.5 163.91 460.5 171.91 464.5 171.91"/><line class="cls-2" x1="460.5" y1="165.91" x2="464.5" y2="165.91"/><line class="cls-2" x1="460.5" y1="167.91" x2="464.5" y2="167.91"/><line class="cls-2" x1="460.5" y1="169.91" x2="464.5" y2="169.91"/></g></g><g id="Shoe_Bounding_Box" data-name="Shoe Bounding Box"><rect class="cls-3" width="654" height="345"/></g></g></g></svg>