<svg xmlns="http://www.w3.org/2000/svg" xmlns:xlink="http://www.w3.org/1999/xlink" viewBox="0 0 654 345"><defs><style>.cls-1,.cls-2{fill:none;}.cls-2,.cls-4,.cls-5{stroke:#cd9933;stroke-miterlimit:10;}.cls-3{fill:#cd9933;}.cls-4{fill:#fdcc66;}.cls-5{fill:url(#New_Pattern_10);}</style><pattern id="New_Pattern_10" data-name="New Pattern 10" width="6.48" height="9.54" patternTransform="translate(6.83 63.22) rotate(-63.05)" patternUnits="userSpaceOnUse" viewBox="0 0 6.48 9.54"><rect class="cls-1" width="6.48" height="9.54"/><path class="cls-2" d="M10.57,14.66,8.93,18.52a.91.91,0,0,1-1.67,0L5.62,14.66a.88.88,0,0,1,0-.71l1.64-3.86a.91.91,0,0,1,1.67,0L10.57,14A.88.88,0,0,1,10.57,14.66Z"/><path class="cls-2" d="M7.33,9.89,5.69,13.75a.91.91,0,0,1-1.67,0L2.38,9.89a1,1,0,0,1,0-.71L4,5.32a.91.91,0,0,1,1.67,0L7.33,9.18A.88.88,0,0,1,7.33,9.89Z"/><circle class="cls-3" cx="4.86" cy="9.54" r="1"/><path class="cls-2" d="M4.1,14.66,2.45,18.52a.91.91,0,0,1-1.67,0L-.86,14.66a1,1,0,0,1,0-.71L.78,10.09a.91.91,0,0,1,1.67,0L4.1,14A1,1,0,0,1,4.1,14.66Z"/><path class="cls-2" d="M.86,9.89-.78,13.75a.91.91,0,0,1-1.67,0L-4.1,9.89a1,1,0,0,1,0-.71l1.65-3.86a.91.91,0,0,1,1.67,0L.86,9.18A1,1,0,0,1,.86,9.89Z"/><path class="cls-2" d="M10.57,5.12,8.93,9A.91.91,0,0,1,7.26,9L5.62,5.12a.88.88,0,0,1,0-.71L7.26.55a.91.91,0,0,1,1.67,0l1.64,3.86A.88.88,0,0,1,10.57,5.12Z"/><path class="cls-2" d="M7.33.35,5.69,4.22A.91.91,0,0,1,4,4.22L2.38.35a1,1,0,0,1,0-.71L4-4.22a.91.91,0,0,1,1.67,0L7.33-.36A.88.88,0,0,1,7.33.35Z"/><circle class="cls-3" cx="4.86" r="1"/><path class="cls-2" d="M4.1,5.12,2.45,9A.91.91,0,0,1,.78,9L-.86,5.12a1,1,0,0,1,0-.71L.78.55a.91.91,0,0,1,1.67,0L4.1,4.41A1,1,0,0,1,4.1,5.12Z"/><circle class="cls-3" cx="1.62" cy="4.77" r="1"/><path class="cls-2" d="M.86.35-.78,4.22a.91.91,0,0,1-1.67,0L-4.1.35a1,1,0,0,1,0-.71l1.65-3.86a.91.91,0,0,1,1.67,0L.86-.36A1,1,0,0,1,.86.35Z"/><path class="cls-2" d="M10.57-4.41,8.93-.55a.91.91,0,0,1-1.67,0L5.62-4.41a.88.88,0,0,1,0-.71L7.26-9A.91.91,0,0,1,8.93-9l1.64,3.87A.88.88,0,0,1,10.57-4.41Z"/><path class="cls-2" d="M4.1-4.41,2.45-.55a.91.91,0,0,1-1.67,0L-.86-4.41a1,1,0,0,1,0-.71L.78-9A.91.91,0,0,1,2.45-9L4.1-5.12A1,1,0,0,1,4.1-4.41Z"/></pattern></defs><g id="Layer_2" data-name="Layer 2"><g id="Shoes"><g id="Sitting_Shoes" data-name="Sitting Shoes"><g id="shoe_9" data-name="shoe 9"><g id="plain_gold_patterns" data-name="plain gold patterns"><path class="cls-4" d="M485.5,138.91s-23,5-22.21,33c0,.2,7.28.69,7.49,0,2.72-9,25.76-27.36,25.76-27.36Z"/><path class="cls-5" d="M485.5,138.91s-23,5-22.21,33c0,.2,7.28.69,7.49,0,2.72-9,25.76-27.36,25.76-27.36Z"/><path class="cls-4" d="M570.5,171.91h-143a2,2,0,0,0-2,2h0a2,2,0,0,0,2,2h143a2,2,0,0,0,2-2h0A2,2,0,0,0,570.5,171.91Z"/></g></g></g><g id="Shoe_Bounding_Box" data-name="Shoe Bounding Box"><rect class="cls-1" width="654" height="345"/></g></g></g></svg>