<svg xmlns="http://www.w3.org/2000/svg" viewBox="0 0 654 345"><defs><style>.cls-1{fill:#fdcc66;}.cls-1,.cls-2{stroke:#cd9933;stroke-miterlimit:10;}.cls-2,.cls-3{fill:none;}</style></defs><g id="Layer_2" data-name="Layer 2"><g id="Shoes"><g id="Sitting_Shoes" data-name="Sitting Shoes"><g id="shoe_4" data-name="shoe 4"><path class="cls-1" d="M548,163c-.53-1.13-11.34-4.68-20.64-7.48-17-5.12-41.89-17.65-47.6-19.95,0,0-1-.58-.29-2.7,2-6,6.94-1,8,0,6.29,5.8,25.3,16.17,40.47,20.74,16.65,5,22,6.84,22,9.26l-2,.13Z"/><path class="cls-1" d="M484.37,151.27c-4.18,5.13-14.49,11.41-18.34,8.27s.2-14.5,4.39-19.64,10.7-6.76,14.55-3.62S488.56,146.13,484.37,151.27Z"/><path class="cls-1" d="M467.77,159.38a2.34,2.34,0,0,1-1.48-.39c-2.28-1.86.43-11.61,4.68-16.83,2.25-2.76,5.42-4.48,8.26-4.48a5.44,5.44,0,0,1,3.48,1.15c2.94,2.4,2.54,8-.89,12.17C478.73,154.8,471.77,159.38,467.77,159.38Z"/><path class="cls-1" d="M455,171.91c3.5-4,7.95-18.64,12.5-15,5,4-8,11-8,15C459.5,173,454.26,172.75,455,171.91Z"/><path class="cls-2" d="M463.5,157.91a3.66,3.66,0,0,0,4,4"/><path class="cls-2" d="M461.53,160.36a3.66,3.66,0,0,0,4,4"/><path class="cls-2" d="M459.8,163.21a3.11,3.11,0,0,0,3.4,3.39"/><path class="cls-2" d="M458.39,166.09a2.63,2.63,0,0,0,2.87,2.88"/><path class="cls-1" d="M589.5,156.91s-7,16-23.08,15c-25.73-1.6-103.13,0-103.13,0H429.5c-5,0-5,4,0,4H566.23c18.27,0,25.27-17,25.27-17A2,2,0,0,0,589.5,156.91Z"/><line class="cls-2" x1="453.5" y1="171.91" x2="453.5" y2="175.91"/><line class="cls-2" x1="456.5" y1="171.91" x2="456.5" y2="175.91"/><line class="cls-2" x1="459.5" y1="171.91" x2="459.5" y2="175.91"/><line class="cls-2" x1="462.5" y1="171.91" x2="462.5" y2="175.91"/><line class="cls-2" x1="465.5" y1="171.91" x2="465.5" y2="175.91"/><line class="cls-2" x1="468.5" y1="171.91" x2="468.5" y2="175.91"/><line class="cls-2" x1="471.5" y1="171.91" x2="471.5" y2="175.91"/><line class="cls-2" x1="474.5" y1="171.91" x2="474.5" y2="175.91"/><line class="cls-2" x1="538.5" y1="172.41" x2="538.5" y2="176.41"/><line class="cls-2" x1="541.5" y1="172.41" x2="541.5" y2="176.41"/><line class="cls-2" x1="544.5" y1="172.41" x2="544.5" y2="176.41"/><line class="cls-2" x1="547.5" y1="172.41" x2="547.5" y2="176.41"/><line class="cls-2" x1="550.5" y1="172.41" x2="550.5" y2="176.41"/><line class="cls-2" x1="553.5" y1="172.41" x2="553.5" y2="176.41"/><line class="cls-2" x1="556.5" y1="172.41" x2="556.5" y2="176.41"/><line class="cls-2" x1="559.5" y1="172.41" x2="559.5" y2="176.41"/></g></g><g id="Shoe_Bounding_Box" data-name="Shoe Bounding Box"><rect class="cls-3" width="654" height="345"/></g></g></g></svg>