<svg xmlns="http://www.w3.org/2000/svg" viewBox="0 0 654 345"><defs><style>.cls-1,.cls-2,.cls-3{fill:#161616;}.cls-1{stroke:#0c0c0c;}.cls-1,.cls-2,.cls-3,.cls-4,.cls-5{stroke-miterlimit:10;}.cls-2{stroke:#000;}.cls-3,.cls-4,.cls-5{stroke:#cd9933;}.cls-4,.cls-6{fill:none;}.cls-5{fill:#fdcc66;}</style></defs><g id="Layer_2" data-name="Layer 2"><g id="Shoes"><g id="Sitting_Shoes" data-name="Sitting Shoes"><g id="shoe_2" data-name="shoe 2"><path class="cls-1" d="M498.5,126.91A112.69,112.69,0,0,1,501,105.76a.76.76,0,0,0-1.31-.67,66.3,66.3,0,0,0-9.8,14.27c-4.8,9.65-8.1,19.31-5.51,21.55C494.56,149.67,498.5,143.91,498.5,126.91Z"/><path class="cls-2" d="M492.18,142c-.57,0-2.26-.32-5.62-3.18-.43-1.51.81-7.56,6.05-18.1a56.81,56.81,0,0,1,3.92-6.66,94,94,0,0,0-1,12.88c0,5.62-.45,9.82-1.33,12.46-.58,1.72-1.25,2.6-2,2.6Z"/><path class="cls-1" d="M536.5,171.91s-1-10,5-12c0,0-53-16-54.82-21.85-.42-1.33-5.18-2.15-5.18-2.15-21,14-16,36-16,36Z"/><path class="cls-3" d="M465.5,171.91s-5-22,16-36l-3-2c-21,14-17,38-17,38Z"/><path class="cls-2" d="M492,120.61A172.9,172.9,0,0,0,493,100.27a.71.71,0,0,0-1.21-.5c-2.54,2.48-8.47,8.92-10.65,17-2.8,10.41-4,19.92-1.53,22.29C488.57,147.67,488.72,146.44,492,120.61Z"/><line class="cls-4" x1="513.06" y1="160.34" x2="517.25" y2="163.72"/><line class="cls-4" x1="493.94" y1="154.47" x2="489.16" y2="153.01"/><path class="cls-5" d="M513.06,160.34a16,16,0,0,1-19.12-5.87,16,16,0,0,1,19.12,5.87Z"/><path class="cls-3" d="M536.5,171.91s-1-10,5-12l1.62.54a.57.57,0,0,1,.13,1c-4.6,2.74-3.75,10.43-3.75,10.43"/><path class="cls-1" d="M584.5,163.91s-5,8-18.08,8H429.5c-5,0-5,4,0,4H566.23c16.27,0,20.27-10,20.27-10A2,2,0,0,0,584.5,163.91Z"/></g></g><g id="Shoe_Bounding_Box" data-name="Shoe Bounding Box"><rect class="cls-6" width="654" height="345"/></g></g></g></svg>