<svg xmlns="http://www.w3.org/2000/svg" viewBox="0 0 654 345"><defs><style>.cls-1{fill:#fefcf0;stroke:silver;stroke-miterlimit:10;}.cls-2{fill:none;}</style></defs><g id="Layer_2" data-name="Layer 2"><g id="Shoes"><g id="Sitting_Shoes" data-name="Sitting Shoes"><g id="shoe_1" data-name="shoe 1"><path class="cls-1" d="M459.5,171.91c9-19,3.67-20.23,8-26,3-4,9-7,14.29-9.3.74-.31,11.19,5.66,10.71,6.3-3,4-9,9-17,13-5.73,2.86-9-2-11,16C464.38,173,459,173,459.5,171.91Z"/><path class="cls-1" d="M548,163c-.53-1.13-11.34-4.68-20.64-7.48-17-5.12-38.14-11.49-45.6-18.95l1.42-1.41c7.1,7.1,28.87,13.66,44.76,18.45,16.65,5,22,6.84,22,9.26l-2,.13Z"/><path class="cls-1" d="M602.5,133.91s0,38-36.08,38H429.5c-5,0-5,4,0,4H566.23c39.27,0,38.27-40,38.27-40A2,2,0,0,0,602.5,133.91Z"/><line class="cls-1" x1="453.5" y1="171.91" x2="453.5" y2="175.91"/><line class="cls-1" x1="456.5" y1="171.91" x2="456.5" y2="175.91"/><line class="cls-1" x1="459.5" y1="171.91" x2="459.5" y2="175.91"/><line class="cls-1" x1="462.5" y1="171.91" x2="462.5" y2="175.91"/><line class="cls-1" x1="465.5" y1="171.91" x2="465.5" y2="175.91"/><line class="cls-1" x1="468.5" y1="171.91" x2="468.5" y2="175.91"/><line class="cls-1" x1="471.5" y1="171.91" x2="471.5" y2="175.91"/><line class="cls-1" x1="474.5" y1="171.91" x2="474.5" y2="175.91"/><line class="cls-1" x1="538.5" y1="172.41" x2="538.5" y2="176.41"/><line class="cls-1" x1="541.5" y1="172.41" x2="541.5" y2="176.41"/><line class="cls-1" x1="544.5" y1="172.41" x2="544.5" y2="176.41"/><line class="cls-1" x1="547.5" y1="172.41" x2="547.5" y2="176.41"/><line class="cls-1" x1="550.5" y1="172.41" x2="550.5" y2="176.41"/><line class="cls-1" x1="553.5" y1="172.41" x2="553.5" y2="176.41"/><line class="cls-1" x1="556.5" y1="172.41" x2="556.5" y2="176.41"/><line class="cls-1" x1="559.5" y1="172.41" x2="559.5" y2="176.41"/></g></g><g id="Shoe_Bounding_Box" data-name="Shoe Bounding Box"><rect class="cls-2" width="654" height="345"/></g></g></g></svg>