<svg xmlns="http://www.w3.org/2000/svg" viewBox="0 0 654 345"><defs><style>.cls-1{fill:#fdcc66;}.cls-1,.cls-2{stroke:#cd9933;stroke-miterlimit:10;}.cls-2,.cls-3{fill:none;}</style></defs><g id="Layer_2" data-name="Layer 2"><g id="Shoes"><g id="Sitting_Shoes" data-name="Sitting Shoes"><g id="shoe_8" data-name="shoe 8"><g id="gold"><path class="cls-1" d="M581.5,161.91s-7,10-15.08,10H429.5c-3.13,0-9-7-9-7-3-3-6-1-4,2,0,0,7,9,14,9H566.23c11.27,0,17.27-12,17.27-12A2,2,0,0,0,581.5,161.91Z"/><path class="cls-1" d="M529.46,156a1.38,1.38,0,0,1-1.76.85c-3-1-.13-.06-3.45-1.14-15.42-5-32.85-10.73-46.54-20.79a1.39,1.39,0,0,1-.27-2l.14-.18a1.39,1.39,0,0,1,1.92-.27c13.3,9.77,30.48,15.38,45.68,20.34,3.34,1.09.52.13,3.51,1.17a1.38,1.38,0,0,1,.85,1.77Z"/><path class="cls-1" d="M456.08,171.91s3.2-6.47,4.42-9c1.91-4,1-8,6-15,2.68-3.75,14-13.5,16-14.5.63-.32,2,1.29,2,2,0,2-6.15,14.79-9,18.5-2.72,3.54-7.15,5.56-10,9-1.31,1.58-6.28,9-6.28,9Z"/><path class="cls-2" d="M468.94,149.65c1.41-2,5.81-5.89,9.5-8.94a.48.48,0,0,1,.74.59,75.8,75.8,0,0,1-6.06,10.78,24.11,24.11,0,0,1-4.59,4.13c-1,.76-2,1.53-3,2.38a.32.32,0,0,1-.53-.32A30,30,0,0,1,468.94,149.65Z"/><polygon class="cls-1" points="526.5 153.41 517.5 171.91 513.5 171.91 523.5 152.41 526.5 153.41"/></g></g></g><g id="Shoe_Bounding_Box" data-name="Shoe Bounding Box"><rect class="cls-3" width="654" height="345"/></g></g></g></svg>