<svg xmlns="http://www.w3.org/2000/svg" viewBox="0 0 575 805"><defs><style>.cls-1{fill:#a74432;stroke:#000;stroke-miterlimit:10;}.cls-2{fill:none;}</style></defs><g id="Layer_2" data-name="Layer 2"><g id="Male_Poses" data-name="Male Poses"><g id="_9-Sitting_right_arm_extended_out" data-name="9-Sitting/right arm extended out"><g id="Hands_copy_7" data-name="Hands copy 7"><path class="cls-1" d="M240.66,245.55a15.78,15.78,0,0,1,3.09-.47c27.61-1.7,25.52-1,37.37.86,3.12.49,10.7,2.71,15.8,2.51,3.16-.13.05,6.08-1.1,6.91-2,1.46-4.94-.78-6.24,1-3,4.19-3.6,22.71-6.88,24.22-7.61,3.49-36.57-1.72-42.4-4.54"/><g id="Closed_Hand_copy_14" data-name="Closed Hand copy 14"><path class="cls-1" d="M512.88,98.22a15.33,15.33,0,0,1,3.44-1c27.26-4.69,25.25-3.8,37.24-3.22,3.16.16,10.94,1.53,16,.78,3.13-.47.71,6-.34,7-1.84,1.67-5-.24-6.09,1.71-2.52,4.49-1.11,23-4.2,24.82-7.38,4.42-38.15,2.16-43.08-.07"/><g id="Fingers_copy_14" data-name="Fingers copy 14"><path class="cls-1" d="M534.1,105.76h0c0-.86.75-3,1.62-3l26.74.44a1.56,1.56,0,0,1,1.54,1.59l0,2.87a1.56,1.56,0,0,1-1.58,1.54l-26.75-.43C534.76,108.78,534.09,106.62,534.1,105.76Z"/><path class="cls-1" d="M531,111.57h0c0-.86.75-3,1.61-3l28.93.47a1.57,1.57,0,0,1,1.54,1.59l-.05,2.88a1.56,1.56,0,0,1-1.59,1.53l-28.93-.46C531.67,114.58,531,112.43,531,111.57Z"/><path class="cls-1" d="M532.64,117.61h0c0-.86.75-3,1.61-3l26.39.43a1.56,1.56,0,0,1,1.54,1.59l0,2.88a1.58,1.58,0,0,1-1.59,1.54l-26.4-.43C533.29,120.63,532.62,118.47,532.64,117.61Z"/><path class="cls-1" d="M533.9,123.68c0-.86.75-3,1.61-3l24.53.4a1.57,1.57,0,0,1,1.54,1.59l-.05,2.88a1.56,1.56,0,0,1-1.59,1.53l-23.48-.38a2,2,0,0,1-1.69-.94,4.9,4.9,0,0,1-.87-2.1Z"/></g></g></g></g><g id="Poses_Bounding_Box" data-name="Poses Bounding Box"><rect class="cls-2" width="575" height="805"/></g></g></g></svg>