<svg xmlns="http://www.w3.org/2000/svg" viewBox="0 0 575 805"><defs><style>.cls-1{fill:#a74432;stroke:#000;stroke-miterlimit:10;}.cls-2{fill:none;}</style></defs><g id="Layer_2" data-name="Layer 2"><g id="Male_Poses" data-name="Male Poses"><g id="_7-Sitting_right_arm_raised" data-name="7-Sitting/right arm raised"><g id="Hands"><path class="cls-1" d="M240.84,245.5a15.92,15.92,0,0,1,2.91-.42c27.61-1.7,25.52-1,37.37.86,3.12.49,10.7,2.71,15.8,2.51,3.16-.13.05,6.08-1.1,6.91-2,1.46-4.94-.78-6.24,1-3,4.19-3.6,22.71-6.88,24.22-7.57,3.48-36.28-1.67-42.31-4.5"/><g id="Closed_Hand_copy_11" data-name="Closed Hand copy 11"><path class="cls-1" d="M473.06,105.18c1.93-2.5,4.49-3.88,8.3-4.37,27.44-3.52,25.4-2.71,37.35-1.62,3.14.29,10.86,2,15.93,1.46,3.14-.34.45,6.06-.64,7-1.91,1.59-5-.46-6.15,1.44-2.72,4.39-2.1,22.91-5.27,24.63-5.92,3.21-26,1.71-36.74-.26"/><g id="Fingers_copy_11" data-name="Fingers copy 11"><path class="cls-1" d="M498.76,110.08h0c.05-.86.88-3,1.74-2.91l26.71,1.58a1.56,1.56,0,0,1,1.47,1.65l-.17,2.87a1.57,1.57,0,0,1-1.66,1.47l-26.7-1.57C499.29,113.12,498.71,110.93,498.76,110.08Z"/><path class="cls-1" d="M495.43,115.75h0c.05-.86.88-3,1.74-2.91l28.88,1.71a1.56,1.56,0,0,1,1.47,1.65l-.17,2.87a1.56,1.56,0,0,1-1.65,1.47l-28.88-1.7C496,118.79,495.38,116.61,495.43,115.75Z"/><path class="cls-1" d="M496.79,121.85h0c0-.86.88-2.95,1.74-2.9l26.35,1.55a1.57,1.57,0,0,1,1.47,1.66l-.17,2.87a1.56,1.56,0,0,1-1.65,1.47l-26.35-1.56C497.32,124.89,496.74,122.71,496.79,121.85Z"/><path class="cls-1" d="M497.8,128c.05-.86.88-3,1.73-2.91L524,126.51a1.56,1.56,0,0,1,1.47,1.65l-.17,2.88a1.57,1.57,0,0,1-1.65,1.47l-23.45-1.39a2,2,0,0,1-1.65-1,4.74,4.74,0,0,1-.77-2.13Z"/></g></g></g></g><g id="Poses_Bounding_Box" data-name="Poses Bounding Box"><rect class="cls-2" width="575" height="805"/></g></g></g></svg>