<svg xmlns="http://www.w3.org/2000/svg" viewBox="0 0 575 805"><defs><style>.cls-1{fill:#a74432;stroke:#000;stroke-miterlimit:10;}.cls-2{fill:none;}</style></defs><g id="Layer_2" data-name="Layer 2"><g id="Male_Poses" data-name="Male Poses"><g id="_4-Standing_Arms_Crossed" data-name="4-Standing/Arms Crossed"><g id="Hands"><path class="cls-1" d="M231.79,181.86a15.86,15.86,0,0,0-1.46-1.69c-19.32-19.79-18.22-17.89-28.27-24.45-2.65-1.73-9.76-5.18-13.39-8.75-2.26-2.22-4.12,4.48-3.83,5.86.51,2.44,4.18,2.73,3.93,5-.6,5.12-12.58,19.25-11.17,22.57,3.39,7.91,29.63,24.13,34.94,25.22a18.13,18.13,0,0,0,3.75.36"/><path class="cls-1" d="M112.24,179.19a16.31,16.31,0,0,1,2.2-2.33c20.76-18.29,19.52-16.47,30-22.26,2.77-1.53,10.12-4.43,14-7.72,2.42-2,3.77,4.77,3.38,6.13-.69,2.39-4.38,2.41-4.29,4.65.21,5.15,11.1,20.14,9.44,23.34-4,7.63-31.35,21.84-36.73,22.53"/></g></g><g id="Poses_Bounding_Box" data-name="Poses Bounding Box"><rect class="cls-2" width="575" height="805"/></g></g></g></svg>