<svg xmlns="http://www.w3.org/2000/svg" viewBox="0 0 575 805"><defs><style>.cls-1{fill:#a74432;stroke:#000;stroke-miterlimit:10;}.cls-2{fill:none;}</style></defs><g id="Layer_2" data-name="Layer 2"><g id="Male_Poses" data-name="Male Poses"><g id="_5-Standing_Left_Cross_Right_Arm_extended_out" data-name="5-Standing/Left Cross / Right Arm extended out"><g id="Hands_copy_2" data-name="Hands copy 2"><path class="cls-1" d="M112.24,179.19a16.31,16.31,0,0,1,2.2-2.33c20.76-18.29,19.52-16.47,30-22.26,2.77-1.53,10.12-4.43,14-7.72,2.42-2,3.77,4.77,3.38,6.13-.69,2.39-4.38,2.41-4.29,4.65.21,5.15,11.1,20.14,9.44,23.34-4,7.63-31.35,21.84-36.73,22.53"/><g id="Closed_Hand_copy_15" data-name="Closed Hand copy 15"><path class="cls-1" d="M513.06,98.14a16.09,16.09,0,0,1,3.26-.89c27.26-4.69,25.25-3.8,37.24-3.22,3.16.16,10.94,1.53,16,.78,3.13-.47.71,6-.34,7-1.84,1.67-5-.24-6.09,1.71-2.52,4.49-1.11,23-4.2,24.82-7.38,4.42-38.15,2.16-43.08-.07"/><g id="Fingers_copy_15" data-name="Fingers copy 15"><path class="cls-1" d="M534.1,105.76h0c0-.86.75-3,1.62-3l26.74.44a1.56,1.56,0,0,1,1.54,1.59l0,2.87a1.56,1.56,0,0,1-1.58,1.54l-26.75-.43C534.76,108.78,534.09,106.62,534.1,105.76Z"/><path class="cls-1" d="M531,111.57h0c0-.86.75-3,1.61-3l28.93.47a1.57,1.57,0,0,1,1.54,1.59l-.05,2.88a1.56,1.56,0,0,1-1.59,1.53l-28.93-.46C531.67,114.58,531,112.43,531,111.57Z"/><path class="cls-1" d="M532.64,117.61h0c0-.86.75-3,1.61-3l26.39.43a1.56,1.56,0,0,1,1.54,1.59l0,2.88a1.58,1.58,0,0,1-1.59,1.54l-26.4-.43C533.29,120.63,532.62,118.47,532.64,117.61Z"/><path class="cls-1" d="M533.9,123.68c0-.86.75-3,1.61-3l24.53.4a1.57,1.57,0,0,1,1.54,1.59l-.05,2.88a1.56,1.56,0,0,1-1.59,1.53l-23.48-.38a2,2,0,0,1-1.69-.94,4.9,4.9,0,0,1-.87-2.1Z"/></g></g></g></g><g id="Poses_Bounding_Box" data-name="Poses Bounding Box"><rect class="cls-2" width="575" height="805"/></g></g></g></svg>