<svg xmlns="http://www.w3.org/2000/svg" viewBox="0 0 575 805"><defs><style>.cls-1{fill:#a74432;stroke:#000;stroke-miterlimit:10;}.cls-2{fill:none;}</style></defs><g id="Layer_2" data-name="Layer 2"><g id="Male_Poses" data-name="Male Poses"><g id="_3-Standing_Arms_Forward" data-name="3-Standing/ Arms Forward"><g id="Hands"><g id="Closed_Hand_copy_10" data-name="Closed Hand copy 10"><path class="cls-1" d="M445.45,188.24c2-4.09,4.75-6.28,9.63-7,27.32-4.28,25.3-3.41,37.28-2.65,3.16.2,10.91,1.69,16,1,3.13-.42.62,6.05-.45,7-1.87,1.64-5-.32-6.11,1.61-2.6,4.46-1.46,23-4.58,24.76-6,3.5-27.43,2.36-37.89.58"/><g id="Fingers_copy_10" data-name="Fingers copy 10"><path class="cls-1" d="M472.73,190h0c0-.86.8-3,1.66-2.95l26.73.83a1.59,1.59,0,0,1,1.52,1.62l-.09,2.87a1.58,1.58,0,0,1-1.61,1.52L474.2,193C473.34,193,472.7,190.84,472.73,190Z"/><path class="cls-1" d="M469.56,195.74h0c0-.86.79-3,1.65-3l28.92.9a1.59,1.59,0,0,1,1.52,1.62l-.09,2.87a1.59,1.59,0,0,1-1.62,1.52L471,198.79C470.17,198.76,469.53,196.6,469.56,195.74Z"/><path class="cls-1" d="M471.08,201.81h0c0-.86.8-3,1.66-3l26.39.83a1.56,1.56,0,0,1,1.51,1.61l-.09,2.88a1.56,1.56,0,0,1-1.61,1.51l-26.39-.82C471.69,204.83,471.06,202.67,471.08,201.81Z"/><path class="cls-1" d="M472.26,207.89c0-.86.79-3,1.65-2.95l24.52.77a1.57,1.57,0,0,1,1.52,1.61l-.09,2.88a1.57,1.57,0,0,1-1.62,1.51L474.76,211a2.07,2.07,0,0,1-1.67-1,4.89,4.89,0,0,1-.83-2.12Z"/></g></g><g id="Closed_Hand_copy_10-2" data-name="Closed Hand copy 10"><path class="cls-1" d="M252.45,239.06a15.64,15.64,0,0,1,3.31-.46c27.63-1.15,25.52-.52,37.34,1.59,3.11.56,10.65,2.93,15.75,2.82,3.16-.06-.08,6.08-1.24,6.89-2,1.43-4.92-.88-6.25.92-3.09,4.13-4.06,22.64-7.36,24.08-7.89,3.43-38.11-2.76-42.72-5.61"/></g></g></g><g id="Poses_Bounding_Box" data-name="Poses Bounding Box"><rect class="cls-2" width="575" height="805"/></g></g></g></svg>