<svg xmlns="http://www.w3.org/2000/svg" viewBox="0 0 575 805"><defs><style>.cls-1{fill:#a74432;stroke:#000;stroke-miterlimit:10;}.cls-2{fill:none;}</style></defs><g id="Layer_2" data-name="Layer 2"><g id="Male_Poses" data-name="Male Poses"><g id="_1-Standing_Right_arm_raised" data-name="1-Standing/ Right arm raised"><g id="Closed_Hand_copy_7" data-name="Closed Hand copy 7"><path class="cls-1" d="M72,369.79a15.08,15.08,0,0,1,1.26,4C78.14,401,77.23,399,76.75,411c-.13,3.16-1.44,10.95-.64,16,.49,3.12-6,.76-7-.28-1.69-1.83.2-5-1.76-6.07-4.52-2.5-23-.93-24.86-4C38,409.28,40,378.5,42.21,373.54a18.6,18.6,0,0,1,1.29-2.41"/></g><g id="Closed_Hand_copy_7-2" data-name="Closed Hand copy 7"><path class="cls-1" d="M356.05,352.56c22.66,11.48,20.84,11.23,29.87,18.63,2.45,2,7.88,7.75,12.38,10.14,2.79,1.49-3,5.28-4.44,5.42-2.48.24-3.86-3.17-5.91-2.26-4.71,2.11-14.57,17.79-18.16,17.44-8.56-.85-31.93-21-34.56-25.73a18.76,18.76,0,0,1-2.26-7.39"/><g id="Fingers_copy_7" data-name="Fingers copy 7"><path class="cls-1" d="M363.31,369h0c.52-.68,2.38-1.95,3.07-1.43l21.22,16.28a1.55,1.55,0,0,1,.29,2.19l-1.75,2.29a1.57,1.57,0,0,1-2.19.29l-21.23-16.28C362,371.83,362.78,369.7,363.31,369Z"/><path class="cls-1" d="M357.37,371.85h0c.52-.68,2.39-2,3.07-1.43l23,17.61a1.57,1.57,0,0,1,.29,2.19l-1.75,2.28a1.58,1.58,0,0,1-2.2.29l-23-17.61C356.1,374.66,356.85,372.53,357.37,371.85Z"/><path class="cls-1" d="M355.07,377.67h0c.53-.69,2.39-2,3.07-1.44l20.95,16.07a1.57,1.57,0,0,1,.29,2.19l-1.75,2.29a1.58,1.58,0,0,1-2.2.29L354.49,381C353.8,380.48,354.55,378.35,355.07,377.67Z"/><path class="cls-1" d="M352.47,383.29c.53-.68,2.39-2,3.07-1.43L375,396.79a1.57,1.57,0,0,1,.29,2.19l-1.76,2.29a1.57,1.57,0,0,1-2.19.29l-18.64-14.3a2,2,0,0,1-.79-1.76,4.91,4.91,0,0,1,.55-2.21Z"/></g></g></g><g id="Poses_Bounding_Box" data-name="Poses Bounding Box"><rect class="cls-2" width="575" height="805"/></g></g></g></svg>