<svg xmlns="http://www.w3.org/2000/svg" xmlns:xlink="http://www.w3.org/1999/xlink" viewBox="0 0 325 867"><defs><style>.cls-1{fill:none;}.cls-2{clip-path:url(#clip-path);}.cls-3{fill:#fdfd99;}</style><clipPath id="clip-path"><path class="cls-1" d="M294,407.79,105,158.66a1.4,1.4,0,0,0-1.52-.5c-4.26,1.26-13.77,3.24-29.68,2.26-10.19-.63-17-4.66-20.9-12.33l-.34-.66c-2.73-5.37-5.82-11.45-3.62-25.75,2.29-14.85,11-20.69,14.72-23.18l.24-.16c2.86-1.93,8.61-3.87,19.73-2.18,8.43,1.29,12.8,8.38,17.86,16.59a109.32,109.32,0,0,0,8.64,12.58c.31.37.61.8.93,1.26,1.33,1.91,2.29,3.29,5.67,2.63l1,4.9c-6.6,1.3-9.3-2.59-10.75-4.68-.23-.33-.45-.65-.67-.92a112.85,112.85,0,0,1-9-13.15C92.59,107.92,89,102,82.82,101.1c-10.39-1.58-14.78.44-16.18,1.39l-.25.16c-3.7,2.49-10.6,7.11-12.56,19.79S54.35,140,57,145.16l.34.67c3.09,6.11,8.26,9.07,16.75,9.6,15.14.94,24-.89,27.94-2.07a6.45,6.45,0,0,1,6.93,2.28L298,404.77Z"/></clipPath></defs><g id="Layer_2" data-name="Layer 2"><g id="Items_Left" data-name="Items Left"><g id="Item_Bounding_Box-pose4_6_copy" data-name="Item Bounding Box-pose4/6 copy"><rect class="cls-1" width="325" height="867" transform="translate(325 867) rotate(-180)"/><g id="Crook_experiment" data-name="Crook experiment"><g class="cls-2"><rect x="114.1" y="128.56" width="5" height="6" transform="translate(-34.84 220.83) rotate(-78.96)"/><rect class="cls-3" x="108.22" y="127.41" width="5" height="6" transform="translate(-38.48 214.12) rotate(-78.96)"/><rect x="105.34" y="123.47" width="5" height="6" transform="translate(-52.71 83.48) rotate(-34.56)"/><rect class="cls-3" x="101.94" y="118.53" width="5" height="6" transform="translate(-50.5 80.68) rotate(-34.56)"/><rect x="99.22" y="114.57" width="5" height="6" transform="translate(-48.74 78.43) rotate(-34.56)"/><rect class="cls-3" x="95.81" y="109.63" width="5" height="6" transform="translate(-46.54 75.63) rotate(-34.56)"/><rect x="93.07" y="105.69" width="5" height="6" transform="translate(-44.89 73.81) rotate(-34.73)"/><rect class="cls-3" x="89.65" y="100.76" width="5" height="6" transform="translate(-42.69 70.98) rotate(-34.73)"/><rect x="85.46" y="98.4" width="5" height="6" transform="translate(-43.91 126.48) rotate(-59.83)"/><rect class="cls-3" x="80.27" y="95.38" width="5" height="6" transform="translate(-43.88 120.5) rotate(-59.83)"/><rect x="75.4" y="95.53" width="5" height="6" transform="translate(-22.09 174.55) rotate(-88.91)"/><rect class="cls-3" x="69.4" y="95.42" width="5" height="6" transform="translate(-27.86 168.44) rotate(-88.91)"/><rect x="64.51" y="96.08" width="5" height="6" transform="translate(28.3 212.25) rotate(-127.05)"/><rect class="cls-3" x="59.72" y="99.69" width="5" height="6" transform="translate(17.74 214.22) rotate(-127.05)"/><rect x="56.35" y="103.06" width="5" height="6" transform="translate(38.63 225.66) rotate(-141.37)"/><rect class="cls-3" x="52.61" y="107.75" width="5" height="6" transform="translate(29.03 231.67) rotate(-141.37)"/><rect x="51.1" y="112.31" width="5" height="6" transform="translate(68.15 241.63) rotate(-161.64)"/><rect class="cls-3" x="49.21" y="118" width="5" height="6" transform="translate(62.67 252.13) rotate(-161.64)"/><rect x="48.86" y="122.74" width="5" height="6" transform="translate(102.72 251.49) rotate(180)"/><rect class="cls-3" x="48.86" y="128.74" width="5" height="6" transform="translate(102.72 263.49) rotate(180)"/><rect x="48.42" y="133.63" width="5" height="6" transform="translate(149.16 244.38) rotate(158.09)"/><rect class="cls-3" x="50.66" y="139.2" width="5" height="6" transform="translate(155.55 254.28) rotate(158.09)"/><rect x="52.34" y="143.72" width="5" height="6" transform="translate(197 212.49) rotate(135.32)"/><rect class="cls-3" x="56.56" y="147.99" width="5" height="6" transform="translate(207.22 216.82) rotate(135.32)"/><rect x="59.54" y="152.11" width="5" height="6" transform="translate(227.27 130.53) rotate(103.34)"/><rect class="cls-3" x="65.37" y="153.5" width="5" height="6" transform="translate(235.81 126.55) rotate(103.34)"/><rect x="70.01" y="154.94" width="5" height="6" transform="translate(229.4 83.19) rotate(89.18)"/><rect class="cls-3" x="76.01" y="154.86" width="5" height="6" transform="translate(235.23 77.11) rotate(89.18)"/><rect x="80.81" y="154.79" width="5" height="6" transform="translate(239.89 72.25) rotate(89.18)"/><rect class="cls-3" x="86.81" y="154.71" width="5" height="6" transform="translate(245.72 66.16) rotate(89.18)"/><rect x="91.58" y="154.38" width="5" height="6" transform="translate(231.36 35.84) rotate(79.35)"/><rect class="cls-3" x="97.48" y="153.27" width="5" height="6" transform="translate(235.08 29.14) rotate(79.35)"/><rect x="102.34" y="152.86" width="5" height="6" transform="matrix(-0.58, 0.81, -0.81, -0.58, 292.61, 160.97)"/><rect class="cls-3" x="107.23" y="156.34" width="5" height="6" transform="translate(303.16 162.5) rotate(125.49)"/><rect x="109.5" y="160.81" width="5" height="6" transform="translate(300.25 226.58) rotate(142.8)"/><rect class="cls-3" x="113.13" y="165.59" width="5" height="6" transform="translate(309.65 232.97) rotate(142.8)"/><rect x="116.03" y="169.41" width="5" height="6" transform="translate(317.18 238.09) rotate(142.8)"/><rect class="cls-3" x="119.66" y="174.19" width="5" height="6" transform="translate(326.59 244.48) rotate(142.8)"/><rect x="122.56" y="178.02" width="5" height="6" transform="translate(334.11 249.59) rotate(142.8)"/><rect class="cls-3" x="126.18" y="182.8" width="5" height="6" transform="translate(343.52 255.99) rotate(142.8)"/><rect x="129.09" y="186.62" width="5" height="6" transform="translate(351.04 261.1) rotate(142.8)"/><rect class="cls-3" x="132.71" y="191.4" width="5" height="6" transform="translate(360.45 267.49) rotate(142.8)"/><rect x="135.62" y="195.22" width="5" height="6" transform="translate(367.97 272.61) rotate(142.8)"/><rect class="cls-3" x="139.24" y="200" width="5" height="6" transform="translate(377.38 279) rotate(142.8)"/><rect x="142.15" y="203.82" width="5" height="6" transform="translate(384.91 284.12) rotate(142.8)"/><rect class="cls-3" x="145.77" y="208.6" width="5" height="6" transform="translate(394.31 290.51) rotate(142.8)"/><rect x="148.68" y="212.43" width="5" height="6" transform="translate(401.84 295.62) rotate(142.8)"/><rect class="cls-3" x="152.3" y="217.21" width="5" height="6" transform="translate(411.24 302.02) rotate(142.8)"/><rect x="155.21" y="221.03" width="5" height="6" transform="translate(418.77 307.13) rotate(142.8)"/><rect class="cls-3" x="158.83" y="225.81" width="5" height="6" transform="translate(428.18 313.52) rotate(142.8)"/><rect x="161.73" y="229.63" width="5" height="6" transform="translate(435.7 318.64) rotate(142.8)"/><rect class="cls-3" x="165.36" y="234.41" width="5" height="6" transform="translate(445.11 325.03) rotate(142.8)"/><rect x="168.26" y="238.23" width="5" height="6" transform="translate(452.63 330.15) rotate(142.8)"/><rect class="cls-3" x="171.89" y="243.01" width="5" height="6" transform="translate(462.04 336.54) rotate(142.8)"/><rect x="174.79" y="246.84" width="5" height="6" transform="translate(469.56 341.65) rotate(142.8)"/><rect class="cls-3" x="178.42" y="251.62" width="5" height="6" transform="translate(478.97 348.05) rotate(142.8)"/><rect x="181.32" y="255.44" width="5" height="6" transform="translate(486.5 353.16) rotate(142.8)"/><rect class="cls-3" x="184.95" y="260.22" width="5" height="6" transform="translate(495.9 359.55) rotate(142.8)"/><rect x="187.85" y="264.04" width="5" height="6" transform="translate(503.43 364.67) rotate(142.8)"/><rect class="cls-3" x="191.48" y="268.82" width="5" height="6" transform="translate(512.83 371.06) rotate(142.8)"/><rect x="194.38" y="272.65" width="5" height="6" transform="translate(520.36 376.17) rotate(142.8)"/><rect class="cls-3" x="198.01" y="277.42" width="5" height="6" transform="translate(529.77 382.57) rotate(142.8)"/><rect x="200.91" y="281.25" width="5" height="6" transform="translate(537.29 387.68) rotate(142.8)"/><rect class="cls-3" x="204.54" y="286.03" width="5" height="6" transform="translate(546.7 394.07) rotate(142.8)"/><rect x="207.44" y="289.85" width="5" height="6" transform="translate(554.22 399.19) rotate(142.8)"/><rect class="cls-3" x="211.07" y="294.63" width="5" height="6" transform="translate(563.63 405.58) rotate(142.8)"/><rect x="213.97" y="298.45" width="5" height="6" transform="translate(571.15 410.7) rotate(142.8)"/><rect class="cls-3" x="217.6" y="303.23" width="5" height="6" transform="translate(580.56 417.09) rotate(142.8)"/><rect x="220.5" y="307.06" width="5" height="6" transform="translate(588.09 422.2) rotate(142.8)"/><rect class="cls-3" x="224.13" y="311.83" width="5" height="6" transform="translate(597.49 428.6) rotate(142.8)"/><rect x="227.03" y="315.66" width="5" height="6" transform="translate(605.02 433.71) rotate(142.8)"/><rect class="cls-3" x="230.66" y="320.44" width="5" height="6" transform="translate(614.42 440.1) rotate(142.8)"/><rect x="233.56" y="324.26" width="5" height="6" transform="translate(621.95 445.22) rotate(142.8)"/><rect class="cls-3" x="237.19" y="329.04" width="5" height="6" transform="translate(631.36 451.61) rotate(142.8)"/><rect x="240.09" y="332.86" width="5" height="6" transform="translate(638.88 456.72) rotate(142.8)"/><rect class="cls-3" x="243.72" y="337.64" width="5" height="6" transform="translate(648.29 463.12) rotate(142.8)"/><rect x="246.62" y="341.47" width="5" height="6" transform="translate(655.81 468.23) rotate(142.8)"/><rect class="cls-3" x="250.25" y="346.25" width="5" height="6" transform="translate(665.22 474.62) rotate(142.8)"/><rect x="253.15" y="350.07" width="5" height="6" transform="translate(672.74 479.74) rotate(142.8)"/><rect class="cls-3" x="256.78" y="354.85" width="5" height="6" transform="translate(682.15 486.13) rotate(142.8)"/><rect x="259.68" y="358.67" width="5" height="6" transform="translate(689.68 491.25) rotate(142.8)"/><rect class="cls-3" x="263.31" y="363.45" width="5" height="6" transform="translate(699.08 497.64) rotate(142.8)"/><rect x="266.21" y="367.27" width="5" height="6" transform="translate(706.61 502.75) rotate(142.8)"/><rect class="cls-3" x="269.84" y="372.05" width="5" height="6" transform="translate(716.01 509.15) rotate(142.8)"/><rect x="272.74" y="375.88" width="5" height="6" transform="translate(723.54 514.26) rotate(142.8)"/><rect class="cls-3" x="276.37" y="380.66" width="5" height="6" transform="translate(732.95 520.65) rotate(142.8)"/><rect x="279.27" y="384.48" width="5" height="6" transform="translate(740.47 525.77) rotate(142.8)"/><rect class="cls-3" x="282.89" y="389.26" width="5" height="6" transform="translate(749.88 532.16) rotate(142.8)"/><rect x="285.8" y="393.08" width="5" height="6" transform="translate(757.4 537.27) rotate(142.8)"/><rect class="cls-3" x="289.42" y="397.86" width="5" height="6" transform="translate(766.81 543.67) rotate(142.8)"/><rect x="292.33" y="401.68" width="5" height="6" transform="translate(774.33 548.78) rotate(142.8)"/><rect class="cls-3" x="295.95" y="406.46" width="5" height="6" transform="translate(783.74 555.17) rotate(142.8)"/></g></g></g></g></g></svg>