<svg xmlns="http://www.w3.org/2000/svg" viewBox="0 0 325 867"><defs><style>.cls-1,.cls-3{fill:none;}.cls-2{fill:#7c001a;}.cls-2,.cls-3{stroke:#161616;stroke-miterlimit:10;}</style></defs><g id="Layer_2" data-name="Layer 2"><g id="Items_Left" data-name="Items Left"><g id="Item_Bounding_Box-pose4_6_copy" data-name="Item Bounding Box-pose4/6 copy"><rect class="cls-1" width="325" height="867" transform="translate(325 867) rotate(-180)"/><g id="Knife"><path id="knife-2" data-name="knife" class="cls-2" d="M212.56,308.2,196,304.28s8.61-3.88-6.35-36.52c-2.31-5-9.39-14.85-14.41-17.19-8.54-4-29.85-1.21-36.9-7.44C104.87,213.58,75,147.83,73.6,125.73c-.07-1,.7-1.78,1.39-1,0,0,34.55,54.48,84.56,95.55,8.92,7.33,27.19,23.72,33.42,34.25,2,3.42,3.68,11.91,6.33,15C208.51,280.23,212.56,308.2,212.56,308.2Z"/><path id="knife_line" data-name="knife line" class="cls-3" d="M181.6,256c-6-19.1-53.45-40-81-87.57"/></g></g></g></g></svg>