<svg xmlns="http://www.w3.org/2000/svg" viewBox="0 0 325 867"><defs><style>.cls-1{fill:none;}.cls-2{fill:#f4df9c;stroke:#000;stroke-miterlimit:10;}</style></defs><g id="Layer_2" data-name="Layer 2"><g id="Items_Left" data-name="Items Left"><g id="Item_Bounding_Box-pose4_6_copy" data-name="Item Bounding Box-pose4/6 copy"><rect class="cls-1" width="325" height="867" transform="translate(325 867) rotate(-180)"/><g id="Sekhem_Scepter_copy_6" data-name="Sekhem Scepter copy 6"><path id="sekhem_scepter_outline" data-name="sekhem scepter outline" class="cls-2" d="M222.26,324a.38.38,0,0,1-.6-.38c.34-1.4.37-3.89-1.77-7.35-.45-.72-1.72-2.91-2.41-4.1a6.15,6.15,0,0,1-.67-1.67h0a1.12,1.12,0,0,0-1.12-.83,1.39,1.39,0,0,1-1.1-.51l-3-3.63a1.93,1.93,0,0,1,.22-2.72l.4-.33-74.52-89.8a.66.66,0,0,0-.62-.23,6.89,6.89,0,0,1-2.45.1c-2.53-.49-6.77-4.48-10-5.94a32.55,32.55,0,0,0-9.48-1.21c-2.24.34-5.18.4-8.33,1.72-.86.36-2.16,1.8-3,2-.5.15-2-1.11-2.16-1.58a3.82,3.82,0,0,1,.91-2.48s-20.91-35.78-32.64-51.59c-7-9.48-30.75-38-41.68-50.13-2.36-2.6-9.72-10.12-9.72-10.12a2.77,2.77,0,0,1,.31-3.92l10.72-8.9L43.07,69.22a2.78,2.78,0,0,1,3.92.41s6,8.63,8.14,11.42C65,94,88.7,122.61,96.72,131.26c13.37,14.44,44.68,41.59,44.68,41.59a4,4,0,0,1,2.61-.43c.44.21,1.39,2,1.16,2.41-.38.76-2,1.77-2.55,2.55-1.88,2.85-2.48,5.73-3.23,7.86a33.26,33.26,0,0,0-.56,9.55c.84,3.47,4,8.37,4,10.94a7.32,7.32,0,0,1-.55,2.4.64.64,0,0,0,.11.65l74.52,89.8.39-.33a1.93,1.93,0,0,1,2.71.28l3,3.64a1.41,1.41,0,0,1,.3,1.17,1.09,1.09,0,0,0,.6,1.25h0a6.54,6.54,0,0,1,1.52,1c1,.9,3,2.56,3.59,3.13,3.13,2.85,5.65,3.2,7.06,3.09a.31.31,0,0,1,.22.55Z"/></g></g></g></g></svg>